<svg width="249" height="300" viewBox="0 0 249 300" fill="none" xmlns="http://www.w3.org/2000/svg">
<path d="M152.509 257.692C156.526 250.214 162.358 238.531 165.746 231.048C150.905 223.386 90.4565 190.333 67.8031 177.391C73.8491 167.532 83.749 151.155 88.4765 143.398C75.9051 134.555 44.1863 111.683 27.4014 100.675C30.4232 96.6018 34.1457 91.3988 37.08 87.3301C56.3865 99.813 99.2799 129.862 111.284 138.018C106.796 145.676 96.3987 163.657 90.8898 172.832C109.039 183.244 156.575 208.637 173.182 217.157C176.508 210.764 181.879 201.237 185.396 194.259C191.763 209.674 200.886 232.208 205.876 243.644C189.621 248.985 168.662 253.723 152.507 257.697L152.509 257.692Z" fill="#007C99" fill-opacity="0.5"/>
<path d="M62.8498 238.321L16.3652 238.574C14.2446 238.586 12.5159 236.877 12.5043 234.757L11.7598 98.3161C11.7483 96.1953 13.4563 94.4663 15.5769 94.4548L62.0615 94.2012C64.182 94.1897 65.9131 95.8979 65.9246 98.0187L66.6691 234.459C66.6806 236.58 64.968 238.309 62.8475 238.321H62.8498Z" fill="white"/>
<path d="M62.8499 238.321L60.0194 238.337L59.2334 94.2174L62.0639 94.2012C64.1845 94.1897 65.9155 95.8979 65.9271 98.0187L66.6716 234.459C66.6831 236.58 64.9705 238.309 62.8499 238.321Z" fill="url(#paint0_linear_3860_6026)"/>
<path d="M19.1957 238.559L16.3652 238.575C14.2446 238.586 12.5159 236.878 12.5043 234.757L11.7598 98.3169C11.7483 96.196 13.4563 94.4671 15.5769 94.4556L18.4074 94.4395L19.1934 238.559H19.1957Z" fill="url(#paint1_linear_3860_6026)"/>
<path d="M42.6646 234.183C42.7614 234.169 42.8075 234.068 42.8259 233.98C42.8259 233.98 42.8259 233.978 42.8236 233.976C42.8444 233.955 42.6784 216.327 42.6853 216.297C42.9688 216.327 43.2639 216.345 43.5773 216.343C44.7852 216.209 45.7072 215.914 46.4148 215.545C48.593 223.231 49.077 221.956 49.077 221.956L47.83 214.448C48.7059 213.434 48.7428 212.41 48.7428 212.41V212.394L52.6198 211.656C52.6475 211.652 52.6705 211.592 52.6705 211.522C52.6705 211.453 52.6475 211.393 52.6198 211.389L48.7359 210.693V210.676C48.7359 210.676 48.6852 209.653 47.8001 208.648L48.9641 201.126C48.9641 201.126 48.4662 199.858 46.3733 207.567C45.6611 207.202 44.7345 206.919 43.5266 206.799C43.2155 206.799 42.9181 206.822 42.6346 206.859C42.6277 206.815 42.6023 189.212 42.5816 189.175C42.5816 189.175 42.5816 189.173 42.5839 189.171C42.5701 189.12 42.5562 189.069 42.5194 189.028C41.9062 188.737 41.4084 191.294 40.6961 198.274C39.7326 196.582 37.0496 197.292 37.0727 199.268C37.045 201.038 39.3892 201.88 40.491 200.524C40.3135 202.594 40.1291 205.029 39.9424 207.889C38.5271 208.897 37.8587 210.372 37.7757 211.271L35.4592 211.283V210.972C36.508 210.96 36.4688 211.112 36.4457 210.013C36.4457 209.86 36.3213 209.738 36.1691 209.738L34.0255 209.75C33.6083 209.761 33.7881 210.365 33.7558 210.704C33.7558 210.856 33.8803 210.978 34.0324 210.978L34.8369 210.974L34.8438 212.265L34.0393 212.269C33.8872 212.269 33.765 212.394 33.765 212.546L33.7696 213.224C33.7696 213.376 33.8941 213.498 34.0462 213.498L36.1899 213.487C36.6071 213.475 36.4273 212.871 36.4596 212.532C36.448 212.115 35.8441 212.295 35.4661 212.262V211.951L37.8126 211.937C37.9739 212.896 38.5848 214.358 39.9862 215.333C40.2052 218.175 40.4126 220.594 40.6131 222.652C39.4952 221.308 37.1603 222.175 37.2087 223.945C37.2064 225.921 39.8963 226.601 40.8413 224.9C41.7241 233.157 42.3788 234.215 42.6692 234.183H42.6646Z" fill="white"/>
<path d="M35.0608 157.446L34.957 138.467C34.9939 136.558 37.7991 136.532 37.859 138.45L37.9627 157.43C37.9258 159.338 35.1207 159.364 35.0608 157.446Z" fill="url(#paint2_linear_3860_6026)"/>
<path d="M34.9225 132.027L34.752 100.727C34.7474 99.9246 35.3928 99.2722 36.1949 99.2676C36.997 99.263 37.6493 99.9085 37.6539 100.711L37.8245 132.011C37.7899 133.915 34.9825 133.95 34.9225 132.027Z" fill="url(#paint3_linear_3860_6026)"/>
<path d="M28.7012 179.362L28.2725 100.762C28.2679 99.9598 28.9133 99.3074 29.7154 99.3028C30.5175 99.2981 31.1698 99.9436 31.1745 100.746L31.6032 179.345C31.5755 181.229 28.7634 181.3 28.7012 179.362Z" fill="url(#paint4_linear_3860_6026)"/>
<path d="M31.8349 191.061L26.1348 191.092L26.3574 232.24L32.0575 232.209L31.8349 191.061Z" fill="white"/>
<path d="M44.522 109.438C43.8398 109.429 43.2589 109.353 42.9385 108.841C42.6896 108.401 42.7311 107.4 43.1414 107.112C43.3834 106.907 43.8098 106.799 44.4252 106.787L48.6779 106.741C48.6848 106.185 48.5973 105.06 48.8969 104.671C49.2127 104.143 50.4251 104.148 50.5749 104.874C50.7501 105.243 50.6556 110.07 50.6925 110.579C50.6948 111.01 50.6187 111.322 50.4666 111.513C50.0978 111.974 48.9153 111.916 48.7817 111.199C48.6503 110.84 48.7079 109.835 48.6918 109.413L44.5197 109.436L44.522 109.438Z" fill="url(#paint5_linear_3860_6026)"/>
<path d="M44.5543 115.72C43.955 115.722 43.5171 115.614 43.2382 115.393C42.6988 115.026 42.6804 113.79 43.169 113.394C43.4064 113.182 43.8305 113.074 44.446 113.071L49.321 113.044C50.7224 112.926 51.0152 114.445 50.462 115.349C50.2937 115.577 49.9526 115.692 49.4386 115.695L44.552 115.72H44.5543Z" fill="url(#paint6_linear_3860_6026)"/>
<path d="M48.5884 121.888C48.9272 121.893 49.1854 121.538 49.1716 121.206C49.0425 119.931 46.9841 119.703 46.0137 120.187C44.7806 120.705 44.6815 122.409 45.4997 123.324C45.7095 123.591 46.0322 123.956 46.0414 124.278C46.0598 124.592 45.7164 124.908 45.4214 124.903C44.9788 124.887 44.5593 124.64 44.1674 124.311C42.3995 122.911 42.3534 119.903 43.801 118.262C45.177 116.637 48.3395 116.648 49.7178 118.137C51.4328 119.7 51.2414 124.212 48.4501 124.484C47.4705 124.504 46.4148 123.732 46.4471 122.674C46.4425 122.102 46.7744 121.452 47.4198 121.471C47.6503 121.425 48.374 121.913 48.5861 121.89L48.5884 121.888Z" fill="url(#paint7_linear_3860_6026)"/>
<path d="M46.7054 131.569C46.6016 132.445 45.7327 133.169 44.7784 133.137C43.9901 133.1 43.4392 133.183 43.0635 132.639C42.833 132.129 42.7961 130.947 43.4092 130.619C44.0938 130.285 45.1818 130.67 45.7396 130.133C45.9931 129.852 45.8687 129.299 45.894 128.946L44.6148 128.953C43.5199 128.955 42.9137 128.612 42.8906 127.556C42.9045 126.528 43.4715 126.26 44.5202 126.244L49.3261 126.219C49.8102 126.216 50.1744 126.304 50.4164 126.484C50.9327 126.862 50.8497 127.888 50.5777 128.42C50.1237 129.153 48.819 128.782 48.1068 128.865C47.7426 128.865 47.6228 129.225 47.6274 129.559C47.6965 130.509 48.5263 130.315 49.6258 130.377C50.0245 130.375 50.3219 130.481 50.5155 130.696C50.9004 131.039 50.9166 132.473 50.5155 132.77C49.393 133.423 46.9059 132.948 46.7054 131.569Z" fill="url(#paint8_linear_3860_6026)"/>
<path d="M47.6341 139.205C47.6364 139.613 47.5741 139.899 47.4428 140.065C47.2307 140.372 46.4101 140.446 46.2142 140.026C45.9238 139.579 46.0759 137.813 46.0321 137.244L44.8105 137.25C44.7575 137.848 44.9672 140.238 44.6284 140.681C44.391 141.096 43.3952 141.04 43.1809 140.644C43.0333 140.425 42.9596 140.093 42.9573 139.648L42.9365 135.913C42.955 134.86 43.4874 134.609 44.5777 134.59L49.4412 134.563C50.3632 134.558 50.8265 134.994 50.8311 135.87L50.8518 139.604C50.8518 140.051 50.7873 140.383 50.649 140.602C50.4415 141.024 49.4343 141.049 49.1922 140.655C48.8281 140.245 49.0286 137.797 48.971 137.216L47.6226 137.223L47.6341 139.205Z" fill="url(#paint9_linear_3860_6026)"/>
<path d="M44.7277 147.21C44.0455 147.201 43.4646 147.125 43.1465 146.613C42.8976 146.173 42.9391 145.175 43.3494 144.884C43.5914 144.679 44.0178 144.571 44.6309 144.559L48.8836 144.513C48.8905 143.958 48.803 142.833 49.1026 142.443C49.4184 141.915 50.6308 141.918 50.7806 142.646C50.9581 143.015 50.8613 147.842 50.8982 148.352C50.9005 148.783 50.8244 149.094 50.6723 149.287C50.3035 149.746 49.121 149.691 48.9874 148.974C48.856 148.614 48.9136 147.609 48.8975 147.187L44.7254 147.21H44.7277Z" fill="url(#paint10_linear_3860_6026)"/>
<path d="M15.598 186.911C15.3214 186.378 15.7386 185.691 16.3448 185.703L17.3428 185.698C17.8061 185.696 18.1818 186.069 18.1841 186.53C18.1865 186.994 17.813 187.369 17.352 187.372C16.7989 187.342 15.8792 187.561 15.598 186.911ZM23.8498 186.867C23.5732 186.334 23.9904 185.647 24.5943 185.659L31.8481 185.62C32.9476 185.631 32.9591 187.268 31.8573 187.293L24.6035 187.332C24.2716 187.332 23.9858 187.143 23.8475 186.867H23.8498ZM38.3574 186.788C38.0808 186.256 38.498 185.569 39.1019 185.58L46.3556 185.541C47.4528 185.555 47.4666 187.19 46.3649 187.215L39.1111 187.254C38.7792 187.254 38.4933 187.065 38.355 186.788H38.3574ZM52.8649 186.71C52.5883 186.178 53.0055 185.491 53.6117 185.502L60.8655 185.463C61.965 185.474 61.9765 187.111 60.8747 187.136L53.6209 187.176C53.289 187.176 53.0032 186.987 52.8649 186.71Z" fill="url(#paint11_linear_3860_6026)"/>
<path d="M69.4077 153.207L2.8444 153.569C1.26549 153.578 -0.00917023 154.865 4.97039e-05 156.446L0.56477 260.023C0.57399 261.602 1.86017 262.877 3.44139 262.868L70.0047 262.506C76.7214 262.469 82.1381 256.994 82.1012 250.274L81.6379 165.305C81.601 158.588 76.1267 153.17 69.4077 153.207Z" fill="#9EE7FF"/>
<path d="M20.2425 204.45C20.1803 192.947 29.4855 183.537 40.9873 183.475C68.6679 184.47 68.873 223.906 41.2155 225.2C29.7137 225.262 20.3047 215.956 20.2425 204.45ZM22.2409 204.439C22.2985 214.84 30.8039 223.256 41.204 223.199C66.22 222.025 66.0195 186.368 40.9989 185.473C30.5988 185.531 22.1856 194.037 22.2409 204.439Z" fill="white"/>
<path d="M30.5759 204.393C30.5113 192.694 35.0867 183.505 40.9898 183.473C54.928 183.982 55.1424 224.543 41.218 225.198C35.3149 225.23 30.6427 216.092 30.5782 204.393H30.5759ZM32.5743 204.381C32.6296 214.605 36.5827 223.222 41.2041 223.199C45.8256 223.174 49.6842 214.515 49.6289 204.289C49.5735 194.065 45.6205 185.448 40.999 185.474C36.3775 185.499 32.519 194.157 32.5743 204.384V204.381Z" fill="white"/>
<path d="M20.2423 204.45C20.21 198.546 29.347 193.871 41.0447 193.809C68.7391 194.053 68.8474 214.318 41.16 214.865C29.4622 214.929 20.2745 210.353 20.2423 204.45ZM22.2407 204.438C22.266 209.06 30.9236 212.919 41.1485 212.864C66.1829 212.059 66.0953 196.337 41.0563 195.807C30.8337 195.863 22.2176 199.816 22.243 204.438H22.2407Z" fill="white"/>
<path d="M41.9837 184.729L39.9854 184.74L40.1989 224.205L42.1972 224.195L41.9837 184.729Z" fill="white"/>
<path d="M60.8201 203.363L21.3594 203.576L21.3702 205.575L60.8309 205.361L60.8201 203.363Z" fill="white"/>
<path d="M64.1242 234.33L18.2949 234.578L18.324 239.952L64.1533 239.704L64.1242 234.33Z" fill="white"/>
<path d="M74.6183 244.518L39.6338 244.707L39.6514 247.971L74.636 247.782L74.6183 244.518Z" fill="white"/>
<path d="M36.4197 244.723L7.91211 244.877L7.92977 248.141L36.4374 247.987L36.4197 244.723Z" fill="white"/>
<path d="M12.4492 172.615C12.4515 173.216 12.3432 173.647 12.1219 173.906C11.7485 174.415 10.4715 174.422 10.082 173.949C9.86534 173.717 9.7547 173.304 9.75239 172.707L9.72704 168C9.7086 167.124 10.2295 166.66 11.057 166.653L13.0439 166.642C15.3489 166.494 17.3911 168.677 15.9666 170.805C15.1737 171.861 13.7331 172.034 12.4492 171.99L12.4538 172.615H12.4492ZM13.8368 169.284C13.9014 168.299 13.3205 168.027 12.4239 168.076L12.4377 170.531C13.2168 170.575 13.9037 170.137 13.8368 169.286V169.284Z" fill="white"/>
<path d="M21.7844 172.541L19.9335 172.553V173.143C20.0165 174.18 18.9447 174.418 18.0896 174.169C17.428 173.828 17.4833 173.002 17.3934 172.269C17.3473 171.52 17.2782 170.202 17.4995 169.402C18.2417 165.881 23.1329 165.605 24.1194 169.125C24.4697 170.119 24.3568 172.177 24.2577 172.956C24.1171 173.784 23.9557 174.208 23.1329 174.229C21.8421 174.259 21.7406 173.606 21.7844 172.539V172.541ZM20.8486 168.42C19.5509 168.383 19.9958 170.135 19.9243 171.013L21.7752 171.004C21.6945 170.197 22.1187 168.353 20.8463 168.42H20.8486Z" fill="white"/>
<path d="M28.6002 166.48C29.7988 166.427 32.1476 167.132 31.7396 168.453C31.4676 168.815 31.1726 168.677 30.73 168.469C30.2299 168.227 29.4923 167.844 28.9298 167.861C28.3513 167.831 28.1116 168.301 28.3813 168.718C29.1995 169.562 31.0066 170.023 31.6682 170.927C31.901 171.222 32.0162 171.565 32.0185 171.95C32.0277 173.49 30.9951 174.265 28.9183 174.276C27.6644 174.276 26.2284 173.893 25.4631 172.9C25.122 172.455 25.3156 171.807 25.9264 171.828C26.422 171.773 28.8469 173.004 28.9967 172.056C28.9713 171.671 28.5956 171.561 28.2844 171.369C27.5399 170.927 26.5649 170.602 25.9679 169.933C24.3452 168.043 26.4243 166.33 28.5979 166.482L28.6002 166.48Z" fill="white"/>
<path d="M36.3429 166.439C37.5392 166.388 39.8903 167.089 39.4823 168.412C39.208 168.772 38.9152 168.636 38.4727 168.429C37.9725 168.189 37.2349 167.804 36.6725 167.82C36.0963 167.79 35.8542 168.26 36.1239 168.678C36.283 168.903 36.6725 169.129 36.926 169.27C37.6682 169.669 38.9798 170.293 39.4108 170.886C39.6436 171.183 39.7589 171.524 39.7612 171.909C39.7704 173.449 38.7378 174.224 36.661 174.235C35.4071 174.235 33.9711 173.853 33.2058 172.859C32.8647 172.414 33.0606 171.767 33.6691 171.785C34.1647 171.732 36.5895 172.961 36.737 172.013C36.714 171.628 36.3383 171.518 36.0248 171.326C35.2803 170.884 34.3076 170.559 33.7083 169.89C32.0879 168 34.1647 166.287 36.3383 166.439H36.3429Z" fill="white"/>
<path d="M43.6816 172.445C43.6839 173.047 43.5756 173.478 43.3543 173.736C42.9809 174.245 41.704 174.252 41.3144 173.78C41.0978 173.547 40.9871 173.134 40.9848 172.537L40.9595 167.83C40.941 166.954 41.4619 166.491 42.2894 166.484L44.2763 166.472C46.5813 166.322 48.6212 168.508 47.199 170.635C46.4061 171.691 44.9655 171.864 43.6816 171.82L43.6863 172.445H43.6816ZM45.0692 169.114C45.1338 168.13 44.5529 167.858 43.6563 167.906L43.6701 170.361C44.4492 170.407 45.1361 169.967 45.0692 169.116V169.114Z" fill="white"/>
<path d="M54.409 173.687C52.6596 174.561 50.0734 174.204 49.0477 172.394C48.1695 170.983 48.3792 168.535 49.5847 167.442C50.9285 166.013 53.8605 165.999 55.2227 167.412C56.9376 168.987 56.6656 172.654 54.409 173.687ZM52.4291 172.509C54.0287 172.403 53.948 168.132 52.4037 168.002C50.8732 168.196 50.8386 172.366 52.4291 172.509Z" fill="white"/>
<path d="M60.1697 172.354C60.1767 173.47 59.7433 174.03 58.8743 174.034C58.4364 174.037 58.1137 173.921 57.9086 173.689C57.7034 173.456 57.5974 173.041 57.5951 172.446L57.5697 167.739C57.5536 166.92 58.0445 166.409 58.8352 166.404C60.1144 166.441 62.4309 166.146 63.4013 167.022C64.6783 167.902 64.5653 170.145 62.9288 170.489C63.7194 170.535 64.4224 171.365 64.3902 172.211C64.3671 172.939 64.3694 173.53 63.8646 173.875C63.0832 174.205 61.7717 174.014 61.8616 172.916C61.8455 172.033 61.751 171.201 60.7806 171.259L60.1674 171.273L60.1744 172.354H60.1697ZM61.857 168.596C61.7948 167.651 61.0986 167.713 60.1444 167.667L60.1559 169.597C61.0733 169.553 61.8201 169.539 61.857 168.594V168.596Z" fill="white"/>
<path d="M69.9633 172.301C69.9541 172.961 69.8803 173.526 69.3871 173.832C68.9606 174.072 67.9949 174.033 67.7113 173.634C67.5131 173.401 67.4094 172.986 67.3979 172.391L67.3518 168.274C66.8147 168.267 65.7245 168.353 65.3487 168.062C64.837 167.758 64.8416 166.582 65.547 166.439C65.9042 166.266 70.5741 166.361 71.0674 166.326C71.4846 166.324 71.7866 166.398 71.9733 166.545C72.4181 166.903 72.3651 168.048 71.669 168.175C71.3209 168.302 70.3482 168.249 69.9403 168.263L69.961 172.301H69.9633Z" fill="white"/>
<path d="M79.9799 255.35L80.3142 262.116C80.4294 264.46 68.0009 266.98 52.5553 267.743C37.1096 268.506 24.4944 267.222 24.3791 264.875L24.0449 258.109L79.9799 255.35Z" fill="#AAAAAA"/>
<mask id="mask0_3860_6026" style="mask-type:luminance" maskUnits="userSpaceOnUse" x="24" y="255" width="57" height="13">
<path d="M79.9799 255.35L80.3142 262.116C80.4294 264.46 68.0009 266.98 52.5553 267.743C37.1096 268.506 24.4944 267.222 24.3791 264.875L24.0449 258.109L79.9799 255.35Z" fill="white"/>
</mask>
<g mask="url(#mask0_3860_6026)">
<path d="M79.2105 252.575L77.8867 252.641L78.6506 268.15L79.9744 268.085L79.2105 252.575Z" fill="#959595"/>
<path d="M75.7769 252.747L74.4531 252.812L75.217 268.322L76.5408 268.257L75.7769 252.747Z" fill="#959595"/>
<path d="M71.8589 252.939L70.5352 253.004L71.299 268.513L72.6228 268.448L71.8589 252.939Z" fill="#959595"/>
<path d="M66.9663 253.179L65.6426 253.244L66.4065 268.753L67.7302 268.688L66.9663 253.179Z" fill="#959595"/>
<path d="M61.5923 253.445L60.2686 253.51L61.0324 269.019L62.3562 268.954L61.5923 253.445Z" fill="#959595"/>
<path d="M55.7271 253.734L54.4033 253.799L55.1672 269.308L56.491 269.243L55.7271 253.734Z" fill="#959595"/>
<path d="M25.8228 255.206L24.499 255.271L25.2629 270.781L26.5867 270.716L25.8228 255.206Z" fill="#959595"/>
<path d="M29.2564 255.034L27.9326 255.1L28.6965 270.609L30.0202 270.544L29.2564 255.034Z" fill="#959595"/>
<path d="M33.1763 254.845L31.8525 254.91L32.6164 270.419L33.9402 270.354L33.1763 254.845Z" fill="#959595"/>
<path d="M38.0659 254.603L36.7422 254.668L37.5061 270.177L38.8298 270.112L38.0659 254.603Z" fill="#959595"/>
<path d="M43.4429 254.337L42.1191 254.402L42.883 269.912L44.2068 269.846L43.4429 254.337Z" fill="#959595"/>
<path d="M49.3033 254.048L47.9795 254.113L48.7434 269.623L50.0671 269.557L49.3033 254.048Z" fill="#959595"/>
</g>
<path d="M24.0383 257.982C24.1535 260.326 36.7687 261.61 52.2144 260.849C67.66 260.086 80.0885 257.569 79.9733 255.222C79.858 252.878 67.2429 251.594 51.7949 252.357C36.3492 253.12 23.9207 255.637 24.036 257.984L24.0383 257.982Z" fill="#959595"/>
<path d="M29.7522 257.254C29.8052 258.342 39.8042 258.734 52.0828 258.128C64.3615 257.521 74.2729 256.147 74.2199 255.059C74.1669 253.971 64.1679 253.579 51.8892 254.186C39.6106 254.792 29.6992 256.166 29.7522 257.254Z" fill="#AAAAAA"/>
<path d="M73.2887 255.679C70.4789 255.006 61.9735 254.836 51.9445 255.331C41.9156 255.827 33.4678 256.834 30.7387 257.78C30.1094 257.63 29.7614 257.452 29.7522 257.254C29.6992 256.166 39.6083 254.792 51.8892 254.186C64.1702 253.579 74.1669 253.971 74.2199 255.059C74.2291 255.258 73.9018 255.467 73.291 255.679H73.2887Z" fill="#959595"/>
<path d="M83.6551 247.506L83.9893 254.272C84.1046 256.616 71.6761 259.136 56.2304 259.899C40.7847 260.662 28.1695 259.378 28.052 257.031L27.7178 250.265L83.6528 247.506H83.6551Z" fill="#AAAAAA"/>
<mask id="mask1_3860_6026" style="mask-type:luminance" maskUnits="userSpaceOnUse" x="27" y="247" width="57" height="14">
<path d="M83.6551 247.506L83.9893 254.272C84.1046 256.616 71.6761 259.136 56.2304 259.899C40.7847 260.662 28.1695 259.378 28.052 257.031L27.7178 250.265L83.6528 247.506H83.6551Z" fill="white"/>
</mask>
<g mask="url(#mask1_3860_6026)">
<path d="M82.8843 244.734L81.5605 244.799L82.3244 260.308L83.6482 260.243L82.8843 244.734Z" fill="#959595"/>
<path d="M79.4536 244.902L78.1299 244.967L78.8938 260.476L80.2175 260.411L79.4536 244.902Z" fill="#959595"/>
<path d="M75.5327 245.095L74.209 245.16L74.9729 260.669L76.2966 260.604L75.5327 245.095Z" fill="#959595"/>
<path d="M70.6441 245.337L69.3203 245.402L70.0842 260.912L71.4079 260.846L70.6441 245.337Z" fill="#959595"/>
<path d="M65.2652 245.603L63.9414 245.668L64.7053 261.177L66.029 261.112L65.2652 245.603Z" fill="#959595"/>
<path d="M59.4038 245.89L58.0801 245.955L58.844 261.464L60.1677 261.399L59.4038 245.89Z" fill="#959595"/>
<path d="M29.4995 247.363L28.1758 247.428L28.9397 262.937L30.2634 262.872L29.4995 247.363Z" fill="#959595"/>
<path d="M32.9312 247.195L31.6074 247.26L32.3713 262.769L33.6951 262.704L32.9312 247.195Z" fill="#959595"/>
<path d="M36.8511 247.001L35.5273 247.066L36.2912 262.576L37.615 262.511L36.8511 247.001Z" fill="#959595"/>
<path d="M41.7408 246.761L40.417 246.826L41.1809 262.335L42.5046 262.27L41.7408 246.761Z" fill="#959595"/>
<path d="M47.1167 246.495L45.793 246.561L46.5568 262.07L47.8806 262.005L47.1167 246.495Z" fill="#959595"/>
<path d="M52.98 246.208L51.6562 246.273L52.4201 261.783L53.7439 261.718L52.98 246.208Z" fill="#959595"/>
</g>
<path d="M27.7129 250.141C27.8281 252.486 40.4433 253.77 55.8913 253.007C71.337 252.244 83.7655 249.726 83.6502 247.38C83.535 245.035 70.9198 243.751 55.4741 244.512C40.0284 245.275 27.5999 247.792 27.7152 250.139L27.7129 250.141Z" fill="#959595"/>
<path d="M33.425 249.41C33.478 250.498 43.477 250.89 55.7557 250.284C68.0343 249.678 77.9458 248.304 77.8927 247.216C77.8397 246.128 67.8407 245.736 55.5621 246.342C43.2834 246.948 33.372 248.322 33.425 249.41Z" fill="#AAAAAA"/>
<path d="M76.9635 247.836C74.1537 247.163 65.6483 246.992 55.6193 247.488C45.5904 247.983 37.1426 248.991 34.4135 249.936C33.7842 249.786 33.4362 249.608 33.427 249.41C33.374 248.322 43.2831 246.948 55.564 246.342C67.8427 245.736 77.8417 246.128 77.8947 247.216C77.9039 247.414 77.5766 247.624 76.9658 247.836H76.9635Z" fill="#959595"/>
<path d="M78.7319 240.041L79.0661 246.807C79.1814 249.151 66.7552 251.671 51.3072 252.434C35.8615 253.197 23.2463 251.913 23.1311 249.566L22.7969 242.8L78.7319 240.041Z" fill="#AAAAAA"/>
<mask id="mask2_3860_6026" style="mask-type:luminance" maskUnits="userSpaceOnUse" x="22" y="240" width="58" height="13">
<path d="M78.7319 240.041L79.0661 246.807C79.1814 249.151 66.7552 251.671 51.3072 252.434C35.8615 253.197 23.2463 251.913 23.1311 249.566L22.7969 242.8L78.7319 240.041Z" fill="white"/>
</mask>
<g mask="url(#mask2_3860_6026)">
<path d="M77.9615 237.267L76.6377 237.332L77.4016 252.841L78.7253 252.776L77.9615 237.267Z" fill="#959595"/>
<path d="M74.5308 237.435L73.207 237.5L73.9709 253.009L75.2947 252.944L74.5308 237.435Z" fill="#959595"/>
<path d="M70.6079 237.628L69.2842 237.693L70.0481 253.203L71.3718 253.137L70.6079 237.628Z" fill="#959595"/>
<path d="M65.7202 237.87L64.3965 237.936L65.1604 253.445L66.4841 253.38L65.7202 237.87Z" fill="#959595"/>
<path d="M60.3423 238.136L59.0186 238.201L59.7824 253.71L61.1062 253.645L60.3423 238.136Z" fill="#959595"/>
<path d="M54.481 238.423L53.1572 238.488L53.9211 253.998L55.2449 253.932L54.481 238.423Z" fill="#959595"/>
<path d="M24.5767 239.898L23.2529 239.963L24.0168 255.472L25.3406 255.407L24.5767 239.898Z" fill="#959595"/>
<path d="M28.0074 239.728L26.6836 239.793L27.4475 255.302L28.7712 255.237L28.0074 239.728Z" fill="#959595"/>
<path d="M31.9283 239.534L30.6045 239.6L31.3684 255.109L32.6921 255.044L31.9283 239.534Z" fill="#959595"/>
<path d="M36.8179 239.294L35.4941 239.359L36.258 254.869L37.5818 254.803L36.8179 239.294Z" fill="#959595"/>
<path d="M42.1939 239.027L40.8701 239.092L41.634 254.601L42.9577 254.536L42.1939 239.027Z" fill="#959595"/>
<path d="M48.0572 238.741L46.7334 238.807L47.4973 254.316L48.821 254.251L48.0572 238.741Z" fill="#959595"/>
</g>
<path d="M22.7899 242.673C22.9051 245.017 35.5203 246.301 50.966 245.538C66.4117 244.775 78.8401 242.258 78.7249 239.911C78.6096 237.564 65.9944 236.283 50.5488 237.044C35.1031 237.807 22.6746 240.324 22.7899 242.671V242.673Z" fill="#959595"/>
<path d="M28.5012 241.941C28.5542 243.03 38.5532 243.421 50.8319 242.815C63.1105 242.209 73.0219 240.835 72.9689 239.747C72.9159 238.659 62.9169 238.267 50.6382 238.873C38.3596 239.479 28.4482 240.853 28.5012 241.941Z" fill="#AAAAAA"/>
<path d="M72.0406 240.371C69.2309 239.698 60.7255 239.527 50.6965 240.023C40.6652 240.518 32.2197 241.523 29.4907 242.471C28.8614 242.321 28.5133 242.144 28.5041 241.945C28.4511 240.857 38.3602 239.483 50.6412 238.877C62.9198 238.271 72.9188 238.663 72.9718 239.751C72.9811 239.951 72.6537 240.159 72.0429 240.371H72.0406Z" fill="#959595"/>
<path d="M76.3807 232.344L76.7149 239.11C76.8301 241.454 64.4017 243.974 48.956 244.737C33.5103 245.5 20.8951 244.216 20.7776 241.869L20.4434 235.103L76.3784 232.344H76.3807Z" fill="#AAAAAA"/>
<mask id="mask3_3860_6026" style="mask-type:luminance" maskUnits="userSpaceOnUse" x="20" y="232" width="57" height="13">
<path d="M76.3807 232.344L76.7149 239.11C76.8301 241.454 64.4017 243.974 48.956 244.737C33.5103 245.5 20.8951 244.216 20.7776 241.869L20.4434 235.103L76.3784 232.344H76.3807Z" fill="white"/>
</mask>
<g mask="url(#mask3_3860_6026)">
<path d="M75.6109 229.572L74.2871 229.637L75.051 245.146L76.3747 245.081L75.6109 229.572Z" fill="#959595"/>
<path d="M72.1773 229.739L70.8535 229.805L71.6174 245.314L72.9411 245.249L72.1773 229.739Z" fill="#959595"/>
<path d="M68.2593 229.933L66.9355 229.998L67.6994 245.507L69.0232 245.442L68.2593 229.933Z" fill="#959595"/>
<path d="M63.3677 230.173L62.0439 230.238L62.8078 245.748L64.1316 245.682L63.3677 230.173Z" fill="#959595"/>
<path d="M57.9908 230.441L56.667 230.506L57.4309 246.015L58.7546 245.95L57.9908 230.441Z" fill="#959595"/>
<path d="M52.1275 230.726L50.8037 230.791L51.5676 246.3L52.8913 246.235L52.1275 230.726Z" fill="#959595"/>
<path d="M22.2232 232.2L20.8994 232.266L21.6633 247.775L22.987 247.71L22.2232 232.2Z" fill="#959595"/>
<path d="M25.6568 232.03L24.333 232.096L25.0969 247.605L26.4206 247.54L25.6568 232.03Z" fill="#959595"/>
<path d="M29.5747 231.839L28.251 231.904L29.0148 247.414L30.3386 247.348L29.5747 231.839Z" fill="#959595"/>
<path d="M34.4663 231.595L33.1426 231.66L33.9065 247.169L35.2302 247.104L34.4663 231.595Z" fill="#959595"/>
<path d="M39.8452 231.331L38.5215 231.396L39.2854 246.906L40.6091 246.841L39.8452 231.331Z" fill="#959595"/>
<path d="M45.7066 231.044L44.3828 231.109L45.1467 246.619L46.4704 246.553L45.7066 231.044Z" fill="#959595"/>
</g>
<path d="M20.4383 234.979C20.5535 237.324 33.1687 238.608 48.6167 237.845C64.0647 237.082 76.4909 234.564 76.3756 232.218C76.2604 229.873 63.6452 228.589 48.1972 229.35C32.7515 230.113 20.323 232.63 20.4383 234.977V234.979Z" fill="#959595"/>
<path d="M26.1496 234.248C26.2026 235.336 36.2017 235.728 48.4803 235.122C60.7589 234.516 70.6704 233.142 70.6173 232.054C70.5643 230.965 60.5653 230.574 48.2867 231.18C36.008 231.786 26.0966 233.16 26.1496 234.248Z" fill="#AAAAAA"/>
<path d="M69.6861 232.676C66.8764 232.002 58.371 231.832 48.342 232.327C38.3107 232.823 29.8653 233.831 27.1362 234.776C26.5069 234.626 26.1588 234.448 26.1496 234.25C26.0966 233.162 36.0057 231.788 48.2867 231.182C60.5653 230.575 70.5643 230.967 70.6173 232.055C70.6266 232.254 70.2993 232.463 69.6884 232.676H69.6861Z" fill="#959595"/>
<path d="M82.6752 224.328L83.0095 231.094C83.1247 233.438 70.6963 235.958 55.2506 236.721C39.8049 237.484 27.1897 236.2 27.0745 233.856L26.7402 227.09L82.6752 224.33V224.328Z" fill="#AAAAAA"/>
<mask id="mask4_3860_6026" style="mask-type:luminance" maskUnits="userSpaceOnUse" x="26" y="224" width="58" height="13">
<path d="M82.6752 224.328L83.0095 231.094C83.1247 233.438 70.6963 235.958 55.2506 236.721C39.8049 237.484 27.1897 236.2 27.0745 233.856L26.7402 227.09L82.6752 224.33V224.328Z" fill="white"/>
</mask>
<g mask="url(#mask4_3860_6026)">
<path d="M81.9058 221.554L80.582 221.619L81.3459 237.128L82.6697 237.063L81.9058 221.554Z" fill="#959595"/>
<path d="M78.4751 221.726L77.1514 221.791L77.9152 237.3L79.239 237.235L78.4751 221.726Z" fill="#959595"/>
<path d="M74.5523 221.917L73.2285 221.982L73.9924 237.492L75.3161 237.427L74.5523 221.917Z" fill="#959595"/>
<path d="M69.6626 222.157L68.3389 222.223L69.1027 237.732L70.4265 237.667L69.6626 222.157Z" fill="#959595"/>
<path d="M64.2867 222.423L62.9629 222.488L63.7268 237.998L65.0505 237.932L64.2867 222.423Z" fill="#959595"/>
<path d="M58.4253 222.712L57.1016 222.777L57.8654 238.287L59.1892 238.221L58.4253 222.712Z" fill="#959595"/>
<path d="M28.521 224.185L27.1973 224.25L27.9611 239.759L29.2849 239.694L28.521 224.185Z" fill="#959595"/>
<path d="M31.9517 224.015L30.6279 224.08L31.3918 239.589L32.7156 239.524L31.9517 224.015Z" fill="#959595"/>
<path d="M35.8726 223.823L34.5488 223.889L35.3127 239.398L36.6365 239.333L35.8726 223.823Z" fill="#959595"/>
<path d="M40.7622 223.583L39.4385 223.648L40.2023 239.158L41.5261 239.093L40.7622 223.583Z" fill="#959595"/>
<path d="M46.1382 223.318L44.8145 223.383L45.5783 238.892L46.9021 238.827L46.1382 223.318Z" fill="#959595"/>
<path d="M52.0015 223.029L50.6777 223.094L51.4416 238.603L52.7654 238.538L52.0015 223.029Z" fill="#959595"/>
</g>
<path d="M26.7336 226.96C26.8488 229.304 39.464 230.588 54.9097 229.825C70.3554 229.062 82.7838 226.545 82.6686 224.198C82.5533 221.852 69.9382 220.57 54.4902 221.331C39.0445 222.094 26.616 224.611 26.7313 226.958L26.7336 226.96Z" fill="#959595"/>
<path d="M32.4455 226.232C32.4985 227.321 42.4976 227.712 54.7762 227.106C67.0548 226.5 76.9663 225.126 76.9132 224.038C76.8602 222.95 66.8612 222.558 54.5826 223.164C42.3039 223.77 32.3925 225.144 32.4455 226.232Z" fill="#AAAAAA"/>
<path d="M75.982 224.658C73.1723 223.985 64.6669 223.814 54.6379 224.31C44.6089 224.806 36.1612 225.813 33.4321 226.758C32.8028 226.608 32.4547 226.431 32.4455 226.232C32.3925 225.144 42.3016 223.77 54.5826 223.164C66.8612 222.558 76.8602 222.95 76.9132 224.038C76.9225 224.236 76.5952 224.446 75.9843 224.658H75.982Z" fill="#959595"/>
<path d="M76.8992 216.9L77.2335 223.666C77.3487 226.011 64.9202 228.53 49.4745 229.293C34.0289 230.056 21.4137 228.772 21.2961 226.428L20.9619 219.662L76.8969 216.903L76.8992 216.9Z" fill="#AAAAAA"/>
<mask id="mask5_3860_6026" style="mask-type:luminance" maskUnits="userSpaceOnUse" x="20" y="216" width="58" height="14">
<path d="M76.8992 216.9L77.2335 223.666C77.3487 226.011 64.9202 228.53 49.4745 229.293C34.0289 230.056 21.4137 228.772 21.2961 226.428L20.9619 219.662L76.8969 216.903L76.8992 216.9Z" fill="white"/>
</mask>
<g mask="url(#mask5_3860_6026)">
<path d="M76.1314 214.128L74.8076 214.193L75.5715 229.703L76.8952 229.637L76.1314 214.128Z" fill="#959595"/>
<path d="M72.6958 214.294L71.3721 214.359L72.1359 229.869L73.4597 229.803L72.6958 214.294Z" fill="#959595"/>
<path d="M68.7779 214.489L67.4541 214.555L68.218 230.064L69.5417 229.999L68.7779 214.489Z" fill="#959595"/>
<path d="M63.8853 214.73L62.5615 214.795L63.3254 230.304L64.6492 230.239L63.8853 214.73Z" fill="#959595"/>
<path d="M58.5113 214.997L57.1875 215.062L57.9514 230.572L59.2751 230.507L58.5113 214.997Z" fill="#959595"/>
<path d="M52.6509 215.282L51.3271 215.348L52.091 230.857L53.4148 230.792L52.6509 215.282Z" fill="#959595"/>
<path d="M22.7417 216.759L21.418 216.824L22.1818 232.334L23.5056 232.268L22.7417 216.759Z" fill="#959595"/>
<path d="M26.1773 216.587L24.8535 216.652L25.6174 232.162L26.9411 232.096L26.1773 216.587Z" fill="#959595"/>
<path d="M30.0952 216.396L28.7715 216.461L29.5354 231.97L30.8591 231.905L30.0952 216.396Z" fill="#959595"/>
<path d="M34.9868 216.152L33.6631 216.217L34.427 231.726L35.7507 231.661L34.9868 216.152Z" fill="#959595"/>
<path d="M40.3638 215.888L39.04 215.953L39.8039 231.462L41.1277 231.397L40.3638 215.888Z" fill="#959595"/>
<path d="M46.2251 215.601L44.9014 215.666L45.6652 231.175L46.989 231.11L46.2251 215.601Z" fill="#959595"/>
</g>
<path d="M20.957 219.534C21.0723 221.879 33.6875 223.163 49.1354 222.402C64.5811 221.639 77.0096 219.122 76.8943 216.775C76.7791 214.431 64.1639 213.147 48.7182 213.91C33.2726 214.673 20.8441 217.19 20.9593 219.537L20.957 219.534Z" fill="#959595"/>
<path d="M26.6692 218.803C26.7222 219.891 36.7212 220.283 48.9998 219.676C61.2785 219.07 71.1899 217.696 71.1369 216.608C71.0839 215.52 61.0849 215.128 48.8062 215.735C36.5276 216.341 26.6161 217.715 26.6692 218.803Z" fill="#AAAAAA"/>
<path d="M70.2057 217.232C67.3959 216.559 58.8905 216.388 48.8615 216.884C38.8325 217.38 30.3848 218.387 27.6557 219.332C27.0264 219.182 26.6784 219.005 26.6692 218.807C26.6161 217.719 36.5253 216.345 48.8062 215.738C61.0849 215.132 71.0839 215.524 71.1369 216.612C71.1461 216.813 70.8188 217.02 70.208 217.232H70.2057Z" fill="#959595"/>
<path d="M81.3637 208.971L81.6979 215.737C81.8132 218.081 69.3847 220.601 53.939 221.364C38.4934 222.127 25.8782 220.843 25.7629 218.496L25.4287 211.73L81.3637 208.971Z" fill="#AAAAAA"/>
<mask id="mask6_3860_6026" style="mask-type:luminance" maskUnits="userSpaceOnUse" x="25" y="208" width="57" height="14">
<path d="M81.3637 208.971L81.6979 215.737C81.8132 218.081 69.3847 220.601 53.939 221.364C38.4934 222.127 25.8782 220.843 25.7629 218.496L25.4287 211.73L81.3637 208.971Z" fill="white"/>
</mask>
<g mask="url(#mask6_3860_6026)">
<path d="M80.5972 206.197L79.2734 206.262L80.0373 221.771L81.3611 221.706L80.5972 206.197Z" fill="#959595"/>
<path d="M77.1617 206.368L75.8379 206.434L76.6018 221.943L77.9255 221.878L77.1617 206.368Z" fill="#959595"/>
<path d="M73.2437 206.56L71.9199 206.625L72.6838 222.134L74.0076 222.069L73.2437 206.56Z" fill="#959595"/>
<path d="M68.3511 206.8L67.0273 206.865L67.7912 222.375L69.115 222.309L68.3511 206.8Z" fill="#959595"/>
<path d="M62.9771 207.066L61.6533 207.131L62.4172 222.64L63.741 222.575L62.9771 207.066Z" fill="#959595"/>
<path d="M57.1138 207.355L55.79 207.42L56.5539 222.929L57.8777 222.864L57.1138 207.355Z" fill="#959595"/>
<path d="M27.2075 208.827L25.8838 208.893L26.6477 224.402L27.9714 224.337L27.2075 208.827Z" fill="#959595"/>
<path d="M30.6431 208.655L29.3193 208.721L30.0832 224.23L31.407 224.165L30.6431 208.655Z" fill="#959595"/>
<path d="M34.5611 208.464L33.2373 208.529L34.0012 224.039L35.3249 223.973L34.5611 208.464Z" fill="#959595"/>
<path d="M39.4507 208.226L38.127 208.291L38.8908 223.8L40.2146 223.735L39.4507 208.226Z" fill="#959595"/>
<path d="M44.8296 207.958L43.5059 208.023L44.2697 223.533L45.5935 223.468L44.8296 207.958Z" fill="#959595"/>
<path d="M50.6909 207.671L49.3672 207.736L50.1311 223.246L51.4548 223.18L50.6909 207.671Z" fill="#959595"/>
</g>
<path d="M25.422 211.602C25.5373 213.947 38.1525 215.231 53.5982 214.468C69.0438 213.705 81.4723 211.187 81.3571 208.841C81.2418 206.496 68.6266 205.212 53.1786 205.973C37.733 206.736 25.3045 209.253 25.4197 211.6L25.422 211.602Z" fill="#959595"/>
<path d="M31.134 210.873C31.187 211.961 41.186 212.353 53.4647 211.747C65.7433 211.141 75.6547 209.767 75.6017 208.679C75.5487 207.59 65.5497 207.199 53.271 207.805C40.9924 208.411 31.081 209.785 31.134 210.873Z" fill="#AAAAAA"/>
<path d="M74.6705 209.299C71.8607 208.625 63.3554 208.455 53.3264 208.951C43.2974 209.446 34.8496 210.454 32.1205 211.399C31.4913 211.249 31.1432 211.071 31.134 210.873C31.081 209.785 40.9901 208.411 53.2711 207.805C65.5497 207.199 75.5487 207.59 75.6017 208.679C75.6109 208.879 75.2836 209.087 74.6728 209.299H74.6705Z" fill="#959595"/>
<path d="M54.9879 253.916L54.6629 260.682C54.5499 263.029 66.9807 265.532 82.4287 266.274C97.8767 267.017 110.49 265.719 110.602 263.372L110.927 256.606L54.9879 253.916Z" fill="#B9B9B9"/>
<mask id="mask7_3860_6026" style="mask-type:luminance" maskUnits="userSpaceOnUse" x="54" y="253" width="57" height="14">
<path d="M54.9879 253.916L54.6629 260.682C54.5499 263.029 66.9807 265.532 82.4287 266.274C97.8767 267.017 110.49 265.719 110.602 263.372L110.927 256.606L54.9879 253.916Z" fill="white"/>
</mask>
<g mask="url(#mask7_3860_6026)">
<path d="M55.7322 251.123L54.9873 266.633L56.3111 266.696L57.0561 251.186L55.7322 251.123Z" fill="#959595"/>
<path d="M59.1648 251.289L58.4199 266.799L59.7438 266.862L60.4887 251.352L59.1648 251.289Z" fill="#959595"/>
<path d="M63.0848 251.474L62.3398 266.984L63.6637 267.048L64.4086 251.538L63.0848 251.474Z" fill="#959595"/>
<path d="M67.9754 251.71L67.2305 267.221L68.5543 267.284L69.2992 251.774L67.9754 251.71Z" fill="#959595"/>
<path d="M73.3523 251.966L72.6074 267.477L73.9313 267.54L74.6762 252.03L73.3523 251.966Z" fill="#959595"/>
<path d="M79.2137 252.25L78.4688 267.76L79.7926 267.823L80.5375 252.313L79.2137 252.25Z" fill="#959595"/>
<path d="M109.12 253.687L108.375 269.197L109.699 269.261L110.444 253.751L109.12 253.687Z" fill="#959595"/>
<path d="M105.687 253.525L104.942 269.035L106.266 269.099L107.011 253.588L105.687 253.525Z" fill="#959595"/>
<path d="M101.767 253.335L101.022 268.846L102.346 268.909L103.091 253.399L101.767 253.335Z" fill="#959595"/>
<path d="M96.8768 253.099L96.1318 268.609L97.4557 268.673L98.2006 253.163L96.8768 253.099Z" fill="#959595"/>
<path d="M91.4998 252.841L90.7549 268.352L92.0787 268.415L92.8236 252.905L91.4998 252.841Z" fill="#959595"/>
<path d="M85.6365 252.56L84.8916 268.07L86.2154 268.134L86.9604 252.624L85.6365 252.56Z" fill="#959595"/>
</g>
<path d="M110.933 256.481C110.82 258.828 98.2068 260.126 82.7588 259.383C67.3108 258.641 54.88 256.138 54.993 253.791C55.1059 251.446 67.7188 250.146 83.1668 250.888C98.6147 251.631 111.046 254.134 110.933 256.481Z" fill="#959595"/>
<path d="M105.22 255.758C105.167 256.846 95.1705 257.249 82.8896 256.659C70.6086 256.069 60.6972 254.706 60.7502 253.618C60.8032 252.53 70.7999 252.127 83.0809 252.717C95.3618 253.307 105.273 254.669 105.22 255.758Z" fill="#AAAAAA"/>
<path d="M61.682 254.239C64.4918 253.563 72.9949 253.381 83.0262 253.863C93.0574 254.345 101.505 255.343 104.237 256.283C104.866 256.131 105.212 255.956 105.223 255.756C105.276 254.667 95.3624 253.305 83.0838 252.715C70.8028 252.125 60.8061 252.528 60.7531 253.616C60.7439 253.815 61.0712 254.024 61.6843 254.236L61.682 254.239Z" fill="#959595"/>
<path d="M51.3043 246.08L50.9793 252.846C50.8663 255.19 63.2971 257.694 78.7451 258.438C94.1931 259.181 106.806 257.883 106.919 255.536L107.244 248.77L51.3043 246.08Z" fill="#B9B9B9"/>
<mask id="mask8_3860_6026" style="mask-type:luminance" maskUnits="userSpaceOnUse" x="50" y="246" width="58" height="13">
<path d="M51.3043 246.08L50.9793 252.846C50.8663 255.19 63.2971 257.694 78.7451 258.438C94.1931 259.181 106.806 257.883 106.919 255.536L107.244 248.77L51.3043 246.08Z" fill="white"/>
</mask>
<g mask="url(#mask8_3860_6026)">
<path d="M52.0486 243.285L51.3037 258.795L52.6275 258.859L53.3725 243.348L52.0486 243.285Z" fill="#959595"/>
<path d="M55.4813 243.449L54.7363 258.959L56.0602 259.023L56.8051 243.512L55.4813 243.449Z" fill="#959595"/>
<path d="M59.4012 243.638L58.6562 259.148L59.9801 259.212L60.725 243.702L59.4012 243.638Z" fill="#959595"/>
<path d="M64.2918 243.873L63.5469 259.383L64.8707 259.446L65.6156 243.936L64.2918 243.873Z" fill="#959595"/>
<path d="M69.6688 244.13L68.9238 259.641L70.2477 259.704L70.9926 244.194L69.6688 244.13Z" fill="#959595"/>
<path d="M75.532 244.414L74.7871 259.924L76.1109 259.987L76.8559 244.477L75.532 244.414Z" fill="#959595"/>
<path d="M105.436 245.853L104.691 261.363L106.015 261.427L106.76 245.917L105.436 245.853Z" fill="#959595"/>
<path d="M102.004 245.689L101.259 261.199L102.583 261.263L103.328 245.753L102.004 245.689Z" fill="#959595"/>
<path d="M98.0838 245.498L97.3389 261.008L98.6627 261.071L99.4076 245.561L98.0838 245.498Z" fill="#959595"/>
<path d="M93.1941 245.263L92.4492 260.773L93.7731 260.837L94.518 245.327L93.1941 245.263Z" fill="#959595"/>
<path d="M87.8162 245.005L87.0713 260.516L88.3951 260.579L89.1401 245.069L87.8162 245.005Z" fill="#959595"/>
<path d="M81.9549 244.722L81.21 260.232L82.5338 260.296L83.2787 244.786L81.9549 244.722Z" fill="#959595"/>
</g>
<path d="M107.249 248.643C107.136 250.988 94.5232 252.288 79.0752 251.546C63.6272 250.803 51.1964 248.3 51.3094 245.953C51.4223 243.606 64.0352 242.308 79.4832 243.051C94.9311 243.793 107.362 246.297 107.249 248.643Z" fill="#959595"/>
<path d="M101.537 247.922C101.484 249.01 91.4869 249.413 79.206 248.823C66.925 248.233 57.0136 246.87 57.0666 245.782C57.1196 244.694 67.1163 244.291 79.3973 244.881C91.6782 245.471 101.59 246.834 101.537 247.922Z" fill="#AAAAAA"/>
<path d="M57.9984 246.401C60.8082 245.725 69.3113 245.543 79.3426 246.025C89.3739 246.507 97.8216 247.505 100.553 248.446C101.182 248.293 101.528 248.118 101.54 247.918C101.593 246.83 91.6788 245.467 79.4002 244.877C67.1216 244.287 57.1225 244.69 57.0695 245.778C57.0603 245.979 57.3876 246.186 58.0007 246.399L57.9984 246.401Z" fill="#959595"/>
<path d="M56.2183 238.605L55.8933 245.371C55.7804 247.718 68.2112 250.222 83.6592 250.964C99.1072 251.706 111.72 250.408 111.833 248.062L112.158 241.296L56.2183 238.605Z" fill="#B9B9B9"/>
<mask id="mask9_3860_6026" style="mask-type:luminance" maskUnits="userSpaceOnUse" x="55" y="238" width="58" height="14">
<path d="M56.2183 238.605L55.8933 245.371C55.7804 247.718 68.2112 250.222 83.6592 250.964C99.1072 251.706 111.72 250.408 111.833 248.062L112.158 241.296L56.2183 238.605Z" fill="white"/>
</mask>
<g mask="url(#mask9_3860_6026)">
<path d="M56.9627 235.812L56.2178 251.322L57.5416 251.386L58.2865 235.876L56.9627 235.812Z" fill="#959595"/>
<path d="M60.3953 235.976L59.6504 251.486L60.9742 251.55L61.7192 236.04L60.3953 235.976Z" fill="#959595"/>
<path d="M64.3152 236.166L63.5703 251.676L64.8942 251.739L65.6391 236.229L64.3152 236.166Z" fill="#959595"/>
<path d="M69.2059 236.4L68.4609 251.91L69.7848 251.974L70.5297 236.463L69.2059 236.4Z" fill="#959595"/>
<path d="M74.5828 236.658L73.8379 252.168L75.1617 252.232L75.9067 236.721L74.5828 236.658Z" fill="#959595"/>
<path d="M80.4441 236.941L79.6992 252.451L81.0231 252.515L81.768 237.005L80.4441 236.941Z" fill="#959595"/>
<path d="M110.348 238.38L109.604 253.891L110.927 253.954L111.672 238.444L110.348 238.38Z" fill="#959595"/>
<path d="M106.918 238.216L106.173 253.727L107.497 253.79L108.242 238.28L106.918 238.216Z" fill="#959595"/>
<path d="M102.998 238.025L102.253 253.535L103.577 253.599L104.322 238.089L102.998 238.025Z" fill="#959595"/>
<path d="M98.1072 237.791L97.3623 253.301L98.6861 253.364L99.4311 237.854L98.1072 237.791Z" fill="#959595"/>
<path d="M92.7303 237.533L91.9854 253.043L93.3092 253.107L94.0541 237.596L92.7303 237.533Z" fill="#959595"/>
<path d="M86.867 237.25L86.1221 252.76L87.4459 252.823L88.1908 237.313L86.867 237.25Z" fill="#959595"/>
</g>
<path d="M112.165 241.17C112.052 243.515 99.4392 244.815 83.9912 244.073C68.5432 243.33 56.1124 240.827 56.2254 238.48C56.3383 236.136 68.9512 234.836 84.3992 235.578C99.8472 236.32 112.278 238.824 112.165 241.17Z" fill="#959595"/>
<path d="M106.45 240.447C106.397 241.535 96.4006 241.938 84.122 241.348C71.841 240.758 61.9296 239.396 61.9826 238.308C62.0356 237.22 72.0324 236.816 84.3133 237.406C96.5942 237.997 106.506 239.359 106.453 240.447H106.45Z" fill="#AAAAAA"/>
<path d="M62.9125 238.928C65.7223 238.253 74.2254 238.071 84.2566 238.552C94.2879 239.034 102.736 240.032 105.467 240.973C106.096 240.821 106.442 240.646 106.454 240.445C106.507 239.357 96.5929 237.995 84.3143 237.404C72.0333 236.814 62.0366 237.218 61.9836 238.306C61.9744 238.506 62.3017 238.714 62.9148 238.926L62.9125 238.928Z" fill="#959595"/>
<path d="M58.5601 230.91L58.2351 237.676C58.1222 240.023 70.553 242.526 86.001 243.269C101.449 244.011 114.062 242.713 114.175 240.366L114.5 233.6L58.5601 230.91Z" fill="#B9B9B9"/>
<mask id="mask10_3860_6026" style="mask-type:luminance" maskUnits="userSpaceOnUse" x="58" y="230" width="57" height="14">
<path d="M58.5601 230.91L58.2351 237.676C58.1222 240.023 70.553 242.526 86.001 243.269C101.449 244.011 114.062 242.713 114.175 240.366L114.5 233.6L58.5601 230.91Z" fill="white"/>
</mask>
<g mask="url(#mask10_3860_6026)">
<path d="M59.3064 228.117L58.5615 243.627L59.8854 243.691L60.6303 228.18L59.3064 228.117Z" fill="#959595"/>
<path d="M62.7391 228.281L61.9941 243.791L63.318 243.855L64.0629 228.344L62.7391 228.281Z" fill="#959595"/>
<path d="M66.657 228.47L65.9121 243.98L67.236 244.044L67.9809 228.534L66.657 228.47Z" fill="#959595"/>
<path d="M71.5477 228.705L70.8027 244.215L72.1266 244.278L72.8715 228.768L71.5477 228.705Z" fill="#959595"/>
<path d="M76.9266 228.962L76.1816 244.473L77.5055 244.536L78.2504 229.026L76.9266 228.962Z" fill="#959595"/>
<path d="M82.7879 229.246L82.043 244.756L83.3668 244.819L84.1117 229.309L82.7879 229.246Z" fill="#959595"/>
<path d="M112.692 230.685L111.947 246.195L113.271 246.259L114.016 230.749L112.692 230.685Z" fill="#959595"/>
<path d="M109.26 230.517L108.515 246.027L109.838 246.091L110.583 230.581L109.26 230.517Z" fill="#959595"/>
<path d="M105.342 230.33L104.597 245.84L105.921 245.903L106.665 230.393L105.342 230.33Z" fill="#959595"/>
<path d="M100.451 230.095L99.7061 245.605L101.03 245.669L101.775 230.159L100.451 230.095Z" fill="#959595"/>
<path d="M95.0721 229.835L94.3271 245.346L95.651 245.409L96.3959 229.899L95.0721 229.835Z" fill="#959595"/>
<path d="M89.2107 229.554L88.4658 245.064L89.7897 245.128L90.5346 229.618L89.2107 229.554Z" fill="#959595"/>
</g>
<path d="M114.507 233.473C114.394 235.818 101.781 237.118 86.333 236.375C70.885 235.633 58.4542 233.13 58.5672 230.783C58.6801 228.438 71.293 227.138 86.741 227.881C102.189 228.623 114.62 231.126 114.507 233.473Z" fill="#959595"/>
<path d="M108.793 232.752C108.739 233.84 98.7428 234.243 86.4618 233.653C74.1809 233.063 64.2695 231.7 64.3225 230.612C64.3755 229.524 74.3722 229.121 86.6531 229.711C98.9341 230.301 108.846 231.664 108.793 232.752Z" fill="#AAAAAA"/>
<path d="M65.2543 231.233C68.0641 230.557 76.5671 230.375 86.5984 230.857C96.6297 231.339 105.077 232.337 107.809 233.278C108.438 233.125 108.784 232.95 108.795 232.75C108.848 231.662 98.9347 230.299 86.6561 229.709C74.3751 229.119 64.3784 229.522 64.3254 230.61C64.3162 230.811 64.6435 231.018 65.2566 231.231L65.2543 231.233Z" fill="#959595"/>
<path d="M52.2564 222.898L51.9314 229.664C51.8185 232.009 64.2493 234.512 79.6972 235.257C95.1452 235.999 107.758 234.701 107.871 232.355L108.196 225.589L52.2564 222.898Z" fill="#B9B9B9"/>
<mask id="mask11_3860_6026" style="mask-type:luminance" maskUnits="userSpaceOnUse" x="51" y="222" width="58" height="14">
<path d="M52.2564 222.898L51.9314 229.664C51.8185 232.009 64.2493 234.512 79.6972 235.257C95.1452 235.999 107.758 234.701 107.871 232.355L108.196 225.589L52.2564 222.898Z" fill="white"/>
</mask>
<g mask="url(#mask11_3860_6026)">
<path d="M52.9998 220.103L52.2549 235.613L53.5787 235.677L54.3236 220.167L52.9998 220.103Z" fill="#959595"/>
<path d="M56.4354 220.271L55.6904 235.781L57.0143 235.845L57.7592 220.335L56.4354 220.271Z" fill="#959595"/>
<path d="M60.3523 220.457L59.6074 235.967L60.9313 236.03L61.6762 220.52L60.3523 220.457Z" fill="#959595"/>
<path d="M65.243 220.693L64.498 236.203L65.8219 236.267L66.5668 220.756L65.243 220.693Z" fill="#959595"/>
<path d="M70.6219 220.953L69.877 236.463L71.2008 236.526L71.9457 221.016L70.6219 220.953Z" fill="#959595"/>
<path d="M76.4832 221.232L75.7383 236.742L77.0621 236.806L77.807 221.296L76.4832 221.232Z" fill="#959595"/>
<path d="M106.388 222.671L105.643 238.182L106.966 238.245L107.711 222.735L106.388 222.671Z" fill="#959595"/>
<path d="M102.955 222.507L102.21 238.018L103.534 238.081L104.279 222.571L102.955 222.507Z" fill="#959595"/>
<path d="M99.035 222.318L98.29 237.828L99.6139 237.892L100.359 222.381L99.035 222.318Z" fill="#959595"/>
<path d="M94.1453 222.082L93.4004 237.592L94.7242 237.655L95.4692 222.145L94.1453 222.082Z" fill="#959595"/>
<path d="M88.7674 221.824L88.0225 237.334L89.3463 237.398L90.0912 221.887L88.7674 221.824Z" fill="#959595"/>
<path d="M82.9061 221.542L82.1611 237.053L83.485 237.116L84.2299 221.606L82.9061 221.542Z" fill="#959595"/>
</g>
<path d="M108.201 225.462C108.088 227.806 95.4753 229.106 80.0273 228.364C64.5793 227.622 52.1486 225.118 52.2615 222.771C52.3744 220.425 64.9873 219.127 80.4353 219.869C95.8833 220.611 108.314 223.115 108.201 225.462Z" fill="#959595"/>
<path d="M102.489 224.74C102.436 225.828 92.4391 226.231 80.1581 225.641C67.8772 225.051 57.9658 223.689 58.0188 222.601C58.0718 221.513 68.0685 221.109 80.3494 221.699C92.6304 222.289 102.542 223.652 102.489 224.74Z" fill="#AAAAAA"/>
<path d="M58.9477 223.221C61.7574 222.546 70.2605 222.364 80.2918 222.845C90.3231 223.327 98.7708 224.325 101.502 225.266C102.131 225.114 102.477 224.939 102.489 224.738C102.542 223.65 92.6281 222.288 80.3494 221.697C68.0685 221.107 58.0718 221.511 58.0187 222.599C58.0095 222.799 58.3368 223.007 58.95 223.219L58.9477 223.221Z" fill="#959595"/>
<path d="M58.023 215.465L57.698 222.231C57.5851 224.575 70.0159 227.079 85.4638 227.823C100.912 228.566 113.525 227.268 113.638 224.921L113.963 218.155L58.023 215.465Z" fill="#B9B9B9"/>
<mask id="mask12_3860_6026" style="mask-type:luminance" maskUnits="userSpaceOnUse" x="57" y="215" width="57" height="14">
<path d="M58.023 215.465L57.698 222.231C57.5851 224.575 70.0159 227.079 85.4638 227.823C100.912 228.566 113.525 227.268 113.638 224.921L113.963 218.155L58.023 215.465Z" fill="white"/>
</mask>
<g mask="url(#mask12_3860_6026)">
<path d="M58.7654 212.673L58.0205 228.184L59.3443 228.247L60.0893 212.737L58.7654 212.673Z" fill="#959595"/>
<path d="M62.201 212.837L61.4561 228.348L62.7799 228.411L63.5248 212.901L62.201 212.837Z" fill="#959595"/>
<path d="M66.1199 213.027L65.375 228.537L66.6988 228.601L67.4438 213.09L66.1199 213.027Z" fill="#959595"/>
<path d="M71.0106 213.261L70.2656 228.771L71.5895 228.835L72.3344 213.325L71.0106 213.261Z" fill="#959595"/>
<path d="M76.3875 213.519L75.6426 229.029L76.9664 229.093L77.7113 213.583L76.3875 213.519Z" fill="#959595"/>
<path d="M82.2488 213.802L81.5039 229.312L82.8277 229.376L83.5727 213.866L82.2488 213.802Z" fill="#959595"/>
<path d="M112.153 215.242L111.408 230.752L112.732 230.816L113.477 215.305L112.153 215.242Z" fill="#959595"/>
<path d="M108.722 215.078L107.978 230.588L109.301 230.651L110.046 215.141L108.722 215.078Z" fill="#959595"/>
<path d="M104.801 214.886L104.056 230.396L105.38 230.46L106.124 214.95L104.801 214.886Z" fill="#959595"/>
<path d="M99.91 214.652L99.165 230.162L100.489 230.226L101.234 214.715L99.91 214.652Z" fill="#959595"/>
<path d="M94.5359 214.394L93.791 229.904L95.1149 229.968L95.8598 214.458L94.5359 214.394Z" fill="#959595"/>
<path d="M88.6717 214.111L87.9268 229.621L89.2506 229.685L89.9955 214.174L88.6717 214.111Z" fill="#959595"/>
</g>
<path d="M113.968 218.03C113.855 220.377 101.242 221.674 85.7939 220.932C70.3459 220.19 57.9152 217.686 58.0281 215.34C58.1411 212.995 70.7539 211.695 86.2019 212.437C101.65 213.18 114.081 215.683 113.968 218.03Z" fill="#959595"/>
<path d="M108.255 217.306C108.202 218.394 98.2057 218.798 85.9247 218.208C73.6438 217.618 63.7324 216.255 63.7854 215.167C63.8384 214.079 73.8351 213.676 86.116 214.266C98.397 214.856 108.308 216.218 108.255 217.306Z" fill="#AAAAAA"/>
<path d="M64.7172 215.788C67.527 215.112 76.03 214.93 86.0613 215.412C96.0926 215.894 104.54 216.892 107.272 217.832C107.901 217.68 108.247 217.505 108.258 217.304C108.311 216.216 98.3976 214.854 86.1189 214.264C73.838 213.674 63.8413 214.077 63.7883 215.165C63.7791 215.366 64.1064 215.573 64.7195 215.785L64.7172 215.788Z" fill="#959595"/>
<path d="M53.5494 207.539L53.2244 214.305C53.1115 216.652 65.5422 219.155 80.9902 219.897C96.4382 220.64 109.051 219.342 109.164 216.995L109.489 210.229L53.5494 207.539Z" fill="#B9B9B9"/>
<mask id="mask13_3860_6026" style="mask-type:luminance" maskUnits="userSpaceOnUse" x="53" y="207" width="57" height="14">
<path d="M53.5494 207.539L53.2244 214.305C53.1115 216.652 65.5422 219.155 80.9902 219.897C96.4382 220.64 109.051 219.342 109.164 216.995L109.489 210.229L53.5494 207.539Z" fill="white"/>
</mask>
<g mask="url(#mask13_3860_6026)">
<path d="M54.2918 204.75L53.5469 220.26L54.8707 220.323L55.6156 204.813L54.2918 204.75Z" fill="#959595"/>
<path d="M57.7273 204.914L56.9824 220.424L58.3063 220.487L59.0512 204.977L57.7273 204.914Z" fill="#959595"/>
<path d="M61.6473 205.099L60.9023 220.609L62.2262 220.673L62.9711 205.163L61.6473 205.099Z" fill="#959595"/>
<path d="M66.5369 205.335L65.792 220.846L67.1158 220.909L67.8608 205.399L66.5369 205.335Z" fill="#959595"/>
<path d="M71.9139 205.595L71.1689 221.105L72.4928 221.169L73.2377 205.659L71.9139 205.595Z" fill="#959595"/>
<path d="M77.7752 205.876L77.0303 221.387L78.3541 221.45L79.099 205.94L77.7752 205.876Z" fill="#959595"/>
<path d="M107.68 207.314L106.936 222.824L108.259 222.888L109.004 207.378L107.68 207.314Z" fill="#959595"/>
<path d="M104.247 207.15L103.502 222.66L104.826 222.724L105.571 207.213L104.247 207.15Z" fill="#959595"/>
<path d="M100.33 206.962L99.585 222.473L100.909 222.536L101.654 207.026L100.33 206.962Z" fill="#959595"/>
<path d="M95.4393 206.726L94.6943 222.236L96.0182 222.3L96.7631 206.79L95.4393 206.726Z" fill="#959595"/>
<path d="M90.0594 206.468L89.3145 221.979L90.6383 222.042L91.3832 206.532L90.0594 206.468Z" fill="#959595"/>
<path d="M84.199 206.185L83.4541 221.695L84.7779 221.759L85.5229 206.249L84.199 206.185Z" fill="#959595"/>
</g>
<path d="M109.494 210.102C109.381 212.447 96.7683 213.747 81.3203 213.005C65.8723 212.262 53.4415 209.759 53.5545 207.412C53.6674 205.065 66.2803 203.767 81.7283 204.51C97.1763 205.252 109.607 207.756 109.494 210.102Z" fill="#959595"/>
<path d="M103.78 209.381C103.727 210.469 93.7301 210.872 81.4491 210.282C69.1682 209.692 59.2568 208.329 59.3098 207.241C59.3628 206.153 69.3595 205.75 81.6405 206.34C93.9214 206.93 103.833 208.293 103.78 209.381Z" fill="#B9B9B9"/>
<path d="M60.2406 207.862C63.0481 207.186 71.5535 207.004 81.5848 207.486C91.616 207.968 100.064 208.966 102.795 209.907C103.424 209.754 103.77 209.579 103.782 209.379C103.835 208.291 93.921 206.928 81.6424 206.338C69.3614 205.748 59.3647 206.151 59.3117 207.239C59.3025 207.44 59.6298 207.647 60.2429 207.859L60.2406 207.862Z" fill="#959595"/>
<g style="mix-blend-mode:multiply" opacity="0.5">
<path d="M70.6318 265.315C68.1171 261.574 66.7595 254.57 66.7825 249.637C66.8678 231.525 76.0877 219.881 90.6506 217.26L96.1295 216.273L105.015 265.631C99.8705 266.433 98.5014 276.715 94.9701 275.829C91.4389 274.944 70.6318 265.313 70.6318 265.313V265.315Z" fill="#959595"/>
</g>
<path d="M95.5508 216.293L101.03 215.307L111.863 275.543L106.391 276.569C91.8283 279.19 77.595 267.82 74.6008 251.174C71.6066 234.53 80.9856 218.912 95.5485 216.291L95.5508 216.293Z" fill="#AAAAAA"/>
<mask id="mask14_3860_6026" style="mask-type:luminance" maskUnits="userSpaceOnUse" x="74" y="215" width="38" height="62">
<path d="M95.5508 216.293L101.03 215.307L111.863 275.543L106.391 276.569C91.8283 279.19 77.595 267.82 74.6008 251.174C71.6066 234.53 80.9856 218.912 95.5485 216.291L95.5508 216.293Z" fill="white"/>
</mask>
<g mask="url(#mask14_3860_6026)">
<path d="M111.155 274.984L75.29 281.432L75.5592 282.929L111.424 276.482L111.155 274.984Z" fill="#959595"/>
<path d="M110.498 271.081L74.6318 277.535L74.9012 279.033L110.767 272.579L110.498 271.081Z" fill="#959595"/>
<path d="M109.666 266.673L73.7988 273.121L74.068 274.619L109.935 268.171L109.666 266.673Z" fill="#959595"/>
<path d="M108.7 261.123L72.8369 267.576L73.1063 269.074L108.97 262.62L108.7 261.123Z" fill="#959595"/>
<path d="M107.577 255.07L71.71 261.518L71.9791 263.015L107.846 256.567L107.577 255.07Z" fill="#959595"/>
<path d="M106.418 248.421L70.5518 254.875L70.8212 256.372L106.687 249.918L106.418 248.421Z" fill="#959595"/>
<path d="M100.331 214.622L64.4648 221.076L64.7342 222.574L100.6 216.12L100.331 214.622Z" fill="#959595"/>
<path d="M101.025 218.507L65.1592 224.961L65.4286 226.458L101.294 220.004L101.025 218.507Z" fill="#959595"/>
<path d="M101.832 222.931L65.9658 229.385L66.2352 230.882L102.101 224.428L101.832 222.931Z" fill="#959595"/>
<path d="M102.827 228.458L66.9609 234.912L67.2303 236.41L103.096 229.956L102.827 228.458Z" fill="#959595"/>
<path d="M103.914 234.538L68.0479 240.992L68.3172 242.49L104.183 236.036L103.914 234.538Z" fill="#959595"/>
<path d="M105.105 241.164L69.2412 247.617L69.5106 249.115L105.374 242.661L105.105 241.164Z" fill="#959595"/>
</g>
<path d="M81.2551 249.979C84.2493 266.623 98.4826 277.992 113.045 275.373C127.608 272.752 136.987 257.137 133.993 240.49C130.999 223.847 116.766 212.477 102.203 215.096C87.6399 217.717 78.2609 233.333 81.2551 249.979Z" fill="#D3D3D3"/>
<path d="M133.131 241.646C130.137 225.002 115.903 213.632 101.341 216.251C95.2669 217.344 90.1014 220.7 86.3535 225.447C90.1521 220.094 95.6495 216.279 102.203 215.098C116.765 212.477 130.999 223.847 133.993 240.493C135.738 250.198 133.274 259.546 128.032 266.18C132.674 259.638 134.777 250.8 133.131 241.646Z" fill="#DFDFDF"/>
<path d="M111.69 269.331C122.537 267.378 129.47 255.275 127.145 242.352C124.819 229.427 114.103 220.501 103.256 222.451C92.4086 224.404 85.4752 236.506 87.8009 249.429C90.1266 262.355 100.842 271.281 111.69 269.331Z" fill="#DFDFDF"/>
<path d="M111.84 268.676C122.687 266.724 129.621 254.621 127.295 241.698C124.969 228.772 114.253 219.847 103.406 221.797C92.559 223.749 85.6256 235.852 87.9513 248.775C90.277 261.701 100.993 270.626 111.84 268.676Z" fill="#B9B9B9"/>
<path d="M109.523 267.814C120.371 265.862 127.304 253.759 124.978 240.836C123.411 232.12 118.024 225.227 111.356 222.258C119.071 224.54 125.55 231.991 127.297 241.698C129.623 254.623 122.689 266.726 111.842 268.676C108.311 269.312 104.796 268.787 101.578 267.355C104.134 268.111 106.827 268.3 109.526 267.814H109.523Z" fill="#959595"/>
<path d="M191.978 82.4947C189.859 72.7551 181.739 65.7587 172.231 65.9869C170.039 60.8808 165.779 56.6668 160.78 54.7188C150.912 50.8737 136.58 52.7317 135.42 63.7047C130.446 70.4014 128.823 80.8557 134.083 87.4049C130.6 96.9233 138.38 107.922 150.28 109.48C153.441 117.034 160.683 122.733 168.633 123.044C170.541 123.118 173.468 123.104 173.927 123.3C173.346 123.092 185.069 135.421 198.42 121.509C212.042 107.311 206.771 86.6234 191.978 82.497V82.4947Z" fill="#007C99"/>
<path d="M109.302 46.9375C112.37 46.3243 115.445 47.8764 117.681 49.4785C118.812 50.2892 119.759 51.1344 120.422 51.7764C120.754 52.0977 121.015 52.3696 121.195 52.5615C121.285 52.6574 121.355 52.7334 121.402 52.7861C121.426 52.8125 121.445 52.8335 121.457 52.8477C121.463 52.8546 121.468 52.8604 121.472 52.8643C121.473 52.866 121.475 52.8671 121.476 52.8682L121.477 52.8701H121.478L121.819 53.2646L121.41 53.5898L121.409 53.5908C121.408 53.5915 121.407 53.5926 121.405 53.5938C121.402 53.5961 121.398 53.5993 121.393 53.6035C121.381 53.6123 121.365 53.625 121.344 53.6416C121.301 53.675 121.238 53.7242 121.156 53.7861C120.994 53.9099 120.757 54.0864 120.459 54.3008C119.864 54.7294 119.024 55.3098 118.04 55.9141C116.087 57.1138 113.514 58.4458 111.166 58.8477C109.813 59.0795 108.087 59.9813 106.227 61.2803C104.38 62.5691 102.456 64.2106 100.713 65.8564C98.9707 67.5017 97.419 69.1428 96.3213 70.4258C95.7716 71.0683 95.3417 71.6136 95.0596 72.0205C94.957 72.1684 94.88 72.2928 94.8232 72.3916C94.8428 72.4037 94.8626 72.4182 94.8848 72.4316C95.1209 72.575 95.4699 72.7718 95.9199 73.0156C96.818 73.5022 98.0961 74.1648 99.6299 74.9443C102.697 76.5029 106.773 78.5221 110.846 80.5225C114.918 82.5226 118.986 84.503 122.035 85.9834C123.56 86.7236 124.831 87.3394 125.72 87.7695C126.164 87.9845 126.513 88.1536 126.751 88.2686C126.87 88.3259 126.961 88.3697 127.022 88.3994C127.053 88.4142 127.077 88.4251 127.093 88.4326L127.114 88.4434L127.115 88.4443C127.114 88.447 127.099 88.4798 126.898 88.8945L127.116 88.4443L127.79 88.7695L127.231 89.2676L116.58 98.7793L116.334 99L116.034 98.8584L116.247 98.4062L116.033 98.8584L116.032 98.8574C116.031 98.8567 116.028 98.8558 116.025 98.8545C116.02 98.8519 116.012 98.8479 116.001 98.8428C115.979 98.8325 115.947 98.8171 115.904 98.7969C115.819 98.7564 115.693 98.6958 115.529 98.6172C115.202 98.4599 114.724 98.2286 114.118 97.9316C112.907 97.3374 111.186 96.4804 109.147 95.4277C105.072 93.3229 99.7212 90.4342 94.6318 87.3027C89.5514 84.1767 84.6966 80.7881 81.6367 77.6807C80.1122 76.1325 78.9865 74.6083 78.5322 73.1816C78.3025 72.4601 78.2392 71.7454 78.3994 71.0615C78.5606 70.374 78.9392 69.7549 79.5312 69.2158C84.0132 65.1353 90.094 61.0296 95.0381 57.9512C97.5131 56.4101 99.7094 55.1229 101.287 54.2207C102.076 53.7696 102.711 53.4142 103.148 53.1719C103.317 53.0787 103.456 53.0023 103.563 52.9434C103.567 52.8072 103.576 52.6338 103.6 52.4326C103.659 51.9369 103.802 51.2627 104.141 50.5479C104.829 49.0941 106.294 47.5389 109.302 46.9375Z" fill="white" stroke="#007C99"/>
<path d="M110.2 256.209L110.275 256.618C111.658 264.094 114.018 270.671 114.328 271.418C114.334 271.428 114.351 271.451 114.381 271.49C114.426 271.55 114.489 271.626 114.567 271.715C114.724 271.893 114.924 272.104 115.132 272.324C115.336 272.54 115.551 272.765 115.724 272.961C115.81 273.059 115.892 273.155 115.959 273.243C116.02 273.323 116.093 273.425 116.14 273.529L116.191 273.647L116.181 273.776C115.361 283.162 109.369 288.719 103.852 292.625L102.738 293.413L103.079 292.092C103.682 289.75 104.652 287.241 105.416 285.219C105.801 284.2 106.132 283.312 106.345 282.616C106.451 282.268 106.524 281.983 106.561 281.763C106.579 281.653 106.586 281.568 106.587 281.506C106.588 281.44 106.581 281.419 106.583 281.427C106.034 279.776 103.928 272.349 99.4316 262.993L99.126 262.358L99.8262 262.279C101.996 262.035 103.459 261.259 104.846 260.195C105.549 259.656 106.227 259.047 106.979 258.383C107.726 257.723 108.537 257.017 109.482 256.309L109.615 256.209H110.2Z" fill="white" stroke="#007C99"/>
<path d="M129.676 147.697L158.147 169.325C158.147 169.325 144.05 182.889 138.76 187.931C133.47 192.972 103.844 212.29 103.383 213.443C103.042 214.3 106.008 225.142 112.815 259.857C109.805 262.934 103.178 265.949 99.2525 266.943C89.3826 248.102 81.6562 209.45 81.6562 205.086C81.6562 197.977 129.674 147.697 129.674 147.697H129.676Z" fill="#008EBD"/>
<path d="M203.426 178.933L203.427 178.933L203.429 178.934C203.432 178.935 203.436 178.937 203.441 178.939C203.45 178.943 203.464 178.948 203.483 178.955C203.52 178.97 203.576 178.992 203.648 179.02C203.793 179.076 204.006 179.158 204.277 179.265C204.819 179.477 205.594 179.782 206.528 180.154C208.396 180.899 210.901 181.913 213.445 182.988C215.988 184.062 218.578 185.199 220.613 186.193C221.63 186.689 222.517 187.155 223.193 187.56C223.531 187.763 223.824 187.955 224.058 188.133C224.281 188.304 224.488 188.491 224.616 188.69C224.722 188.856 224.833 189.102 224.767 189.379C224.697 189.675 224.471 189.834 224.294 189.913C224.117 189.993 223.909 190.032 223.705 190.055C223.495 190.078 223.255 190.085 222.995 190.083C221.976 190.077 220.439 189.919 218.821 189.814C217.175 189.707 215.397 189.65 213.8 189.83C212.211 190.009 210.882 190.416 210.025 191.162L209.992 191.193C209.926 191.252 209.749 191.473 209.46 191.903C209.186 192.311 208.84 192.86 208.44 193.519C207.64 194.836 206.635 196.581 205.577 198.498C203.459 202.337 201.144 206.844 199.844 209.987L199.608 210.56L199.098 210.208C197.398 209.035 196.032 207.758 194.673 206.62C193.304 205.474 191.909 204.437 190.084 203.655L189.497 203.403L189.882 202.894C191.477 200.782 193.861 197.156 195.923 193.743C196.953 192.037 197.899 190.39 198.622 189.018C199.356 187.627 199.833 186.57 199.964 186.019C200.674 183.034 201.386 181.304 201.938 180.307C202.215 179.808 202.454 179.488 202.635 179.286C202.726 179.185 202.802 179.113 202.863 179.063C202.893 179.038 202.919 179.018 202.94 179.003C202.951 178.995 202.961 178.988 202.97 178.982C202.974 178.98 202.978 178.977 202.982 178.975C202.983 178.974 202.985 178.973 202.987 178.972L202.989 178.971L202.991 178.97C202.992 178.971 203.008 178.998 203.245 179.4L202.992 178.97L203.2 178.847L203.426 178.933Z" fill="white" stroke="#007C99"/>
<path d="M200.165 187.447C198.615 187.386 200.595 180.449 201.02 178.849C201.498 177.049 202.571 176.55 202.836 176.497C203.553 176.352 225.444 184.807 229.084 187.665C229.329 187.858 229.761 188.455 229.824 188.589C231.719 192.511 213.377 192.466 210.811 190.678C208.53 189.089 207.139 187.724 200.165 187.447Z" fill="#747474"/>
<path d="M123.594 154.083C123.594 154.083 150.426 143.516 150.774 144.638C153.552 153.587 163.385 150.701 168.518 166.464C170.666 173.066 171.171 190.492 172.618 203.415C173.614 212.295 175.006 219.413 175.006 219.413C175.006 219.413 181.218 212.099 192.911 198.922C193.817 197.901 203.259 205.008 203.259 205.008C184.637 241.938 170.931 247.464 168.085 246.154C148.84 237.325 133.093 171.188 133.12 171.195C130.933 166.932 123.594 154.083 123.594 154.083Z" fill="#00B1EC"/>
<path d="M242.608 82.1445C242.818 82.1308 243.022 82.1927 243.187 82.3359L243.255 82.4023L243.334 82.498C243.7 82.9821 243.614 83.5761 243.461 84.042C243.294 84.5504 242.982 85.1096 242.721 85.5986C242.442 86.1192 242.216 86.5672 242.13 86.9385C242.088 87.1171 242.089 87.2418 242.109 87.3271C242.127 87.4002 242.163 87.4672 242.251 87.5342C242.525 87.743 242.956 87.9129 243.508 88.0566C244.052 88.1984 244.652 88.3008 245.24 88.4062C245.809 88.5083 246.388 88.6164 246.825 88.7725C247.043 88.8503 247.269 88.9535 247.446 89.1035C247.611 89.2428 247.754 89.4409 247.789 89.6973L247.797 89.8105L247.807 89.9482C247.846 90.2686 248.008 90.5756 248.202 90.9834C248.389 91.376 248.672 91.9848 248.356 92.6084C248.014 93.2859 247.795 93.9494 247.98 95.1855C248.021 95.4551 248.083 95.8064 248.089 96.1475C248.095 96.4955 248.047 96.8908 247.831 97.2549C247.382 98.0114 246.391 98.3623 244.731 98.3389C241.477 98.2928 241.293 97.3357 237.056 98.376L236.151 98.6123C235.47 98.7991 233.724 99.0849 231.273 99.4297C228.806 99.7769 225.588 100.189 221.933 100.622C214.622 101.488 205.557 102.444 197.253 103.153C188.74 103.881 180.993 104.36 175.376 104.657C172.567 104.806 170.291 104.91 168.716 104.976C167.928 105.009 167.316 105.032 166.9 105.048C166.693 105.056 166.534 105.061 166.428 105.064C166.375 105.066 166.335 105.068 166.308 105.069C166.294 105.07 166.283 105.07 166.276 105.07H166.267L166.25 104.57L166.266 105.07L165.797 105.086L165.752 104.618L164.507 91.5586L164.455 91.0117H165.004H165.005H165.097C165.157 91.0116 165.248 91.0109 165.365 91.0107C165.601 91.0103 165.949 91.0097 166.394 91.0088C167.283 91.0069 168.56 91.004 170.115 90.999C173.225 90.989 177.443 90.9712 181.875 90.9414C190.747 90.8817 200.454 90.7724 203.866 90.5762C206.993 90.3963 214.721 90.4647 221.763 90.5625C225.288 90.6115 228.652 90.6678 231.19 90.7051C232.46 90.7237 233.524 90.7375 234.299 90.7432C234.687 90.746 235 90.7468 235.231 90.7451C235.347 90.7443 235.44 90.7432 235.51 90.7412C235.531 90.7406 235.55 90.7389 235.566 90.7383C235.573 90.7333 235.582 90.729 235.591 90.7217C235.653 90.6702 235.739 90.5847 235.85 90.459C236.069 90.2091 236.342 89.8482 236.659 89.4053C237.294 88.5178 238.055 87.3666 238.837 86.2275C239.61 85.1024 240.403 83.9908 241.075 83.2314C241.406 82.8577 241.739 82.5326 242.05 82.3418C242.204 82.2469 242.397 82.1584 242.608 82.1445ZM235.621 90.7363C235.623 90.7362 235.624 90.7364 235.624 90.7363L235.626 90.7354C235.624 90.7355 235.623 90.7361 235.621 90.7363Z" fill="white" stroke="#007C99"/>
<path d="M117.508 119.99C117.084 114.847 118.096 105.054 118.326 103.349C116.77 98.005 107.283 97.4563 106.094 95.2179C106.094 95.2179 110.275 81.7023 115.984 81.7737C115.984 81.7737 129.386 86.866 133.894 89.2174C133.961 89.2012 135.489 89.8997 136.162 89.8951C140.514 89.8651 155.725 89.4018 158.562 90.2501L156.953 113.754C156.135 115.103 154.803 143.57 153.12 145.795C151.437 148.02 127.295 156.703 123.238 154.092C123.077 153.988 118.363 130.389 117.506 119.99H117.508Z" fill="#9EE7FF"/>
<path d="M150.642 90.7941C153.447 89.4548 173.943 89.4986 173.943 89.4986C173.943 89.4986 176.781 103.637 174.487 107.035C174.487 107.035 156.335 109.736 156.852 111.226L150.642 90.7941Z" fill="#9EE7FF"/>
<path d="M147.296 80.276C147.296 80.276 144.004 87.9017 143.622 91.1106C143.239 94.3195 139.53 104.117 132.874 102.688C126.217 101.258 134.443 89.5384 135.746 86.597C137.05 83.6555 139.293 74.1602 139.293 74.1602L147.296 80.276Z" fill="white"/>
<path d="M138.105 78.9132C138.783 76.329 139.295 74.1621 139.295 74.1621L147.298 80.2779C147.298 80.2779 146.625 81.8363 145.853 83.8418C141.777 83.7681 139.267 81.7003 138.108 78.9132H138.105Z" fill="#979797"/>
<path d="M157.852 61.7434C157.852 61.7434 160.263 64.9638 159.708 69.3484C159.152 73.7353 153.353 83.0969 143.983 81.7829C134.613 80.4689 134.556 70.9713 139.027 65.5701C143.499 60.1689 150.714 54.0254 157.852 61.7411V61.7434Z" fill="white"/>
<path d="M139.063 62.7184C138.482 64.4473 138.83 66.1232 139.837 66.4598C140.844 66.7986 142.13 65.6691 142.709 63.9401C143.29 62.2112 142.942 60.5353 141.935 60.1987C140.927 59.8599 139.641 60.9894 139.063 62.7184Z" fill="white"/>
<path d="M113.938 271.836C114.512 270.395 120.306 274.99 121.673 275.921C123.211 276.97 123.323 278.148 123.287 278.418C123.187 279.123 108.443 297.286 104.13 299.796C103.722 300.034 102.867 300.041 102.613 299.944C100.218 299.022 104.116 284.16 107.262 281.225C109.295 279.328 111.356 278.325 113.938 271.838V271.836Z" fill="#747474"/>
<path d="M157.106 60.8047C157.106 60.8047 153.63 72.5891 156.322 76.206C159.017 79.8207 155.303 84.0761 155.303 84.0761C155.303 84.0761 163.691 74.0921 162.497 69.1428C161.306 64.1934 157.104 60.807 157.104 60.807L157.106 60.8047Z" fill="#007C99"/>
<path d="M153.48 76.8449C151.857 77.8569 151.096 79.5651 151.779 80.6624C152.461 81.7597 154.33 81.8288 155.955 80.8191C157.578 79.8071 158.339 78.0989 157.656 77.0016C156.972 75.9043 155.102 75.8352 153.48 76.8449Z" fill="white"/>
<path d="M134.916 48.5742L135.538 50.2801C135.902 51.2783 135.566 52.3986 134.713 53.0326L133.201 54.1552C132.246 54.8629 130.916 54.7684 130.073 53.9293L128.745 52.6061L134.916 48.5765V48.5742Z" fill="#767676"/>
<path d="M126.493 51.2786L123.999 50.6008L122.277 51.5229C122.277 51.5229 111.107 56.4954 108.892 56.5046C106.677 56.5138 104.976 52.4842 105.508 51.7235C106.041 50.9651 113.286 49.1347 113.286 49.1347L117.785 45.0636L118.038 42.1152L126.493 51.2786Z" fill="#007C99"/>
<path d="M127.388 32.1097L135.28 46.0703C136.008 47.3566 135.633 48.9864 134.416 49.8255L129.651 53.1128C128.469 53.9289 126.864 53.7398 125.903 52.6702L115.393 40.9573L127.39 32.1074L127.388 32.1097Z" fill="#767676"/>
<path d="M127.895 31.8729L115.399 41.306C114.466 42.0114 113.159 41.9353 112.313 41.1285L89.3691 19.2471L114.341 1.16016L128.582 28.8761C129.112 29.9089 128.824 31.1744 127.897 31.8729H127.895Z" fill="#767676"/>
<path d="M98.3493 5.3118C91.2592 10.1436 86.9004 16.1004 88.6153 18.6154C90.3303 21.1304 97.4665 19.2539 104.557 14.4221C111.647 9.59034 116.005 3.63359 114.291 1.11856C112.576 -1.39646 105.439 0.480011 98.3493 5.3118Z" fill="#007C99"/>
<path d="M90.6716 17.5849C92.6769 18.0575 97.8171 16.5107 103.391 12.7139C110.37 7.9582 112.991 3.24398 112.578 2.27577C112.578 2.27577 112.477 2.20662 112.232 2.14898C110.227 1.67641 105.087 3.22323 99.5135 7.01997C92.534 11.7757 89.9133 16.4876 90.3259 17.4581C90.3259 17.4581 90.425 17.5273 90.6716 17.5849Z" fill="#E3E3E3"/>
<path d="M113.137 46.2783C114.073 46.3377 115.003 46.6198 115.713 47.3164L115.938 47.5439C117.027 48.681 117.588 49.7964 117.668 50.6914C117.711 51.1707 117.619 51.6389 117.324 51.9834C117.018 52.3422 116.566 52.4803 116.088 52.4307H116.084C115.969 52.4179 115.886 52.3701 115.854 52.3516C115.813 52.3271 115.778 52.2998 115.752 52.2783C115.699 52.2348 115.644 52.1819 115.594 52.1299C115.499 52.0315 115.386 51.9022 115.264 51.7568C115.307 52.1025 115.266 52.4232 115.133 52.7012C114.938 53.1075 114.579 53.3626 114.179 53.4463C113.366 53.6162 112.494 53.0871 112.217 52.0312L112.179 51.9033C111.972 51.2742 111.505 50.7685 111.037 50.4004C110.792 50.2077 110.558 50.0619 110.387 49.9648C110.301 49.9166 110.232 49.8815 110.186 49.8584C110.162 49.8469 110.145 49.8381 110.134 49.833C110.128 49.8305 110.124 49.8291 110.122 49.8281L110.121 49.8271L107.188 48.7295L106.14 48.3369L107.133 47.8184L107.364 48.2607C107.134 47.8198 107.133 47.8175 107.133 47.8174H107.135C107.136 47.8169 107.137 47.8162 107.139 47.8154C107.142 47.8137 107.146 47.8106 107.152 47.8076C107.164 47.8015 107.182 47.7933 107.204 47.7822C107.248 47.76 107.313 47.7277 107.395 47.6885C107.559 47.6101 107.794 47.5022 108.084 47.3799C108.662 47.1357 109.461 46.8323 110.343 46.6045C111.22 46.3776 112.202 46.2191 113.137 46.2783Z" fill="white" stroke="#007C99"/>
<path d="M117.34 49.0195V49.5137L117.527 49.0566L117.528 49.0576C117.529 49.0579 117.531 49.058 117.532 49.0586C117.535 49.0597 117.539 49.0614 117.544 49.0635C117.554 49.0677 117.569 49.0741 117.588 49.082C117.626 49.0982 117.683 49.122 117.753 49.1523C117.893 49.213 118.092 49.301 118.326 49.4102C118.794 49.628 119.413 49.9344 120.003 50.2842C120.583 50.628 121.177 51.0376 121.563 51.4697C121.756 51.6851 121.932 51.9442 122.001 52.2383C122.076 52.5605 122.013 52.8896 121.787 53.1719C121.21 53.8936 120.115 54.5988 119.189 55.0342C118.723 55.2537 118.257 55.4255 117.882 55.4922C117.702 55.5241 117.487 55.5421 117.29 55.4912C117.186 55.4642 117.061 55.4114 116.954 55.3066C116.841 55.1957 116.777 55.0554 116.759 54.9092C116.731 54.6908 116.796 54.4996 116.865 54.3594C116.935 54.2192 117.029 54.0896 117.116 53.9795C117.318 53.7245 117.475 53.5667 117.636 53.333C117.781 53.1213 117.847 52.9522 117.849 52.8037C117.85 52.6731 117.802 52.4732 117.53 52.1934L117.529 52.1924C117.35 52.0062 116.743 51.3805 116.404 50.7832C116.317 50.6297 116.237 50.4598 116.189 50.2861C116.143 50.1163 116.115 49.9014 116.182 49.6826C116.255 49.4432 116.421 49.2627 116.644 49.1543C116.848 49.0548 117.087 49.0208 117.337 49.0205L117.338 49.0195H117.34Z" fill="white" stroke="#007C99"/>
<defs>
<linearGradient id="paint0_linear_3860_6026" x1="62.9525" y1="94.2012" x2="62.9525" y2="238.337" gradientUnits="userSpaceOnUse">
<stop stop-color="#007C99"/>
<stop offset="1" stop-color="#00B1EC"/>
</linearGradient>
<linearGradient id="paint1_linear_3860_6026" x1="15.4777" y1="94.4395" x2="15.4777" y2="238.575" gradientUnits="userSpaceOnUse">
<stop stop-color="#007C99"/>
<stop offset="1" stop-color="#00B1EC"/>
</linearGradient>
<linearGradient id="paint2_linear_3860_6026" x1="36.4599" y1="137.023" x2="36.4599" y2="158.873" gradientUnits="userSpaceOnUse">
<stop stop-color="#007C99"/>
<stop offset="1" stop-color="#00B1EC"/>
</linearGradient>
<linearGradient id="paint3_linear_3860_6026" x1="36.2882" y1="99.2676" x2="36.2882" y2="133.454" gradientUnits="userSpaceOnUse">
<stop stop-color="#007C99"/>
<stop offset="1" stop-color="#00B1EC"/>
</linearGradient>
<linearGradient id="paint4_linear_3860_6026" x1="29.9378" y1="99.3027" x2="29.9378" y2="180.787" gradientUnits="userSpaceOnUse">
<stop stop-color="#007C99"/>
<stop offset="1" stop-color="#00B1EC"/>
</linearGradient>
<linearGradient id="paint5_linear_3860_6026" x1="46.7384" y1="104.299" x2="46.7384" y2="111.809" gradientUnits="userSpaceOnUse">
<stop stop-color="#007C99"/>
<stop offset="1" stop-color="#00B1EC"/>
</linearGradient>
<linearGradient id="paint6_linear_3860_6026" x1="46.7711" y1="113.037" x2="46.7711" y2="115.72" gradientUnits="userSpaceOnUse">
<stop stop-color="#007C99"/>
<stop offset="1" stop-color="#00B1EC"/>
</linearGradient>
<linearGradient id="paint7_linear_3860_6026" x1="46.796" y1="117.031" x2="46.796" y2="124.903" gradientUnits="userSpaceOnUse">
<stop stop-color="#007C99"/>
<stop offset="1" stop-color="#00B1EC"/>
</linearGradient>
<linearGradient id="paint8_linear_3860_6026" x1="46.8505" y1="126.219" x2="46.8505" y2="133.138" gradientUnits="userSpaceOnUse">
<stop stop-color="#007C99"/>
<stop offset="1" stop-color="#00B1EC"/>
</linearGradient>
<linearGradient id="paint9_linear_3860_6026" x1="46.8942" y1="134.562" x2="46.8942" y2="140.967" gradientUnits="userSpaceOnUse">
<stop stop-color="#007C99"/>
<stop offset="1" stop-color="#00B1EC"/>
</linearGradient>
<linearGradient id="paint10_linear_3860_6026" x1="46.9452" y1="142.07" x2="46.9452" y2="149.582" gradientUnits="userSpaceOnUse">
<stop stop-color="#007C99"/>
<stop offset="1" stop-color="#00B1EC"/>
</linearGradient>
<linearGradient id="paint11_linear_3860_6026" x1="38.6032" y1="185.463" x2="38.6032" y2="187.384" gradientUnits="userSpaceOnUse">
<stop stop-color="#007C99"/>
<stop offset="1" stop-color="#00B1EC"/>
</linearGradient>
</defs>
</svg>
