<svg width="262" height="250" viewBox="0 0 262 250" fill="none" xmlns="http://www.w3.org/2000/svg">
<g clip-path="url(#clip0_3632_68058)">
<path d="M125.364 37.593C125.228 37.593 125.089 37.5705 124.953 37.5232C124.304 37.2973 123.961 36.5868 124.187 35.9378C124.335 35.5148 127.888 25.4643 134.998 16.1943C144.583 3.70003 156.011 -1.16295 168.044 2.12695C168.708 2.30767 169.1 2.99358 168.917 3.6569C168.736 4.32022 168.05 4.71247 167.387 4.52969C140.694 -2.76273 126.678 36.3629 126.539 36.7593C126.36 37.2727 125.877 37.5951 125.364 37.5951V37.593Z" fill="#007C99"/>
<path d="M134.056 55.8762C141.338 55.7657 147.153 49.7739 147.042 42.4933C146.931 35.2127 140.938 29.4002 133.655 29.5108C126.373 29.6213 120.558 35.6131 120.669 42.8937C120.78 50.1743 126.773 55.9868 134.056 55.8762Z" fill="#D8D8D8"/>
<path d="M133.853 56.5076C126.238 56.5076 120.043 50.3138 120.043 42.701C120.043 35.0883 126.238 28.8945 133.853 28.8945C141.468 28.8945 147.664 35.0883 147.664 42.701C147.664 50.3138 141.468 56.5076 133.853 56.5076ZM133.853 30.139C126.925 30.139 121.288 35.7742 121.288 42.701C121.288 49.6279 126.925 55.2631 133.853 55.2631C140.782 55.2631 146.417 49.6279 146.417 42.701C146.417 35.7742 140.78 30.139 133.853 30.139Z" fill="#404040"/>
<path d="M46.1996 5.74203C48.9851 3.10107 51.7542 6.86125 51.7542 6.86125C51.7542 6.86125 52.2677 2.18104 56.2406 2.47471C58.8124 2.66364 59.0548 7.29867 59.0548 7.29867C59.0548 7.29867 59.2068 5.45657 59.4903 3.47277C59.7368 1.74978 61.2754 0.513499 63.0133 0.628502C63.0338 0.628502 63.0523 0.630556 63.0729 0.63261C64.7778 0.743505 66.1254 2.12149 66.187 3.82805C66.2528 5.71533 66.2466 7.44448 66.2466 7.44448C68.2597 2.65338 73.5863 2.92445 72.9721 9.00523C72.5633 13.0447 75.1167 30.1719 75.1167 30.1719L77.6043 37.489C75.7987 41.4176 77.744 56.9204 77.744 56.9204C67.4134 63.1819 57.2204 63.5557 47.1671 57.9986C47.1671 57.9986 44.3405 39.9903 43.6524 35.1191C42.691 28.3175 43.4182 8.38093 46.2037 5.73997L46.1996 5.74203Z" fill="white"/>
<path d="M61.4054 62.5173C56.5144 62.5173 51.6582 61.1948 46.8657 58.5436C46.6973 58.4512 46.5802 58.2848 46.5515 58.0959C46.5227 57.9152 43.7166 40.0261 43.0347 35.2062C42.1329 28.8276 42.6834 8.21747 45.7729 5.28901C46.6377 4.46961 47.5868 4.10407 48.62 4.19032C49.7663 4.293 50.7462 4.96864 51.3994 5.56214C51.9561 3.76727 53.3981 1.63561 56.2884 1.85124C57.5271 1.9416 58.3139 2.79796 58.8171 3.80424C58.8356 3.66459 58.8562 3.52494 58.8747 3.38324C59.1643 1.35221 61.011 -0.116132 63.055 0.0050318C65.1482 0.140571 66.7361 1.77115 66.808 3.80424C66.8265 4.30737 66.8388 4.80024 66.847 5.25204C68.0056 3.87817 69.5381 3.22511 70.9842 3.59066C72.4735 3.97058 73.9402 5.60732 73.591 9.06562C73.2069 12.871 75.563 28.9468 75.7233 30.0229L78.1945 37.2865C78.2458 37.4385 78.2376 37.6028 78.1698 37.7465C76.4587 41.4698 78.3424 56.6871 78.3629 56.8391C78.3938 57.0835 78.2787 57.3217 78.0671 57.449C72.5002 60.8231 66.9313 62.5132 61.4075 62.5132L61.4054 62.5173ZM47.7347 57.601C57.3258 62.7966 67.1942 62.4578 77.075 56.5947C76.7812 54.1139 75.3802 41.4821 76.9353 37.4672L74.5236 30.374C74.5113 30.3391 74.5031 30.3021 74.4969 30.2652C74.3922 29.5628 71.9374 13.0147 72.3503 8.94446C72.5762 6.71011 71.9353 5.12266 70.6761 4.8023C69.4888 4.49836 67.7817 5.39579 66.8183 7.68764C66.7032 7.96077 66.4136 8.11685 66.1199 8.05729C65.8282 7.99774 65.6207 7.74103 65.6207 7.44531C65.6207 7.42888 65.6268 5.70589 65.5611 3.85352C65.5118 2.46322 64.4231 1.3481 63.0303 1.25774C61.5616 1.16944 60.3044 2.17571 60.1051 3.56396C59.8278 5.50464 59.6758 7.33442 59.6758 7.3529C59.6491 7.67737 59.3779 7.92381 59.0554 7.92381C59.0534 7.92381 59.0493 7.92381 59.0472 7.92381C58.7185 7.9197 58.4515 7.66094 58.433 7.33442C58.433 7.29334 58.1577 3.2436 56.196 3.09779C52.8414 2.85957 52.3916 6.76351 52.3751 6.93191C52.3464 7.18655 52.1656 7.39808 51.9191 7.46379C51.6726 7.53156 51.4097 7.43915 51.2556 7.23379C51.2433 7.21736 50.0005 5.56625 48.505 5.43687C47.8436 5.37731 47.2314 5.62785 46.6316 6.19876C44.1932 8.51114 43.2277 27.6756 44.2692 35.0378C44.8999 39.5024 47.3629 55.2208 47.7367 57.6051L47.7347 57.601Z" fill="#404040"/>
<path d="M66.2452 7.44727C66.2452 7.44727 65.5776 15.7788 66.4198 20.3563L66.2452 7.44727Z" fill="white"/>
<path d="M66.417 20.9789C66.1212 20.9789 65.8603 20.7694 65.8049 20.4696C64.9585 15.8654 65.5954 7.74122 65.6221 7.39826C65.6488 7.05531 65.9384 6.80682 66.2938 6.82736C66.6368 6.85405 66.8916 7.15594 66.8649 7.49889C66.8587 7.58104 66.2137 15.8017 67.0292 20.2457C67.0908 20.5846 66.8669 20.9091 66.53 20.9707C66.491 20.9789 66.454 20.9809 66.417 20.9809V20.9789Z" fill="#404040"/>
<path d="M59.056 7.29688C59.056 7.29688 58.3494 13.0429 59.7134 19.557L59.056 7.29688Z" fill="white"/>
<path d="M59.7135 20.1812C59.4238 20.1812 59.165 19.98 59.1054 19.6863C57.7373 13.1455 58.409 7.46109 58.4399 7.22287C58.4809 6.88197 58.7891 6.63759 59.1342 6.68072C59.4752 6.72179 59.7196 7.03189 59.6765 7.37484C59.6703 7.43234 59.0007 13.1024 60.3256 19.4317C60.3955 19.7685 60.1798 20.0991 59.8429 20.1689C59.7997 20.1771 59.7566 20.1833 59.7155 20.1833L59.7135 20.1812Z" fill="#404040"/>
<path d="M51.7559 6.86133C51.7559 6.86133 50.961 13.2132 52.2058 18.5136L51.7559 6.86133Z" fill="white"/>
<path d="M52.205 19.1371C51.9215 19.1371 51.6668 18.944 51.599 18.6565C50.3439 13.3068 51.1039 7.04738 51.1368 6.78452C51.1799 6.44362 51.486 6.2054 51.8311 6.24442C52.1721 6.28754 52.4145 6.59764 52.3714 6.94059C52.3632 7.00426 51.6072 13.2473 52.811 18.3731C52.889 18.7079 52.6816 19.0426 52.3467 19.1227C52.2995 19.133 52.2502 19.1391 52.2029 19.1391L52.205 19.1371Z" fill="#404040"/>
<path d="M76.916 45.0633C78.7566 40.8636 89.003 28.9382 85.9874 25.5128C79.8905 18.5879 70.8828 33.5773 70.8828 33.5773" fill="white"/>
<path d="M76.9154 45.6864C76.8312 45.6864 76.747 45.67 76.6668 45.6351C76.3526 45.4975 76.2088 45.1299 76.3464 44.8136C76.9195 43.5055 78.2219 41.5586 79.7297 39.3058C82.7514 34.7899 87.3159 27.9657 85.5205 25.9264C84.4667 24.7292 83.2999 24.2055 81.9564 24.3267C76.9585 24.7785 71.4718 33.8083 71.4183 33.9007C71.2417 34.1943 70.8596 34.2909 70.5638 34.1142C70.27 33.9376 70.1735 33.5536 70.3502 33.2599C70.5864 32.8656 76.219 23.5976 81.8435 23.0883C83.5875 22.9323 85.1405 23.61 86.4572 25.105C88.8873 27.8651 84.5735 34.3134 80.7671 40.002C79.2921 42.2076 78.0165 44.1113 77.4885 45.3168C77.3858 45.5509 77.1578 45.6905 76.9175 45.6905L76.9154 45.6864Z" fill="#404040"/>
<path d="M136.571 99.4223C136.571 99.4223 129.114 98.7795 118.621 100.336C107.894 101.928 85.5281 110.931 85.5281 110.931L84.1867 49.0859L42.4883 58.1342C42.4883 58.1342 46.494 133.64 69.8545 146.75C93.2149 159.86 141.493 136.599 141.493 136.599L136.569 99.4203L136.571 99.4223Z" fill="#007C99"/>
<path d="M108.092 203.757C107.601 216.785 192.284 236.015 213.454 215.288L215.352 131.424C216.223 120.343 209.784 111.052 200.016 108.163C200.016 108.163 175.495 102.345 167.282 101.205C159.616 100.142 137.262 99.125 137.262 99.125C126.804 99.2523 117.923 106.82 116.14 117.123L108.092 203.757Z" fill="#007C99"/>
<path d="M108.092 204.38C108.073 204.38 108.053 204.38 108.034 204.377C107.691 204.345 107.44 204.043 107.471 203.7L115.52 117.066C115.553 116.723 115.846 116.47 116.198 116.503C116.541 116.536 116.791 116.838 116.76 117.181L108.712 203.815C108.681 204.137 108.41 204.38 108.092 204.38Z" fill="#404040"/>
<path d="M85.5297 111.556C85.1907 111.556 84.9134 111.285 84.9072 110.946L83.5823 49.8569L42.6234 58.747C42.2886 58.8189 41.9558 58.6074 41.8818 58.2706C41.8079 57.9358 42.0215 57.6031 42.3584 57.5292L84.0568 48.4789C84.2396 48.4399 84.4286 48.483 84.5744 48.598C84.7203 48.713 84.8066 48.8876 84.8107 49.0744L86.1521 110.919C86.1603 111.262 85.8871 111.548 85.542 111.556H85.5276H85.5297Z" fill="#404040"/>
<path d="M183.323 104.872C183.323 104.872 179.993 78.6942 182.343 62.6738L152.107 76.8192L155.708 100.45C153.56 111.388 169.605 109.156 183.323 104.872Z" fill="white"/>
<path d="M164.825 109.023C161.467 109.023 158.556 108.419 156.76 106.811C155.125 105.345 154.558 103.201 155.076 100.439L151.491 76.9144C151.45 76.6412 151.592 76.3743 151.843 76.2572L182.079 62.1139C182.284 62.0153 182.528 62.042 182.713 62.1776C182.896 62.3152 182.991 62.5411 182.958 62.769C180.647 78.5203 183.905 104.538 183.938 104.798C183.975 105.098 183.794 105.382 183.504 105.472C178.463 107.047 170.908 109.027 164.821 109.027L164.825 109.023ZM152.794 77.1855L156.323 100.356C156.333 100.428 156.333 100.5 156.319 100.57C155.85 102.958 156.265 104.696 157.59 105.883C160.898 108.846 170.014 108.314 182.639 104.431C182.202 100.753 179.704 78.4382 181.569 63.7219L152.792 77.1834L152.794 77.1855Z" fill="#404040"/>
<path d="M167.716 83.1789C159.853 90.2824 146.044 88.7668 139.13 84.8813C110.71 68.9083 137.46 20.1326 137.46 20.1326L175.009 17.582C175.009 17.582 187.837 44.5071 188.127 43.969C188.414 43.431 185.087 68.284 185.087 68.284" fill="white"/>
<path d="M152.94 88.7759C147.56 88.7759 142.326 87.3939 138.824 85.4244C126.94 78.746 122.86 65.2455 127.028 46.383C130.147 32.2684 136.845 19.9549 136.913 19.8337C137.016 19.6468 137.205 19.5257 137.419 19.5113L174.967 16.9586C175.22 16.9402 175.463 17.0819 175.571 17.3119C180.214 27.0543 187.321 41.7254 188.439 43.4032C188.881 43.5675 188.846 43.8591 188.361 47.8616C188.084 50.1452 187.697 53.1866 187.303 56.2239C186.514 62.2986 185.703 68.365 185.703 68.365C185.658 68.7059 185.347 68.942 185.002 68.8989C184.661 68.8537 184.421 68.5395 184.468 68.1986C185.653 59.3393 187.389 46.0523 187.515 44.2C186.855 43.3128 185.368 40.4357 180.801 31.0465C178.065 25.4216 175.347 19.7331 174.631 18.2319L137.848 20.7312C136.815 22.6862 131.051 33.9442 128.242 46.6746C124.157 65.1962 127.922 77.8671 139.438 84.3381C146.174 88.1249 159.604 89.6693 167.301 82.7178C167.556 82.4877 167.95 82.5062 168.18 82.7629C168.41 83.0176 168.39 83.4119 168.135 83.6419C164.037 87.3446 158.415 88.7759 152.942 88.7759H152.94Z" fill="#404040"/>
<path d="M180.844 68.2747C180.844 68.2747 180.67 52.5009 178.823 55.76C178.823 55.76 160.464 62.3151 169.028 41.1648C169.028 41.1648 154.538 46.1901 147.418 38.1624C147.418 38.1624 121.416 38.1974 120.828 28.2065C120.243 18.2156 131.664 19.0227 131.664 19.0227C131.664 19.0227 126.909 17.1477 131.876 10.8965C147.04 -8.19196 184.394 13.1452 188.143 27.4692C188.143 27.4692 198.851 29.4489 202.216 40.9985C205.581 52.5481 207.547 64.186 181.723 81.1099L180.842 68.2747H180.844Z" fill="#404040"/>
<path d="M177.861 54.4059C177.861 54.4059 187.411 44.6491 192.222 53.3421C197.033 62.0351 189.821 70.0052 180.291 69.5781" fill="white"/>
<path d="M181.023 70.2189C180.77 70.2189 180.518 70.2127 180.263 70.2025C179.92 70.1881 179.653 69.8965 179.669 69.5515C179.686 69.2085 179.984 68.9374 180.321 68.958C185.203 69.1715 189.591 67.12 191.779 63.5939C193.619 60.6244 193.585 57.0921 191.676 53.6461C190.614 51.726 189.226 50.6355 187.549 50.4076C183.287 49.8305 178.355 54.7941 178.305 54.8434C178.065 55.0878 177.671 55.094 177.424 54.8516C177.178 54.6114 177.173 54.2171 177.414 53.9706C177.632 53.7468 182.816 48.508 187.714 49.1713C189.803 49.4547 191.502 50.7567 192.767 53.0403C194.903 56.8991 194.928 60.879 192.839 64.249C190.53 67.9722 186.05 70.2189 181.023 70.2189Z" fill="#404040"/>
<path d="M184.066 55.8828C185.439 56.6488 186.369 58.1521 186.445 59.721C186.521 61.29 185.739 62.8754 184.446 63.7708" fill="white"/>
<path d="M184.447 64.3956C184.25 64.3956 184.055 64.3011 183.934 64.1265C183.738 63.8431 183.808 63.455 184.092 63.2599C185.209 62.4857 185.889 61.1077 185.823 59.7523C185.758 58.3949 184.948 57.0888 183.763 56.4275C183.463 56.2591 183.354 55.8792 183.523 55.5794C183.689 55.2795 184.069 55.1707 184.371 55.3391C185.924 56.2057 186.984 57.9143 187.068 59.6907C187.155 61.4671 186.265 63.2681 184.802 64.2826C184.694 64.3565 184.57 64.3935 184.449 64.3935L184.447 64.3956Z" fill="#404040"/>
<path d="M157.523 51.3838C156.478 51.5009 155.397 51.2791 154.514 50.7657C153.628 50.2523 152.944 49.4493 152.607 48.5293" fill="white"/>
<path d="M152.892 47.9747C153.027 48.0445 153.136 48.1615 153.194 48.3156C153.483 49.1062 154.063 49.7839 154.827 50.2275C155.593 50.6711 156.548 50.8682 157.454 50.7655C157.797 50.7286 158.103 50.9729 158.144 51.3138C158.183 51.6568 157.937 51.9648 157.596 52.0039C156.413 52.1374 155.207 51.8909 154.202 51.3056C153.188 50.7183 152.413 49.8065 152.025 48.7448C151.906 48.4223 152.072 48.065 152.397 47.9459C152.565 47.8843 152.746 47.9007 152.894 47.9767L152.892 47.9747Z" fill="#404040"/>
<path d="M139.353 48.3516C138.669 49.1504 137.728 49.7234 136.73 49.9513C135.731 50.1793 134.684 50.0581 133.811 49.6145" fill="white"/>
<path d="M133.639 49.014C133.785 48.9729 133.945 48.9832 134.091 49.0571C134.841 49.4371 135.728 49.5397 136.591 49.3426C137.452 49.1516 138.288 48.6361 138.88 47.9441C139.104 47.6833 139.498 47.6525 139.759 47.8763C140.02 48.1001 140.051 48.4924 139.827 48.7553C139.052 49.6588 137.992 50.2955 136.869 50.5583C135.722 50.8191 134.537 50.6815 133.528 50.1681C133.222 50.0121 133.099 49.6383 133.255 49.3303C133.337 49.1701 133.479 49.0592 133.639 49.014Z" fill="#404040"/>
<path d="M145.233 67.9818C145.222 67.9818 145.212 67.9818 145.202 67.9818C142.934 67.8729 140.974 65.8624 140.925 63.5932C140.89 61.9482 141.742 60.4963 142.496 59.2148C143.339 57.7814 144.068 56.4794 144.444 55.0562C144.859 53.4873 144.742 52.0025 144.113 50.8771C143.945 50.5773 144.053 50.1974 144.353 50.029C144.653 49.8606 145.033 49.9674 145.202 50.2692C145.988 51.678 146.147 53.4914 145.65 55.3746C145.233 56.9497 144.462 58.3318 143.573 59.8453C142.87 61.0384 142.145 62.2727 142.174 63.5644C142.209 65.1765 143.653 66.6592 145.263 66.7352C145.606 66.7516 145.871 67.0432 145.855 67.3862C145.839 67.7189 145.563 67.9797 145.233 67.9797V67.9818Z" fill="#404040"/>
<path d="M154.794 95.8418L149.137 99.7498L153.235 118.842L162.951 108.669L154.794 95.8418Z" fill="white"/>
<path d="M153.234 119.467C153.177 119.467 153.121 119.458 153.064 119.442C152.842 119.378 152.673 119.2 152.624 118.974L148.526 99.8813C148.472 99.6348 148.573 99.3823 148.781 99.2385L154.438 95.3305C154.578 95.2339 154.752 95.2011 154.914 95.2319C155.081 95.2668 155.227 95.3654 155.317 95.5091L163.474 108.336C163.628 108.578 163.598 108.893 163.4 109.1L153.684 119.274C153.565 119.399 153.4 119.467 153.234 119.467ZM149.834 100.027L153.598 117.563L162.166 108.593L154.617 96.7228L149.834 100.027Z" fill="#404040"/>
<path d="M162.949 108.668L170.449 123.195C170.449 123.195 187.772 104.961 187.435 105.269C187.099 105.577 182.355 95.2969 182.355 95.2969L162.949 108.668Z" fill="white"/>
<path d="M170.45 123.82C170.421 123.82 170.393 123.82 170.362 123.814C170.162 123.785 169.988 123.662 169.895 123.483L162.396 108.956C162.252 108.676 162.338 108.336 162.595 108.157L182.001 94.7837C182.153 94.679 182.342 94.6482 182.519 94.6954C182.695 94.7447 182.843 94.8679 182.919 95.0363C184.875 99.277 187.141 103.918 187.718 104.711C187.777 104.742 187.835 104.781 187.884 104.832C188.176 105.13 188.184 105.309 187.847 105.723L187.853 105.732C187.841 105.744 187.827 105.754 187.812 105.764C187.66 105.947 187.449 106.173 187.167 106.471C186.703 106.964 186.042 107.664 185.244 108.506C183.652 110.188 181.528 112.428 179.402 114.669C175.15 119.148 170.898 123.627 170.898 123.627C170.781 123.752 170.616 123.82 170.446 123.82H170.45ZM163.755 108.872L170.602 122.134C175.894 116.564 184.737 107.249 186.613 105.247C185.998 104.329 184.791 102.039 182.102 96.2294L163.755 108.872Z" fill="#404040"/>
<path d="M117.412 248.362L91.8024 179.139L7.15258 152.951C6.03099 152.604 4.81079 152.822 3.87817 153.534L1.42339 155.411C0.114863 156.411 -0.353496 158.167 0.2792 159.687L26.2465 221.85L113.974 250.001L117.412 248.36V248.362Z" fill="#404040"/>
<path d="M31.649 213.225C31.4087 213.225 31.1807 213.086 31.078 212.851L9.64228 163.854C9.54368 163.63 9.58682 163.371 9.7491 163.191C9.91138 163.01 10.1641 162.938 10.3982 163.01L84.8736 186.05C85.0585 186.107 85.2064 186.247 85.2742 186.427L93.4499 208.526C93.5691 208.849 93.4047 209.206 93.0822 209.325C92.7597 209.446 92.4023 209.28 92.2831 208.958L84.2142 187.146L11.3329 164.599L32.2221 212.35C32.3598 212.665 32.216 213.032 31.9017 213.17C31.8216 213.205 31.7353 213.221 31.6531 213.221L31.649 213.225Z" fill="white"/>
<path d="M117.412 248.363L166.473 224.931L100.062 201.469L117.412 248.363Z" fill="#404040"/>
<path d="M116.935 238.448C116.711 238.448 116.495 238.329 116.384 238.118C116.222 237.814 116.337 237.436 116.641 237.276L121.333 234.783L115.854 232.296C115.54 232.154 115.402 231.784 115.544 231.472C115.686 231.158 116.053 231.018 116.368 231.162L123.001 234.171C123.217 234.269 123.358 234.481 123.366 234.719C123.375 234.955 123.245 235.177 123.036 235.288L117.226 238.374C117.134 238.424 117.033 238.448 116.935 238.448Z" fill="white"/>
<path d="M125.517 234.737C125.293 234.737 125.077 234.618 124.966 234.407C124.804 234.103 124.919 233.725 125.223 233.565L129.915 231.072L124.436 228.585C124.122 228.443 123.984 228.073 124.126 227.761C124.268 227.447 124.635 227.307 124.95 227.451L131.581 230.46C131.796 230.558 131.938 230.77 131.946 231.008C131.955 231.246 131.825 231.466 131.616 231.577L125.806 234.663C125.714 234.713 125.613 234.737 125.515 234.737H125.517Z" fill="white"/>
<path d="M134.095 231.028C133.871 231.028 133.655 230.909 133.544 230.698C133.382 230.394 133.497 230.016 133.801 229.856L138.493 227.363L133.014 224.876C132.7 224.734 132.562 224.364 132.704 224.052C132.846 223.738 133.214 223.598 133.528 223.742L140.159 226.751C140.375 226.849 140.516 227.061 140.525 227.299C140.533 227.535 140.403 227.757 140.194 227.868L134.385 230.954C134.292 231.004 134.191 231.028 134.093 231.028H134.095Z" fill="white"/>
<path d="M114.013 230.083C113.789 230.083 113.573 229.964 113.462 229.752C113.3 229.448 113.417 229.07 113.719 228.91L118.411 226.417L112.932 223.93C112.618 223.788 112.48 223.419 112.622 223.107C112.764 222.794 113.132 222.653 113.446 222.797L120.077 225.805C120.293 225.904 120.434 226.115 120.443 226.353C120.451 226.592 120.321 226.811 120.112 226.922L114.302 230.009C114.21 230.058 114.109 230.083 114.011 230.083H114.013Z" fill="white"/>
<path d="M110.673 222.118C110.449 222.118 110.233 221.999 110.122 221.788C109.96 221.484 110.075 221.106 110.379 220.946L115.071 218.453L109.592 215.966C109.278 215.824 109.141 215.454 109.282 215.142C109.424 214.828 109.794 214.688 110.106 214.832L116.737 217.841C116.953 217.939 117.094 218.151 117.103 218.389C117.111 218.627 116.981 218.847 116.772 218.958L110.963 222.046C110.87 222.096 110.77 222.12 110.671 222.12L110.673 222.118Z" fill="white"/>
<path d="M122.591 226.374C122.367 226.374 122.151 226.255 122.04 226.043C121.878 225.74 121.993 225.362 122.297 225.202L126.989 222.708L121.51 220.221C121.196 220.08 121.059 219.71 121.2 219.398C121.342 219.084 121.71 218.944 122.024 219.088L128.655 222.096C128.871 222.195 129.012 222.407 129.021 222.645C129.029 222.881 128.899 223.103 128.69 223.214L122.881 226.3C122.788 226.349 122.688 226.374 122.589 226.374H122.591Z" fill="white"/>
<path d="M116.27 248.917C116.014 248.917 115.773 248.759 115.683 248.502L100.2 204.972C100.085 204.647 100.254 204.292 100.578 204.177C100.901 204.062 101.258 204.23 101.373 204.555L116.856 248.085C116.971 248.41 116.802 248.765 116.478 248.88C116.41 248.905 116.338 248.915 116.268 248.915L116.27 248.917Z" fill="white"/>
<path d="M166.472 224.93L167.031 229.072L113.973 250L166.242 224.96" fill="#404040"/>
<path d="M164.383 77.8683C163.818 77.8683 163.241 77.8416 162.65 77.7841C162.307 77.7513 162.056 77.4473 162.089 77.1044C162.122 76.7614 162.426 76.5027 162.769 76.5437C175.244 77.7369 180.821 64.7005 180.877 64.5691C181.008 64.2508 181.376 64.1008 181.692 64.2343C182.008 64.3658 182.161 64.7313 182.027 65.0476C181.972 65.181 176.546 77.8683 164.383 77.8683Z" fill="#404040"/>
<path d="M164.218 80.1457C165.93 79.9764 167.18 78.4521 167.011 76.741C166.841 75.0299 165.316 73.7801 163.605 73.9494C161.893 74.1186 160.643 75.643 160.812 77.354C160.982 79.0651 162.507 80.315 164.218 80.1457Z" fill="#404040"/>
<path d="M182.713 60.2137C182.604 60.2137 182.493 60.1993 182.382 60.1685C181.719 59.9857 181.329 59.3019 181.509 58.6385C181.542 58.5194 184.753 46.6331 184.519 34.0094C184.213 17.4736 178.447 7.55464 167.385 4.52965C166.721 4.34893 166.329 3.66302 166.512 2.9997C166.692 2.33638 167.376 1.94413 168.042 2.12691C180.137 5.43324 186.696 16.4591 187.011 34.0115C187.243 46.9883 184.048 58.8008 183.911 59.2978C183.759 59.8502 183.258 60.2137 182.709 60.2137H182.713Z" fill="#007C99"/>
<path d="M185.258 72.1537C192.542 72.1537 198.446 66.2509 198.446 58.9694C198.446 51.688 192.542 45.7852 185.258 45.7852C177.975 45.7852 172.07 51.688 172.07 58.9694C172.07 66.2509 177.975 72.1537 185.258 72.1537Z" fill="#D8D8D8"/>
<path d="M185.258 72.7751C177.643 72.7751 171.447 66.5814 171.447 58.9686C171.447 51.3558 177.643 45.1621 185.258 45.1621C192.873 45.1621 199.068 51.3558 199.068 58.9686C199.068 66.5814 192.873 72.7751 185.258 72.7751ZM185.258 46.4066C178.329 46.4066 172.692 52.0418 172.692 58.9686C172.692 65.8955 178.329 71.5306 185.258 71.5306C192.187 71.5306 197.823 65.8955 197.823 58.9686C197.823 52.0418 192.187 46.4066 185.258 46.4066Z" fill="#404040"/>
<path d="M185.259 65.0677C188.629 65.0677 191.36 62.3369 191.36 58.9684C191.36 55.5999 188.629 52.8691 185.259 52.8691C181.89 52.8691 179.158 55.5999 179.158 58.9684C179.158 62.3369 181.89 65.0677 185.259 65.0677Z" fill="#007C99" fill-opacity="0.5"/>
<path d="M185.259 65.6893C181.551 65.6893 178.533 62.6725 178.533 58.9658C178.533 55.259 181.551 52.2422 185.259 52.2422C188.967 52.2422 191.984 55.259 191.984 58.9658C191.984 62.6725 188.967 65.6893 185.259 65.6893ZM185.259 53.4887C182.237 53.4887 179.78 55.9449 179.78 58.9658C179.78 61.9866 182.237 64.4428 185.259 64.4428C188.28 64.4428 190.737 61.9866 190.737 58.9658C190.737 55.9449 188.28 53.4887 185.259 53.4887Z" fill="#404040"/>
<path d="M181.109 172.487L179.394 199.073L154.838 196.379L148.215 195.149C151.604 197.808 149.698 200.819 146.346 202.145C143.449 203.295 133.653 204.382 131.401 201.609C129.144 198.841 129.481 196.377 129.481 196.377C129.481 196.377 126.204 196.155 124.972 194.327C123.108 191.58 124.265 189.573 124.265 189.573C124.265 189.573 121.428 190.261 119.929 186.628C118.46 183.088 122.139 180.33 122.318 180.196C122.137 180.246 118.427 181.272 113.575 179.769C108.604 178.225 107.402 175.929 108.76 173.313C110.114 170.696 142.847 159.157 154.324 160.709C165.803 162.258 181.109 172.485 181.109 172.485V172.487Z" fill="white"/>
<path d="M138.02 203.967C134.995 203.967 132.108 203.468 130.919 202.001C129.187 199.878 128.877 197.904 128.844 196.929C127.766 196.765 125.512 196.243 124.456 194.676C123.175 192.785 123.185 191.185 123.388 190.224C122.256 190.129 120.451 189.528 119.352 186.864C118.355 184.463 119.411 182.42 120.467 181.13C118.814 181.284 116.287 181.262 113.39 180.364C110.399 179.436 108.551 178.165 107.891 176.588C107.437 175.499 107.544 174.302 108.206 173.027C109.695 170.15 142.837 158.532 154.407 160.095C165.896 161.646 180.826 171.55 181.455 171.971C181.639 172.094 181.744 172.306 181.73 172.53L180.015 199.116C180.004 199.286 179.924 199.443 179.793 199.553C179.663 199.662 179.495 199.714 179.324 199.695L154.766 197.001L149.974 196.112C150.607 197.075 150.678 197.964 150.582 198.625C150.339 200.297 148.84 201.829 146.572 202.728C145.062 203.328 141.451 203.971 138.018 203.971L138.02 203.967ZM124.259 188.951C124.454 188.951 124.643 189.043 124.762 189.203C124.908 189.402 124.927 189.669 124.804 189.883C124.769 189.947 123.885 191.614 125.488 193.978C126.533 195.53 129.493 195.754 129.524 195.756C129.697 195.769 129.855 195.851 129.964 195.984C130.073 196.118 130.122 196.29 130.097 196.461C130.087 196.549 129.845 198.713 131.884 201.215C133.817 203.597 143.16 202.739 146.116 201.566C147.938 200.845 149.177 199.648 149.353 198.442C149.526 197.249 148.622 196.257 147.831 195.637C147.605 195.461 147.529 195.153 147.648 194.892C147.766 194.631 148.045 194.485 148.33 194.536L154.953 195.767L178.817 198.383L180.466 172.809C178.279 171.39 164.573 162.722 154.242 161.327C142.944 159.799 110.545 171.45 109.313 173.6C108.822 174.546 108.734 175.366 109.042 176.107C109.551 177.327 111.139 178.36 113.76 179.173C118.277 180.574 121.765 179.699 122.15 179.596C122.433 179.516 122.743 179.654 122.875 179.925C123.006 180.194 122.928 180.516 122.688 180.697C122.332 180.962 119.249 183.371 120.502 186.392C121.767 189.46 124.025 188.99 124.122 188.969C124.167 188.959 124.212 188.955 124.259 188.955V188.951Z" fill="#404040"/>
<path d="M129.48 196.376C129.48 196.376 130.721 193.84 134.417 191.445C138.112 189.051 145.146 188.531 145.146 188.531" fill="white"/>
<path d="M129.481 197.001C129.389 197.001 129.294 196.98 129.206 196.937C128.898 196.785 128.77 196.414 128.92 196.106C128.974 195.997 130.28 193.385 134.078 190.926C137.866 188.476 144.805 187.936 145.099 187.914C145.453 187.889 145.74 188.146 145.767 188.489C145.792 188.832 145.535 189.129 145.192 189.156C145.124 189.162 138.273 189.694 134.756 191.974C131.272 194.229 130.052 196.631 130.04 196.656C129.931 196.876 129.709 197.003 129.481 197.003V197.001Z" fill="#404040"/>
<path d="M124.266 189.569C124.266 189.569 124.917 187.407 128.179 185.544C131.441 183.68 140.215 181.725 140.215 181.725" fill="white"/>
<path d="M124.263 190.193C124.203 190.193 124.14 190.184 124.08 190.164C123.753 190.063 123.569 189.72 123.667 189.392C123.698 189.293 124.429 186.968 127.868 185.005C131.175 183.116 139.715 181.198 140.076 181.118C140.411 181.04 140.746 181.253 140.82 181.59C140.896 181.925 140.684 182.257 140.347 182.333C140.261 182.352 131.629 184.291 128.484 186.087C125.512 187.786 124.863 189.737 124.857 189.757C124.772 190.022 124.526 190.193 124.261 190.193H124.263Z" fill="#404040"/>
<path d="M143.617 195.986C143.287 195.986 143.011 195.727 142.995 195.393C142.978 195.05 143.243 194.758 143.589 194.742L148.186 194.526C148.527 194.512 148.821 194.774 148.837 195.119C148.853 195.462 148.588 195.754 148.243 195.77L143.646 195.986C143.646 195.986 143.626 195.986 143.615 195.986H143.617Z" fill="#404040"/>
<path d="M122.324 180.195C122.324 180.195 124.635 177.968 126.821 176.835C129.009 175.701 136.496 173.865 136.496 173.865" fill="white"/>
<path d="M122.324 180.817C122.161 180.817 121.997 180.753 121.874 180.626C121.635 180.377 121.642 179.985 121.89 179.745C121.987 179.653 124.291 177.445 126.533 176.283C128.759 175.126 136.037 173.336 136.348 173.26C136.68 173.18 137.019 173.383 137.102 173.716C137.184 174.05 136.978 174.387 136.645 174.469C136.572 174.488 129.203 176.299 127.108 177.387C125.029 178.466 122.778 180.62 122.755 180.642C122.634 180.759 122.48 180.817 122.324 180.817Z" fill="#404040"/>
<path d="M196.515 107.342C196.515 107.342 220.331 108.217 228.285 117.121C236.237 126.026 273.426 175.372 258.505 198.085C242.28 222.78 172.38 202.42 172.38 202.42L167.717 160.438L224.785 168.624L191.361 123.196L196.515 107.342Z" fill="#007C99"/>
<path d="M218.74 211.374C192.697 211.323 172.346 203.08 172.144 202.998C171.933 202.911 171.787 202.716 171.762 202.49L167.099 160.508C167.079 160.317 167.147 160.126 167.286 159.993C167.424 159.859 167.617 159.798 167.808 159.824L223.405 167.801L190.862 123.568C190.659 123.29 190.719 122.9 190.996 122.697C191.273 122.494 191.664 122.553 191.867 122.83L225.291 168.259C225.439 168.462 225.451 168.733 225.324 168.949C225.194 169.164 224.948 169.283 224.701 169.246L168.43 161.174L172.964 201.983C175.721 203.051 194.798 210.085 218.748 210.132C219.093 210.132 219.371 210.411 219.371 210.756C219.371 211.099 219.091 211.379 218.748 211.379L218.74 211.374Z" fill="#404040"/>
</g>
<defs>
<clipPath id="clip0_3632_68058">
<rect width="262" height="250" fill="white"/>
</clipPath>
</defs>
</svg>
