<svg width="313" height="300" viewBox="0 0 313 300" fill="none" xmlns="http://www.w3.org/2000/svg">
<g clip-path="url(#clip0_2562_85541)">
<path d="M8.96484 167.444C8.96484 167.444 13.3141 155.074 19.9857 151.263C28.3013 146.512 159.852 155.378 170.091 163.923C180.329 172.473 176.971 283.598 171.098 288.627C165.226 293.657 132.325 291.645 132.325 291.645L8.96484 167.444Z" fill="#404040"/>
<path d="M38.9772 221.918L0.882809 132.917C-1.48951 127.364 1.08258 120.939 6.64296 118.569L58.8797 96.2745C64.4317 93.8971 70.8661 96.4823 73.2426 102.031L111.337 191.028C113.718 196.572 111.129 202.998 105.577 205.376L53.3443 227.666C47.7839 230.048 41.3495 227.467 38.9772 221.914V221.918Z" fill="#007C99"/>
<path d="M55.1191 97.8832L38.7275 104.879L85.4179 213.985L101.809 206.99L55.1191 97.8832Z" fill="#404040"/>
<path d="M47.6637 154.465L33.5586 121.504L28.6025 123.619L42.7076 156.58L47.6637 154.465Z" fill="white"/>
<path d="M29.0087 138.574L23.5361 125.785L18.58 127.9L24.0526 140.689L29.0087 138.574Z" fill="white"/>
<path d="M62.9123 208.359C57.3103 210.749 50.8218 208.151 48.4287 202.557C46.0356 196.962 48.6368 190.482 54.2388 188.092C59.8616 185.694 66.3501 188.292 68.7432 193.887C71.1363 199.481 68.5351 205.961 62.9123 208.359Z" fill="#EA4747"/>
<path d="M133.287 173.054C144.923 161.434 144.923 142.594 133.287 130.973C121.651 119.353 102.785 119.353 91.1496 130.973C79.5138 142.594 79.5138 161.434 91.1496 173.054C102.785 184.674 121.651 184.674 133.287 173.054Z" fill="#FF9318"/>
<path d="M112.156 182.624C105.426 182.624 98.9171 180.421 93.5024 176.248C87.0222 171.256 82.8727 164.04 81.8239 155.931C80.7751 147.822 82.9518 139.792 87.9545 133.32C92.953 126.849 100.178 122.705 108.298 121.658C116.418 120.61 124.459 122.784 130.939 127.776C137.419 132.768 141.569 139.983 142.618 148.092L140.932 148.308C139.941 140.652 136.025 133.836 129.903 129.118C123.781 124.401 116.189 122.352 108.519 123.337C100.852 124.326 94.0268 128.237 89.303 134.351C84.5791 140.465 82.5231 148.051 83.5137 155.707C84.5042 163.363 88.4206 170.179 94.5429 174.897C100.665 179.614 108.257 181.668 115.927 180.678L116.143 182.362C114.812 182.532 113.48 182.619 112.156 182.619V182.624Z" fill="url(#paint0_linear_2562_85541)"/>
<path d="M143.858 192.929C157.626 187.087 164.045 171.204 158.195 157.455C152.346 143.705 136.442 137.295 122.674 143.137C108.906 148.979 102.487 164.861 108.337 178.611C114.187 192.36 130.09 198.771 143.858 192.929Z" fill="#FF9318"/>
<path d="M133.241 195.94C119.415 195.94 107.37 185.662 105.555 171.613C103.583 156.355 114.408 142.344 129.686 140.374C137.09 139.418 144.415 141.4 150.325 145.951C156.235 150.503 160.015 157.078 160.968 164.472L159.282 164.688C158.387 157.747 154.837 151.571 149.285 147.298C143.737 143.025 136.857 141.163 129.903 142.061C115.556 143.911 105.389 157.074 107.241 171.401C109.093 185.728 122.266 195.878 136.62 194.033L136.837 195.716C135.63 195.87 134.427 195.949 133.241 195.949V195.94Z" fill="url(#paint1_linear_2562_85541)"/>
<path d="M2.43439 283.711C12.4189 290.307 148.511 306.92 161.463 294.925C170.694 286.375 162.974 176.019 160.118 173.504C157.263 170.99 13.9297 154.227 8.14044 166.297C-0.212613 183.713 -2.18122 279.351 2.43439 283.711Z" fill="#76D8EF"/>
<path d="M132.042 300.001C114.134 300.001 92.8493 298.272 80.7588 297.133C47.2176 293.97 7.5541 288.105 1.96875 284.418L2.90519 283.001C7.69144 286.16 44.1419 291.975 80.9169 295.441C125.662 299.66 155.557 299.236 160.885 294.298C164.489 290.961 165.846 267.984 164.506 232.834C163.34 202.226 160.702 176.361 159.52 174.116C155.899 172.354 79.2854 162.815 35.6515 162.815C35.2311 162.815 34.8232 162.815 34.4071 162.815L34.3987 161.119C34.8024 161.119 35.2103 161.119 35.6182 161.119C79.0024 161.119 158.225 170.704 160.677 172.861C163.082 174.981 166.295 221.05 166.662 250.673C166.99 277.294 165.434 292.39 162.033 295.541C158.408 298.899 146.289 299.997 132.034 299.997L132.042 300.001Z" fill="#404040"/>
<path d="M176.667 212.87L176.659 217.97C176.659 217.97 128.692 213.165 123.094 220.987C118.304 227.683 123.261 257.451 130.311 259.966C137.361 262.481 170.054 263.757 179.909 258.96C185.648 256.167 187.713 211.943 176.667 212.866V212.87Z" fill="#00A3C9"/>
<path d="M177.241 234.188C176.787 234.188 176.408 233.831 176.392 233.37L175.809 218.003C175.792 217.534 176.159 217.139 176.625 217.122C177.079 217.097 177.486 217.471 177.507 217.937L178.09 233.303C178.107 233.773 177.74 234.168 177.274 234.184C177.262 234.184 177.253 234.184 177.241 234.184V234.188Z" fill="#404040"/>
<path d="M202.184 129.897L197.68 164.624L197.613 165.139L197.1 165.052L197.184 164.559L197.099 165.052L197.099 165.051C197.098 165.051 197.096 165.051 197.094 165.051C197.09 165.05 197.085 165.049 197.077 165.048C197.062 165.045 197.039 165.041 197.01 165.036C196.95 165.026 196.862 165.011 196.745 164.991C196.513 164.951 196.169 164.893 195.725 164.818C194.838 164.666 193.55 164.447 191.949 164.174C188.747 163.629 184.292 162.869 179.279 162.017C169.253 160.311 156.996 158.229 148.07 156.722L148.068 156.721C140.481 155.432 134.395 149.77 132.588 142.314L132.578 142.276L132.576 142.237L128.239 88.2794C127.005 84.3502 124.731 78.7113 122.708 73.5043C121.695 70.8968 120.745 68.3994 120.028 66.2951C119.362 64.339 118.878 62.6739 118.748 61.5683L118.727 61.355C118.61 59.8766 118.834 58.76 119.279 57.9252C119.726 57.0859 120.375 56.5712 121.032 56.2638C121.682 55.9597 122.338 55.8587 122.823 55.8313C122.907 55.8265 122.988 55.8251 123.062 55.8241C123.06 55.7771 123.056 55.7279 123.055 55.6764C123.041 55.2403 123.044 54.6398 123.113 53.9877C123.246 52.7245 123.64 51.0956 124.819 50.2077L125.984 49.331L125.874 49.7449C126.205 49.6784 126.541 49.67 126.871 49.7051C127.559 49.7784 128.242 50.0323 128.83 50.3206C129.367 50.5841 129.847 50.8868 130.209 51.1371C130.213 51.1075 130.216 51.0766 130.22 51.0459C130.308 50.4705 130.456 49.6967 130.696 48.9152C130.934 48.1397 131.273 47.323 131.759 46.6862C132.25 46.0437 132.93 45.5388 133.831 45.5172C134.675 45.497 135.441 45.8346 136.093 46.3002C136.744 46.766 137.314 47.3819 137.778 47.9813C138.078 48.3686 138.338 48.7567 138.554 49.1031C138.848 47.6721 139.296 46.6153 139.859 45.8835C140.614 44.9008 141.573 44.5127 142.551 44.6175C143.497 44.7189 144.387 45.2711 145.081 46.0099C145.692 46.6604 146.185 47.4871 146.456 48.3715L146.557 48.7536L146.56 48.7665L149.356 62.6337L154.918 59.1878L155.232 59.0066C156.931 58.1435 159.02 58.5618 160.256 60.0428L160.257 60.0437C161.556 61.6055 161.509 63.8913 160.141 65.3994L154.429 71.7137L161.251 123.273L201.761 129.339L202.247 129.412L202.184 129.897Z" fill="white" stroke="#007C99"/>
<path d="M146.618 239.939C146.618 244.794 142.672 248.734 137.803 248.734C132.933 248.734 128.996 244.794 128.996 239.939C128.996 235.085 132.942 231.145 137.803 231.145C142.664 231.145 146.618 235.076 146.618 239.939Z" fill="white"/>
<path d="M139.656 50.4516L137.982 50.7539L140.23 63.195L141.903 62.8927L139.656 50.4516Z" fill="#404040"/>
<path d="M250.225 133.208L201.667 126.45C195.974 125.44 186.892 159.406 191.87 165.881L228.2 175.283L250.225 133.208Z" fill="#76D8EF"/>
<path d="M131.425 51.8379L129.781 52.2715L133.164 65.0682L134.809 64.6346L131.425 51.8379Z" fill="#404040"/>
<path d="M198.617 270.274C206.979 284.223 312.63 280.919 313.004 273.757C307.448 246.28 307.914 209.795 292.923 156.028C288.649 140.699 273.911 130.686 258.062 132.34L252.207 132.951C247.812 133.409 243.508 134.597 239.563 136.576C226.203 143.284 216.784 155.072 214.553 170.33L198.626 270.274H198.617Z" fill="#76D8EF"/>
<path d="M124.391 56.0311L122.81 56.6562L126.995 67.1922L128.576 66.567L124.391 56.0311Z" fill="#404040"/>
<path d="M199.454 270.406L197.776 270.136L214.861 164.688C214.961 164.198 217.229 153.399 222.602 149.264L223.643 150.606C218.773 154.359 216.559 164.888 216.534 164.996L199.458 270.41L199.454 270.406Z" fill="#404040"/>
<path d="M240.686 179.724L268.6 200.975L269.016 201.291L268.681 201.692L268.297 201.373L268.681 201.693H268.68C268.679 201.694 268.678 201.696 268.677 201.697C268.674 201.7 268.671 201.704 268.666 201.71C268.656 201.722 268.642 201.74 268.623 201.763C268.584 201.809 268.527 201.878 268.451 201.969C268.3 202.15 268.078 202.417 267.79 202.763C267.215 203.453 266.381 204.455 265.344 205.701C263.269 208.193 260.382 211.66 257.135 215.562C253.888 219.463 250.279 223.799 246.762 228.029L236.93 239.86C232.016 245.766 224.056 248.19 216.677 246.022L216.639 246.012L216.604 245.994L167.561 222.76C163.53 221.861 157.496 221.005 151.963 220.148C149.191 219.72 146.548 219.291 144.361 218.857C142.194 218.428 140.418 217.984 139.42 217.511H139.419C138.077 216.873 137.219 216.121 136.716 215.319C136.21 214.513 136.088 213.695 136.149 212.974C136.21 212.259 136.45 211.641 136.669 211.209C136.707 211.134 136.746 211.065 136.782 211.001C136.741 210.979 136.696 210.959 136.65 210.935C136.265 210.728 135.745 210.426 135.213 210.041C134.182 209.295 132.964 208.139 132.782 206.676L132.604 205.233L132.906 205.534C133.014 205.214 133.176 204.919 133.372 204.651C133.78 204.094 134.341 203.631 134.886 203.268C135.382 202.936 135.884 202.675 136.282 202.487C136.259 202.469 136.235 202.452 136.212 202.434C135.756 202.07 135.157 201.555 134.598 200.957C134.043 200.364 133.503 199.663 133.193 198.924C132.88 198.178 132.782 197.338 133.215 196.548C133.619 195.809 134.295 195.316 135.024 194.986C135.755 194.657 136.575 194.474 137.327 194.373C137.813 194.308 138.279 194.277 138.688 194.264C137.593 193.295 136.9 192.381 136.546 191.53C136.069 190.386 136.212 189.362 136.793 188.568C137.354 187.803 138.278 187.312 139.267 187.082C140.137 186.88 141.1 186.868 142.003 187.076L142.386 187.179L142.398 187.183L155.845 191.703L155.632 185.179V185.163C155.632 185.087 155.628 184.938 155.633 184.822V184.816C155.733 182.916 157.141 181.322 159.044 180.996H159.045C161.049 180.655 163.012 181.837 163.638 183.774H163.637L166.266 191.861L214.468 211.752L239.992 179.809L240.297 179.428L240.686 179.724Z" fill="white" stroke="#007C99"/>
<path d="M140.412 193.988L139.838 195.584L151.769 199.864L152.343 198.268L140.412 193.988Z" fill="#007C99"/>
<path d="M137.5 201.787L137.055 203.424L149.862 206.901L150.308 205.265L137.5 201.787Z" fill="#007C99"/>
<path d="M137.625 209.957L137.378 211.635L148.623 213.289L148.87 211.611L137.625 209.957Z" fill="#007C99"/>
<path d="M249.738 162.382L230.889 186.705L262.79 214.865L282.509 186.905C287.158 180.288 287.508 171.522 283.271 164.639C283.042 164.265 282.805 163.899 282.555 163.533C274.86 152.182 258.287 151.65 249.742 162.378L249.738 162.382Z" fill="#76D8EF"/>
<path d="M262.936 216.129L229.728 186.818L249.064 161.863L250.408 162.902L232.046 186.598L262.64 213.602L278.639 190.916L280.029 191.893L262.936 216.129Z" fill="#404040"/>
<mask id="path-29-outside-1_2562_85541" maskUnits="userSpaceOnUse" x="229.063" y="52.6797" width="66" height="91" fill="black">
<rect fill="white" x="229.063" y="52.6797" width="66" height="91"/>
<path d="M246.988 59.9715C252.188 55.8626 258.293 53.706 264.676 55.1063L264.675 55.1073C273.359 57.007 280.778 60.2433 285.908 65.2293C291.072 70.2494 293.843 76.9736 293.325 85.6405C292.82 94.0947 289.349 101.704 283.95 107.593L276.69 134.171L276.558 134.654L276.091 134.838C268.628 137.766 260.918 140.851 255.012 141.692C252.066 142.112 249.365 142.008 247.335 140.865C245.211 139.67 244.049 137.48 243.914 134.305L243.869 133.263H244.037L245.913 118.488C243.034 117.562 240.226 116.141 237.591 114.082C232.646 110.214 230.392 104.172 230.097 97.5311C229.802 90.8896 231.455 83.5426 234.445 76.8573C237.435 70.1728 241.795 64.0751 246.988 59.9715ZM282.506 109.081L275.725 133.907C274.786 134.276 273.845 134.645 272.908 135.012L275.726 133.907L282.507 109.081H282.506ZM292.362 84.8504C292.372 84.5914 292.378 84.3342 292.381 84.0789C292.378 84.3342 292.372 84.5914 292.362 84.8504Z"/>
</mask>
<path d="M246.988 59.9715C252.188 55.8626 258.293 53.706 264.676 55.1063L264.675 55.1073C273.359 57.007 280.778 60.2433 285.908 65.2293C291.072 70.2494 293.843 76.9736 293.325 85.6405C292.82 94.0947 289.349 101.704 283.95 107.593L276.69 134.171L276.558 134.654L276.091 134.838C268.628 137.766 260.918 140.851 255.012 141.692C252.066 142.112 249.365 142.008 247.335 140.865C245.211 139.67 244.049 137.48 243.914 134.305L243.869 133.263H244.037L245.913 118.488C243.034 117.562 240.226 116.141 237.591 114.082C232.646 110.214 230.392 104.172 230.097 97.5311C229.802 90.8896 231.455 83.5426 234.445 76.8573C237.435 70.1728 241.795 64.0751 246.988 59.9715ZM282.506 109.081L275.725 133.907C274.786 134.276 273.845 134.645 272.908 135.012L275.726 133.907L282.507 109.081H282.506ZM292.362 84.8504C292.372 84.5914 292.378 84.3342 292.381 84.0789C292.378 84.3342 292.372 84.5914 292.362 84.8504Z" fill="white"/>
<path d="M246.988 59.9715L246.368 59.1869L246.368 59.1869L246.988 59.9715ZM264.676 55.1063L265.383 55.8134L266.676 54.5211L264.891 54.1295L264.676 55.1063ZM264.675 55.1073L263.968 54.4001L262.675 55.6933L264.462 56.0842L264.675 55.1073ZM285.908 65.2293L286.605 64.5123L286.605 64.5123L285.908 65.2293ZM293.325 85.6405L292.327 85.5808V85.5808L293.325 85.6405ZM283.95 107.593L283.213 106.917L283.049 107.095L282.985 107.329L283.95 107.593ZM276.69 134.171L275.725 133.907L275.725 133.908L276.69 134.171ZM276.558 134.654L276.924 135.585L277.391 135.401L277.523 134.917L276.558 134.654ZM276.091 134.838L276.457 135.769L276.457 135.768L276.091 134.838ZM255.012 141.692L255.153 142.682L255.153 142.682L255.012 141.692ZM247.335 140.865L246.844 141.737L246.844 141.737L247.335 140.865ZM243.914 134.305L244.913 134.263L244.913 134.262L243.914 134.305ZM243.869 133.263V132.263H242.825L242.87 133.306L243.869 133.263ZM244.037 133.263V134.263H244.918L245.029 133.388L244.037 133.263ZM245.913 118.488L246.905 118.614L247.009 117.79L246.219 117.536L245.913 118.488ZM237.591 114.082L236.975 114.87L236.976 114.87L237.591 114.082ZM230.097 97.5311L229.098 97.5755L229.098 97.5755L230.097 97.5311ZM234.445 76.8573L233.532 76.449L233.532 76.449L234.445 76.8573ZM282.506 109.081V108.081H281.743L281.542 108.817L282.506 109.081ZM275.725 133.907L276.09 134.838L276.558 134.655L276.69 134.171L275.725 133.907ZM272.908 135.012L272.543 134.08L273.272 135.943L272.908 135.012ZM275.726 133.907L276.091 134.838L276.559 134.655L276.691 134.171L275.726 133.907ZM282.507 109.081L283.472 109.344L283.817 108.081H282.507V109.081ZM292.381 84.0789L293.381 84.0938L291.382 84.0639L292.381 84.0789ZM246.988 59.9715L247.608 60.7561C252.647 56.7741 258.453 54.7649 264.462 56.0831L264.676 55.1063L264.891 54.1295C258.133 52.6471 251.728 54.951 246.368 59.1869L246.988 59.9715ZM264.676 55.1063L263.969 54.3992L263.968 54.4001L264.675 55.1073L265.383 55.8144L265.383 55.8134L264.676 55.1063ZM264.675 55.1073L264.462 56.0842C273.048 57.9627 280.266 61.14 285.211 65.9464L285.908 65.2293L286.605 64.5123C281.291 59.3467 273.67 56.0514 264.889 54.1304L264.675 55.1073ZM285.908 65.2293L285.211 65.9464C290.155 70.7528 292.828 77.1883 292.327 85.5808L293.325 85.6405L294.323 85.7001C294.857 76.7588 291.989 69.7461 286.605 64.5123L285.908 65.2293ZM293.325 85.6405L292.327 85.5808C291.836 93.7931 288.466 101.188 283.213 106.917L283.95 107.593L284.687 108.268C290.233 102.22 293.804 94.3962 294.323 85.7001L293.325 85.6405ZM283.95 107.593L282.985 107.329L275.725 133.907L276.69 134.171L277.655 134.434L284.914 107.856L283.95 107.593ZM276.69 134.171L275.725 133.908L275.593 134.391L276.558 134.654L277.523 134.917L277.655 134.434L276.69 134.171ZM276.558 134.654L276.192 133.724L275.725 133.907L276.091 134.838L276.457 135.768L276.924 135.585L276.558 134.654ZM276.091 134.838L275.726 133.907C268.212 136.855 260.633 139.881 254.871 140.702L255.012 141.692L255.153 142.682C261.204 141.82 269.044 138.677 276.457 135.769L276.091 134.838ZM255.012 141.692L254.871 140.702C251.99 141.112 249.563 140.972 247.825 139.994L247.335 140.865L246.844 141.737C249.168 143.044 252.142 143.111 255.153 142.682L255.012 141.692ZM247.335 140.865L247.825 139.994C246.088 139.016 245.038 137.202 244.913 134.263L243.914 134.305L242.915 134.348C243.06 137.759 244.335 140.324 246.844 141.737L247.335 140.865ZM243.914 134.305L244.913 134.262L244.868 133.219L243.869 133.263L242.87 133.306L242.915 134.349L243.914 134.305ZM243.869 133.263V134.263H244.037V133.263V132.263H243.869V133.263ZM244.037 133.263L245.029 133.388L246.905 118.614L245.913 118.488L244.921 118.362L243.045 133.137L244.037 133.263ZM245.913 118.488L246.219 117.536C243.446 116.644 240.744 115.277 238.207 113.294L237.591 114.082L236.976 114.87C239.708 117.005 242.622 118.48 245.607 119.44L245.913 118.488ZM237.591 114.082L238.207 113.294C233.566 109.664 231.383 103.943 231.096 97.4867L230.097 97.5311L229.098 97.5755C229.402 104.4 231.727 110.765 236.975 114.87L237.591 114.082ZM230.097 97.5311L231.096 97.4867C230.809 91.0306 232.418 83.8387 235.358 77.2655L234.445 76.8573L233.532 76.449C230.492 83.2464 228.795 90.7487 229.098 97.5755L230.097 97.5311ZM234.445 76.8573L235.358 77.2655C238.298 70.6923 242.569 64.7379 247.608 60.7561L246.988 59.9715L246.368 59.1869C241.021 63.4124 236.572 69.6532 233.532 76.449L234.445 76.8573ZM282.506 109.081L281.542 108.817L274.761 133.644L275.725 133.907L276.69 134.171L283.471 109.344L282.506 109.081ZM275.725 133.907L275.36 132.976C274.42 133.345 273.481 133.714 272.544 134.08L272.908 135.012L273.272 135.943C274.21 135.576 275.152 135.206 276.09 134.838L275.725 133.907ZM272.908 135.012L273.273 135.943L276.091 134.838L275.726 133.907L275.361 132.976L272.543 134.08L272.908 135.012ZM275.726 133.907L276.691 134.171L283.472 109.344L282.507 109.081L281.543 108.817L274.762 133.644L275.726 133.907ZM282.507 109.081V108.081H282.506V109.081V110.081H282.507V109.081ZM292.362 84.8504L293.361 84.8887C293.371 84.6195 293.377 84.3541 293.381 84.0938L292.381 84.0789L291.382 84.0641C291.378 84.3143 291.372 84.5632 291.363 84.8122L292.362 84.8504ZM292.381 84.0789L291.382 84.0639C291.378 84.3144 291.372 84.5633 291.363 84.8122L292.362 84.8504L293.361 84.8887C293.371 84.6194 293.377 84.354 293.381 84.0939L292.381 84.0789Z" fill="#404040" mask="url(#path-29-outside-1_2562_85541)"/>
<path d="M254.067 121.046C247.57 121.046 241.931 119.2 237.228 115.522L238.276 114.184C244.931 119.387 253.655 120.663 264.201 117.97L264.622 119.616C260.888 120.568 257.367 121.046 254.067 121.046Z" fill="#404040"/>
<path d="M286.951 108.07C291.913 108.07 295.936 104.053 295.936 99.0967C295.936 94.1407 291.913 90.123 286.951 90.123C281.988 90.123 277.965 94.1407 277.965 99.0967C277.965 104.053 281.988 108.07 286.951 108.07Z" fill="white"/>
<path d="M288.653 105.069L288.012 103.498C289.847 102.754 290.954 101.744 291.304 100.493C291.87 98.4646 290.301 96.295 290.284 96.2742L291.645 95.2559C291.733 95.3722 293.739 98.0905 292.939 100.946C292.444 102.729 291 104.117 288.648 105.069H288.653Z" fill="#404040"/>
<path d="M241.627 100.41C241.498 100.41 241.364 100.381 241.239 100.318C239.97 99.674 239.034 98.5144 238.667 97.1386C238.301 95.7628 238.538 94.2915 239.321 93.1027L245.755 83.302C246.013 82.9113 246.538 82.799 246.933 83.0567C247.324 83.3144 247.432 83.8381 247.179 84.233L240.744 94.0338C240.228 94.8193 240.07 95.7919 240.311 96.7022C240.553 97.6124 241.173 98.3772 242.014 98.8053C242.434 99.0173 242.596 99.5285 242.384 99.9483C242.234 100.243 241.935 100.414 241.627 100.414V100.41Z" fill="#404040"/>
<path d="M258.974 103.391C259.686 105.261 258.212 107.551 255.686 108.511C253.16 109.472 250.534 108.732 249.822 106.861C249.11 104.991 251.807 105.315 254.338 104.359C256.868 103.403 258.267 101.524 258.978 103.391H258.974Z" stroke="#404040" stroke-width="2" stroke-miterlimit="10"/>
<path d="M286.767 119.197C284.079 119.197 281.503 118.469 279.388 117.052C275.559 114.483 273.666 109.641 274.881 105.543C275.821 102.376 278.31 100.086 280.375 98.4438C281.419 97.6126 282.456 96.6524 283.55 95.6341C284.574 94.6823 285.619 93.7097 286.701 92.8285C282.56 92.496 278.456 89.9357 276.055 85.9539C273.528 81.7642 273.349 77.2047 273.507 73.2935C273.553 72.1089 273.041 71.8679 271.414 71.2901C271.143 71.1945 270.86 71.0948 270.573 70.9826C268.659 70.2386 266.644 69.6525 264.588 69.2452C256.423 67.6284 247.986 68.7797 240.819 72.4955C240.445 72.6908 239.983 72.5786 239.737 72.2336C237.215 68.709 234.768 64.935 233.965 61.2192C233.045 56.9755 233.657 52.7027 235.638 49.4899C237.927 45.7865 242.118 43.5753 246.088 43.9868C248.369 44.2237 250.704 45.3044 252.847 47.1166C254.45 48.4674 255.79 50.0676 257.064 51.6595C261.692 46.6801 268.521 43.7624 275.468 43.8455C282.943 43.9203 290.118 47.9437 293.751 54.0951C297.339 60.1718 297.206 68.0939 293.539 73.8047C300.277 75.7832 305.892 82.0095 307.423 89.3746C308.905 96.5153 306.807 104.55 301.809 110.867C298.92 114.517 295.47 117.102 291.824 118.345C290.155 118.914 288.445 119.193 286.776 119.193L286.767 119.197Z" fill="#404040"/>
<path d="M262.828 55.6662C262.665 55.6662 262.503 55.6204 262.357 55.5248C261.966 55.263 261.862 54.7393 262.12 54.3486C264.309 51.0692 267.755 48.8289 271.339 48.3509C275.28 47.8272 279.346 49.548 281.448 52.6278C281.715 53.0144 281.61 53.5423 281.223 53.8083C280.832 54.0743 280.304 53.9704 280.041 53.5838C278.293 51.0193 274.889 49.5978 271.559 50.0343C268.455 50.4457 265.454 52.4117 263.531 55.2879C263.369 55.5332 263.098 55.6662 262.823 55.6662H262.828Z" fill="white"/>
<path d="M245.123 66.7983C244.727 66.7983 244.328 66.7609 243.924 66.657C242.613 66.3245 241.627 65.2729 241.527 64.105C241.402 62.6461 242.492 61.6319 243.37 60.8214L243.554 60.651C243.878 60.3476 244.236 59.9777 244.407 59.5579C244.54 59.2337 244.536 58.8762 244.394 58.6726C244.257 58.4731 243.953 58.3151 243.504 58.2112C243.175 58.1364 242.829 58.0907 242.463 58.0449C241.939 57.9784 241.394 57.9119 240.848 57.7415C239.537 57.3342 238.622 56.3491 238.513 55.2394C238.355 53.581 239.858 52.4463 241.198 51.9808C241.448 51.8935 241.71 51.8145 241.968 51.7355C242.75 51.4986 243.491 51.2742 243.928 50.7879C244.244 50.4388 244.781 50.4138 245.127 50.7255C245.476 51.0373 245.501 51.5776 245.189 51.9226C244.432 52.758 243.383 53.0781 242.459 53.3565C242.222 53.4272 241.985 53.4979 241.756 53.581C240.94 53.8636 240.145 54.4705 240.203 55.0773C240.249 55.5636 240.832 55.9584 241.352 56.1205C241.756 56.2452 242.201 56.3034 242.675 56.3616C243.067 56.4115 243.474 56.4614 243.887 56.557C244.769 56.7606 245.414 57.1513 245.797 57.7166C246.267 58.4066 246.334 59.3334 245.976 60.2021C245.68 60.9253 245.148 61.4823 244.715 61.8896L244.527 62.0642C243.857 62.6835 243.167 63.3277 243.221 63.9636C243.262 64.4707 243.832 64.8864 244.344 65.0152C245.056 65.1939 245.876 65.0609 246.667 64.9321C247.129 64.8573 247.566 65.169 247.645 65.6304C247.72 66.0917 247.408 66.5281 246.946 66.6071C246.38 66.6986 245.764 66.8025 245.127 66.8025L245.123 66.7983Z" fill="white"/>
<path d="M286.98 85.3802C286.788 85.3802 286.597 85.3178 286.439 85.1848C282.539 81.9553 280.72 76.4813 281.915 71.5643C282.027 71.1071 282.485 70.8286 282.938 70.9409C283.396 71.0531 283.675 71.5103 283.563 71.9633C282.518 76.2652 284.108 81.0534 287.521 83.8756C287.883 84.1748 287.933 84.711 287.633 85.0726C287.467 85.2763 287.221 85.3802 286.98 85.3802Z" fill="white"/>
<path d="M142.197 51.0292L140.569 51.5137L143.826 62.4236L145.453 61.9391L142.197 51.0292Z" fill="#007C99"/>
<path d="M133.577 53.377L131.974 53.9473L135.946 65.087L137.549 64.5168L133.577 53.377Z" fill="#404040"/>
<path d="M127.847 57.7021L126.245 58.2656L129.276 66.8547L130.877 66.2911L127.847 57.7021Z" fill="#404040"/>
<path d="M140.953 78.7753C152.809 66.9346 152.809 47.7372 140.953 35.8966C129.096 24.056 109.873 24.056 98.0169 35.8966C86.1604 47.7372 86.1604 66.9347 98.0169 78.7753C109.873 90.6159 129.096 90.6159 140.953 78.7753Z" fill="#078D00"/>
<path d="M115.397 75.9045L99.0967 63.9387L102.142 59.6695L114.23 68.5438L140.808 31.3262L145.019 34.4177L115.397 75.9045Z" fill="white"/>
</g>
<defs>
<linearGradient id="paint0_linear_2562_85541" x1="112.092" y1="121.4" x2="112.092" y2="182.624" gradientUnits="userSpaceOnUse">
<stop stop-color="#FFD693"/>
<stop offset="1" stop-color="#FF9318"/>
</linearGradient>
<linearGradient id="paint1_linear_2562_85541" x1="133.145" y1="140.139" x2="133.145" y2="195.949" gradientUnits="userSpaceOnUse">
<stop stop-color="#FFD693"/>
<stop offset="1" stop-color="#FF9318"/>
</linearGradient>
<clipPath id="clip0_2562_85541">
<rect width="313" height="300" fill="white"/>
</clipPath>
</defs>
</svg>
