<svg width="170" height="220" viewBox="0 0 170 220" fill="none" xmlns="http://www.w3.org/2000/svg">
<g clip-path="url(#clip0_8576_22553)">
<path d="M153.683 219.983H153.682C153.327 219.983 153.039 219.695 153.039 219.34C153.041 217.402 153.023 238.721 153.161 76.3627C153.163 76.0087 153.45 75.7227 153.804 75.7227H153.807C154.163 75.7242 154.45 76.0127 154.448 76.3673C154.31 238.665 154.328 217.42 154.327 219.341C154.327 219.696 154.039 219.983 153.683 219.983Z" fill="#76D8EF"/>
<path d="M6.25513 219.982H6.25431C5.89888 219.982 5.61133 219.695 5.61133 219.339L5.77564 20.8166C5.77564 9.33828 15.1329 0 26.6345 0H133.642C145.187 0 154.493 9.29546 154.493 20.8174C154.493 21.1721 154.204 21.4683 153.849 21.4683C153.493 21.4683 153.205 21.1897 153.205 20.835V20.8174C153.205 10.0071 144.474 1.28506 133.642 1.28506H26.6345C15.8429 1.28506 7.0633 10.0469 7.0633 20.8174L6.89899 219.34C6.89899 219.695 6.61062 219.982 6.25513 219.982Z" fill="#76D8EF"/>
<path d="M143.417 219.991H143.416C143.061 219.991 142.773 219.703 142.773 219.348C142.773 219.261 142.868 113.132 142.868 113.238C142.87 112.884 143.157 112.598 143.512 112.598H143.514C143.87 112.6 144.157 112.888 144.156 113.243C144.146 123.743 144.061 219.009 144.061 219.349C144.061 219.704 143.773 219.991 143.417 219.991Z" fill="#404040"/>
<path d="M143.521 124.476C143.165 124.476 142.877 124.188 142.877 123.832L142.894 80.4087C142.894 79.784 143.624 79.7288 143.539 79.7672C143.894 79.7672 144.182 80.0547 144.182 80.4103L144.165 123.834C144.165 124.188 143.877 124.476 143.521 124.476Z" fill="#404040"/>
<path d="M16.5305 219.99H16.5297C16.1742 219.99 15.8867 219.702 15.8867 219.346L16.0426 27.7882C16.0426 16.7157 24.1382 7.70703 34.0881 7.70703H126.179C132.602 7.70703 138.22 11.4578 141.395 16.9901C141.571 17.298 141.464 17.6903 141.155 17.8668C140.846 18.0408 140.453 17.9346 140.277 17.6275C137.329 12.4664 132.084 8.99204 126.179 8.99204H34.0881C24.8474 8.99204 17.3303 17.4243 17.3303 27.7891L17.1743 219.348C17.1743 219.703 16.886 219.99 16.5305 219.99Z" fill="#404040"/>
<path d="M26.6306 0.644531C15.4633 0.644531 6.41509 9.6743 6.41509 20.8191L6.25396 219.955H0L0.161131 20.8191C0.161131 9.6743 9.20922 0.644531 20.3765 0.644531H26.6306Z" fill="#404040"/>
<path d="M51.3906 8.98047L53.9509 21.9879L111.789 21.6395L114.582 8.98047H51.3906Z" fill="#76D8EF"/>
<path d="M62.6747 16.3296C62.3204 16.3296 62.0328 16.0443 62.0313 15.6904C62.0292 15.3357 62.3163 15.0463 62.6716 15.0446C62.7849 15.044 104.859 14.8438 104.76 14.8438C105.115 14.8438 105.403 15.129 105.404 15.4829C105.406 15.8377 105.119 16.1271 104.764 16.1288L62.6782 16.3296H62.6747Z" fill="#404040"/>
<path d="M123.327 77.4939C129.359 80.2833 136.314 81.1214 142.963 79.8674C143.068 79.6622 143.279 79.521 143.525 79.5159C143.946 79.5082 144.363 79.5 144.773 79.4775C157.506 76.2635 166.33 65.5157 168.287 53.9933V53.9923C170.862 38.8817 161.413 18.7763 140.811 17.9529C121.856 17.1662 105.826 32.7899 107.376 50.7105L110.48 77.0253L118.338 76.5198C119.917 76.4154 121.655 76.7142 123.327 77.4939ZM122.783 78.6594C121.38 78.004 119.868 77.7114 118.42 77.8019L109.953 78.3463C109.647 78.378 109.312 78.1207 109.272 77.781L106.095 50.841C104.472 32.0764 121.255 15.8064 140.865 16.6696C146.225 16.8834 151.729 18.4527 156.197 21.5261C166.028 28.1881 171.648 41.9336 169.556 54.2082V54.2077C167.528 66.1517 158.39 77.3901 145.028 80.7392C144.908 80.7704 144.181 80.7873 144.055 80.7899C143.964 80.9147 143.827 81.0058 143.666 81.0395C136.64 82.4665 129.223 81.6361 122.783 78.6594Z" fill="#404040"/>
<path d="M144.871 80.1133C144.429 80.2166 143.979 80.32 143.537 80.4064V80.1563C143.979 80.1476 144.429 80.1389 144.871 80.1133Z" fill="white"/>
<path d="M143.128 80.9054C142.813 80.6455 142.912 80.2909 142.894 80.1584C142.894 79.8084 143.175 79.5224 143.525 79.5158C143.967 79.5076 144.405 79.4989 144.834 79.4738C145.133 79.4539 145.461 79.6913 145.508 80.0228C145.557 80.3523 145.344 80.6644 145.019 80.7416C144.569 80.847 144.111 80.9524 143.661 81.0399C143.46 81.0773 143.27 81.022 143.128 80.9054Z" fill="#404040"/>
<path d="M37.6036 170.643L40.5819 159.748L31.2578 157.458C31.4483 153.571 32.262 149.803 32.5651 145.924C33.4831 134.3 36.6292 123.059 41.5429 113.031L86.8827 122.717L95.09 162.902L37.6036 170.643Z" fill="#C4C4C4"/>
<path d="M106 126L91.9647 147.766L50.1662 129.639L42.6342 160.087L16.6875 153.866V118.26C18.2286 114.986 20.5747 112.135 23.0768 109.508C30.3492 101.913 39.2751 95.9001 49.0668 92.0117L50.1835 91.9774L46.4177 94.094V94.1979L63.2826 110.812L72.044 91.6055C75.5327 91.9948 78.0505 92.772 80.5005 94.1979C86.4828 97.6626 90.7607 101 96.5005 106.5C101 110.812 107 114 106 126Z" fill="#C4C4C4"/>
<path d="M42.4861 160.709L16.5395 154.492C16.2495 154.422 16.0457 154.164 16.0457 153.867C16.068 115.92 15.9914 118.235 16.1061 117.989C17.8221 114.329 20.4846 111.298 22.6131 109.066C29.9248 101.421 38.9903 95.318 48.8295 91.4163C49.159 91.2864 49.5337 91.4455 49.6662 91.776C49.7969 92.1065 49.636 92.4795 49.3057 92.611C39.6366 96.4441 30.7288 102.441 23.5453 109.952C21.5099 112.087 18.9723 114.969 17.3334 118.405V153.361L42.1641 159.31L49.5396 129.487C49.6259 129.142 49.9747 128.938 50.3193 129.017C50.6646 129.102 50.875 129.45 50.7903 129.795L43.2615 160.237C43.1776 160.575 42.8389 160.791 42.4861 160.709Z" fill="#404040"/>
<path d="M107.197 125.299C107.197 125.596 106.994 125.854 106.703 125.924C106.431 126.043 105.89 125.984 105.91 124.793L105.478 118.034C103.839 114.598 101.301 111.716 99.2659 109.581C92.0825 102.07 83.1746 96.073 73.5055 92.2399C73.1752 92.1084 73.0143 91.7354 73.1451 91.4049C73.2775 91.0744 73.6522 90.9153 73.9817 91.0453C83.8209 94.9469 92.8864 101.05 100.198 108.695C102.327 110.927 104.989 113.957 106.705 117.618C106.82 117.864 107.197 125.299 107.197 125.299Z" fill="#404040"/>
<path d="M24.1097 219.968C23.7668 219.874 23.5639 219.521 23.6578 219.179L39.7869 160.216L17.3286 154.694L17.1743 219.35C17.1728 219.974 16.4428 220.029 16.5288 219.991C16.1734 219.99 15.8858 219.701 15.8867 219.347C16.1491 149.467 15.8257 153.729 16.2899 153.368C16.4458 153.245 16.6462 153.201 16.8407 153.25C42.0274 159.518 40.8749 158.979 41.1366 159.424C41.3993 159.868 42.2298 155.882 24.9002 219.517C24.8077 219.857 24.4569 220.061 24.1097 219.968Z" fill="#404040"/>
<path d="M106.017 128.145L92.0166 147.145L91.8604 147.356L91.9111 147.614L105.911 219.614L106.006 220.1H125.734L125.588 219.381L107.088 128.381L106.818 127.056L106.017 128.145Z" stroke="#404040" stroke-width="1.2"/>
<path d="M25.1348 218.726L37.8564 170.608L93.3244 162.988L105.197 218.726" fill="#76D8EF"/>
<path d="M67.3555 219.841C67.0043 219.786 66.7639 219.457 66.8182 219.107L70.7457 193.896C70.8001 193.546 71.1287 193.305 71.4809 193.359C71.8321 193.414 72.073 193.743 72.0182 194.093L68.0907 219.304C68.0373 219.649 67.7154 219.895 67.3555 219.841Z" fill="#404040"/>
<path d="M95.6129 182.681C92.4656 181.367 89.567 178.825 87.2287 175.333C85.1545 172.236 83.718 168.785 82.3287 165.447C82.1923 165.119 82.3482 164.744 82.6758 164.608C83.008 164.472 83.3807 164.627 83.5175 164.954C84.8833 168.234 86.2957 171.627 88.3002 174.618C90.4965 177.9 93.1967 180.279 96.1107 181.497C96.4383 181.634 96.5926 182.01 96.4552 182.338C96.3168 182.668 95.9359 182.818 95.6129 182.681Z" fill="#404040"/>
<path d="M35.3359 193.884C34.6418 193.884 34.4408 192.929 35.0793 192.653C42.4041 189.474 46.3486 181.318 44.1649 173.56C44.0685 173.218 44.268 172.863 44.6101 172.768C44.9588 172.667 45.3084 172.871 45.4039 173.212C47.7706 181.621 43.4796 190.408 35.5923 193.831C35.5094 193.868 35.4222 193.884 35.3359 193.884Z" fill="#404040"/>
<path d="M47.4106 94.2708L63.0778 109.707L71.402 91.4589L68.3824 91.8135C67.9712 92.3328 67.1504 91.9767 67.2314 91.3494L67.9322 85.9124C61.0512 86.5135 55.2186 83.1977 50.9063 77.8839L51.2249 91.7357C51.2299 91.9726 51.105 92.1936 50.8979 92.3098L47.4106 94.2708ZM62.8286 111.268L45.9645 94.653C45.6826 94.3737 45.6824 93.7679 46.1011 93.532L49.9289 91.3812L49.5734 75.9198C49.5585 75.2874 50.3776 75.0157 50.7445 75.5355C55.0038 81.6004 61.1881 85.5348 68.5895 84.5479C69.016 84.4941 69.3667 84.8512 69.3139 85.2662L68.6407 90.4894L72.3832 90.0494C72.88 89.9911 73.2511 90.4976 73.0451 90.9519C60.4678 118.531 64.806 109.019 63.8673 111.077C63.6822 111.483 63.147 111.581 62.8286 111.268Z" fill="#404040"/>
<path d="M47.8784 70.6428C48.601 70.8628 48.1624 71.8856 50.7429 75.5345C53.3439 79.2372 56.729 82.2742 60.9441 83.7768C66.8013 85.8377 74.0115 84.4169 77.9149 79.6055C81.2113 75.5657 81.824 70.0187 81.8947 64.9791C81.7317 64.8671 81.6261 64.6844 81.6163 64.4813C81.3913 59.9109 79.314 56.4273 76.241 52.6642C70.247 54.0436 64.1073 54.545 57.9794 54.1618C58.0737 55.7754 57.5954 57.5692 56.5501 59.5093C55.5432 61.3808 53.9057 62.8697 51.9407 63.7016C51.6685 63.8152 51.3516 63.7318 51.173 63.4939C50.8594 63.0738 50.3657 63.2089 50.1661 63.2851C50.0328 63.3383 49.882 63.3445 49.7437 63.301C48.6694 62.973 47.2404 63.0564 46.2034 63.7267C44.6811 64.7187 44.5126 66.756 45.1279 68.1676C45.6401 69.3454 46.8926 70.1558 47.8533 70.6285C47.8843 70.6444 47.8801 70.6418 47.8784 70.6428ZM51.4162 78.4912C49.7376 76.5445 48.139 74.1608 47.1818 71.7295C40.3945 68.2812 43.8482 60.4451 49.9146 62.0147C50.6121 61.8106 51.3086 61.9339 51.8294 62.3401C53.351 61.5983 54.6142 60.3903 55.4155 58.901C56.1594 57.5206 56.971 55.4792 56.6147 53.5862C56.5419 53.1999 56.8351 52.8029 57.296 52.8264C63.6812 53.3048 70.0911 52.7998 76.3364 51.3222C76.5753 51.2654 76.8255 51.3488 76.9813 51.5381C79.7308 54.8617 82.3187 58.6058 82.8308 63.4934C83.0482 63.6003 83.1887 63.8218 83.1887 64.0689V64.1288C83.1713 69.6145 82.6509 75.8374 78.9151 80.4154C76.5276 83.3578 72.9205 85.2785 68.7592 85.8223C61.9207 86.7279 55.9385 83.7697 51.4162 78.4912Z" fill="#404040"/>
<path d="M51.8296 62.3407C53.3512 61.5988 54.6144 60.3909 55.4157 58.9015C56.1596 57.5212 56.9711 55.4798 56.6148 53.5867C56.542 53.2005 56.8353 52.8034 57.2962 52.827C63.685 53.3079 70.0923 52.8004 76.3366 51.3228C76.5755 51.266 76.8257 51.3494 76.9815 51.5387C78.7861 53.7203 80.5204 56.083 81.6457 58.8304C81.3028 56.0154 80.5348 53.3304 78.8758 51.0851C75.8967 47.0523 69.8954 44.3018 61.2334 46.0111C54.4873 47.3387 51.0576 50.324 48.9097 56.2436C48.2575 58.0497 47.7847 59.9882 47.5273 61.8991C48.3479 61.7758 49.2115 61.8337 49.9148 62.0153C50.6193 61.8086 51.3154 61.9391 51.8296 62.3407ZM82.0748 65.0656C80.6635 64.6415 83.3693 61.3926 76.2412 52.6648C70.2471 54.0441 64.1074 54.5455 57.9795 54.1623C58.0739 55.776 57.5956 57.5698 56.5502 59.5098C55.5434 61.3814 53.9059 62.8702 51.9409 63.7021C51.6686 63.8157 51.3518 63.7323 51.1731 63.4944C50.8596 63.0744 50.3658 63.2094 50.1663 63.2857C49.881 63.4003 49.7705 63.277 49.2182 63.1818C47.3705 62.8815 46.931 63.6791 46.3797 63.2411C46.2086 63.1056 46.1181 62.8922 46.1399 62.6748C46.6174 57.8711 48.4777 52.0805 52.1121 48.7685C54.2571 46.8175 57.1593 45.5032 60.9838 44.7511C70.1384 42.9456 76.6344 45.8848 79.9119 50.3221C82.8141 54.2508 83.1976 59.4761 83.1889 64.07C83.1889 64.3949 82.97 64.5391 82.7792 64.8287C82.6137 65.0549 82.3255 65.1418 82.0748 65.0656Z" fill="#404040"/>
<path d="M64.4179 73.012C64.1856 72.7433 64.2159 72.3376 64.4856 72.1059C64.7547 71.8751 65.1607 71.9033 65.3935 72.1734C65.7959 72.638 66.3224 73.1675 66.7669 73.082C66.9904 73.0437 67.2181 72.8395 67.3596 72.551C67.8574 71.5374 67.9717 67.0469 67.559 63.8743C67.5139 63.5223 67.7625 63.2 68.1147 63.1539C68.472 63.1079 68.7899 63.3575 68.8365 63.709C69.1729 66.2989 69.1964 68.9276 68.9063 71.5211C68.8483 72.044 68.7704 72.598 68.5161 73.1158C68.1911 73.7773 67.62 74.2383 66.9879 74.3488C65.9349 74.5279 65.1079 73.8116 64.4179 73.012Z" fill="#404040"/>
<path d="M61.4084 77.8658C61.2926 78.2009 61.4705 78.5667 61.8063 78.6829C62.1426 78.8 62.5097 78.6205 62.6255 78.2859C63.1469 76.7817 65.133 76.4113 66.1639 77.6289C66.3936 77.8991 66.7986 77.9349 67.0719 77.7052C67.3436 77.476 67.3769 77.0702 67.1483 76.7991C65.4734 74.8221 62.2569 75.4177 61.4084 77.8658Z" fill="#404040"/>
<path d="M61.1958 59.4586C60.1833 59.9579 58.9534 59.9989 57.9096 59.565C57.5831 59.431 57.2047 59.5834 57.0673 59.9104C56.9304 60.2383 57.0858 60.6149 57.4134 60.751C58.794 61.3266 60.4212 61.2749 61.7675 60.6098C62.0863 60.4522 62.216 60.0674 62.0586 59.7487C61.8987 59.4274 61.5086 59.3026 61.1958 59.4586Z" fill="#404040"/>
<path d="M76.4507 59.3051C75.5551 59.9943 74.2893 60.1928 73.2271 59.8111C72.8913 59.6914 72.5237 59.8653 72.4032 60.1984C72.2832 60.532 72.457 60.9004 72.7913 61.0206C74.2585 61.5471 76.0036 61.2744 77.2366 60.3222C77.5186 60.1058 77.5704 59.7016 77.3535 59.4212C77.1356 59.1388 76.7291 59.0892 76.4507 59.3051Z" fill="#404040"/>
<path d="M82.2599 64.4505C82.0174 59.5168 79.6366 55.7584 76.4853 51.9483C70.2087 53.4346 63.6896 53.9524 57.248 53.4684C57.612 55.4044 56.9194 57.4693 55.9843 59.2058C55.0492 60.9428 53.508 62.3421 51.6902 63.111C51.2571 62.5324 50.5558 62.4459 49.9325 62.6879C48.6844 62.3073 47.0657 62.4081 45.8548 63.1888C44.1319 64.3123 43.751 66.6188 44.5388 68.4248C45.067 69.643 46.2531 70.5588 47.569 71.207C48.3656 73.5048 50.5991 77.2458 51.9065 78.0756L50.3654 91.4588C45.8894 93.2561 41.4654 95.252 37.2752 97.6454C33.0849 100.047 30.1847 102.319 26.3147 106.328C19.025 102.829 14.2893 94.3188 15.4582 86.3267C16.6268 78.335 23.3971 71.4833 31.388 70.2042C28.7908 63.3873 28.6782 55.5338 32.401 49.2612C36.1324 42.9799 43.9761 39.04 51.032 40.9233C53.3179 37.2344 57.837 34.8065 62.1829 34.8322C66.5206 34.8495 70.7798 37.2774 73.0135 40.9924C81.6786 38.7782 92.239 50.8331 82.2599 64.4505Z" fill="#404040"/>
<path d="M81.5415 73.9336C86.5169 75.1206 90.3886 79.4668 91.7569 84.3867C93.1252 89.306 92.228 94.6612 90.0743 99.2919C87.9375 95.8615 81.9019 92.5349 78.0451 91.3105C74.1888 90.0862 71.7649 89.8723 68.3711 90.8255L68.7607 85.4764C71.706 85.4764 74.5026 83.8541 76.6814 81.8761C78.8602 79.8982 80.9514 76.8135 81.5415 73.9336Z" fill="#404040"/>
<path d="M134.722 63.4699C132.524 66.1231 128.64 66.4712 126.059 64.2459C123.33 62.8939 120.183 57.577 129.423 47.1253L140.811 32.5878C143.253 29.469 147.628 28.7688 150.856 30.9802C154.527 33.496 155.222 38.7115 152.349 42.1816L134.722 63.4699Z" fill="#CA0000"/>
<path d="M145.409 62.3869C148.218 64.381 152.06 63.712 153.977 60.8943C156.263 58.8821 157.927 52.9318 146.297 45.2278L131.535 34.133C128.368 31.7526 123.961 32.2087 121.415 35.1801C118.52 38.5603 119.199 43.7781 122.872 46.3863L145.409 62.3869Z" fill="#CA0000"/>
<path d="M52.2056 64.5349C51.4059 63.9419 50.5844 63.5295 49.7637 63.3095C49.4208 63.2164 49.2171 62.8644 49.3093 62.5211C49.4023 62.1793 49.7569 61.9793 50.099 62.0678C51.0764 62.3313 52.0436 62.8143 52.9736 63.5024C53.2587 63.7142 53.3181 64.1169 53.1069 64.4018C52.8957 64.6853 52.4927 64.7467 52.2056 64.5349Z" fill="#404040"/>
<path d="M50.5409 72.9039C49.7831 72.7402 48.6254 72.4209 47.4107 71.8346C47.0904 71.6806 46.9563 71.2969 47.1114 70.9771C47.2657 70.6594 47.6504 70.5213 47.9707 70.6783C48.8299 71.0927 49.8401 71.4376 50.8142 71.6489C51.1621 71.7241 51.3828 72.0664 51.3064 72.4127C51.2315 72.7576 50.8909 72.9801 50.5409 72.9039Z" fill="#404040"/>
<path d="M37.2182 170.512C37.173 170.16 37.4211 169.838 37.774 169.792L94.0588 162.484L89.5289 138.745C89.4617 138.396 89.6914 138.06 90.04 137.994C90.3907 137.921 90.726 138.155 90.7931 138.504L95.4512 162.912C95.5209 163.272 95.2723 163.621 94.9022 163.67L37.94 171.067C37.5706 171.11 37.2631 170.851 37.2182 170.512Z" fill="#404040"/>
<path d="M65.6938 192.761C65.4231 192.531 65.3898 192.126 65.6194 191.855C65.8506 191.584 66.2567 191.554 66.5274 191.78C68.8118 193.714 72.2554 194.088 74.8992 192.687C75.2155 192.522 75.6036 192.641 75.7702 192.954C75.9363 193.268 75.8164 193.657 75.5031 193.823C72.4148 195.455 68.3837 195.035 65.6938 192.761Z" fill="#404040"/>
<path d="M91.7534 147.669C91.4586 147.472 91.3797 147.073 91.5786 146.778L106.19 125.078C106.387 124.783 106.789 124.703 107.082 124.903C107.377 125.101 107.456 125.5 107.257 125.794L92.6465 147.494C92.4475 147.791 92.0446 147.867 91.7534 147.669Z" fill="#404040"/>
</g>
<defs>
<clipPath id="clip0_8576_22553">
<rect width="170" height="220" fill="white"/>
</clipPath>
</defs>
</svg>
