<svg width="420" height="400" viewBox="0 0 420 400" fill="none" xmlns="http://www.w3.org/2000/svg">
<g clip-path="url(#clip0_2558_85126)">
<path d="M136.488 261.637L114.189 281.49L109.752 281.172L98.0059 292.16L116.215 313.028L127.841 303.182L128.621 298.808L152.562 278.582L136.488 261.637Z" fill="#C4C4C4"/>
<path d="M30.8842 337.246C29.464 338.53 11.8485 353.901 11.5143 354.192C9.08401 356.322 6.65478 358.087 4.05904 359.951C-8.89759 369.286 11.6897 403.917 30.3186 399.635C34.3125 398.703 37.6735 396.041 40.836 393.444C65.1647 373.335 88.0301 351.629 111.626 330.687C112.059 330.255 117.483 332.452 119.381 331.22C121.577 329.823 122.676 327.16 122.776 324.562C123.052 317.405 115.003 301.816 104.171 291.703C98.8465 286.742 87.8306 281.049 81.7062 287.74C79.975 289.605 79.1435 292.267 79.4766 294.765C78.1456 295.93 76.8466 297.062 75.5157 298.227L30.8842 337.246Z" fill="url(#paint0_linear_2558_85126)"/>
<path d="M106.665 325.56C105.241 312.771 94.012 304.399 84.2488 297.334C83.3567 296.69 84.3359 295.34 85.2236 295.985C95.6231 303.508 106.826 311.992 108.316 325.374C108.441 326.47 106.783 326.665 106.665 325.56Z" fill="#007C99"/>
<path d="M25.4766 390.312C22.2237 380.657 15.6935 372.337 7.09695 366.88C6.16076 366.291 7.07048 364.886 7.98792 365.475C16.9065 371.134 23.677 379.766 27.0568 389.778C27.4074 390.822 25.8295 391.353 25.4777 390.31L25.4766 390.312Z" fill="#007C99"/>
<path d="M281.929 365.544C280.235 367.741 273.635 371.957 271.278 373.435C266.164 376.669 262.684 377.84 258.631 373.369C258.973 373.148 280.975 358.915 281.428 358.62C282.061 359.486 282.693 360.351 282.96 361.349C283.326 362.815 282.793 364.346 281.929 365.544Z" fill="url(#paint1_linear_2558_85126)"/>
<path d="M313.479 351.561C311.874 353.786 305.165 358.04 302.828 359.486C300.599 360.883 297.604 362.748 294.707 362.249C291.412 361.716 288.551 357.788 287.219 354.891L309.418 340.542C310.722 341.777 314.119 345.647 314.543 347.401C314.876 348.832 314.377 350.363 313.478 351.562L313.479 351.561Z" fill="url(#paint2_linear_2558_85126)"/>
<path d="M213.437 364.58C198.801 345.149 183.454 323.477 166.518 298.326C162.871 292.928 154.283 283.039 157.04 278.723C158.262 276.818 161.318 276.387 166.371 277.402C167.456 277.621 167.119 279.256 166.046 279.035C153.668 276.55 157.564 283.168 165.467 293.997C170.93 301.46 188.235 328.355 214.763 363.579C223.268 374.852 232.396 384.614 245.601 379.81C251.068 377.798 241.312 383.566 409.579 274.788C419.564 268.318 420.961 254.033 414.025 243.347L323.433 103.085C319.081 96.3743 310.803 93.9818 304.978 97.7399C297.993 102.248 284.729 106.29 286.212 115.45C286.38 116.517 284.753 116.839 284.568 115.717C282.864 105.195 297.276 100.736 304.075 96.3412C310.669 92.0823 319.982 94.701 324.831 102.179L415.423 242.44C422.987 254.097 421.068 269.326 410.483 276.185L260.415 373.2C257.483 375.006 251.911 379.262 246.17 381.373C232.117 386.478 222.477 376.564 213.437 364.579V364.58Z" fill="#007C99"/>
<path d="M330.209 143.773C330.608 142.343 331.69 141.08 333.106 140.637C337.554 139.24 342.162 146.023 339.412 149.835C335.549 155.189 328.787 148.865 330.209 143.773Z" fill="url(#paint3_linear_2558_85126)"/>
<path d="M317.832 126.022C318.231 124.592 319.313 123.329 320.729 122.886C325.177 121.489 329.785 128.272 327.035 132.084C323.172 137.438 316.41 131.115 317.832 126.023V126.022Z" fill="url(#paint4_linear_2558_85126)"/>
<path d="M305.715 109.988C306.114 108.559 307.196 107.296 308.611 106.852C313.06 105.456 317.668 112.239 314.918 116.051C311.055 121.405 304.293 115.082 305.715 109.99V109.988Z" fill="url(#paint5_linear_2558_85126)"/>
<path d="M310.718 235.171C310.467 251.91 304.612 264.026 283.926 275.222C267.719 283.943 250.978 285.309 233.238 288.006C214.733 290.869 195.13 291.902 177.424 284.677C173.563 283.079 169.902 281.148 166.308 279.05C167.772 278.585 167.772 277.552 167.539 276.087C167.24 273.994 167.898 255.405 167.94 254.181C168.238 247.023 169.038 244.394 175.494 240.73C179.015 238.661 182.841 234.032 182.75 231.176C182.658 229.52 180.891 227.68 179.422 227.547C178.989 227.347 178.49 227.181 177.991 227.115C179.887 225.749 181.718 223.885 181.985 221.587C182.284 218.791 180.121 216.194 177.491 215.162C174.895 214.163 171.934 214.363 169.204 214.829C168.939 214.895 168.706 214.962 168.439 214.995C171.458 213.258 175.653 210.445 176.061 207.006C176.421 204.013 173.82 200.229 168.172 199.915C169.704 198.616 171.035 197.052 171.201 195.121C171.533 192.358 169.338 189.727 166.741 188.696C164.111 187.663 161.216 187.93 158.42 188.362C152.939 189.251 147.353 191.021 142.744 194.121C144.782 190.058 152.258 182.104 154.626 179.473C166.228 166.621 184.532 164.779 200.687 163.292C214.301 161.952 230.84 163.962 244.953 163.924C259.763 163.924 275.472 166.222 287.02 175.511C302.724 188.038 310.964 216.445 310.717 235.17L310.718 235.171Z" fill="#007C99"/>
<path d="M238.296 197.884C237.297 199.714 235.334 200.814 233.471 201.812C215.611 211.259 195.502 221.071 180.487 227.913C180.154 227.714 179.787 227.58 179.421 227.547C178.988 227.348 178.49 227.181 177.99 227.115C179.887 225.749 181.717 223.885 181.984 221.587C182.284 218.791 180.12 216.195 177.491 215.162C174.895 214.163 171.933 214.364 169.204 214.829C168.938 214.895 168.705 214.963 168.439 214.996C171.458 213.258 175.652 210.446 176.06 207.006C176.421 204.014 173.82 200.229 168.172 199.915C169.703 198.617 171.034 197.052 171.201 195.121C171.533 192.358 169.337 189.727 166.74 188.696C162.003 186.836 152.904 189.236 148.335 191.159C148.263 187.791 148.239 179.912 148.368 173.213C148.502 163.859 145.14 141.086 158.586 138.955C163.578 138.19 168.537 140.187 173.162 142.252C195.488 152.212 216.303 168.839 232.571 187.23C234.901 189.828 240.558 193.79 238.295 197.884H238.296Z" fill="url(#paint6_linear_2558_85126)"/>
<path d="M184.317 193.451C184.452 193.015 184.886 195.462 179.392 167.228C178.745 163.919 175.188 162.093 172.117 163.488C171.384 163.818 170.65 164.156 169.917 164.486C167.275 165.68 166.027 168.827 167.322 171.416C170.525 177.826 174.605 183.998 177.884 190.504C178.766 192.266 179.396 195.095 181.911 194.869C182.512 194.817 184.048 194.251 184.317 193.451Z" fill="white"/>
<path d="M190.053 206.221C189.445 208.887 186.977 210.602 184.55 210.045C182.122 209.494 180.652 206.876 181.26 204.21C181.868 201.544 184.329 199.827 186.762 200.386C189.189 200.944 190.66 203.555 190.053 206.221Z" fill="white"/>
<path d="M140.554 265.163C135.195 261.168 129.874 256.705 128.785 250.016C127.646 243.009 130.018 234.348 130.732 227.55C132.064 215.131 127.449 192.635 158.281 187.55C161.173 187.076 164.232 186.798 167.046 187.933C169.747 188.986 172.419 191.9 172.026 195.219C171.902 196.62 171.246 197.968 170.03 199.295C176.842 200.587 180.414 208.061 172.023 213.657C173.898 213.545 175.903 213.664 177.779 214.392C180.541 215.46 183.154 218.307 182.807 221.678C182.602 223.455 181.585 225.154 179.781 226.753C181.654 227.122 183.523 229.245 183.578 231.153C183.613 232.436 183.08 233.606 182.613 234.484C181.066 237.363 178.748 239.771 175.904 241.449C169.813 244.921 169.075 247.107 168.786 254.231L168.669 256.925C168.182 268.05 168.438 269.342 168.432 270.254C168.529 273.128 168.624 275.844 164.015 276.134C155.512 276.675 147.291 270.217 140.555 265.164L140.554 265.163ZM162.532 188.804C161.209 188.804 159.863 188.976 158.55 189.191C129.371 194.005 133.78 214.603 132.39 227.726C131.644 234.676 129.347 243.13 130.43 249.749C131.547 256.642 137.674 260.742 142.657 264.659C148.767 269.241 156.399 274.922 163.91 274.472C166.904 274.283 166.871 273.281 166.767 270.312C166.773 269.443 166.518 267.894 167.008 256.852L167.121 254.161C167.413 247.01 168.174 243.938 175.068 240.007C178.597 237.924 181.981 233.538 181.913 231.201C181.881 230.042 180.454 228.478 179.332 228.364C179.241 228.357 179.157 228.333 179.075 228.298C178.038 227.836 177.356 228.096 177.168 227.326C177.083 226.997 177.21 226.648 177.49 226.448C179.726 224.84 180.958 223.175 181.153 221.497C181.413 218.992 179.297 216.763 177.178 215.944C174.613 214.945 171.639 215.268 169.339 215.663C169.006 215.666 168.003 216.218 167.648 215.295C167.505 214.917 167.658 214.489 168.009 214.284C170.89 212.596 174.879 209.988 175.244 206.909C175.545 204.344 173.258 201.05 168.126 200.74C167.375 200.693 167.064 199.751 167.642 199.27C169.354 197.835 170.248 196.454 170.372 195.049C170.699 192.267 168.05 188.805 162.533 188.805L162.532 188.804Z" fill="#007C99"/>
<path d="M147.447 208.626C152.472 202.563 160.11 199.014 168.037 199.17C169.126 199.19 169.11 200.834 168.02 200.834C167.687 200.912 156.581 200.21 148.728 209.689C148.02 210.535 146.748 209.472 147.447 208.625V208.626Z" fill="#007C99"/>
<path d="M164.082 233.435C167.973 229.959 172.724 227.536 177.827 226.425C178.902 226.192 179.254 227.818 178.178 228.051C173.358 229.101 168.866 231.393 165.194 234.677C164.38 235.399 163.261 234.175 164.082 233.435Z" fill="#007C99"/>
<path d="M154.825 224.185C158.121 219.415 162.973 215.801 168.489 214.011C169.548 213.68 170.042 215.257 169.003 215.594C163.832 217.272 159.285 220.659 156.197 225.13C155.57 226.033 154.201 225.093 154.825 224.183V224.185Z" fill="#007C99"/>
<path d="M287.886 104.732C279.559 110.629 268.091 110.308 260.728 102.334L261.061 98.3721C259.364 103.499 256.801 108.027 253.572 111.856C287.02 125.339 310.617 157.8 310.617 195.719C310.617 245.657 269.614 286.175 219.025 286.175C168.436 286.175 127.433 245.658 127.433 195.719C127.433 160.263 148.068 129.567 178.122 114.719C173.058 110.528 169.589 104.991 168.47 101.635C162.945 107.129 154.392 109.292 146.936 107.261C121.909 127.736 106 158.631 106 193.222C106 254.88 156.588 304.885 219.025 304.885C281.461 304.885 332.017 254.88 332.017 193.222C332.017 157.166 314.743 125.139 287.885 104.731L287.886 104.732Z" fill="#C4C4C4"/>
<path d="M263.902 64.0583L262.382 50.1842C262.258 49.0988 263.914 48.8926 264.032 50.0022L265.553 63.8763C265.678 64.9672 264.02 65.168 263.902 64.0583Z" fill="#007C99"/>
<path d="M152.695 108.864C137.722 108.864 128.254 94.6442 130.477 82.1467C132.206 72.4189 140.909 64.3822 150.722 63.4523C156.081 62.9206 162.959 64.9006 165.407 70.4721C165.853 71.4858 164.325 72.1443 163.886 71.1416C161.764 66.3279 155.63 64.6359 150.882 65.1102C141.785 65.9717 133.721 73.4216 132.115 82.439C130.517 91.4332 135.512 101.209 143.738 105.182C151.747 109.072 162.368 107.046 168.459 100.47C169.22 99.663 170.425 100.8 169.681 101.602C165.31 106.32 158.998 108.864 152.695 108.864Z" fill="url(#paint7_linear_2558_85126)"/>
<path d="M260.117 102.899C259.365 102.088 260.602 100.96 261.339 101.77C267.417 108.349 276.709 109.825 285.007 105.522C293.151 101.353 297.916 91.4524 296.09 82.4902C294.264 73.5379 286.018 66.2809 276.911 65.6103C272.393 65.2628 266.487 66.9725 264.274 71.5369C263.794 72.5242 262.296 71.8017 262.779 70.8089C265.344 65.5143 271.788 63.5608 277.034 63.9491C286.856 64.6738 295.753 72.501 297.722 82.1592C299.688 91.8263 294.553 102.507 285.771 107.003C276.698 111.701 266.652 109.972 260.117 102.899Z" fill="url(#paint8_linear_2558_85126)"/>
<path d="M205.85 125.778C189.93 125.77 175.415 116.688 168.872 102.643C159.61 82.7605 162.787 52.761 180.911 42.3737C181.852 41.8178 182.699 43.2694 181.737 43.8176C164.375 53.7714 161.423 82.7131 170.381 101.941C176.651 115.403 190.574 124.107 205.85 124.115C209.007 124.115 211.599 124.67 214.618 123.772C215.684 123.46 216.146 125.056 215.093 125.368C211.721 126.362 208.975 125.779 205.849 125.779L205.85 125.778Z" fill="url(#paint9_linear_2558_85126)"/>
<path d="M232.016 124.016C252.709 120.319 268.248 98.2517 262.373 69.3917C262.155 68.3107 263.78 67.9842 264.005 69.0597C270.093 98.9963 253.783 121.818 232.309 125.654C231.219 125.836 230.939 124.209 232.017 124.014L232.016 124.016Z" fill="url(#paint10_linear_2558_85126)"/>
<path d="M208.66 158.407C208.538 152.142 208.081 125.959 208.074 125.586C208.051 124.482 209.724 124.443 209.739 125.554C209.746 125.931 210.202 152.119 210.325 158.375C210.348 159.479 208.684 159.519 208.66 158.407Z" fill="url(#paint11_linear_2558_85126)"/>
<path d="M235.824 155.845C235.843 149.489 233.945 130.584 233.971 124.157C233.974 123.698 234.345 123.327 234.804 123.327H234.807C235.266 123.328 235.639 123.702 235.636 124.162C235.611 130.444 237.514 149.468 237.489 155.85C237.481 156.964 235.817 156.946 235.825 155.844L235.824 155.845Z" fill="url(#paint12_linear_2558_85126)"/>
<path d="M272.512 84.6785C276.494 80.3679 283.458 79.0762 288.72 81.6761C289.709 82.1636 288.972 83.6615 287.986 83.1685C283.354 80.8808 277.231 82.0191 273.733 85.807C272.998 86.6166 271.759 85.4915 272.512 84.6785Z" fill="url(#paint13_linear_2558_85126)"/>
<path d="M279.911 90.6152C280.473 88.1753 279.937 85.5048 278.467 83.4708C277.826 82.5729 279.176 81.6033 279.819 82.4957C281.561 84.9147 282.202 88.0892 281.528 90.9913C281.283 92.0613 279.66 91.6896 279.909 90.6163L279.911 90.6152Z" fill="url(#paint14_linear_2558_85126)"/>
<path d="M141.962 86.5044C145.941 82.1937 152.909 80.9043 158.167 83.503C159.158 83.9906 158.419 85.4841 157.433 84.9954C152.805 82.7077 146.682 83.845 143.184 87.6317C142.45 88.4403 141.21 87.3185 141.962 86.5033V86.5044Z" fill="url(#paint15_linear_2558_85126)"/>
<path d="M149.356 92.443C149.919 90.003 149.383 87.3326 147.916 85.2963C147.276 84.4007 148.625 83.4289 149.268 84.3246C151.007 86.7435 151.648 89.9181 150.974 92.8169C150.729 93.8891 149.106 93.5173 149.355 92.443H149.356Z" fill="url(#paint16_linear_2558_85126)"/>
<path d="M210.739 102.028C213.524 101.1 215.743 100.993 218.065 99.4542C220.881 97.5945 220.497 95.2582 219.963 92.0241C219.784 90.9343 217.12 72.7286 216.859 70.7861C216.715 69.7206 218.349 69.4382 218.51 70.5655C218.766 72.476 221.461 90.878 221.604 91.755C222.14 95.0178 222.696 98.3909 218.981 100.844C216.346 102.591 214.044 102.681 211.265 103.609C210.216 103.959 209.699 102.378 210.739 102.03V102.028Z" fill="#007C99"/>
<path d="M198.718 54.0348C204.102 54.5301 198.078 62.472 193.644 64.5215C191.742 65.4006 189.795 64.5843 190.699 62.183C191.262 60.6873 192.175 59.3394 193.168 58.1161C194.688 56.2431 196.129 53.7955 198.718 54.0337V54.0348Z" fill="url(#paint17_linear_2558_85126)"/>
<path d="M239.977 56.6875C240.048 57.5236 239.777 58.4524 239.066 58.898C236.742 60.3574 230.555 56.093 228.766 53.5295C227.568 51.811 228.029 49.7494 230.551 50.2193C232.123 50.5116 233.609 51.1745 234.987 51.9378C237.097 53.1071 239.758 54.0954 239.977 56.6875Z" fill="url(#paint18_linear_2558_85126)"/>
<path d="M275.24 35.6166C273.155 34.668 273.01 34.2598 273.11 32.5534C274.141 13.3715 255.409 7.11503 249.547 14.2429C246.119 7.75149 240.261 2.3918 233.172 0.593839C226.049 -1.20412 217.829 1.12661 213.503 7.05216C212.404 8.64826 211.66 8.52693 210.408 7.18563C205.35 1.52591 196.862 -0.80482 189.573 1.49282C182.318 3.75626 176.693 10.5146 175.761 18.0727C170.103 13.5447 161.417 14.544 155.593 18.8713C143.501 27.9085 139.334 50.8639 143.312 66.5128C152.554 61.7576 162.048 64.9013 164.646 70.8081L165.145 73.9043C165.279 72.0733 165.479 70.1749 165.81 68.2446C170.54 70.4507 176.883 64.8042 179.522 59.8218C182.139 54.8095 182.825 49.0638 183.288 43.4349C183.187 43.4769 183.093 43.5486 182.985 43.5486C182.754 43.5486 182.521 43.4515 182.357 43.2629C178.799 39.1695 176.234 34.2201 174.941 28.9509C174.684 27.8798 176.287 27.4893 176.559 28.5538C177.788 33.5671 180.229 38.2749 183.612 42.1698C183.812 42.3992 183.812 42.6871 183.724 42.9562C194.399 50.565 209.442 48.4439 217.477 37.6451C217.277 37.4399 217.15 37.1763 217.231 36.8807C218.129 33.6818 217.79 30.1422 216.302 27.1673C215.809 26.1778 217.302 25.441 217.79 26.4227C219.461 29.7616 219.841 33.7381 218.837 37.3285C218.808 37.4289 218.73 37.4895 218.671 37.5679C223.826 47.1908 236.063 50.3488 245.283 44.0692C245.225 43.1934 247.324 37.9881 245.503 30.3992C245.246 29.3281 246.865 28.9398 247.122 30.012C248.782 36.9402 247.268 43.8056 246.662 44.5303C249.154 52.2185 251.916 60.0148 257.367 65.9106C258.765 67.4096 260.728 68.8072 262.659 69.0741C262.707 69.4326 263.191 72.9855 263.191 73.0362L263.292 71.6707C263.758 70.5389 264.457 69.5407 265.289 68.6748C265.646 68.5557 266.242 68.0041 266.62 67.5431C266.62 67.51 266.653 67.4769 266.686 67.4427C270.124 64.9641 275.433 63.9438 280.564 65.412C287.63 51.2787 283.342 39.2081 275.239 35.6155L275.24 35.6166Z" fill="#007C99"/>
<path d="M240.393 167.254C244.82 166.629 248.624 162.891 249.339 158.481C250.056 154.064 247.62 149.323 243.623 147.33C246.129 145.519 245.779 141.377 243.643 139.137C241.5 136.903 238.258 136.159 235.185 135.814C226.656 134.87 217.872 136.258 210.078 139.846C207.382 141.09 203.683 142.139 202.961 145.447C202.343 148.248 203.938 150.267 206.561 151.185C207.225 151.42 208.034 151.615 208.3 152.266C208.529 152.84 208.19 153.51 207.708 153.901C207.22 154.291 206.614 154.487 206.061 154.773C201.972 156.899 202.276 162.924 206.576 164.615C215.698 168.216 224.729 169.577 234.424 168.093" fill="#007C99"/>
<path d="M208.961 154.444C203.727 154.444 202.38 150.122 202.217 144.984C202.204 144.525 202.565 144.14 203.023 144.126C203.459 144.146 203.865 144.472 203.881 144.932C204.12 152.602 206.802 153.245 211.51 152.519L234.29 148.943C235.417 148.8 235.609 150.42 234.55 150.588C209.075 154.584 210.408 154.444 208.961 154.444Z" fill="url(#paint19_linear_2558_85126)"/>
<path d="M207.196 113.787C206.676 108.849 203.661 106.167 200.664 106.046C199.618 105.994 198.578 106.263 197.557 106.516C196.473 106.767 196.101 105.157 197.16 104.9C198.245 104.632 199.461 104.333 200.731 104.381C204.531 104.538 208.234 107.804 208.854 113.611C208.964 114.716 207.313 114.887 207.196 113.787Z" fill="#007C99"/>
<path d="M220.452 336.968C269.406 304.825 318.65 271.612 366.814 238.253C367.73 237.629 368.661 238.999 367.763 239.622C319.585 272.989 270.329 306.208 221.362 338.36C220.459 338.959 219.515 337.579 220.452 336.968Z" fill="url(#paint20_linear_2558_85126)"/>
<path d="M238.197 347.115C255.842 337.617 272.892 326.68 288.877 314.609C289.759 313.947 290.756 315.274 289.878 315.939C273.828 328.059 256.707 339.043 238.983 348.582C238.025 349.1 237.218 347.642 238.197 347.117V347.115Z" fill="url(#paint21_linear_2558_85126)"/>
<path d="M215.992 166.032C214.901 165.841 215.21 164.194 216.284 164.393C223.655 165.702 231.157 165.907 238.597 165.012C241.496 164.662 243.794 164.148 245.598 162.772C248.27 160.729 249.218 156.756 247.759 153.726C247.282 152.732 248.786 152.014 249.261 153.004C251.048 156.719 249.885 161.591 246.606 164.096C244.383 165.794 241.539 166.334 238.799 166.664C231.203 167.583 223.54 167.374 215.992 166.032Z" fill="url(#paint22_linear_2558_85126)"/>
</g>
<defs>
<linearGradient id="paint0_linear_2558_85126" x1="61.3914" y1="284.69" x2="61.3914" y2="400" gradientUnits="userSpaceOnUse">
<stop stop-color="#007C99"/>
<stop offset="1" stop-color="#00B1EC"/>
</linearGradient>
<linearGradient id="paint1_linear_2558_85126" x1="270.854" y1="358.62" x2="270.854" y2="376.306" gradientUnits="userSpaceOnUse">
<stop stop-color="#007C99"/>
<stop offset="1" stop-color="#00B1EC"/>
</linearGradient>
<linearGradient id="paint2_linear_2558_85126" x1="300.933" y1="340.542" x2="300.933" y2="362.332" gradientUnits="userSpaceOnUse">
<stop stop-color="#007C99"/>
<stop offset="1" stop-color="#00B1EC"/>
</linearGradient>
<linearGradient id="paint3_linear_2558_85126" x1="335.128" y1="140.45" x2="335.128" y2="151.872" gradientUnits="userSpaceOnUse">
<stop stop-color="#007C99"/>
<stop offset="1" stop-color="#00B1EC"/>
</linearGradient>
<linearGradient id="paint4_linear_2558_85126" x1="322.751" y1="122.699" x2="322.751" y2="134.121" gradientUnits="userSpaceOnUse">
<stop stop-color="#007C99"/>
<stop offset="1" stop-color="#00B1EC"/>
</linearGradient>
<linearGradient id="paint5_linear_2558_85126" x1="310.634" y1="106.666" x2="310.634" y2="118.088" gradientUnits="userSpaceOnUse">
<stop stop-color="#007C99"/>
<stop offset="1" stop-color="#00B1EC"/>
</linearGradient>
<linearGradient id="paint6_linear_2558_85126" x1="193.454" y1="138.788" x2="193.454" y2="227.913" gradientUnits="userSpaceOnUse">
<stop stop-color="#007C99"/>
<stop offset="1" stop-color="#00B1EC"/>
</linearGradient>
<linearGradient id="paint7_linear_2558_85126" x1="150.034" y1="63.3691" x2="150.034" y2="108.864" gradientUnits="userSpaceOnUse">
<stop stop-color="#007C99"/>
<stop offset="1" stop-color="#00B1EC"/>
</linearGradient>
<linearGradient id="paint8_linear_2558_85126" x1="279.011" y1="63.9014" x2="279.011" y2="109.634" gradientUnits="userSpaceOnUse">
<stop stop-color="#007C99"/>
<stop offset="1" stop-color="#00B1EC"/>
</linearGradient>
<linearGradient id="paint9_linear_2558_85126" x1="189.755" y1="42.249" x2="189.755" y2="125.949" gradientUnits="userSpaceOnUse">
<stop stop-color="#007C99"/>
<stop offset="1" stop-color="#00B1EC"/>
</linearGradient>
<linearGradient id="paint10_linear_2558_85126" x1="248.315" y1="68.3984" x2="248.315" y2="125.668" gradientUnits="userSpaceOnUse">
<stop stop-color="#007C99"/>
<stop offset="1" stop-color="#00B1EC"/>
</linearGradient>
<linearGradient id="paint11_linear_2558_85126" x1="209.2" y1="124.739" x2="209.2" y2="159.222" gradientUnits="userSpaceOnUse">
<stop stop-color="#007C99"/>
<stop offset="1" stop-color="#00B1EC"/>
</linearGradient>
<linearGradient id="paint12_linear_2558_85126" x1="235.73" y1="123.327" x2="235.73" y2="156.678" gradientUnits="userSpaceOnUse">
<stop stop-color="#007C99"/>
<stop offset="1" stop-color="#00B1EC"/>
</linearGradient>
<linearGradient id="paint13_linear_2558_85126" x1="280.733" y1="80.3389" x2="280.733" y2="86.0867" gradientUnits="userSpaceOnUse">
<stop stop-color="#007C99"/>
<stop offset="1" stop-color="#00B1EC"/>
</linearGradient>
<linearGradient id="paint14_linear_2558_85126" x1="280.045" y1="82.1416" x2="280.045" y2="91.6315" gradientUnits="userSpaceOnUse">
<stop stop-color="#007C99"/>
<stop offset="1" stop-color="#00B1EC"/>
</linearGradient>
<linearGradient id="paint15_linear_2558_85126" x1="150.182" y1="82.166" x2="150.182" y2="87.9113" gradientUnits="userSpaceOnUse">
<stop stop-color="#007C99"/>
<stop offset="1" stop-color="#00B1EC"/>
</linearGradient>
<linearGradient id="paint16_linear_2558_85126" x1="149.492" y1="83.9688" x2="149.492" y2="93.4587" gradientUnits="userSpaceOnUse">
<stop stop-color="#007C99"/>
<stop offset="1" stop-color="#00B1EC"/>
</linearGradient>
<linearGradient id="paint17_linear_2558_85126" x1="195.657" y1="54.0176" x2="195.657" y2="64.8653" gradientUnits="userSpaceOnUse">
<stop stop-color="#007C99"/>
<stop offset="1" stop-color="#00B1EC"/>
</linearGradient>
<linearGradient id="paint18_linear_2558_85126" x1="234.061" y1="50.1514" x2="234.061" y2="59.1948" gradientUnits="userSpaceOnUse">
<stop stop-color="#007C99"/>
<stop offset="1" stop-color="#00B1EC"/>
</linearGradient>
<linearGradient id="paint19_linear_2558_85126" x1="218.733" y1="144.126" x2="218.733" y2="154.444" gradientUnits="userSpaceOnUse">
<stop stop-color="#007C99"/>
<stop offset="1" stop-color="#00B1EC"/>
</linearGradient>
<linearGradient id="paint20_linear_2558_85126" x1="294.096" y1="238.094" x2="294.096" y2="338.507" gradientUnits="userSpaceOnUse">
<stop stop-color="#007C99"/>
<stop offset="1" stop-color="#00B1EC"/>
</linearGradient>
<linearGradient id="paint21_linear_2558_85126" x1="263.985" y1="314.429" x2="263.985" y2="348.692" gradientUnits="userSpaceOnUse">
<stop stop-color="#007C99"/>
<stop offset="1" stop-color="#00B1EC"/>
</linearGradient>
<linearGradient id="paint22_linear_2558_85126" x1="232.704" y1="152.53" x2="232.704" y2="167.225" gradientUnits="userSpaceOnUse">
<stop stop-color="#007C99"/>
<stop offset="1" stop-color="#00B1EC"/>
</linearGradient>
<clipPath id="clip0_2558_85126">
<rect width="420" height="400" fill="white"/>
</clipPath>
</defs>
</svg>
