<svg width="305" height="300" viewBox="0 0 305 300" fill="none" xmlns="http://www.w3.org/2000/svg">
<g clip-path="url(#clip0_3869_7337)">
<path d="M179.996 134.598C172.611 134.598 172.611 149.343 179.996 149.343C184.722 149.343 223.976 149.32 251.579 149.308C250.409 143.085 247.88 138.012 245.706 134.586C216.177 134.586 181.768 134.61 179.996 134.61V134.598Z" fill="#999999"/>
<path d="M305 149.284C303.854 140.845 296.658 134.551 288.174 134.563C288.174 134.563 268.381 134.563 245.718 134.574C247.904 138.012 250.421 143.073 251.59 149.296C267.093 149.296 278.933 149.284 278.933 149.284H305Z" fill="#B2B2B2"/>
<path d="M133.912 45.2246L213.719 45.6987L228.099 197.729L147.583 198.57L133.912 45.2246Z" fill="#404040"/>
<path d="M241.417 212.913V260.255C241.417 271.29 232.495 280.24 221.494 280.24H213.365C204.833 280.24 197.909 287.174 197.909 295.744V298.944H255.053C259.874 298.944 263.785 295.021 263.785 290.184V205.434L241.417 212.913Z" fill="#999999"/>
<path d="M255.336 298.932H203.51L203.203 279.588H264.411L264.057 290.457C263.903 295.175 260.039 298.932 255.336 298.932Z" fill="#C9C9C9"/>
<path d="M263.785 239.085H203.51L203.203 219.752H264.411L263.785 239.085Z" fill="#C9C9C9"/>
<path d="M184.249 212.913V260.255C184.249 271.29 175.328 280.24 164.327 280.24H152.192C145.87 280.24 140.754 285.384 140.754 291.713V298.932H206.618V205.434L184.249 212.913Z" fill="#B2B2B2"/>
<path d="M148.139 197.895L134.22 45.2246C122.285 45.2365 112.951 55.5132 114.026 67.4258L127.366 214.193C127.697 217.773 130.687 220.511 134.267 220.511L201.809 220.451L199.8 197.847L148.139 197.895Z" fill="#959595"/>
<path d="M201.655 220.393H273.509C277.681 220.393 281.001 216.872 280.765 212.7L280.327 204.829C280.115 200.965 276.936 197.954 273.084 197.942L199.8 197.848L201.655 220.393Z" fill="#404040"/>
<path d="M119.698 134.303C112.313 134.303 112.313 149.049 119.698 149.049C127.083 149.049 218.624 148.989 218.624 148.989H244.69C243.544 140.55 236.348 134.256 227.864 134.268C227.864 134.268 122.841 134.303 119.698 134.303Z" fill="#C9C9C9"/>
<path d="M134.113 45.237L240.223 197.931H264.907L156.517 45.1777L134.113 45.237Z" fill="#007C99"/>
<path d="M158.774 72.607L167.885 66.2773L169.09 68.0316L166.242 77.9765L165.651 77.1231L172.209 72.5714L173.651 74.6576L164.541 80.9872L163.347 79.2448L166.183 69.2881L166.774 70.1415L160.216 74.6932L158.774 72.607Z" fill="white"/>
<path d="M168.96 87.7078C168.464 86.9848 168.121 86.238 167.932 85.4557C167.743 84.6734 167.708 83.9148 167.826 83.1799C167.944 82.4331 168.204 81.7456 168.606 81.0937C169.008 80.4536 169.551 79.8965 170.225 79.4224C170.898 78.9482 171.607 78.6401 172.352 78.4978C173.096 78.3556 173.84 78.3556 174.573 78.5097C175.306 78.6638 176.003 78.9719 176.665 79.4105C177.314 79.8609 177.893 80.4418 178.39 81.153C178.886 81.876 179.229 82.6228 179.406 83.3932C179.583 84.1637 179.619 84.9223 179.5 85.6572C179.382 86.4039 179.134 87.0914 178.732 87.7434C178.342 88.3953 177.799 88.9524 177.114 89.4265C176.44 89.9007 175.719 90.2088 174.975 90.3511C174.219 90.4933 173.486 90.4933 172.753 90.3511C172.021 90.197 171.335 89.9007 170.686 89.4502C170.036 88.9998 169.457 88.4309 168.972 87.7197L168.96 87.7078ZM170.745 86.4514C171.028 86.8662 171.359 87.1863 171.737 87.4352C172.115 87.6841 172.517 87.85 172.966 87.933C173.403 88.016 173.852 88.0041 174.313 87.8975C174.774 87.7908 175.211 87.5893 175.648 87.2929C176.086 86.9966 176.428 86.641 176.688 86.2499C176.948 85.8587 177.114 85.4438 177.196 85.0053C177.279 84.5667 177.267 84.1281 177.173 83.6777C177.066 83.2273 176.877 82.8006 176.594 82.3975C176.31 81.9945 175.979 81.6626 175.601 81.4137C175.223 81.1648 174.821 80.9989 174.372 80.9159C173.935 80.8329 173.486 80.8448 173.025 80.9514C172.576 81.0581 172.127 81.2596 171.69 81.556C171.265 81.8523 170.922 82.196 170.662 82.5872C170.402 82.9784 170.225 83.3932 170.142 83.8318C170.059 84.2704 170.071 84.7089 170.166 85.1594C170.272 85.5979 170.461 86.0365 170.745 86.4395V86.4514Z" fill="white"/>
<path d="M174.868 95.9469L182.265 90.8144L180.245 87.8866L181.958 86.6895L187.453 94.6548L185.739 95.852L183.719 92.9243L176.322 98.0567L174.856 95.935L174.868 95.9469Z" fill="white"/>
<path d="M180.858 104.623L192.781 102.371L194.223 104.457L187.925 114.876L186.388 112.66L192.131 103.734L192.71 104.576L182.347 106.804L180.847 104.635L180.858 104.623ZM184.214 105.311L186.199 104.765L189.437 109.471L188.232 111.154L184.202 105.311H184.214Z" fill="white"/>
<path d="M190.135 118.075L196.527 107.811L198.099 110.098L192.403 119.154L191.47 117.815L201.963 115.717L203.416 117.815L191.576 120.185L190.135 118.099V118.075Z" fill="white"/>
<path d="M193.786 123.375L205.709 121.123L207.15 123.209L200.852 133.628L199.316 131.412L205.059 122.486L205.638 123.328L195.275 125.556L193.774 123.387L193.786 123.375ZM197.142 124.063L199.127 123.517L202.365 128.223L201.16 129.906L197.13 124.075L197.142 124.063Z" fill="white"/>
<path d="M201.514 134.587L210.624 128.258L212.077 130.38L202.967 136.709L201.514 134.587Z" fill="white"/>
<path d="M204.468 138.867L213.578 132.537L215.031 134.659L207.635 139.791L210.801 144.379L209.088 145.576L204.468 138.879V138.867Z" fill="white"/>
<path d="M209.123 145.611L221.046 143.359L222.487 145.446L216.189 155.853L214.653 153.636L220.396 144.711L220.975 145.552L210.612 147.781L209.111 145.611H209.123ZM212.479 146.299L214.464 145.754L217.702 150.459L216.496 152.143L212.467 146.311L212.479 146.299Z" fill="white"/>
<path d="M216.852 156.812L225.962 150.482L229.046 154.951C229.838 156.101 230.216 157.12 230.18 157.997C230.145 158.875 229.767 159.562 229.058 160.06C228.585 160.392 228.089 160.558 227.569 160.57C227.061 160.57 226.565 160.439 226.092 160.167C225.619 159.894 225.194 159.491 224.828 158.958L225.537 158.839C225.927 159.42 226.186 159.989 226.305 160.558C226.423 161.127 226.387 161.672 226.198 162.17C226.009 162.668 225.643 163.106 225.111 163.474C224.331 164.019 223.504 164.126 222.642 163.817C221.779 163.509 220.928 162.751 220.101 161.542L216.84 156.812H216.852ZM219.888 157.808L221.59 160.273C221.968 160.818 222.346 161.174 222.713 161.34C223.091 161.494 223.469 161.447 223.859 161.174C224.237 160.913 224.426 160.57 224.414 160.155C224.414 159.74 224.213 159.266 223.835 158.709L222.027 156.089L223.563 155.022L225.123 157.286C225.478 157.796 225.844 158.128 226.21 158.282C226.576 158.436 226.943 158.377 227.309 158.128C227.664 157.879 227.841 157.559 227.829 157.168C227.829 156.765 227.64 156.314 227.285 155.793L225.832 153.695L219.9 157.82L219.888 157.808Z" fill="white"/>
<path d="M223.74 166.804L232.851 160.475L234.304 162.596L226.907 167.729L230.074 172.316L228.36 173.513L223.74 166.816V166.804Z" fill="white"/>
<path d="M229.176 174.699L238.286 168.369L243.048 175.28L241.358 176.453L238.038 171.652L232.307 175.623L235.734 180.602L234.044 181.775L229.164 174.699H229.176ZM234.316 174.011L235.958 172.873L238.995 177.271L237.353 178.409L234.316 174.011Z" fill="white"/>
</g>
<path d="M66.0437 135.668C58.6586 135.668 58.6586 150.414 66.0437 150.414C70.7702 150.414 110.024 150.39 137.627 150.378C136.457 144.155 133.928 139.082 131.754 135.656C102.225 135.656 67.8162 135.68 66.0437 135.68V135.668Z" fill="#999999"/>
<path d="M191.049 150.355C189.902 141.915 182.706 135.621 174.222 135.633C174.222 135.633 154.43 135.633 131.767 135.645C133.953 139.082 136.469 144.143 137.639 150.366C153.142 150.366 164.982 150.355 164.982 150.355H191.049Z" fill="#B2B2B2"/>
<path d="M19.9609 46.2793L99.7678 46.7534L114.148 198.783L33.6323 199.625L19.9609 46.2793Z" fill="#404040"/>
<path d="M127.464 213.97V261.312C127.464 272.347 118.543 281.296 107.542 281.296H99.4127C90.8814 281.296 83.957 288.23 83.957 296.8V300.001H141.1C145.921 300.001 149.833 296.077 149.833 291.241V206.49L127.464 213.97Z" fill="#999999"/>
<path d="M141.384 299.987H89.5582L89.251 280.643H150.459L150.105 291.512C149.951 296.23 146.087 299.987 141.384 299.987Z" fill="#C9C9C9"/>
<path d="M149.833 240.151H89.5582L89.251 220.807H150.459L149.833 240.151Z" fill="#C9C9C9"/>
<path d="M70.2983 213.97V261.312C70.2983 272.347 61.377 281.296 50.3761 281.296H38.2408C31.9192 281.296 26.8027 286.44 26.8027 292.77V299.989H92.6664V206.49L70.2983 213.97Z" fill="#B2B2B2"/>
<path d="M34.1878 198.949L20.2682 46.2793C8.34564 46.2793 -1.001 56.5561 0.0860934 68.4686L13.4266 215.236C13.7575 218.815 16.747 221.553 20.3273 221.553L87.8689 221.494L85.8602 198.89L34.1996 198.937L34.1878 198.949Z" fill="#959595"/>
<path d="M87.7028 221.447H159.557C163.728 221.447 167.049 217.927 166.813 213.754L166.375 205.884C166.163 202.02 162.984 199.009 159.132 198.997L85.8477 198.902L87.7028 221.447Z" fill="#404040"/>
<path d="M202.459 274.953L205.082 290.718L205.179 291.3H185.832L185.758 290.889L183.146 276.439L183.048 275.892L183.603 275.853L201.93 274.536L202.384 274.504L202.459 274.953Z" fill="white" stroke="#007C99"/>
<path d="M184.939 286.866C184.939 286.866 183.627 294.749 183.627 300H233.385C233.385 300 216.441 289.261 203.301 286.084L184.927 286.854L184.939 286.866Z" fill="#007C99"/>
<path d="M152.702 274.953L155.325 290.718L155.422 291.3H136.076L136.001 290.89L133.378 276.44L133.278 275.892L133.834 275.853L152.173 274.536L152.627 274.504L152.702 274.953Z" fill="white" stroke="#007C99"/>
<path d="M135.182 286.866C135.182 286.866 133.87 294.749 133.87 300H183.628C183.628 300 166.684 289.261 153.544 286.084L135.17 286.854L135.182 286.866Z" fill="#007C99"/>
<path d="M89.8537 165.026C89.8537 165.026 74.3272 201.356 119.607 200.064H157.124L180.413 279.22H206.291L186.889 200.064C186.889 200.064 183.013 170.218 135.145 165.026C87.2778 159.834 89.8656 165.026 89.8656 165.026H89.8537Z" fill="#007C99"/>
<path d="M41.9866 165.026C41.9866 165.026 34.2234 201.356 79.5032 200.064H109.256L132.546 279.22H158.424L139.022 200.064C139.022 200.064 135.146 170.218 87.2783 165.026C39.4107 159.834 41.9985 165.026 41.9985 165.026H41.9866Z" fill="#00B1EC"/>
<path d="M122.775 127.606L87.0664 93.7769L95.0069 77.6328L131.365 116.772L122.775 127.606Z" fill="#959595"/>
<path d="M86.6166 56.6625C86.6166 56.6625 29.0361 57.3026 18.685 62.4943C8.33401 67.686 16.759 86.509 18.0588 89.1049C19.3586 91.7007 40.9941 174.875 40.9941 174.875C40.9941 174.875 71.8108 173.559 83.308 169.897C94.8052 166.234 101.068 162.82 101.068 162.82L102.793 75.4736C102.793 75.4736 101.505 56.0106 86.6166 56.6625Z" fill="#9EE7FF"/>
<path d="M49.7725 38.7568C52.9862 39.207 56.1368 40.665 59.2012 41.9854C62.1063 43.2371 64.9434 44.3713 67.8203 44.5693L68.3965 44.5957L68.8633 44.6074L68.8838 45.0742L69.6396 62.4746L69.6494 62.6924L69.4961 62.8467C66.614 65.7711 63.7627 67.1335 61.0889 67.4912C58.4201 67.8483 55.9819 67.1981 53.9336 66.1914C51.8876 65.1858 50.213 63.816 49.0537 62.7051C48.473 62.1485 48.0184 61.6538 47.708 61.2969C47.5527 61.1183 47.4329 60.9736 47.3516 60.873C47.3112 60.8231 47.2801 60.7841 47.2588 60.7568C47.2481 60.7432 47.2401 60.7321 47.2344 60.7246C47.2315 60.7209 47.2292 60.7179 47.2275 60.7158C47.2267 60.7148 47.2261 60.7135 47.2256 60.7129H47.2246C47.2244 60.7126 47.2245 60.712 47.623 60.4102L47.2246 60.7119L47.1064 60.5557L47.125 60.3604L49.1934 39.4482L48.2969 38.5498L49.7725 38.7568Z" fill="white" stroke="#007C99"/>
<path d="M60.3262 5.71191C64.0288 5.3545 67.7924 5.86376 70.8945 6.86914C73.9704 7.86606 76.4971 9.38464 77.6084 11.1279C79.7293 14.4553 79.8173 17.8337 79.4102 20.8271C79.2076 22.316 78.8798 23.7304 78.6172 24.9824C78.3505 26.254 78.1561 27.342 78.1836 28.249C78.2425 30.1944 78.4134 35.8128 76.2363 40.6953C75.1425 43.1483 73.4466 45.4381 70.8301 46.9756C68.2119 48.5139 64.7212 49.2701 60.0918 48.7451C57.3317 48.4306 52.9549 46.8831 49.5205 42.7432C46.0772 38.5925 43.6298 31.8958 44.6318 21.377C45.1359 16.058 47.1831 12.3051 50.0713 9.79688C52.9505 7.29651 56.6234 6.06937 60.3262 5.71191Z" fill="white" stroke="#007C99"/>
<path d="M36.4766 74.3008L36.4775 74.3018L36.2598 74.4668L36.5098 74.3906L47.8291 111.16L47.835 111.179L47.8398 111.198C48.4257 113.837 50.5381 115.856 53.1777 116.33L53.4355 116.371L53.4434 116.372L107.608 124.847L107.65 124.854L107.69 124.867H107.691L107.693 124.868L107.72 124.877C107.737 124.883 107.762 124.892 107.793 124.903C107.856 124.926 107.947 124.961 108.062 125.008C108.294 125.101 108.627 125.244 109.036 125.444C109.854 125.844 110.982 126.473 112.233 127.394C114.737 129.235 117.739 132.247 119.736 136.927L120.041 137.64L119.266 137.623L37.1436 135.821C32.7041 135.725 28.7881 132.947 27.208 128.821L27.0625 128.418L10.4844 79.6895L10.4785 79.6738L10.4746 79.6572L10.4736 79.6562C10.4735 79.6556 10.4739 79.6543 10.4736 79.6533C10.4731 79.6514 10.4725 79.6488 10.4717 79.6455C10.4698 79.6383 10.4663 79.6275 10.4629 79.6143C10.4562 79.5878 10.4465 79.5494 10.4346 79.5C10.4106 79.4007 10.3778 79.2562 10.3389 79.0723C10.261 78.7042 10.1606 78.1763 10.0703 77.5332C9.89014 76.2492 9.74817 74.4933 9.9043 72.6191C10.216 68.878 11.7376 64.5496 16.6543 62.7031C22.1627 60.6341 27.1698 63.6618 30.6992 67.0273C32.4773 68.7229 33.9193 70.5394 34.916 71.9287C35.415 72.6242 35.8038 73.2151 36.0684 73.6328C36.2006 73.8415 36.3025 74.0069 36.3711 74.1211C36.4054 74.1781 36.4314 74.2226 36.4492 74.2529C36.4581 74.2681 36.4651 74.28 36.4697 74.2881C36.472 74.2921 36.4733 74.2957 36.4746 74.2979C36.4752 74.2988 36.4762 74.2992 36.4766 74.2998V74.3008Z" fill="white" stroke="#007C99"/>
<path d="M17.8581 62.3304C-0.787881 69.715 16.7001 99.9408 16.7001 99.9408L42.7431 91.122C42.7431 91.122 36.7759 54.851 17.8581 62.3304Z" fill="#007C99"/>
<path d="M5.74687 135.358C-1.63828 135.358 -1.63828 150.103 5.74687 150.103C13.132 150.103 104.672 150.044 104.672 150.044H130.739C129.593 141.605 122.397 135.31 113.913 135.322C113.913 135.322 8.88999 135.358 5.74687 135.358Z" fill="#C9C9C9"/>
<path d="M46.0157 34.9722L48.568 28.4648L54.9606 25.6793L57.2056 13.9327C57.2056 13.9327 67.663 17.5242 79.2666 15.8766C79.2666 15.8766 90.7519 10.3412 80.1764 2.86176C80.1764 2.86176 75.0836 5.61172 73.7484 4.34342C72.4131 3.07512 60.5496 -4.35687 51.7229 3.69149C51.7229 3.69149 32.3915 11.9888 46.0039 34.9604L46.0157 34.9722Z" fill="#007C99"/>
<path d="M59.9948 35.6846C53.3304 33.0176 50.4473 25.3486 50.3291 25.0286L51.5462 24.5781C51.5698 24.6492 54.3584 32.022 60.4793 34.4756L59.9948 35.6846Z" fill="white"/>
<path d="M54.7363 41.0774C47.9538 37.0236 47.1857 28.5366 47.1621 28.1692L48.4501 28.0625C48.4501 28.1455 49.1945 36.2531 55.398 39.9632L54.7363 41.0774Z" fill="#007C99" fill-opacity="0.5"/>
<path d="M59.0722 33.4312C58.0914 35.0788 56.1772 38.2436 54.2393 41.1832C53.6131 42.1315 53.8967 43.3761 54.8656 43.9687C57.8197 45.7704 64.1295 48.8878 70.1794 47.1454C70.9593 46.9202 71.6801 46.5172 72.2591 45.9482C73.8188 44.431 77.1038 40.7921 78.0372 36.193C78.1672 35.5292 77.73 34.8773 77.0683 34.7825L61.0455 32.4829C60.2538 32.3644 59.4739 32.7319 59.0722 33.4193V33.4312Z" fill="#007C99" fill-opacity="0.5"/>
<path d="M101.139 43.623L101.291 43.6279C102.845 43.7259 103.899 45.3119 103.331 46.8018L93.4531 72.9492C93.1081 73.8661 92.2371 74.4695 91.2607 74.4697H75.8047C74.1685 74.4697 73.026 72.8283 73.6123 71.29L83.4902 45.1436C83.8353 44.2266 84.7062 43.6232 85.6826 43.623H101.139Z" fill="white" stroke="#007C99"/>
<path d="M76.6669 72.1455C76.596 72.1455 76.5133 72.1337 76.4424 72.0981C76.1116 71.9677 75.9343 71.6003 76.0643 71.2565L85.1037 47.147C85.5055 46.0921 86.5217 45.3809 87.6442 45.3809H87.656L101.127 45.452C101.481 45.452 101.776 45.7483 101.765 46.1039C101.765 46.4595 101.469 46.744 101.115 46.744L87.6442 46.6729C87.0534 46.6729 86.5217 47.0403 86.309 47.5974L77.2696 71.7069C77.175 71.9677 76.9269 72.1218 76.6669 72.1218V72.1455Z" fill="#E2E2E2"/>
<path d="M81.5801 57.2734C83.9272 55.0354 87.6606 55.2189 89.7783 57.6562L93.7764 61.1719L93.7773 61.1729C94.4561 61.7717 95.4704 61.7414 96.1123 61.1025L97.9883 58.4385L98.8457 57.2207L98.8965 58.709L99.3037 70.5176L134.742 108.652C134.745 108.655 134.748 108.657 134.751 108.66C134.771 108.678 134.8 108.705 134.836 108.738C134.909 108.806 135.012 108.905 135.14 109.033C135.394 109.289 135.744 109.663 136.132 110.137C136.906 111.083 137.845 112.444 138.473 114.09C139.102 115.738 139.423 117.684 138.944 119.78C138.465 121.879 137.194 124.079 134.72 126.251H134.719C132.055 128.588 129.51 129.459 127.179 129.394C124.859 129.329 122.819 128.339 121.15 127.084C119.481 125.829 118.155 124.287 117.249 123.069C116.795 122.459 116.444 121.925 116.205 121.543C116.086 121.352 115.994 121.198 115.933 121.092C115.902 121.039 115.877 120.997 115.861 120.969C115.855 120.957 115.85 120.948 115.846 120.94L83.7842 73.6416V73.8477L82.8555 72.2939L81.2598 69.627C78.9871 65.8351 79.0866 61.0659 81.5068 57.3623L81.5381 57.3135L81.5801 57.2734Z" fill="white" stroke="#007C99"/>
<path d="M49.287 31.1058C50.9033 31.0234 52.1067 28.8472 51.9749 26.2451C51.843 23.643 50.4258 21.6004 48.8095 21.6828C47.1931 21.7652 45.9897 23.9414 46.1216 26.5435C46.2534 29.1456 47.6706 31.1882 49.287 31.1058Z" fill="white"/>
<defs>
<clipPath id="clip0_3869_7337">
<rect width="191.057" height="253.755" fill="white" transform="translate(113.943 45.1777)"/>
</clipPath>
</defs>
</svg>
