<svg width="170" height="220" viewBox="0 0 170 220" fill="none" xmlns="http://www.w3.org/2000/svg">
<g clip-path="url(#clip0_8542_22057)">
<path d="M153.683 219.983H153.682C153.327 219.983 153.039 219.695 153.039 219.34C153.041 217.402 153.023 238.721 153.161 76.3627C153.163 76.0087 153.45 75.7227 153.804 75.7227H153.807C154.163 75.7242 154.45 76.0127 154.448 76.3673C154.31 238.665 154.328 217.42 154.327 219.341C154.327 219.696 154.039 219.983 153.683 219.983Z" fill="#76D8EF"/>
<path d="M6.25513 219.982H6.25431C5.89888 219.982 5.61133 219.695 5.61133 219.339L5.77564 20.8166C5.77564 9.33828 15.1329 0 26.6345 0H133.642C145.187 0 154.493 9.29546 154.493 20.8174C154.493 21.1721 154.204 21.4683 153.849 21.4683C153.493 21.4683 153.205 21.1897 153.205 20.835V20.8174C153.205 10.0071 144.474 1.28506 133.642 1.28506H26.6345C15.8429 1.28506 7.0633 10.0469 7.0633 20.8174L6.89899 219.34C6.89899 219.695 6.61062 219.982 6.25513 219.982Z" fill="#76D8EF"/>
<path d="M143.511 109.572C143.156 109.572 142.867 109.284 142.867 108.929V108.791C142.867 108.436 143.156 108.148 143.511 108.148C144.372 108.148 144.374 109.572 143.511 109.572Z" fill="#404040"/>
<path d="M143.417 219.991H143.416C143.061 219.991 142.773 219.703 142.773 219.348C142.773 219.261 142.868 113.132 142.868 113.238C142.87 112.884 143.157 112.598 143.512 112.598H143.514C143.87 112.6 144.157 112.888 144.156 113.243C144.146 123.743 144.061 219.009 144.061 219.349C144.061 219.704 143.773 219.991 143.417 219.991Z" fill="#404040"/>
<path d="M143.521 104.476H143.52C143.165 104.476 142.877 104.188 142.877 103.832L142.894 80.4087C142.894 79.784 143.624 79.7288 143.539 79.7672C143.894 79.7672 144.182 80.0547 144.182 80.4103L144.165 103.834C144.165 104.188 143.877 104.476 143.521 104.476Z" fill="#404040"/>
<path d="M16.5305 219.99H16.5297C16.1742 219.99 15.8867 219.702 15.8867 219.346L16.0426 27.7882C16.0426 16.7157 24.1382 7.70703 34.0881 7.70703H126.179C132.602 7.70703 138.22 11.4578 141.395 16.9901C141.571 17.298 141.464 17.6903 141.155 17.8668C140.846 18.0408 140.453 17.9346 140.277 17.6275C137.329 12.4664 132.084 8.99204 126.179 8.99204H34.0881C24.8474 8.99204 17.3303 17.4243 17.3303 27.7891L17.1743 219.348C17.1743 219.703 16.886 219.99 16.5305 219.99Z" fill="#404040"/>
<path d="M26.6306 0.644531C15.4633 0.644531 6.41509 9.6743 6.41509 20.8191L6.25396 219.955H0L0.161131 20.8191C0.161131 9.6743 9.20922 0.644531 20.3765 0.644531H26.6306Z" fill="#404040"/>
<path d="M51.3906 8.98047L53.9509 21.9879L111.789 21.6395L114.582 8.98047H51.3906Z" fill="#76D8EF"/>
<path d="M62.6747 16.3296C62.3204 16.3296 62.0328 16.0443 62.0313 15.6904C62.0292 15.3357 62.3163 15.0463 62.6716 15.0446C62.7849 15.044 104.859 14.8438 104.76 14.8438C105.115 14.8438 105.403 15.129 105.404 15.4829C105.406 15.8377 105.119 16.1271 104.764 16.1288L62.6782 16.3296H62.6747Z" fill="#404040"/>
<path d="M123.327 77.4939C129.359 80.2833 136.314 81.1214 142.963 79.8674C143.068 79.6622 143.279 79.521 143.525 79.5159C143.946 79.5082 144.363 79.5 144.773 79.4775C157.506 76.2635 166.33 65.5157 168.287 53.9933V53.9923C170.862 38.8817 161.413 18.7763 140.811 17.9529C121.856 17.1662 105.826 32.7899 107.376 50.7105L110.48 77.0253L118.338 76.5198C119.917 76.4154 121.655 76.7142 123.327 77.4939ZM122.783 78.6594C121.38 78.004 119.868 77.7114 118.42 77.8019L109.953 78.3463C109.647 78.378 109.312 78.1207 109.272 77.781L106.095 50.841C104.472 32.0764 121.255 15.8064 140.865 16.6696C146.225 16.8834 151.729 18.4527 156.197 21.5261C166.028 28.1881 171.648 41.9336 169.556 54.2082V54.2077C167.528 66.1517 158.39 77.3901 145.028 80.7392C144.908 80.7704 144.181 80.7873 144.055 80.7899C143.964 80.9147 143.827 81.0058 143.666 81.0395C136.64 82.4665 129.223 81.6361 122.783 78.6594Z" fill="#404040"/>
<path d="M144.871 80.1133C144.429 80.2166 143.979 80.32 143.537 80.4064V80.1563C143.979 80.1476 144.429 80.1389 144.871 80.1133Z" fill="white"/>
<path d="M143.128 80.9054C142.813 80.6455 142.912 80.2909 142.894 80.1584C142.894 79.8084 143.175 79.5224 143.525 79.5158C143.967 79.5076 144.405 79.4989 144.834 79.4738C145.133 79.4539 145.461 79.6913 145.508 80.0228C145.557 80.3523 145.344 80.6644 145.019 80.7416C144.569 80.847 144.111 80.9524 143.661 81.0399C143.46 81.0773 143.27 81.022 143.128 80.9054Z" fill="#404040"/>
<path d="M37.6036 170.643L40.5819 159.748L31.2578 157.458C31.4483 153.571 32.262 149.803 32.5651 145.924C33.4831 134.3 36.6292 123.059 41.5429 113.031L86.8827 122.717L95.09 162.902L37.6036 170.643Z" fill="#C4C4C4"/>
<path d="M106.189 125.673L91.9647 147.766L50.1662 129.639L42.6342 160.087L16.6875 153.866V118.26C18.2286 114.986 20.5747 112.135 23.0768 109.508C30.3492 101.913 39.2751 95.9001 49.0668 92.0117L50.1835 91.9774L46.4177 94.094V94.1979L63.2826 110.812L72.044 91.6055C75.5327 91.9948 79.3941 92.9792 81.8441 94.4051C87.8264 97.8698 91.0906 100.695 95.0904 106.328C99.0815 111.97 102.743 119.686 106.189 125.673Z" fill="#C4C4C4"/>
<path d="M42.4861 160.709L16.5395 154.492C16.2495 154.422 16.0457 154.164 16.0457 153.867C16.068 115.92 15.9914 118.235 16.1061 117.989C17.8221 114.329 20.4846 111.298 22.6131 109.066C29.9248 101.421 38.9903 95.318 48.8296 91.4163C49.159 91.2864 49.5337 91.4455 49.6662 91.776C49.797 92.1065 49.636 92.4795 49.3057 92.611C39.6366 96.4441 30.7288 102.441 23.5453 109.952C21.5099 112.087 18.9723 114.969 17.3334 118.405V153.361L42.1641 159.31L49.5396 129.487C49.6259 129.142 49.9747 128.938 50.3193 129.017C50.6646 129.102 50.875 129.45 50.7903 129.795L43.2615 160.237C43.1776 160.575 42.839 160.791 42.4861 160.709Z" fill="#404040"/>
<path d="M24.1097 219.968C23.7668 219.874 23.5639 219.521 23.6578 219.179L39.7869 160.216L17.3286 154.694L17.1743 219.35C17.1728 219.974 16.4428 220.029 16.5288 219.991C16.1734 219.99 15.8858 219.701 15.8867 219.347C16.1491 149.467 15.8257 153.729 16.2899 153.368C16.4458 153.245 16.6462 153.201 16.8407 153.25C42.0274 159.518 40.8749 158.979 41.1366 159.424C41.3993 159.868 42.2298 155.882 24.9002 219.517C24.8077 219.857 24.4569 220.061 24.1097 219.968Z" fill="#404040"/>
<path d="M143.997 109.883C143.923 109.883 143.847 109.87 143.773 109.843C143.44 109.719 143.27 109.349 143.394 109.016L143.558 108.575C143.681 108.243 144.05 108.073 144.387 108.197C144.719 108.321 144.89 108.691 144.765 109.024C144.655 109.211 144.617 109.883 143.997 109.883Z" fill="#404040"/>
<path d="M140.828 118.876C140.389 118.876 140.08 118.447 140.216 118.033L140.259 117.903C140.37 117.567 140.731 117.383 141.072 117.493C141.41 117.604 141.593 117.968 141.483 118.305L141.44 118.434C141.35 118.704 141.099 118.876 140.828 118.876Z" fill="#404040"/>
<path d="M94.396 163.513C94.1294 163.278 94.1032 162.872 94.3385 162.606C94.5733 162.34 94.9809 162.314 95.2475 162.549C99.9133 166.65 104.524 166.949 110.925 166.083C118.475 165.157 125.513 159.68 128.369 151.585L138.645 122.477C138.763 122.14 139.133 121.965 139.466 122.084C139.801 122.202 139.977 122.569 139.859 122.904L129.583 152.012C126.539 160.64 119.024 166.393 111.089 167.357C104.514 168.251 99.4129 167.923 94.396 163.513Z" fill="#404040"/>
<path d="M142.218 114.335C141.881 114.222 141.698 113.859 141.81 113.522L141.897 113.263C142.01 112.927 142.37 112.746 142.712 112.857C143.049 112.97 143.231 113.332 143.119 113.67L143.033 113.929C142.922 114.256 142.569 114.447 142.218 114.335Z" fill="#404040"/>
<path d="M111.461 135.359C108.229 129.128 103.969 122.124 100.504 115.623C96.4857 108.11 92.715 102.178 87.3751 97.6497C81.179 92.3964 74.4877 90.4609 68.025 92.0561C67.679 92.1395 67.3309 91.9308 67.2452 91.5859C67.1606 91.2411 67.3714 90.8932 67.7164 90.8077C74.6015 89.1127 81.686 91.1393 88.2081 96.671C96.2185 103.461 100.074 112.472 106.787 124.25C108.528 127.305 110.321 130.452 111.945 133.511L128.038 92.0034C128.899 89.7896 131.401 88.6702 133.62 89.5092C135.307 90.1396 136.442 91.7701 136.442 93.5659C136.442 94.6061 136.243 94.6859 134.331 101.637C134.235 101.978 133.876 102.179 133.538 102.081C133.195 101.985 132.996 101.63 133.092 101.289L135.04 94.3943C135.479 92.845 134.624 91.2559 133.166 90.7116C131.605 90.1211 129.845 90.909 129.238 92.4675L112.633 135.295C112.542 135.532 112.32 135.692 112.068 135.706C111.834 135.722 111.583 135.594 111.461 135.359Z" fill="#404040"/>
<path d="M25.1348 218.726L37.8564 170.608L93.3244 162.988L105.197 218.726" fill="#76D8EF"/>
<path d="M67.3555 219.841C67.0043 219.786 66.7639 219.457 66.8182 219.107L70.7457 193.896C70.8001 193.546 71.1287 193.305 71.4809 193.359C71.8321 193.414 72.073 193.743 72.0182 194.093L68.0907 219.304C68.0373 219.649 67.7154 219.895 67.3555 219.841Z" fill="#404040"/>
<path d="M95.6129 182.681C92.4656 181.367 89.567 178.825 87.2287 175.333C85.1545 172.236 83.718 168.785 82.3287 165.447C82.1923 165.119 82.3482 164.744 82.6758 164.608C83.008 164.472 83.3807 164.627 83.5175 164.954C84.8833 168.234 86.2957 171.627 88.3002 174.618C90.4965 177.9 93.1967 180.279 96.1107 181.497C96.4383 181.634 96.5926 182.01 96.4552 182.338C96.3168 182.668 95.9359 182.818 95.6129 182.681Z" fill="#404040"/>
<path d="M35.3359 193.884C34.6418 193.884 34.4408 192.929 35.0793 192.653C42.4041 189.474 46.3486 181.318 44.1649 173.56C44.0685 173.218 44.268 172.863 44.6101 172.768C44.9588 172.667 45.3084 172.871 45.4039 173.212C47.7706 181.621 43.4796 190.408 35.5923 193.831C35.5094 193.868 35.4222 193.884 35.3359 193.884Z" fill="#404040"/>
<path d="M109.273 142.143C108.943 142.014 108.778 141.642 108.907 141.311L111.434 134.834C111.564 134.504 111.937 134.342 112.268 134.469C112.599 134.598 112.764 134.97 112.634 135.301L110.108 141.777C109.98 142.101 109.615 142.273 109.273 142.143Z" fill="#404040"/>
<path d="M133.163 103.026C132.874 103.935 133.383 104.919 134.298 105.215L143.317 108.091C143.416 108.125 143.508 108.141 143.597 108.154C144.492 108.288 145.261 107.728 145.502 106.965C145.503 106.964 145.503 106.963 145.503 106.963C145.793 106.051 145.293 105.072 144.372 104.78L135.35 101.903C134.451 101.613 133.453 102.129 133.163 103.026ZM143.848 109.458C143.705 109.458 143.56 109.447 143.415 109.426C143.254 109.404 143.085 109.37 142.915 109.313L133.903 106.439C132.314 105.924 131.433 104.218 131.937 102.634C132.473 100.979 134.25 100.2 135.742 100.678L144.764 103.556C146.337 104.054 147.243 105.74 146.73 107.352C146.353 108.546 145.22 109.458 143.848 109.458Z" fill="#404040"/>
<path d="M131.83 107.679C131.531 108.604 132.042 109.572 132.953 109.861L141.976 112.738C142.884 113.033 143.877 112.516 144.161 111.62C144.161 111.618 144.161 111.617 144.162 111.616C144.382 110.935 144.154 110.183 143.597 109.743C143.466 109.63 143.366 109.564 143.255 109.517C143.166 109.473 143.101 109.451 143.035 109.427L134.017 106.55C133.096 106.252 132.114 106.784 131.83 107.679ZM141.58 113.962L132.563 111.086C131.791 110.842 131.161 110.312 130.791 109.594C129.57 107.219 131.843 104.504 134.41 105.326L143.43 108.202C143.591 108.262 143.698 108.302 143.797 108.351C145.057 108.89 145.878 110.484 145.388 112.008C144.891 113.577 143.172 114.477 141.58 113.962Z" fill="#404040"/>
<path d="M132.145 111.127C131.383 111.127 130.718 111.609 130.491 112.328C130.199 113.242 130.705 114.226 131.616 114.521C141.166 117.559 140.75 117.479 141.166 117.479C141.914 117.479 142.594 116.981 142.82 116.269C142.82 116.266 142.821 116.265 142.822 116.263C143.069 115.505 142.767 114.687 142.086 114.273C141.956 114.184 141.842 114.131 141.699 114.085C132.207 111.087 132.653 111.127 132.145 111.127ZM140.809 118.743C140.309 118.687 140.67 118.739 131.222 115.745C129.637 115.232 128.759 113.525 129.263 111.94C129.775 110.323 131.501 109.482 133.069 109.985L142.089 112.861C142.353 112.944 142.581 113.054 142.787 113.195C143.949 113.901 144.479 115.333 144.047 116.659C143.633 117.963 142.375 118.901 140.809 118.743Z" fill="#404040"/>
<path d="M129.26 118.31C129.474 118.722 129.835 119.025 130.278 119.166L139.292 122.044C139.357 122.044 139.382 122.057 139.445 122.078C140.16 122.298 141.181 121.848 141.487 120.921C141.747 120.086 141.37 119.094 140.332 118.725L131.333 115.855C129.88 115.386 128.544 116.928 129.26 118.31ZM138.889 123.264L129.888 120.39C129.118 120.147 128.488 119.617 128.116 118.9C126.886 116.527 129.154 113.807 131.726 114.631C140.857 117.555 140.776 117.488 141.118 117.659C142.476 118.286 143.17 119.86 142.715 121.31C142.714 121.313 142.713 121.315 142.712 121.318C142.192 122.901 140.464 123.796 138.889 123.264Z" fill="#404040"/>
<path d="M47.4106 94.2708L63.0778 109.707L71.402 91.4589L68.3824 91.8135C67.9712 92.3328 67.1504 91.9767 67.2314 91.3494L67.9322 85.9124C61.0512 86.5135 55.2186 83.1977 50.9063 77.8839L51.2249 91.7357C51.2299 91.9726 51.105 92.1936 50.8979 92.3098L47.4106 94.2708ZM62.8286 111.268L45.9645 94.653C45.6826 94.3737 45.6824 93.7679 46.1011 93.532L49.9289 91.3812L49.5734 75.9198C49.5585 75.2874 50.3776 75.0157 50.7445 75.5355C55.0038 81.6004 61.1881 85.5348 68.5895 84.5479C69.016 84.4941 69.3667 84.8512 69.3139 85.2662L68.6407 90.4894L72.3832 90.0494C72.88 89.9911 73.2511 90.4976 73.0451 90.9519C60.4678 118.531 64.806 109.019 63.8673 111.077C63.6822 111.483 63.147 111.581 62.8286 111.268Z" fill="#404040"/>
<path d="M47.8784 70.6428C48.601 70.8628 48.1624 71.8856 50.7429 75.5345C53.3439 79.2372 56.729 82.2742 60.9441 83.7768C66.8013 85.8377 74.0115 84.4169 77.9149 79.6055C81.2113 75.5657 81.824 70.0187 81.8947 64.9791C81.7317 64.8671 81.6261 64.6844 81.6163 64.4813C81.3913 59.9109 79.314 56.4273 76.241 52.6642C70.247 54.0436 64.1073 54.545 57.9794 54.1618C58.0737 55.7754 57.5954 57.5692 56.5501 59.5093C55.5432 61.3808 53.9057 62.8697 51.9407 63.7016C51.6685 63.8152 51.3516 63.7318 51.173 63.4939C50.8594 63.0738 50.3657 63.2089 50.1661 63.2851C50.0328 63.3383 49.882 63.3445 49.7437 63.301C48.6694 62.973 47.2404 63.0564 46.2034 63.7267C44.6811 64.7187 44.5126 66.756 45.1279 68.1676C45.6401 69.3454 46.8926 70.1558 47.8533 70.6285C47.8843 70.6444 47.8801 70.6418 47.8784 70.6428ZM51.4162 78.4912C49.7376 76.5445 48.139 74.1608 47.1818 71.7295C40.3945 68.2812 43.8482 60.4451 49.9146 62.0147C50.6121 61.8106 51.3086 61.9339 51.8294 62.3401C53.351 61.5983 54.6142 60.3903 55.4155 58.901C56.1594 57.5206 56.971 55.4792 56.6147 53.5862C56.5419 53.1999 56.8351 52.8029 57.296 52.8264C63.6812 53.3048 70.0911 52.7998 76.3364 51.3222C76.5753 51.2654 76.8255 51.3488 76.9813 51.5381C79.7308 54.8617 82.3187 58.6058 82.8308 63.4934C83.0482 63.6003 83.1887 63.8218 83.1887 64.0689V64.1288C83.1713 69.6145 82.6509 75.8374 78.9151 80.4154C76.5276 83.3578 72.9205 85.2785 68.7592 85.8223C61.9207 86.7279 55.9385 83.7697 51.4162 78.4912Z" fill="#404040"/>
<path d="M51.8296 62.3407C53.3512 61.5988 54.6144 60.3909 55.4157 58.9015C56.1596 57.5212 56.9711 55.4798 56.6148 53.5867C56.542 53.2005 56.8353 52.8034 57.2962 52.827C63.685 53.3079 70.0923 52.8004 76.3366 51.3228C76.5755 51.266 76.8257 51.3494 76.9815 51.5387C78.7861 53.7203 80.5204 56.083 81.6457 58.8304C81.3028 56.0154 80.5348 53.3304 78.8758 51.0851C75.8967 47.0523 69.8954 44.3018 61.2334 46.0111C54.4873 47.3387 51.0576 50.324 48.9097 56.2436C48.2575 58.0497 47.7847 59.9882 47.5273 61.8991C48.3479 61.7758 49.2115 61.8337 49.9148 62.0153C50.6193 61.8086 51.3154 61.9391 51.8296 62.3407ZM82.0748 65.0656C80.6635 64.6415 83.3693 61.3926 76.2412 52.6648C70.2471 54.0441 64.1074 54.5455 57.9795 54.1623C58.0739 55.776 57.5956 57.5698 56.5502 59.5098C55.5434 61.3814 53.9059 62.8702 51.9409 63.7021C51.6686 63.8157 51.3518 63.7323 51.1731 63.4944C50.8596 63.0744 50.3658 63.2094 50.1663 63.2857C49.881 63.4003 49.7705 63.277 49.2182 63.1818C47.3705 62.8815 46.931 63.6791 46.3797 63.2411C46.2086 63.1056 46.1181 62.8922 46.1399 62.6748C46.6174 57.8711 48.4777 52.0805 52.1121 48.7685C54.2571 46.8175 57.1593 45.5032 60.9838 44.7511C70.1384 42.9456 76.6344 45.8848 79.9119 50.3221C82.8141 54.2508 83.1976 59.4761 83.1889 64.07C83.1889 64.3949 82.97 64.5391 82.7792 64.8287C82.6137 65.0549 82.3255 65.1418 82.0748 65.0656Z" fill="#404040"/>
<path d="M64.4179 73.012C64.1856 72.7433 64.2159 72.3376 64.4856 72.1059C64.7547 71.8751 65.1607 71.9033 65.3935 72.1734C65.7959 72.638 66.3224 73.1675 66.7669 73.082C66.9904 73.0437 67.2181 72.8395 67.3596 72.551C67.8574 71.5374 67.9717 67.0469 67.559 63.8743C67.5139 63.5223 67.7625 63.2 68.1147 63.1539C68.472 63.1079 68.7899 63.3575 68.8365 63.709C69.1729 66.2989 69.1964 68.9276 68.9063 71.5211C68.8483 72.044 68.7704 72.598 68.5161 73.1158C68.1911 73.7773 67.62 74.2383 66.9879 74.3488C65.9349 74.5279 65.1079 73.8116 64.4179 73.012Z" fill="#404040"/>
<path d="M61.4084 76.4662C61.2926 76.1311 61.4705 75.7653 61.8063 75.6492C62.1426 75.532 62.5097 75.7116 62.6255 76.0462C63.1469 77.5504 65.133 77.9208 66.1639 76.7031C66.3936 76.433 66.7986 76.3972 67.0719 76.6269C67.3436 76.8561 67.3769 77.2618 67.1483 77.533C65.4734 79.5099 62.2569 78.9144 61.4084 76.4662Z" fill="#404040"/>
<path d="M61.1958 60.9984C60.1833 60.4991 58.9534 60.4582 57.9096 60.892C57.5831 61.0261 57.2047 60.8736 57.0673 60.5467C56.9304 60.2187 57.0858 59.8422 57.4134 59.7061C58.794 59.1305 60.4212 59.1822 61.7675 59.8473C62.0863 60.0049 62.216 60.3896 62.0586 60.7083C61.8987 61.0296 61.5086 61.1545 61.1958 60.9984Z" fill="#404040"/>
<path d="M76.4507 61.1519C75.5551 60.4628 74.2893 60.2642 73.2271 60.6459C72.8913 60.7656 72.5237 60.5917 72.4032 60.2586C72.2832 59.925 72.457 59.5567 72.7913 59.4364C74.2585 58.91 76.0036 59.1827 77.2366 60.1348C77.5186 60.3512 77.5704 60.7554 77.3535 61.0358C77.1356 61.3182 76.7291 61.3678 76.4507 61.1519Z" fill="#404040"/>
<path d="M82.2599 64.4505C82.0174 59.5168 79.6366 55.7584 76.4853 51.9483C70.2087 53.4346 63.6896 53.9524 57.248 53.4684C57.612 55.4044 56.9194 57.4693 55.9843 59.2058C55.0492 60.9428 53.508 62.3421 51.6902 63.111C51.2571 62.5324 50.5558 62.4459 49.9325 62.6879C48.6844 62.3073 47.0657 62.4081 45.8548 63.1888C44.1319 64.3123 43.751 66.6188 44.5388 68.4248C45.067 69.643 46.2531 70.5588 47.569 71.207C48.3656 73.5048 50.5991 77.2458 51.9065 78.0756L50.3654 91.4588C45.8894 93.2561 41.4654 95.252 37.2752 97.6454C33.0849 100.047 30.1847 102.319 26.3147 106.328C19.025 102.829 14.2893 94.3188 15.4582 86.3267C16.6268 78.335 23.3971 71.4833 31.388 70.2042C28.7908 63.3873 28.6782 55.5338 32.401 49.2612C36.1324 42.9799 43.9761 39.04 51.032 40.9233C53.3179 37.2344 57.837 34.8065 62.1829 34.8322C66.5206 34.8495 70.7798 37.2774 73.0135 40.9924C81.6786 38.7782 92.239 50.8331 82.2599 64.4505Z" fill="#404040"/>
<path d="M81.5415 73.9336C86.5169 75.1206 90.3886 79.4668 91.7569 84.3867C93.1252 89.306 92.228 94.6612 90.0743 99.2919C87.9375 95.8615 81.9019 92.5349 78.0451 91.3105C74.1888 90.0862 71.7649 89.8723 68.3711 90.8255L68.7607 85.4764C71.706 85.4764 74.5026 83.8541 76.6814 81.8761C78.8602 79.8982 80.9514 76.8135 81.5415 73.9336Z" fill="#404040"/>
<path d="M135.384 51.9939L131.535 50.0509C128.659 48.5989 125.146 49.7026 123.623 52.5373C122.074 55.4187 123.156 59.0073 126.04 60.557L135.6 65.6927C137.996 66.9805 140.985 66.079 142.266 63.6826L152.545 44.454C154.22 41.3197 152.805 37.4272 149.506 36.0943C146.605 34.9228 143.29 36.1748 141.894 38.9691L135.384 51.9939Z" fill="#76D8EF"/>
<path d="M52.2056 64.5349C51.4059 63.9419 50.5844 63.5295 49.7637 63.3095C49.4208 63.2164 49.2171 62.8644 49.3093 62.5211C49.4023 62.1793 49.7569 61.9793 50.099 62.0678C51.0764 62.3313 52.0436 62.8143 52.9736 63.5024C53.2587 63.7142 53.3181 64.1169 53.1069 64.4018C52.8957 64.6853 52.4927 64.7467 52.2056 64.5349Z" fill="#404040"/>
<path d="M50.5409 72.9039C49.7831 72.7402 48.6254 72.4209 47.4107 71.8346C47.0904 71.6806 46.9563 71.2969 47.1114 70.9771C47.2657 70.6594 47.6504 70.5213 47.9707 70.6783C48.8299 71.0927 49.8401 71.4376 50.8142 71.6489C51.1621 71.7241 51.3828 72.0664 51.3064 72.4127C51.2315 72.7576 50.8909 72.9801 50.5409 72.9039Z" fill="#404040"/>
<path d="M37.2182 170.512C37.173 170.16 37.4211 169.838 37.774 169.792L94.0588 162.484L89.5289 138.745C89.4617 138.396 89.6914 138.06 90.04 137.994C90.3907 137.921 90.726 138.155 90.7931 138.504L95.4512 162.912C95.5209 163.272 95.2723 163.621 94.9022 163.67L37.94 171.067C37.5706 171.11 37.2631 170.851 37.2182 170.512Z" fill="#404040"/>
<path d="M65.6938 192.761C65.4231 192.531 65.3898 192.126 65.6194 191.855C65.8506 191.584 66.2567 191.554 66.5274 191.78C68.8118 193.714 72.2554 194.088 74.8992 192.687C75.2155 192.522 75.6036 192.641 75.7702 192.954C75.9363 193.268 75.8164 193.657 75.5031 193.823C72.4148 195.455 68.3837 195.035 65.6938 192.761Z" fill="#404040"/>
<path d="M91.7534 147.669C91.4586 147.472 91.3797 147.073 91.5786 146.778L106.19 125.078C106.387 124.783 106.789 124.703 107.082 124.903C107.377 125.101 107.456 125.5 107.257 125.794L92.6465 147.494C92.4475 147.791 92.0446 147.867 91.7534 147.669Z" fill="#404040"/>
</g>
<defs>
<clipPath id="clip0_8542_22057">
<rect width="170" height="220" fill="white"/>
</clipPath>
</defs>
</svg>
