<svg width="239" height="220" viewBox="0 0 239 220" fill="none" xmlns="http://www.w3.org/2000/svg">
<g clip-path="url(#clip0_2580_87349)">
<path d="M18.5938 200.681L93.0022 181.36V104.079L18.5938 123.4V200.681Z" fill="#404040"/>
<path d="M167.41 200.681L93.002 181.36V104.079L167.41 123.4V200.681Z" fill="#404040"/>
<path d="M140.856 0H45.1492C41.8868 0 39.2422 2.64686 39.2422 5.91192V167.57C39.2422 170.835 41.8868 173.481 45.1492 173.481H140.856C144.118 173.481 146.763 170.835 146.763 167.57V5.91192C146.763 2.64686 144.118 0 140.856 0Z" fill="#007C99"/>
<path d="M142.399 5.91196V167.571C142.399 168.407 141.694 169.113 140.858 169.113H45.1493C44.6755 169.113 44.2422 168.885 43.9569 168.535C43.7396 168.269 43.6074 167.931 43.6074 167.571V5.91196C43.6074 5.07619 44.3129 4.37012 45.148 4.37012H140.856C141.692 4.37012 142.396 5.07619 142.396 5.91196H142.399Z" fill="#FDFDFD"/>
<g opacity="0.3">
<path d="M142.399 5.91211V167.571C142.399 168.407 141.694 169.113 140.859 169.113H45.1494C44.6756 169.113 44.2424 168.885 43.957 168.535L142.399 5.91211Z" fill="white"/>
</g>
<path d="M93.0022 220L18.5938 200.68V123.399L93.0022 142.719V220Z" fill="#C4C4C4"/>
<path d="M93.002 220L167.41 200.68V123.399L93.002 142.719V220Z" fill="#959595"/>
<path d="M104.693 191.072L124.734 185.868C125.355 185.706 125.787 185.147 125.787 184.505V163.677C125.787 162.756 124.918 162.084 124.027 162.314L103.986 167.519C103.366 167.68 102.934 168.239 102.934 168.881V189.71C102.934 190.631 103.803 191.303 104.693 191.072Z" fill="white"/>
<path d="M105.034 200.546L145.505 189.997C146.246 189.804 146.763 189.136 146.763 188.37V188.228C146.763 187.307 145.894 186.635 145.004 186.866L103.986 197.557C103.366 197.718 102.934 198.277 102.934 198.919C102.934 200.018 103.972 200.822 105.034 200.546Z" fill="white"/>
<path d="M105.034 207.436L122.936 202.829C123.677 202.636 124.194 201.968 124.194 201.202V201.06C124.194 200.139 123.325 199.467 122.435 199.698L103.986 204.448C103.366 204.609 102.934 205.168 102.934 205.81C102.934 206.909 103.972 207.714 105.034 207.437V207.436Z" fill="white"/>
<path d="M101.633 7.98047H84.3712C82.6291 7.98047 81.2168 9.39392 81.2168 11.1375C81.2168 12.8811 82.6291 14.2946 84.3712 14.2946H101.633C103.375 14.2946 104.787 12.8811 104.787 11.1375C104.787 9.39392 103.375 7.98047 101.633 7.98047Z" fill="#007C99" fill-opacity="0.5"/>
<path d="M112.151 92.2753C122.727 81.6903 122.727 64.5285 112.151 53.9435C101.575 43.3584 84.4272 43.3584 73.851 53.9435C63.2749 64.5285 63.2749 81.6903 73.851 92.2753C84.4272 102.86 101.575 102.86 112.151 92.2753Z" fill="#007C99" fill-opacity="0.5"/>
<path d="M82.296 75.2069C83.4541 75.2069 84.3929 74.2674 84.3929 73.1083C84.3929 71.9493 83.4541 71.0098 82.296 71.0098C81.138 71.0098 80.1992 71.9493 80.1992 73.1083C80.1992 74.2674 81.138 75.2069 82.296 75.2069Z" fill="white"/>
<path d="M93.0011 75.2069C94.1592 75.2069 95.0979 74.2674 95.0979 73.1083C95.0979 71.9493 94.1592 71.0098 93.0011 71.0098C91.8431 71.0098 90.9043 71.9493 90.9043 73.1083C90.9043 74.2674 91.8431 75.2069 93.0011 75.2069Z" fill="white"/>
<path d="M103.706 75.2069C104.864 75.2069 105.803 74.2674 105.803 73.1083C105.803 71.9493 104.864 71.0098 103.706 71.0098C102.548 71.0098 101.609 71.9493 101.609 73.1083C101.609 74.2674 102.548 75.2069 103.706 75.2069Z" fill="white"/>
<g opacity="0.5">
<path d="M93.002 142.719L104.906 177.85L167.367 158.784V123.399L93.002 142.719Z" fill="#959595"/>
</g>
<path d="M93.002 142.719L112.131 179.055L184.156 157.294L167.41 123.399L93.002 142.719Z" fill="#C4C4C4"/>
<g opacity="0.5">
<path d="M93.0022 142.719L83.0259 177.85L18.6212 158.597L18.5938 123.399L93.0022 142.719Z" fill="#959595"/>
</g>
<path d="M18.5939 123.399L0 158.304L76.8273 181.776L93.0024 142.719L18.5939 123.399Z" fill="#959595"/>
<path d="M18.5938 173.712L48.6364 182.007L37.2649 184.54L49.0147 193.941L18.5938 185.69V173.712Z" fill="#959595"/>
<path d="M163.445 210.212C168.647 213.497 177.118 214.174 182.939 213.81C183.096 213.799 183.257 213.785 183.421 213.767C189.338 213.088 199.589 206.749 199.589 206.749L198.703 203.445L196.284 194.412L188.482 188.625L179.335 194.105L177.067 199.558C168.891 199.384 166.021 204.055 164.522 206.956C163.596 208.75 163.443 210.214 163.443 210.214L163.445 210.212Z" fill="#C4C4C4"/>
<path d="M163.445 210.211C168.647 213.497 177.118 214.173 182.939 213.809C183.096 213.798 183.257 213.785 183.421 213.767C183.468 200.947 177.067 199.556 177.067 199.556C168.891 199.382 166.021 204.054 164.522 206.955C163.596 208.748 163.443 210.213 163.443 210.213L163.445 210.211Z" fill="white"/>
<path d="M163.445 210.211C168.647 213.497 177.118 214.173 182.939 213.809C188.761 213.444 199.589 206.749 199.589 206.749L198.703 203.444C198.703 203.444 189.018 211.78 179.832 210.969C170.643 210.159 168.164 209.225 164.522 206.953C163.596 208.747 163.443 210.211 163.443 210.211H163.445Z" fill="#404040"/>
<path d="M204.915 211.099C210.9 213.063 219.384 211.728 224.831 210.077C224.975 210.033 225.123 209.984 225.273 209.93C230.565 208.027 238.433 200.277 238.433 200.277L237.084 197.495L233.363 189.817L225.297 185.781L217.715 192.371L216.556 197.929C208.392 199.36 206.37 204.494 205.393 207.657C204.785 209.627 204.916 211.098 204.916 211.098L204.915 211.099Z" fill="#C4C4C4"/>
<path d="M204.916 211.098C210.901 213.062 219.385 211.727 224.833 210.076C224.977 210.032 225.125 209.983 225.274 209.929C222.927 198.018 216.556 197.93 216.556 197.93C208.392 199.361 206.37 204.495 205.393 207.658C204.785 209.627 204.916 211.098 204.916 211.098Z" fill="white"/>
<path d="M204.916 211.099C210.901 213.063 219.384 211.727 224.832 210.077C230.11 208.476 238.434 200.277 238.434 200.277L237.085 197.495C237.085 197.495 230.038 206.9 221.374 208.109C212.26 209.381 209.578 209.043 205.392 207.659C204.783 209.628 204.914 211.099 204.914 211.099H204.916Z" fill="#404040"/>
<path d="M238.92 187.59C226.445 195.518 213.606 191.752 213.606 191.752L206.006 142.998L203.184 123.079L199.711 139.431V190.365C196.971 191.969 193.93 192.885 190.931 193.361C182.441 194.711 174.292 192.546 174.292 192.546C173.626 185.212 177.534 159.053 180.017 138.838C181.701 125.129 186.406 107.569 189.261 97.6893C190.616 93.0014 191.552 90.0427 191.552 90.0427C191.552 90.0427 193.08 89.6008 195.445 89.0134C200.362 87.7921 208.896 85.9422 214.816 86.1453C217.605 86.24 219.812 86.7903 220.789 88.0748C222.924 90.8853 223.775 96.096 224.101 100.387C224.393 104.224 224.269 107.327 224.269 107.327L226.249 141.019L238.922 187.591L238.92 187.59Z" fill="#959595"/>
<path d="M195.442 89.0117C194.929 92.8144 192.55 96.0243 189.258 97.6875C190.613 92.9997 191.549 90.041 191.549 90.041C191.549 90.041 193.077 89.5991 195.442 89.0117Z" fill="#404040"/>
<path d="M203.184 123.08L199.71 139.432V190.366C196.971 191.97 193.93 192.886 190.931 193.362C190.816 193.21 190.809 193 190.931 192.721C192.351 189.471 193.467 139.216 193.467 139.216L200.77 108.96L203.185 123.081L203.184 123.08Z" fill="#404040"/>
<path d="M224.099 100.386C218.624 99.5347 214.434 94.796 214.434 89.0762C214.434 88.0621 214.565 87.0795 214.813 86.1436C217.602 86.2382 219.81 86.7885 220.786 88.073C222.921 90.8836 223.773 96.0943 224.099 100.386Z" fill="#404040"/>
<path d="M199.879 196.093C193.749 202.911 173.022 198.139 173.022 198.139C172.917 197.451 172.837 196.811 172.781 196.217C172.154 189.664 174.255 188.625 174.255 188.625C187.943 193.04 199.711 187.815 199.711 187.815C199.711 187.815 199.711 187.815 199.711 187.818C201.582 190.837 199.878 196.095 199.878 196.095L199.879 196.093Z" fill="#C4C4C4"/>
<path d="M199.88 196.093C193.749 202.911 173.023 198.14 173.023 198.14C172.917 197.451 172.837 196.811 172.781 196.217C204.507 202.944 199.784 188.042 199.711 187.818C201.583 190.837 199.878 196.095 199.878 196.095L199.88 196.093Z" fill="#404040"/>
<path d="M240.755 191.862C234.796 199.565 215.239 197.48 215.239 197.48C214.66 196.848 214.204 196.185 213.849 195.515C211.861 191.77 212.993 187.814 212.993 187.814C227.721 190.715 237.735 183.234 237.735 183.234C240.695 184.537 240.757 191.862 240.757 191.862H240.755Z" fill="#C4C4C4"/>
<path d="M240.756 191.862C234.797 199.565 215.24 197.48 215.24 197.48C214.661 196.848 214.205 196.185 213.85 195.515C242.632 198.09 237.734 183.234 237.734 183.234C240.694 184.537 240.756 191.862 240.756 191.862Z" fill="#404040"/>
<path d="M183.155 60.5371L187.093 62.293L187.34 62.4023L187.383 62.6689L188.196 67.6348L188.218 67.7686L188.17 67.8945L185.033 76.0703L185.034 76.0713L184.514 77.4277L184.325 77.9209L183.843 77.7061L180.453 76.1904L180.275 76.1113L180.198 75.9326L179.308 73.8701L177.717 70.1924L177.646 70.0264L177.696 69.8535L179.588 63.3887L179.629 63.249L179.738 63.1533L182.621 60.6182L182.862 60.4072L183.155 60.5371Z" fill="#FBFCF7" stroke="#07647B"/>
<path d="M184.566 75.8923L184.046 77.2495L180.657 75.7345L179.766 73.6719L184.566 75.8923Z" fill="#FDFDFD"/>
<path d="M191.207 62.1936L186.59 67.7158C184.97 64.6898 183.228 63.6977 181.953 63.4328C180.829 63.1995 180.066 63.5302 180.066 63.5302C180.066 63.5302 180.582 61.845 181.394 55.3375C182.207 48.8285 184.46 47.9873 184.46 47.9873L187.554 49.5271L190.943 51.2123L191.207 62.195V62.1936Z" fill="url(#paint0_linear_2580_87349)"/>
<path d="M191.207 62.1933L186.59 67.7155C184.97 64.6895 183.228 63.6974 181.953 63.4325C182.547 62.841 183.675 53.136 183.675 53.136L187.554 49.5254L190.943 51.2106L191.207 62.1933Z" fill="url(#paint1_linear_2580_87349)"/>
<path d="M220.783 88.0726C220.783 88.0726 204.594 97.3893 191.549 90.0405C191.549 90.0405 193.753 80.592 190.941 73.5054C190.836 73.2405 190.725 72.9784 190.604 72.7218C188.528 68.2453 186.001 67.8665 184.564 65.6914C183.707 64.3932 183.238 62.4527 183.486 58.6171C184.088 49.3209 182.779 49.6956 185.591 46.612C188.403 43.5284 197.93 42.0518 197.93 42.0518C197.93 42.0518 203.02 42.576 207.805 45.5128C209.65 46.6449 210.862 49.5076 211.778 53.136C213.238 58.9203 213.948 66.6561 215.278 72.4597C216.008 75.6476 216.873 78.4636 217.697 80.7924C219.316 85.3664 220.783 88.0726 220.783 88.0726Z" fill="#76D8EF"/>
<path d="M202.103 67.4576C200.484 69.4351 190.392 68.6378 190.942 73.5054C190.836 73.2406 190.725 72.9784 190.604 72.7218C188.529 68.2453 186.001 67.8665 184.564 65.6914C184.564 65.6914 186.553 67.9887 192.354 66.9828C198.156 65.9755 203.721 65.4801 202.102 67.459L202.103 67.4576Z" fill="#404040"/>
<path d="M195.076 38.9413C195.076 38.9413 193.125 37.3385 191.193 38.719C189.261 40.1009 190.871 41.5295 190.871 41.5295L194.036 42.121C194.036 42.121 195.161 41.8644 195.193 41.6572C195.224 41.4499 195.075 38.9413 195.075 38.9413H195.076Z" fill="#007C99"/>
<path d="M191.818 12.126L196.129 27.6703C205.4 51.8135 220.191 38.9027 220.191 38.9027C211.162 34.9065 211.384 13.9951 204.133 8.7048C196.882 3.4145 191.818 12.126 191.818 12.126Z" fill="#007C99"/>
<path d="M179.605 15.5117L180.568 16.3809H180.569L190.064 24.9736C190.144 24.8951 190.237 24.8081 190.34 24.7168C190.724 24.3767 191.28 23.9578 191.936 23.6914C192.595 23.4232 193.388 23.2978 194.203 23.6064C195.016 23.9143 195.761 24.6202 196.397 25.8311L196.398 25.832C197.651 28.2306 196.586 30.4185 195.379 31.8818L195.364 31.9072L195.331 31.9443C195.32 31.9562 195.31 31.9682 195.299 31.9805L195.247 32.042H195.244C195.095 32.211 194.928 32.4031 194.76 32.5664C194.174 33.1774 193.593 33.6255 193.245 33.8906L193.236 33.8975L193.228 33.9033C193.166 33.9464 193.123 34.0168 193.112 34.0967L193.113 34.1797L193.116 34.2021L193.118 34.2246V34.2383C193.119 34.2489 193.121 34.2655 193.122 34.2871C193.125 34.3304 193.13 34.3953 193.137 34.4785C193.151 34.645 193.174 34.8856 193.211 35.1787C193.284 35.7667 193.409 36.5605 193.617 37.3887C193.826 38.2199 194.114 39.0671 194.505 39.7725C194.898 40.4826 195.369 41.0015 195.922 41.252L196.274 41.4121L196.208 41.793L195.716 41.708L196.208 41.7939V41.7949C196.208 41.7958 196.207 41.7974 196.207 41.7988C196.207 41.8017 196.206 41.8056 196.205 41.8105C196.203 41.8207 196.2 41.8352 196.196 41.8535C196.189 41.8901 196.179 41.9429 196.165 42.0098C196.136 42.1439 196.091 42.3358 196.029 42.5713C195.905 43.0417 195.708 43.6902 195.414 44.4043C194.84 45.798 193.873 47.5002 192.312 48.5869L189.53 52.21L189.062 52.8184L188.695 52.1455L187.014 49.0703L186.995 49.0361L186.981 49L186.479 47.6055V47.6045C186.29 47.1575 186.18 46.6975 186.132 46.2939C186.084 45.8936 186.091 45.5029 186.17 45.2207V45.2197C186.21 45.077 186.211 44.8195 186.146 44.4502C186.085 44.0963 185.974 43.6973 185.846 43.3057V43.3047C185.832 43.2666 185.82 43.2306 185.812 43.2021C185.8 43.1666 185.793 43.1437 185.786 43.123L185.785 43.1201C185.674 42.7963 185.556 42.4922 185.454 42.2412C185.442 42.2495 185.432 42.2586 185.42 42.2666C185.186 42.4286 184.931 42.5682 184.7 42.6807C184.468 42.7937 184.253 42.8836 184.096 42.9453C184.017 42.9763 183.951 43.001 183.905 43.0176C183.883 43.0258 183.864 43.0317 183.852 43.0361C183.845 43.0383 183.841 43.0407 183.837 43.042C183.835 43.0426 183.833 43.0416 183.832 43.042L183.833 43.043H183.831V43.0439H183.83C181.866 43.7217 180.107 43.272 178.617 42.2559C177.145 41.2517 175.92 39.6891 174.947 38.0918C173.971 36.4882 173.226 34.8118 172.727 33.541C172.476 32.9046 172.286 32.3675 172.158 31.9883C172.094 31.7988 172.046 31.6484 172.014 31.5449C171.997 31.4932 171.985 31.4522 171.977 31.4248C171.972 31.4114 171.97 31.4008 171.968 31.3936C171.967 31.3902 171.965 31.3877 171.965 31.3857L171.018 28.291L169.041 21.8418L168.927 21.4668L169.264 21.2656L177.579 16.3125L177.577 16.3086L178.026 16.041L179.015 15.4531L179.331 15.2646L179.605 15.5117ZM195.433 31.7715C195.427 31.7873 195.416 31.8088 195.402 31.835C195.42 31.8013 195.432 31.776 195.435 31.7676L195.433 31.7715Z" fill="#FBFCF7" stroke="#07647B"/>
<path d="M191.885 27.5899C191.475 27.0246 192.012 26.2248 192.681 26.4021C193.235 26.5487 193.809 27.054 193.817 28.5124C193.831 31.3452 192.104 30.6053 191.986 29.7761C191.868 28.947 192.485 28.3977 191.903 27.6139C191.898 27.6059 191.892 27.5979 191.886 27.5899H191.885Z" fill="#FDFDFD"/>
<path d="M174.697 27.9038C174.796 28.1011 174.819 28.3277 174.763 28.5437C174.698 28.7983 174.572 28.9943 174.353 29.1716C173.971 29.4809 173.241 29.6502 172.842 29.3156C172.677 29.1769 172.401 29.2769 172.298 29.4436C172.172 29.6475 172.259 29.8581 172.424 29.9968C172.773 30.2887 173.252 30.3247 173.684 30.2741C174.123 30.2234 174.543 30.0421 174.888 29.7635C175.529 29.2449 175.779 28.2904 175.399 27.5386C175.167 27.0786 174.465 27.4466 174.697 27.9052V27.9038Z" fill="#007C99"/>
<path d="M181.798 26.6039C181.715 27.0318 181.169 27.4291 180.752 27.4717C180.269 27.521 179.826 27.0838 179.571 26.6492C179.462 26.4626 179.186 26.4332 179.022 26.5519C178.837 26.6839 178.816 26.9238 178.926 27.1104C179.317 27.7783 180.061 28.3769 180.866 28.2662C181.625 28.1609 182.424 27.541 182.576 26.7518C182.617 26.5399 182.469 26.3226 182.262 26.2839C182.051 26.2439 181.843 26.3906 181.802 26.6039H181.798Z" fill="#007C99"/>
<path d="M194.401 32.2227C193.841 32.7972 193.29 33.2291 192.94 33.4851C192.94 33.4851 191.351 34.0783 190.674 32.5959C190.822 32.7079 192.393 33.837 194.401 32.2227Z" fill="#FDFDFD"/>
<path d="M191.818 12.1289C191.818 12.1289 197.458 15.9344 195.766 25.0713C195.766 25.0713 200.902 16.3008 191.818 12.1289Z" fill="#FBFCF7"/>
<path d="M169.402 26.7189C169.711 27.1553 170.077 27.5753 170.505 27.9732C170.505 27.9732 177.443 24.5301 177.706 19.9973C177.706 19.9973 178.429 26.8342 189.128 27.4037L189.398 26.3923C189.767 25.042 190.716 23.8865 192.025 23.3924C193.28 22.9245 194.81 23.0274 195.935 25.3027C195.935 25.3027 197.407 8.40667 184.533 10.8316C184.533 10.8316 184.075 10.4706 183.279 10.0905H183.273C182.039 9.50453 179.997 8.87326 177.564 9.45924C174.813 10.1097 171.551 12.315 168.396 17.8908C168.396 17.8908 166.672 22.8586 169.404 26.7189H169.402Z" fill="#007C99"/>
<path d="M185.13 41.0729C185.13 41.0729 185.477 41.8112 185.783 42.6909C185.806 42.7526 185.824 42.8213 185.849 42.8885C188.576 40.5761 187.999 36.4111 187.999 36.4111C187.701 38.5259 185.129 41.0729 185.129 41.0729H185.13Z" fill="#FDFDFD"/>
<path d="M190.606 45.7138L188.795 51.903L194.47 47.3551L195.076 38.9414L192.551 45.3255L190.606 45.7138Z" fill="#007C99"/>
<path d="M190.605 45.7138L195.749 51.9716L197.929 42.0525L195.075 38.9414C195.075 38.9414 193.917 42.5643 190.605 45.7138Z" fill="#007C99"/>
<path d="M186.576 45.5127L188.798 51.9283L185.592 47.9733L186.383 45.547L186.576 45.5127Z" fill="#007C99"/>
<path d="M186.146 43.8271L185.618 44.9154L185.4 51.5327L186.577 45.5124L186.146 43.8271Z" fill="#007C99"/>
<path d="M183.804 79.3308L179.308 69.8344C179.217 69.6422 179.024 69.5215 178.813 69.5215H168.426C168.281 69.5215 168.141 69.5791 168.038 69.682L167.35 70.371L168.869 71.0063L174.742 84.0324H185.8L183.805 79.3295L183.804 79.3308Z" fill="#404040"/>
<path d="M182.953 80.1814L178.519 70.8167C178.39 70.545 178.117 70.3721 177.817 70.3721H167.348L173.89 84.8844H184.948L182.953 80.1814Z" fill="#959595"/>
<path d="M170.041 71.6528C170.277 72.1318 170.218 72.6436 169.911 72.7946C169.604 72.9455 169.162 72.6807 168.928 72.2017C168.692 71.7228 168.751 71.2109 169.058 71.06C169.365 70.909 169.807 71.1739 170.041 71.6528Z" fill="#404040"/>
<path d="M169.889 71.7407C170.125 72.2196 170.066 72.7315 169.759 72.8825C169.451 73.0334 169.01 72.7686 168.776 72.2896C168.54 71.8107 168.599 71.2988 168.906 71.1479C169.213 70.9969 169.654 71.2618 169.889 71.7407Z" fill="white"/>
<path d="M170.039 75.123C170.042 75.1289 170.047 75.1413 170.058 75.1582C170.084 75.2 170.142 75.2767 170.256 75.3643C170.482 75.538 170.962 75.7802 171.927 75.8389C172.588 75.879 173.263 76.1623 173.888 76.5791H173.887C175.63 77.7386 177.273 80.1288 177.547 82.5166C177.693 83.7941 177.249 84.9626 176.54 85.8389L176.39 86.0244H176.379C176.113 86.3225 175.816 86.5836 175.499 86.8008L175.334 86.9092C174.328 87.5371 173.058 87.7745 172.024 87.1699L171.821 87.0381C170.877 86.3607 168.568 84.6181 167.312 82.4209C166.68 81.3131 166.288 80.0444 166.521 78.7168C166.753 77.3907 167.593 76.0981 169.231 74.9023L169.816 74.3174L170.039 75.123Z" fill="#FBFCF7" stroke="#07647B"/>
<path d="M177.047 82.5726C176.748 80.4098 175.502 78.3253 173.607 76.9941C171.617 75.8235 170.04 76.5207 169.559 75.2773C169.559 75.2773 169.559 75.2773 169.556 75.2801C169.245 75.5532 168.182 76.9049 169.121 77.1821C169.648 77.3029 170.505 76.7553 171.533 76.85C174.128 77.3537 174.377 79.7539 173.77 80.7982C173.598 81.3567 173.428 82.1774 173.457 83.0982C173.497 84.2702 173.885 85.5437 175.065 86.4865C175.463 86.2381 175.833 85.9128 176.145 85.5272C176.784 84.7368 177.173 83.6993 177.044 82.5754L177.047 82.5726Z" fill="#FDFDFD"/>
<path d="M217.7 80.7926L209.174 81.1494C209.174 81.1494 201.165 77.8366 203.862 74.4469C206.557 71.0573 204.741 55.395 204.741 55.395L211.779 53.1348C213.239 58.9191 213.949 66.6549 215.279 72.4584C216.009 75.6463 216.874 78.4623 217.698 80.7912L217.7 80.7926Z" fill="#404040"/>
<path d="M209.725 59.8301L217.375 64.6406L217.603 64.7842L217.609 65.0518V65.0635C217.61 65.071 217.61 65.0823 217.61 65.0967C217.611 65.1259 217.611 65.1695 217.612 65.2256C217.614 65.338 217.617 65.5032 217.619 65.7129C217.623 66.1323 217.624 66.7328 217.615 67.458C217.597 68.9079 217.538 70.8622 217.373 72.8721C217.208 74.8776 216.935 76.959 216.484 78.6562C216.259 79.5044 215.985 80.2757 215.646 80.8994C215.312 81.5161 214.887 82.0394 214.336 82.3174L214.229 82.3711H214.218C213.273 82.8188 211.288 83.472 208.873 84.1924C206.335 84.9494 203.272 85.7987 200.316 86.5938C197.361 87.389 194.51 88.1306 192.399 88.6738C191.344 88.9455 190.472 89.1682 189.865 89.3223C189.562 89.3992 189.325 89.4592 189.163 89.5C189.11 89.5133 189.066 89.5241 189.029 89.5332C189.015 89.5448 189 89.5582 188.983 89.5713C188.886 89.6468 188.746 89.7462 188.557 89.8555C188.178 90.0746 187.607 90.333 186.808 90.5244C185.207 90.9076 182.707 91.0183 179.011 90.041C174.991 88.9777 173.458 85.2733 173.471 82.3311L173.477 82.0703C173.524 80.7718 173.873 79.5636 174.515 78.7803C174.863 78.3548 175.315 78.0382 175.859 77.9336C176.406 77.8286 176.983 77.9491 177.559 78.2793C179.504 79.3945 181.019 79.5238 182.021 79.4004C182.51 79.3401 182.885 79.2172 183.138 79.1113L181.915 76.5996L181.74 76.2393L182.053 75.9902C182.634 75.5253 183.289 75.4834 183.886 75.6523C184.46 75.8152 184.999 76.1752 185.442 76.5459C185.892 76.9217 186.28 77.3383 186.553 77.6572C186.645 77.7649 186.723 77.8641 186.788 77.9463L205.642 73.5137V64.9082L205.729 64.7803L209.047 59.9688L209.318 59.5742L209.725 59.8301Z" fill="#FBFCF7" stroke="#07647B"/>
<path d="M207.4 45.269C207.4 45.269 201.773 46.1939 204.137 53.4068C206.5 60.6197 206.143 65.0633 206.143 65.0633C206.143 65.0633 211.287 68.4104 217.111 65.0633C217.111 65.0633 217.065 49.7098 207.401 45.2676L207.4 45.269Z" fill="#76D8EF"/>
<path d="M184.718 79.4768C182.381 81.737 179.178 80.0285 176.946 79.1612C174.73 78.3007 173.982 82.2764 173.971 82.3326C173.984 79.6662 175.327 77.5762 177.31 78.7138C181.379 81.0468 183.801 79.3314 183.801 79.3314L182.365 76.3809L184.718 79.4768Z" fill="#FDFDFD"/>
<path d="M209.453 75.2763C208.366 74.3418 206.141 73.9095 206.141 73.9095V73.0957C208.824 73.0957 209.436 75.2091 209.453 75.2763Z" fill="#FDFDFD"/>
</g>
<defs>
<linearGradient id="paint0_linear_2580_87349" x1="185.637" y1="47.9873" x2="185.637" y2="67.7158" gradientUnits="userSpaceOnUse">
<stop stop-color="#007C99"/>
<stop offset="1" stop-color="#00B1EC"/>
</linearGradient>
<linearGradient id="paint1_linear_2580_87349" x1="186.58" y1="49.5254" x2="186.58" y2="67.7155" gradientUnits="userSpaceOnUse">
<stop stop-color="#007C99"/>
<stop offset="1" stop-color="#00B1EC"/>
</linearGradient>
<clipPath id="clip0_2580_87349">
<rect width="239" height="220" fill="white"/>
</clipPath>
</defs>
</svg>
