<svg width="304" height="190" viewBox="0 0 304 190" fill="none" xmlns="http://www.w3.org/2000/svg">
<g clip-path="url(#clip0_2548_85297)">
<path d="M213.458 151.074C209.442 144.441 198.24 125.316 196.453 115.496C194.27 103.493 205.561 88.3858 209.067 102.897C209.906 106.368 210.676 109.957 211.299 113.525C213.294 124.944 217.361 136.095 220.178 142.949C220.414 143.575 221.222 144.577 222.98 146.422C225.926 149.517 229.854 152.517 232.69 153.992C233.353 154.337 224.752 156.31 218.167 154.856C216.589 154.508 213.497 152.464 211.917 152.751C211.294 152.865 213.634 151.537 213.458 151.074Z" fill="white"/>
<path d="M223.58 155.626C221.858 155.626 219.935 155.497 218.115 155.095C217.49 154.958 216.661 154.575 215.782 154.17C214.415 153.54 212.866 152.828 211.962 152.991C211.716 153.037 211.623 152.916 211.589 152.841C211.488 152.61 211.666 152.474 212.196 152.068C212.48 151.85 213.128 151.354 213.214 151.146C208.662 143.624 197.974 125.226 196.213 115.541C194.723 107.35 199.392 97.719 203.835 96.7759C205.259 96.4729 207.864 96.8594 209.308 102.838C210.21 106.572 210.963 110.153 211.543 113.481C213.502 124.699 217.445 135.645 220.408 142.854C220.63 143.445 221.453 144.459 223.16 146.252C225.985 149.219 229.861 152.241 232.804 153.772C232.943 153.844 233.005 153.993 232.955 154.133C232.745 154.709 229.045 155.246 227.764 155.39C226.747 155.503 225.259 155.628 223.58 155.628V155.626ZM212.459 152.484C213.463 152.561 214.742 153.15 215.986 153.723C216.84 154.116 217.647 154.488 218.22 154.616C223.745 155.836 230.737 154.616 232.26 154.041C229.316 152.441 225.562 149.489 222.803 146.591C221.001 144.698 220.202 143.702 219.95 143.034C216.98 135.81 213.025 124.828 211.059 113.566C210.48 110.248 209.73 106.679 208.83 102.954C207.833 98.8226 206.093 96.7988 203.936 97.2572C201.949 97.6781 199.77 100.133 198.247 103.661C196.596 107.489 196.03 111.786 196.697 115.452C198.497 125.35 210.143 145.122 213.669 150.946L213.689 150.986C213.841 151.387 213.316 151.829 212.495 152.458C212.483 152.466 212.472 152.476 212.46 152.484H212.459Z" fill="#007C99"/>
<path d="M233.784 154.915C234.194 154.833 234.399 155.459 233.985 155.541C230.204 156.289 226.378 156.16 222.565 155.75C218.647 155.33 214.75 154.771 210.816 154.491C210.399 154.462 210.368 153.805 210.788 153.835C214.536 154.101 218.254 154.603 221.986 155.03C225.91 155.479 229.884 155.688 233.784 154.915Z" fill="#404040"/>
<path d="M211.471 147.74C217.618 151.195 218.167 154.856 218.167 154.856L211.396 154.208C209.761 152.143 211.473 147.742 211.473 147.742L211.471 147.74Z" fill="#404040"/>
<path d="M228.723 150.964C229.903 151.423 230.94 152.209 233.035 153.104C234.677 153.805 235.628 155.3 231.498 155.621C227.366 155.942 223.004 155.343 223.004 155.343C223.004 155.343 226.705 150.18 228.724 150.966L228.723 150.964Z" fill="#404040"/>
<path d="M163.736 85.494C163.736 85.494 199.439 88.908 206.943 97.2539L193.814 108.888C193.814 108.888 169.065 108.904 166.064 107.809C163.064 106.712 158.524 86.3373 163.736 85.494Z" fill="white"/>
<path d="M193.682 109.133C191.523 109.133 168.905 109.107 165.981 108.038C163.558 107.152 160.601 95.7721 161.188 89.5876C161.44 86.9383 162.284 85.4793 163.698 85.2517L163.729 85.2468L163.76 85.2501C163.85 85.2583 172.811 86.1261 182.574 88.0042C195.717 90.5324 203.979 93.5894 207.126 97.0918L207.292 97.2752L193.907 109.135H193.814C193.786 109.135 193.742 109.135 193.682 109.135V109.133ZM163.746 85.7413C162.318 85.9984 161.833 87.9977 161.677 89.6334C161.09 95.8163 164.146 106.844 166.149 107.576C168.983 108.613 192.058 108.64 193.723 108.64L206.593 97.2359C198.986 89.2929 164.987 85.8625 163.746 85.7397V85.7413Z" fill="#007C99"/>
<path d="M166.143 80.2511C166.143 80.2511 170.488 83.6946 175.245 85.3516C180.003 87.0087 182.945 87.9305 181.844 88.1139C175.639 89.1504 174.805 93.0163 174.805 93.0163L166.66 90.8418L159.957 81.6085L161.672 77.4331L166.143 80.2511Z" fill="#007C99"/>
<path d="M170.697 71.075C174.996 78.2092 180.183 80.8111 184.15 84.1088C186.975 86.4585 201.725 96.9461 201.725 96.9461L210.621 93.1195C210.621 93.1195 194.166 78.9559 189.52 73.3363C185.626 68.6271 179.694 57.013 175.23 51.1707C172.78 47.9647 163.155 45.3661 163.155 45.3661C163.155 45.3661 168.975 68.2145 170.699 71.0734L170.697 71.075Z" fill="#76D8EF"/>
<path d="M120.846 156.954L119.518 170.801C119.518 170.801 145.709 174.574 157.499 171.435C159.64 170.865 161.044 168.491 160.833 165.871L159.408 148.146C159.19 145.433 157.305 143.268 155.014 143.11C147.364 142.579 130.58 142.019 120.663 146.25L120.844 156.954H120.846Z" fill="#EFEFEF"/>
<path d="M301.658 118.134C296.234 125.137 282.309 134.415 269.567 136.62C255.944 138.98 160.596 148.533 127.351 151.832C119.783 152.585 112.11 151.992 104.49 150.07L32.5408 131.918C30.0929 131.299 27.7578 129.838 25.7269 127.69C24.1603 126.035 22.772 123.972 21.6535 121.576C19.8237 117.656 18.4861 113.862 20.0576 113.672C20.0576 113.672 239.738 87.1871 252.247 86.9759C263.497 86.7827 275.261 90.5733 285.972 97.994C287.169 98.8226 288.351 99.6953 289.522 100.616C289.522 100.616 290.351 100.966 291.612 101.588C295.497 103.507 303.485 107.999 303.984 112.721C304.136 114.159 303.274 116.045 301.658 118.134Z" fill="#EFEFEF"/>
<path d="M80.9544 106.512L65.6847 101.192C56.2037 97.8892 47.3327 90.737 40.0968 80.5638L17.4916 48.78C16.5857 47.5061 15.3723 46.8594 14.1885 47.0198L7.85035 47.8762C6.48331 48.0612 5.73601 50.1751 6.36557 52.0762L26.5327 113.014L80.956 106.513L80.9544 106.512Z" fill="#007C99"/>
<path d="M157.334 97.3702L129.616 100.624C129.616 100.624 114.578 84.3823 108.876 75.5976C108.157 74.4923 107.588 73.5066 107.215 72.6846C106.531 71.1815 105.722 68.894 104.878 66.2398C101.833 56.6479 98.2996 42.2125 98.2996 42.2125C98.2309 41.9849 98.329 41.7458 98.4876 41.7311L101.048 41.4904C102.034 41.397 103.019 42.1322 103.596 43.4012C105.766 48.1595 111.156 59.9456 114.035 65.8566C114.985 67.8199 115.662 69.1315 115.849 69.3247C115.931 69.4065 116.326 69.698 116.975 70.1581C123.649 74.8591 157.331 97.3702 157.331 97.3702H157.334Z" fill="#76D8EF"/>
<path d="M291.611 101.59L288.4 104.581L287.509 105.412L283.023 109.585C282.677 109.908 282.256 110.104 281.805 110.157C281.597 110.185 281.385 110.181 281.171 110.147L280.042 109.964L269.899 108.331C268.821 108.159 267.902 107.121 267.696 105.847L267.325 103.561C267.225 102.951 267.549 102.417 268.053 102.358L276.33 101.384L276.88 101.318L277.612 101.018L281.872 99.2713L282.812 98.8849L285.532 97.7698L285.975 97.9974C287.172 98.8259 288.356 99.6986 289.525 100.619C289.525 100.619 290.354 100.969 291.615 101.593L291.611 101.59Z" fill="#C4C4C4"/>
<path d="M275.325 99.0682L281.234 112.726L282.7 112.105L276.545 98.6932L275.325 99.0682Z" fill="#EFEFEF"/>
<path d="M280.324 97.588L288.477 106.468L289.183 105.38L280.999 97.0394L280.324 97.588Z" fill="#EFEFEF"/>
<path d="M128.016 128.116L124.357 128.486C123.688 128.553 123.088 128.103 123.019 127.481L122.282 120.887C122.211 120.263 122.699 119.703 123.367 119.636L127.027 119.266C127.696 119.199 128.296 119.649 128.365 120.271L129.102 126.865C129.172 127.489 128.685 128.049 128.016 128.116Z" fill="#C4C4C4"/>
<path d="M139.095 126.996L135.435 127.366C134.767 127.433 134.166 126.983 134.098 126.361L133.36 119.767C133.29 119.143 133.777 118.583 134.446 118.516L138.106 118.146C138.774 118.079 139.375 118.529 139.443 119.151L140.181 125.745C140.251 126.369 139.764 126.929 139.095 126.996Z" fill="#C4C4C4"/>
<path d="M150.174 125.874L146.514 126.244C145.845 126.311 145.245 125.861 145.176 125.239L144.439 118.645C144.369 118.021 144.856 117.461 145.525 117.394L149.184 117.024C149.853 116.957 150.453 117.407 150.522 118.029L151.259 124.623C151.33 125.247 150.842 125.807 150.174 125.874Z" fill="#C4C4C4"/>
<path d="M161.252 124.753L157.593 125.123C156.924 125.19 156.324 124.74 156.255 124.117L155.517 117.524C155.447 116.9 155.934 116.34 156.603 116.273L160.263 115.903C160.932 115.835 161.532 116.286 161.601 116.908L162.338 123.502C162.408 124.126 161.921 124.686 161.252 124.753Z" fill="#C4C4C4"/>
<path d="M172.331 123.633L168.671 124.003C168.002 124.07 167.402 123.62 167.334 122.997L166.596 116.404C166.526 115.78 167.013 115.22 167.682 115.153L171.341 114.783C172.01 114.715 172.61 115.166 172.679 115.788L173.417 122.382C173.487 123.006 173 123.566 172.331 123.633Z" fill="#C4C4C4"/>
<path d="M183.411 122.511L179.751 122.881C179.082 122.948 178.482 122.498 178.414 121.876L177.676 115.282C177.606 114.658 178.093 114.098 178.762 114.031L182.422 113.661C183.09 113.594 183.691 114.044 183.759 114.666L184.497 121.26C184.567 121.884 184.08 122.444 183.411 122.511Z" fill="#C4C4C4"/>
<path d="M194.489 121.391L190.83 121.761C190.161 121.828 189.561 121.378 189.492 120.756L188.755 114.162C188.684 113.538 189.172 112.978 189.841 112.911L193.5 112.541C194.169 112.474 194.769 112.924 194.838 113.546L195.575 120.14C195.646 120.764 195.158 121.324 194.489 121.391Z" fill="#C4C4C4"/>
<path d="M205.568 120.269L201.908 120.639C201.24 120.707 200.64 120.256 200.571 119.634L199.833 113.04C199.763 112.416 200.25 111.856 200.919 111.789L204.579 111.419C205.248 111.352 205.848 111.802 205.916 112.425L206.654 119.018C206.724 119.642 206.237 120.202 205.568 120.269Z" fill="#C4C4C4"/>
<path d="M301.658 118.134C296.234 125.137 282.309 134.415 269.567 136.621C255.944 138.98 160.596 148.533 127.35 151.832C119.783 152.585 112.11 151.993 104.49 150.07L32.5405 131.918C30.0926 131.299 27.7575 129.838 25.7266 127.69L53.0494 121.429C53.0494 121.429 66.0625 138.178 121.5 140.717C176.937 143.257 286.297 131.602 301.655 118.136C301.655 118.136 301.658 118.133 301.66 118.133L301.658 118.134Z" fill="#404040"/>
<path d="M53.048 121.43L8.30842 136.287C8.13018 136.345 7.94867 136.381 7.76389 136.391L0.215724 136.845C0.00151048 136.858 -0.0851561 136.413 0.109435 136.296L25.1332 121.489C25.2673 121.409 25.4079 121.353 25.5534 121.319C28.2499 120.7 54.814 114.755 53.048 121.429V121.43Z" fill="#007C99"/>
<path d="M195.968 130.51C197.438 130.428 198.162 132.26 196.915 132.909C175.344 144.126 94.7625 185.871 88.8921 186.478C82.1092 187.18 64.6353 183.477 64.6353 183.477C64.6353 183.477 114.861 147.049 118.362 144.253C119.446 143.386 117.935 139.966 116.828 137.634C116.208 136.327 117.083 134.941 118.573 134.857L195.966 130.51H195.968Z" fill="#C4C4C4"/>
<path d="M90.1218 186.059C90.1218 186.059 83.5956 187.344 79.9638 182.352C77.0891 178.401 65.5494 162.035 60.8612 155.38C59.6086 153.602 57.7281 152.631 55.8149 152.77L50.9224 153.127C50.9224 153.127 63.9714 185.06 64.843 186.691C66.8821 190.511 78.0866 191.893 90.1234 186.061L90.1218 186.059Z" fill="#007C99"/>
<path d="M195.629 99.5791C195.425 99.2827 195.165 99.0305 194.861 98.8242C185.972 91.0072 152.494 87.4868 152.494 87.4868C147.282 88.3301 151.822 108.704 154.822 109.801C156.695 110.486 167.032 110.736 174.543 110.828C169.915 120.677 165.893 137.906 164.449 144.506C164.257 144.963 161.649 144.308 162.179 144.657C163.52 145.54 164.352 149.157 165.255 150.498C169.024 156.098 176.612 160.607 176.37 159.898C175.333 156.874 174.553 151.989 174.55 147.712C174.548 145.163 174.653 143.879 174.913 143.264C177.591 136.355 182.323 125.47 188.742 115.822C190.746 112.808 192.66 109.675 194.442 106.582C196.388 103.206 196.558 100.925 195.629 99.5807V99.5791Z" fill="white"/>
<path d="M176.342 160.204C175.565 160.204 172.805 158.242 171.839 157.507C170.187 156.251 167.109 153.687 165.052 150.632C164.696 150.101 164.357 149.251 163.999 148.351C163.443 146.951 162.812 145.364 162.044 144.86C161.834 144.722 161.849 144.572 161.877 144.493C161.962 144.256 162.184 144.28 162.848 144.352C163.203 144.39 164.016 144.478 164.222 144.388C165.718 137.557 169.629 120.903 174.159 111.067C166.226 110.966 156.579 110.704 154.737 110.031C152.314 109.145 149.358 97.7648 149.945 91.5803C150.196 88.9309 151.04 87.472 152.455 87.2444L152.487 87.2395L152.52 87.2428C152.603 87.251 161.008 88.145 170.391 89.9822C183.002 92.453 191.286 95.3611 195.011 98.6277C195.332 98.8487 195.603 99.114 195.817 99.4186L195.875 99.4759V99.5021C196.596 100.606 196.939 102.739 194.655 106.702C192.737 110.029 190.817 113.142 188.945 115.955C182.639 125.432 177.958 136.083 175.14 143.349C174.895 143.93 174.792 145.232 174.793 147.709C174.797 151.809 175.523 156.674 176.6 159.816C176.651 159.965 176.594 160.116 176.461 160.181C176.429 160.198 176.388 160.204 176.34 160.204H176.342ZM162.753 144.837C163.427 145.585 163.949 146.895 164.456 148.171C164.804 149.045 165.132 149.872 165.46 150.358C168.622 155.058 174.527 159.001 176.025 159.636C174.994 156.446 174.308 151.714 174.304 147.711C174.303 145.096 174.409 143.822 174.687 143.165C177.511 135.884 182.209 125.198 188.539 115.683C190.403 112.88 192.32 109.775 194.231 106.458C195.973 103.435 196.386 101.105 195.428 99.7198L195.423 99.7133C195.24 99.4497 195.005 99.2188 194.723 99.0288L194.699 99.0108C186.093 91.4427 153.73 87.8699 152.502 87.7373C151.075 87.996 150.589 89.9936 150.434 91.6294C149.846 97.8123 152.903 108.84 154.906 109.572C156.315 110.086 163.29 110.446 174.545 110.584L174.926 110.589L174.764 110.934C170.172 120.707 166.187 137.704 164.688 144.56L164.675 144.603C164.509 144.999 163.823 144.957 162.796 144.845C162.781 144.845 162.766 144.842 162.753 144.84V144.837Z" fill="#007C99"/>
<path d="M176.524 161.321C176.877 161.545 176.594 162.139 176.239 161.913C172.987 159.845 170.303 157.109 167.824 154.182C165.277 151.172 162.838 148.076 160.181 145.158C159.9 144.848 160.328 144.351 160.613 144.663C163.144 147.445 165.492 150.375 167.901 153.26C170.434 156.294 173.168 159.189 176.524 161.322V161.321Z" fill="#404040"/>
<path d="M165.304 140.719C167.376 147.465 165.254 150.496 165.254 150.496L160.796 145.351C161.033 142.726 165.304 140.721 165.304 140.721V140.719Z" fill="#404040"/>
<path d="M175.578 154.966C176.116 156.114 176.327 157.398 177.228 159.492C177.935 161.132 177.594 162.873 174.381 160.253C171.166 157.633 168.421 154.187 168.421 154.187C168.421 154.187 174.656 153.003 175.578 154.966Z" fill="#404040"/>
<path d="M146.802 78.7758C146.802 78.7758 133.744 92.3417 137.967 102.941C142.187 113.54 158.026 112.447 161.872 111.548C165.718 110.65 163.155 93.0163 175.738 91.1562C177.504 90.8959 164.504 85.3221 163.721 81.6085C162.938 77.8948 159.066 78.2174 159.066 78.2174L146.802 78.7758Z" fill="#007C99"/>
<path d="M155.858 31.5987C155.858 31.5987 149.855 38.2172 136.982 31.3597C124.112 24.5022 118.467 41.4068 118.467 41.4068C118.467 41.4068 119.593 47.01 122.136 49.2025C122.136 49.2025 125.361 47.6585 127.127 47.8762C127.127 47.8762 123.84 48.8947 123.049 50.894C123.049 50.894 125.462 56.7706 131.447 58.0118C137.432 59.2529 157.642 47.2687 157.642 47.2687L165.272 38.2352L155.858 31.6004V31.5987Z" fill="#007C99"/>
<path d="M173.819 30.0775C173.819 30.0775 175.866 23.487 170.215 21.9364C164.987 20.502 173.819 30.0775 173.819 30.0775Z" fill="#007C99"/>
<path d="M119.866 45.3874C122.318 40.0822 127.678 36.362 133.532 36.0787C136.747 35.9231 139.903 36.6829 143.049 37.2216C145.677 37.6719 148.448 38.0796 150.965 36.9482C153.517 35.8003 155.391 33.5178 156.348 30.9192C156.407 30.7604 156.168 30.6458 156.109 30.8062C155.109 33.5243 153.076 35.9199 150.309 36.9285C147.269 38.037 143.816 37.0972 140.755 36.5388C137.886 36.0148 134.943 35.5318 132.027 35.9559C129.57 36.3145 127.21 37.2773 125.171 38.6904C122.77 40.3523 120.852 42.6218 119.628 45.2744C119.556 45.4283 119.794 45.5429 119.866 45.3874Z" fill="#76D8EF"/>
<path d="M138.014 45.6263C138.014 45.6263 132.245 66.6687 135.095 72.059C137.945 77.4494 149.06 76.8288 151.145 74.3612C153.23 71.8937 149.009 48.0775 149.009 48.0775L138.012 45.6263H138.014Z" fill="#C4C4C4"/>
<path d="M174.646 65.2983C173.605 70.1548 170.372 78.3484 169.234 81.1582C168.985 81.7722 168.432 82.1963 167.777 82.2798C163.012 82.8873 143.773 84.9455 144.164 78.5318C144.164 78.5318 148.026 62.8422 145.33 52.7066C143.111 44.3706 156.777 43.7958 162.03 45.0173C173.111 47.5962 176.123 58.4113 174.646 65.2983Z" fill="#76D8EF"/>
<path d="M168.586 47.2294C168.346 47.2818 176.028 60.7429 171.772 74.5627C171.772 74.5627 178.857 61.0164 171.371 48.3576C171.371 48.3576 169.482 47.0346 168.586 47.2278V47.2294Z" fill="#C4C4C4"/>
<path d="M159.097 43.1997C162.063 37.5458 163.021 34.4003 163.024 34.3872L164.903 35.9427L165.291 36.2637L168.653 39.0456C168.653 39.0456 168.579 39.3093 168.468 39.7366C168.306 40.3588 168.061 41.3282 167.847 42.3352C167.57 43.6287 167.345 44.9829 167.402 45.7312C167.487 46.8201 168.999 49.9475 164.246 48.821C159.285 47.6453 158.343 44.639 159.097 43.2014V43.1997Z" fill="white"/>
<path d="M165.974 49.304C165.477 49.304 164.884 49.2221 164.19 49.0568C160.613 48.2102 159.362 46.504 158.933 45.5642C158.539 44.698 158.519 43.7712 158.881 43.0851C161.806 37.5114 162.781 34.3463 162.791 34.3152L162.899 33.9631L168.934 38.9572L168.892 39.1111C168.892 39.1111 168.818 39.3748 168.707 39.7972C168.46 40.742 168.252 41.6115 168.089 42.3843C167.754 43.953 167.601 45.1041 167.649 45.7099C167.66 45.8622 167.708 46.0783 167.758 46.3092C167.93 47.0968 168.166 48.1742 167.51 48.8193C167.18 49.1435 166.673 49.3057 165.976 49.3057L165.974 49.304ZM163.145 34.8048C162.812 35.7741 161.711 38.746 159.314 43.3127C159.023 43.8662 159.048 44.6308 159.38 45.3595C159.77 46.2191 160.928 47.7796 164.303 48.5786C165.773 48.9258 166.735 48.8898 167.165 48.4673C167.628 48.0121 167.433 47.1263 167.278 46.4124C167.222 46.1553 167.173 45.9326 167.158 45.7459C167.108 45.0844 167.26 43.9169 167.608 42.2795C167.773 41.5001 167.982 40.6225 168.231 39.6711C168.293 39.437 168.342 39.2503 168.375 39.1308L163.145 34.8031V34.8048Z" fill="#007C99"/>
<path d="M164.978 36.3635C164.978 36.3635 165.108 36.5518 165.32 36.8547C166.012 37.8421 167.58 40.0411 168.355 40.7944C168.154 41.5426 167.852 42.7068 167.577 43.912C166.697 43.09 164.019 40.2213 164.946 36.4962C164.957 36.4519 164.967 36.4077 164.98 36.3635H164.978Z" fill="#007C99"/>
<path d="M159.949 34.5199C155.068 19.626 168.627 22.141 172.213 26.0004C175.799 29.8598 178.492 41.3266 171.505 41.9406C164.519 42.5546 159.949 34.5199 159.949 34.5199Z" fill="white"/>
<path d="M170.753 42.2205C164.124 42.2205 159.781 34.7212 159.735 34.6426L159.715 34.5984C157.427 27.6181 159.265 24.7821 161.211 23.6327C164.632 21.6105 170.264 23.5443 172.393 25.835C175.062 28.707 177.089 35.2927 175.605 39.1602C174.911 40.9663 173.502 42.0142 171.528 42.1862C171.268 42.2091 171.008 42.2205 170.754 42.2205H170.753ZM160.173 34.4199C160.435 34.8653 164.907 42.2746 171.484 41.6966C173.283 41.5377 174.514 40.6257 175.145 38.9834C176.53 35.3762 174.591 28.9232 172.033 26.169C170.061 24.0453 164.632 22.1819 161.462 24.0551C158.899 25.5697 158.453 29.154 160.175 34.4199H160.173Z" fill="#007C99"/>
<path d="M167.95 41.6426C165.767 40.8845 163.839 39.6122 162.282 37.9027C162.2 37.8127 162.344 37.6915 162.424 37.7799C163.96 39.4665 165.86 40.7174 168.014 41.4641C168.128 41.5034 168.064 41.6802 167.95 41.6409V41.6426Z" fill="#007C99"/>
<path d="M172.136 33.3703C172.45 34.0204 172.242 34.0564 171.673 34.361C171.567 34.4183 171.498 34.2431 171.604 34.1858C171.756 34.1039 172.075 33.8698 172.09 33.6946C172.105 33.5324 171.817 33.182 171.725 33.0281C171.546 32.7285 171.348 32.4403 171.168 32.1406C170.901 31.6953 170.602 31.2057 170.571 30.6752C170.524 29.917 171.135 29.4127 171.858 29.4455C171.979 29.4504 171.949 29.6371 171.83 29.6321C170.362 29.565 170.775 31.0567 171.199 31.8132C171.493 32.3404 171.876 32.8251 172.139 33.3703H172.136Z" fill="#76D8EF"/>
<path d="M166.846 30.595C166.699 30.2986 166.943 29.7517 167.453 29.4979C167.961 29.2441 168.545 29.38 168.692 29.6764C168.839 29.9728 168.458 30.2413 167.948 30.4951C167.438 30.7489 166.995 30.8914 166.848 30.595H166.846Z" fill="#C56146"/>
<path d="M170.751 28.9052C170.653 28.5892 170.982 28.0882 171.525 27.9211C172.067 27.7525 172.622 27.9801 172.718 28.2961C172.816 28.6121 172.396 28.8168 171.853 28.9855C171.31 29.1541 170.848 29.2229 170.751 28.9069V28.9052Z" fill="#76D8EF"/>
<path d="M173.423 35.6513C173.34 35.9362 173.207 36.2866 173.022 36.5125C172.764 36.8269 172.376 37.0856 171.798 37.12C171.155 37.1593 170.684 36.9579 170.347 36.6845C170.146 36.5224 169.961 36.2522 169.822 36.0131C169.77 35.9214 169.775 35.8183 169.821 35.7397C169.873 35.648 169.974 35.5858 170.095 35.6005C170.125 35.6038 170.154 35.6087 170.187 35.612C170.2 35.612 170.215 35.6152 170.229 35.6169C170.275 35.6218 170.323 35.6283 170.37 35.6316C170.388 35.6333 170.408 35.6349 170.427 35.6382C170.584 35.6513 170.758 35.6627 170.946 35.666C171.006 35.666 171.067 35.6676 171.13 35.666C171.162 35.666 171.193 35.666 171.224 35.666C171.255 35.666 171.287 35.666 171.32 35.666C171.353 35.666 171.386 35.6644 171.418 35.6627C171.451 35.6627 171.484 35.6595 171.518 35.6578C171.565 35.6562 171.613 35.6529 171.66 35.6496C171.698 35.6464 171.735 35.6431 171.775 35.6398C171.861 35.6316 171.951 35.6218 172.041 35.6087C172.074 35.6038 172.107 35.5989 172.138 35.594C172.257 35.5759 172.378 35.5547 172.499 35.5285C172.551 35.517 172.604 35.5055 172.656 35.4924C172.699 35.4826 172.743 35.4711 172.785 35.4597C172.803 35.4548 172.821 35.4499 172.838 35.4449C172.877 35.4351 172.916 35.422 172.957 35.4106C173.009 35.3958 173.062 35.3778 173.114 35.3598C173.214 35.3254 173.312 35.3598 173.374 35.4286C173.426 35.4875 173.451 35.5694 173.425 35.6578L173.423 35.6513Z" fill="#262F36"/>
<path d="M146.963 54.1835C139.822 47.8337 132.995 40.3998 128.747 33.6242C126.793 30.5082 121.498 15.1346 121.498 15.1346L128.958 10.1241C128.958 10.1241 135.317 23.2594 139.83 28.9838C143.614 33.7831 151.88 41.8227 159.097 43.1998L159.595 59.3397C159.595 59.3397 149.457 56.4006 146.963 54.1835Z" fill="#76D8EF"/>
<path d="M128.956 10.1224C128.894 9.86865 128.597 9.79005 128.14 9.86701C128.01 9.88993 127.864 9.92432 127.707 9.97344C126.968 10.1945 125.977 10.689 124.919 11.4029C124.02 12.0087 123.22 12.6686 122.62 13.2761C122.368 13.5332 122.151 13.7788 121.976 14.0064C121.871 14.1423 121.781 14.2749 121.707 14.3961C121.613 14.5582 121.544 14.7072 121.51 14.8365C121.493 14.8988 121.485 14.9561 121.483 15.0101C121.483 15.0543 121.485 15.0969 121.495 15.1329C121.555 15.3703 121.819 15.4522 122.224 15.3982C122.502 15.3605 122.85 15.2574 123.245 15.0985C123.248 15.0985 123.254 15.0953 123.259 15.0936C123.915 14.8251 124.703 14.3977 125.529 13.8394C125.97 13.5414 126.389 13.2302 126.77 12.9208C127.311 12.4803 127.784 12.0399 128.147 11.6354C128.407 11.3472 128.613 11.0771 128.754 10.838C128.925 10.5465 129 10.3009 128.955 10.1224H128.956Z" fill="#FF964A"/>
<path d="M128.149 11.6354C127.701 10.9657 127.733 10.54 127.707 9.97345C127.689 9.59193 127.645 9.14492 127.406 8.51943C126.96 7.34213 125.222 3.26498 124.706 2.06149C124.61 1.83716 124.312 1.78804 124.152 1.97143C123.652 2.54288 123.565 3.72673 123.758 4.57982C123.815 4.89584 123.734 5.49022 123.578 5.45583C122.03 3.4451 119.101 -0.137555 118.547 0.284897C118.045 0.669688 119.793 3.37796 121.078 5.15783L120.983 5.20531C119.194 3.18966 116.969 -0.00492465 116.373 0.512497C115.728 1.07577 117.322 4.20649 119.016 6.20249L118.916 6.25325C118.906 6.24179 118.895 6.23033 118.887 6.21887C117.253 4.33748 115.224 2.13353 114.547 2.62967C114.213 2.87528 115.58 5.16929 116.962 7.24389C117.369 7.97253 117.14 8.01674 116.885 7.9316C116.763 7.86938 116.642 7.80879 116.522 7.75312H116.521C115.327 7.18821 114.792 7.21441 114.627 7.61066C114.517 7.87429 116.442 8.84363 118.293 11.0656C119.209 12.1643 120.553 12.9322 121.976 14.0097C122.371 14.306 122.792 14.6613 123.245 15.1018C123.902 14.8333 124.695 14.4043 125.527 13.841C125.969 13.543 126.387 13.2319 126.769 12.9224C127.31 12.482 127.782 12.0415 128.145 11.6371L128.149 11.6354Z" fill="white"/>
<path d="M123.295 15.3458H123.212L123.119 15.3196L123.075 15.277C122.654 14.8693 122.247 14.5189 121.829 14.2045C121.423 13.8967 121.024 13.615 120.638 13.3432C119.682 12.667 118.777 12.0284 118.105 11.2211C117.011 9.90958 115.87 9.02374 115.186 8.49322C114.529 7.98399 114.284 7.79405 114.4 7.51405C114.475 7.3323 114.609 7.19967 114.789 7.1309C115.159 6.98845 115.734 7.11125 116.601 7.51897L116.627 7.53043C116.715 7.573 116.804 7.61557 116.894 7.65978C116.866 7.59101 116.822 7.49768 116.753 7.3716C113.772 2.89492 114.181 2.59364 114.401 2.43154C114.895 2.06967 115.702 2.49212 117.157 3.96415C116.264 2.43972 115.63 0.836701 116.213 0.329104C116.313 0.242321 116.439 0.203024 116.58 0.214485C117.1 0.258695 117.853 1.06103 118.967 2.40206C117.881 0.48957 118.251 0.206298 118.4 0.0916798C118.629 -0.0835229 119.23 -0.543635 123.524 4.98426C123.536 4.86309 123.537 4.72718 123.518 4.62403C123.313 3.72345 123.402 2.45937 123.969 1.81096C124.1 1.66032 124.296 1.58991 124.492 1.62102C124.69 1.65213 124.855 1.78149 124.934 1.96488C125.454 3.18311 127.189 7.24716 127.637 8.43264C127.882 9.0745 127.933 9.54772 127.953 9.96198C127.956 10.0209 127.957 10.0782 127.959 10.1339C127.977 10.6104 127.989 10.9542 128.353 11.4979L128.459 11.6567L128.332 11.7992C127.964 12.2101 127.477 12.6653 126.927 13.1124C126.53 13.4333 126.106 13.746 125.668 14.0424C124.851 14.5942 124.046 15.0396 123.34 15.3261L123.295 15.3441V15.3458ZM114.904 7.62704C115.01 7.73347 115.252 7.92177 115.487 8.10516C116.186 8.64714 117.355 9.55263 118.481 10.9068C119.114 11.6649 119.951 12.2576 120.921 12.9421C121.31 13.2171 121.713 13.5021 122.125 13.8132C122.52 14.1095 122.906 14.437 123.3 14.8136C123.94 14.5385 124.659 14.1341 125.393 13.638C125.82 13.3498 126.232 13.0452 126.618 12.7325C127.088 12.351 127.508 11.9662 127.841 11.6092C127.501 11.0345 127.485 10.6055 127.469 10.1536L127.462 9.98654C127.446 9.63777 127.408 9.21532 127.177 8.60784C126.731 7.43055 125.001 3.37468 124.483 2.15809C124.466 2.11879 124.434 2.10897 124.416 2.10569C124.398 2.10242 124.365 2.10242 124.337 2.13353C123.899 2.63458 123.82 3.7431 123.997 4.52578C124.048 4.8025 124.025 5.40507 123.811 5.61138C123.732 5.68834 123.627 5.71945 123.524 5.69653L123.438 5.67688L123.384 5.60647C120.872 2.34475 119.155 0.599276 118.7 0.501032C118.64 0.884186 119.498 2.55107 121.278 5.01373L121.446 5.24788L120.926 5.5115L120.8 5.37069C120.308 4.8156 119.78 4.17046 119.271 3.54497C118.326 2.38733 116.895 0.640212 116.526 0.704071C116.141 1.04301 117.311 3.81515 119.202 6.0453L119.404 6.28272L118.853 6.56272L118.697 6.37605C115.898 3.152 115.015 2.723 114.74 2.80487C114.768 3.17328 115.517 4.63385 117.165 7.10961L117.175 7.12599C117.376 7.48458 117.535 7.84808 117.343 8.0806C117.265 8.17557 117.108 8.2689 116.805 8.16738L116.771 8.15264C116.656 8.0937 116.544 8.03802 116.432 7.98563L116.413 7.97744C115.458 7.52552 115.095 7.54353 114.964 7.59265C114.939 7.60247 114.918 7.61394 114.902 7.63031L114.904 7.62704Z" fill="#007C99"/>
<path d="M156.059 42.2714C156.059 42.2714 157.655 47.3097 155.656 54.5536C153.153 63.6248 148.342 67.5153 145.286 67.7429C142.23 67.9705 144.398 71.075 144.398 71.075C144.398 71.075 155.709 69.544 158.693 56.6183C160.775 47.5979 159.099 43.1981 159.099 43.1981L156.06 42.2714H156.059Z" fill="#C4C4C4"/>
<path d="M171.479 23.1562C171.479 23.1562 171.59 34.7359 162.039 33.056C162.039 33.056 162.92 36.1572 161.708 37.7782C160.497 39.3993 155.413 33.3834 155.413 33.3834C155.413 33.3834 151.784 29.0165 154.669 24.0502C157.553 19.0839 167.031 17.9181 171.477 23.1562H171.479Z" fill="#007C99"/>
<path d="M161.275 35.7462C160.082 34.9602 159.619 33.5521 160.244 32.6007C160.868 31.651 162.342 31.5184 163.537 32.3043C164.731 33.0903 165.193 34.4985 164.569 35.4498C163.944 36.3995 162.471 36.5321 161.275 35.7462Z" fill="white"/>
<path d="M162.91 36.3406C162.359 36.3406 161.766 36.1687 161.229 35.815C160.636 35.4237 160.199 34.8718 159.998 34.2611C159.795 33.6422 159.857 33.0379 160.173 32.5566C160.488 32.0752 161.02 31.7788 161.666 31.7215C162.305 31.6642 162.985 31.8476 163.579 32.2389C164.173 32.6302 164.609 33.182 164.81 33.7928C165.013 34.4117 164.951 35.0159 164.635 35.4973C164.269 36.0541 163.625 36.3422 162.91 36.3422V36.3406ZM161.9 31.8754C161.826 31.8754 161.754 31.8787 161.682 31.8852C161.085 31.9392 160.598 32.2094 160.31 32.6482C160.022 33.0871 159.967 33.6422 160.153 34.212C160.343 34.7883 160.757 35.3107 161.319 35.6807C162.474 36.4421 163.9 36.3193 164.498 35.4089C164.786 34.9701 164.841 34.415 164.655 33.8452C164.465 33.2688 164.052 32.7465 163.489 32.3764C162.994 32.0506 162.438 31.877 161.9 31.877V31.8754Z" fill="#007C99"/>
<path d="M160.861 35.612C160.242 35.1568 159.991 34.4478 159.877 33.7126C159.857 33.593 160.045 33.5718 160.063 33.6913C160.171 34.3774 160.395 35.0405 160.981 35.4662C161.715 36.0017 162.727 36.2571 163.62 36.1916C163.741 36.1834 163.762 36.3701 163.641 36.3783C162.701 36.4487 161.632 36.1785 160.861 35.612Z" fill="#76D8EF"/>
<path d="M162.82 33.6339C162.732 33.552 162.85 33.4047 162.938 33.4882C163.092 33.6306 163.327 33.855 163.326 34.0858C163.326 34.1988 163.25 34.2791 163.196 34.3708C163.064 34.5934 163.041 34.8112 163.147 35.0552C163.195 35.1665 163.02 35.2353 162.972 35.124C162.891 34.9357 162.863 34.7392 162.914 34.5378C162.938 34.4395 163.003 34.3642 163.035 34.2709C163.134 33.9761 163.023 33.8206 162.82 33.6339Z" fill="#76D8EF"/>
<path d="M163.726 32.6204C163.573 32.4435 163.386 32.3125 163.172 32.2192C163.061 32.1717 163.138 31.9998 163.249 32.0473C163.494 32.1521 163.703 32.3076 163.878 32.509C163.958 32.6007 163.806 32.7104 163.726 32.6204Z" fill="#76D8EF"/>
<path d="M161.752 36.3718C161.363 37.3542 160.547 37.7014 159.527 37.6179C158.536 37.536 158.034 37.0071 157.55 36.2212C156.927 35.2092 156.356 34.1564 155.517 33.3017C155.399 33.1821 155.19 33.3426 155.31 33.4638C156.04 34.2088 156.567 35.1028 157.105 35.9919C157.499 36.642 157.857 37.3788 158.588 37.6997C159.896 38.2745 161.468 37.8078 161.998 36.4733C162.06 36.3145 161.816 36.2146 161.754 36.3718H161.752Z" fill="#76D8EF"/>
<path d="M155.753 65.3785C157.622 66.6606 159.659 67.8657 162.006 67.3614C162.171 67.3254 162.133 67.0634 161.968 67.0994C159.679 67.5906 157.728 66.4133 155.913 65.1689C155.772 65.0723 155.612 65.2819 155.753 65.3785Z" fill="white"/>
<path d="M166.001 49.4367C165.814 50.7417 165.628 52.0549 165.677 53.3763C165.731 54.8057 166.325 56.078 166.473 57.4796C166.629 58.9402 166.06 60.3516 166.066 61.8057C166.071 63.0091 166.647 63.913 166.995 65.0264C167.535 66.7523 166.331 68.0524 165.805 69.5866C165.337 70.9506 165.461 72.2278 165.407 73.6343C165.35 75.1031 164.483 76.3704 163.808 77.6279C163.043 79.0558 162.276 80.4852 161.511 81.913C161.43 82.0637 161.674 82.1619 161.754 82.0146C162.52 80.5867 163.286 79.1573 164.052 77.7295C164.644 76.6275 165.437 75.4846 165.622 74.2221C165.849 72.6764 165.523 71.2224 166.047 69.6881C166.475 68.4355 167.44 67.2959 167.422 65.9205C167.407 64.8087 166.689 63.8671 166.446 62.8127C166.088 61.2604 166.715 59.7491 166.756 58.2001C166.791 56.8312 166.191 55.5966 166.011 54.2588C165.795 52.664 166.035 51.0462 166.261 49.4678C166.285 49.2991 166.024 49.2664 165.999 49.435L166.001 49.4367Z" fill="white"/>
<path d="M173.887 111.817C177.164 107.116 182.559 104.121 188.276 103.826C188.4 103.82 188.4 103.625 188.276 103.632C182.485 103.93 177.038 106.959 173.721 111.719C173.649 111.822 173.817 111.919 173.887 111.817Z" fill="#007C99"/>
<path d="M175.537 91.3347C178.796 92.3171 182.067 93.2554 185.352 94.1461C185.473 94.1789 185.524 93.9922 185.404 93.9595C182.119 93.0687 178.849 92.1305 175.59 91.148C175.47 91.112 175.418 91.2987 175.537 91.3347Z" fill="#007C99"/>
<path d="M146.857 85.0585C146.69 86.5207 146.313 87.9403 145.711 89.2846C145.235 90.349 144.403 91.279 144.007 92.3662C143.875 92.7314 143.817 93.1326 143.906 93.5157C144.014 93.9824 144.293 94.1035 144.576 94.4179C145.063 94.9615 145.068 95.2661 144.779 95.8441C144.697 96.0095 144.604 96.1683 144.53 96.3386C144.426 96.5809 144.234 97.0034 144.411 97.2654C144.557 97.4815 144.586 97.3669 144.815 97.4144C144.877 97.4275 144.969 97.3341 145.031 97.3325C145.549 97.3161 145.84 97.4275 146.115 97.8352C146.378 98.2249 146.386 98.7161 146.381 99.1697C146.372 100.119 146.359 100.943 147.001 101.708C148.371 103.334 150.932 103.569 152.899 103.735C156.018 103.997 159.203 103.815 162.196 104.888C162.313 104.93 162.364 104.742 162.248 104.701C159.867 103.848 157.35 103.776 154.85 103.659C152.525 103.551 149.568 103.569 147.644 102.05C147.16 101.668 146.759 101.167 146.623 100.553C146.475 99.8787 146.643 99.191 146.55 98.5147C146.468 97.9171 146.072 97.1851 145.404 97.1016C145.279 97.0869 145.08 97.1704 144.977 97.1458C144.802 97.1033 144.619 96.8004 144.606 96.6792C144.592 96.558 144.748 96.3288 144.799 96.2256C144.965 95.885 145.235 95.5035 145.248 95.1105C145.255 94.901 145.201 94.7159 145.068 94.5522C144.903 94.3475 144.637 94.2345 144.453 94.0462C144.007 93.5861 143.983 93.0392 144.198 92.435C144.424 91.8046 144.861 91.2725 145.198 90.6994C145.521 90.1508 145.804 89.5777 146.049 88.9899C146.573 87.7307 146.895 86.4126 147.05 85.0601C147.065 84.9357 146.87 84.9373 146.856 85.0601L146.857 85.0585Z" fill="white"/>
<path d="M174.093 90.5569C169.822 90.8353 165.922 93.5239 164.208 97.4652C162.213 102.055 162.925 107.864 159.141 111.612C159.052 111.701 159.19 111.838 159.278 111.75C162.658 108.403 162.5 103.358 163.819 99.0928C165.248 94.472 169.206 91.0695 174.095 90.7502C174.219 90.742 174.219 90.5471 174.095 90.5553L174.093 90.5569Z" fill="white"/>
<path d="M174.795 90.7403C166.912 88.9768 158.856 86.3815 150.684 86.9039C150.553 86.912 150.545 87.1184 150.677 87.1102C158.832 86.5878 166.866 89.1782 174.734 90.9368C174.864 90.9663 174.924 90.7681 174.795 90.7403Z" fill="#76D8EF"/>
<path d="M163.837 88.217C159.162 88.3971 154.572 89.2633 150.278 91.1611C150.157 91.2151 150.255 91.3952 150.376 91.3428C154.637 89.4598 159.192 88.6018 163.831 88.4233C163.961 88.4184 163.97 88.2121 163.837 88.217Z" fill="#76D8EF"/>
<path d="M169.17 27.4234C169.567 25.9743 168.485 24.815 167.002 24.5071C164.768 24.0438 162.292 25.1506 160.044 25.4225C157.419 25.7401 155.045 25.3422 152.499 25.0966C150.123 24.869 148.192 25.6435 146.094 26.7602C145.934 26.8454 146.082 27.0468 146.241 26.9633C147.287 26.4065 148.352 25.8318 149.51 25.5256C150.663 25.2211 151.801 25.262 152.939 25.4012C154.684 25.614 156.374 25.876 158.167 25.8171C160.041 25.7548 161.816 25.3701 163.653 24.9607C165.71 24.5022 169.69 24.4957 168.897 27.3824C168.853 27.5429 169.124 27.5822 169.168 27.4234H169.17Z" fill="#76D8EF"/>
<path d="M150.798 23.3986C152.677 22.868 154.056 24.3483 155.753 24.6332C157.421 24.9132 159.27 24.625 160.963 24.3466C162.832 24.0388 164.699 23.6 166.58 23.4362C167.721 23.338 169.057 23.4067 169.752 24.2893C170.512 25.2554 169.811 26.4589 169.042 27.3202C168.926 27.4511 169.127 27.6083 169.245 27.4773C170.177 26.4327 170.892 24.9525 169.785 23.9193C168.388 22.6142 165.796 23.2414 163.98 23.5574C161.47 23.9946 158.809 24.6725 156.288 24.4416C154.338 24.2631 152.811 22.5733 150.718 23.1644C150.543 23.2135 150.623 23.4477 150.797 23.3986H150.798Z" fill="#76D8EF"/>
</g>
<defs>
<clipPath id="clip0_2548_85297">
<rect width="304" height="190" fill="white"/>
</clipPath>
</defs>
</svg>
