<svg width="432" height="436" viewBox="0 0 432 436" fill="none" xmlns="http://www.w3.org/2000/svg">
<path d="M348.034 32.4954C347.652 33.2282 347.259 33.7805 346.867 34.1522C346.496 34.492 346.729 35.108 347.228 35.1293C355.913 35.4797 360.823 35.6709 361.969 35.7134C367.091 35.9046 370.495 34.3752 375.819 31.9962C379.658 30.2757 383.996 28.1835 388.832 25.7195C392.056 24.0734 394.505 22.2042 396.192 20.1332C396.542 19.6978 396.584 19.103 396.308 18.6145C394.336 15.1947 391.462 15.4602 387.708 15.8213C385.48 16.0443 383.02 16.5116 380.316 17.2551C388.429 12.4865 396.17 8.32327 403.52 4.7548C406.627 3.25732 409.904 1.99349 413.351 0.984545C417.455 -0.215565 428.124 -1.18202 430.796 3.54407C432.345 6.28414 426.204 12.0404 424.338 13.4529C422.302 14.9929 418.707 17.1064 413.542 19.8252C403.647 25.0292 396.563 28.7995 392.289 31.1466C391.069 31.8157 390.019 32.7503 389.107 33.6743C388.111 34.7044 388.227 34.8425 389.457 34.1097C391.281 33.0158 395.078 30.5412 397.242 32.1662C400.582 34.6832 400.816 38.411 396.637 40.2696C388.906 43.7106 383.805 45.7709 381.323 46.4719C381.101 46.5356 380.91 46.6737 380.782 46.8755C378.502 50.5608 374.833 56.5719 369.753 64.9196C369.053 66.0666 368.024 67.957 366.126 68.7642C364.111 69.6245 362.244 70.3466 360.516 70.9095C360.155 71.0264 359.805 70.7077 359.89 70.336L366.868 42.8928C366.9 42.776 366.784 42.691 366.688 42.7335C352.668 49.52 344.035 53.6088 340.769 55.032C330.938 59.3226 321.574 61.4892 312.676 61.5423C310.406 61.5529 305.676 61.4467 303.672 59.9174C303.216 59.5669 302.749 59.2908 302.304 59.0677C302.092 58.9615 301.869 58.9297 301.636 58.9721C297.882 59.6306 293.926 59.7262 289.769 59.2801C289.196 59.2164 289.164 59.0571 289.673 58.7916L300.734 53.1734C300.883 53.099 300.893 53.0035 300.777 52.8866L287.86 40.3545C287.531 40.0465 287.616 39.4943 288.019 39.2819L294.392 36.0426C294.997 35.7346 295.697 35.6921 296.333 35.9364C305.687 39.4836 313.885 42.8078 321.828 45.0912C322.358 45.2505 323.196 45.0275 324.331 44.4328C330.789 41.0236 336.951 37.9437 342.837 35.193C343.494 34.885 343.463 34.7151 342.742 34.6513L337.386 34.2159C337.206 34.2053 337.057 34.0566 337.057 33.8654V33.5574C337.057 33.2707 337.184 33.1432 337.45 33.1857L344.057 34.2371C344.279 34.269 344.491 34.2371 344.703 34.1416L348.034 32.4848V32.4954Z" fill="#007C99" fill-opacity="0.5"/>
<path d="M175.847 10.6286C175.847 10.841 175.667 11.0109 175.465 11.0109L169.845 10.9684C169.633 10.9684 169.463 10.7985 169.463 10.5861V10.5542C169.463 10.3418 169.643 10.1719 169.845 10.1719L175.465 10.2144C175.678 10.2144 175.847 10.3843 175.847 10.5967V10.6286Z" fill="#007C99" fill-opacity="0.5"/>
<path d="M165.868 11.0301C165.9 11.2213 165.783 11.4125 165.592 11.4443L160.353 12.517C160.162 12.5489 159.971 12.432 159.94 12.2409L159.918 12.1347C159.886 11.9435 160.003 11.7523 160.194 11.7205L165.433 10.6478C165.624 10.6159 165.815 10.7328 165.847 10.9239L165.868 11.0301Z" fill="#007C99" fill-opacity="0.5"/>
<path d="M185.413 12.1787C185.382 12.3699 185.191 12.4867 185.01 12.4549L179.634 11.4141C179.443 11.3822 179.315 11.191 179.358 11.0105V10.9786C179.4 10.7874 179.58 10.6706 179.771 10.7025L185.148 11.7433C185.339 11.7751 185.466 11.9663 185.424 12.1469V12.1787H185.413Z" fill="#007C99" fill-opacity="0.5"/>
<path d="M380.316 17.2544C383.02 16.5216 385.48 16.0437 387.708 15.8206C391.462 15.4595 394.336 15.194 396.308 18.6138C396.584 19.0917 396.531 19.6971 396.192 20.1325C394.505 22.2035 392.056 24.0727 388.832 25.7189C383.996 28.1828 379.658 30.2751 375.819 31.9956C370.495 34.3745 367.091 35.9039 361.969 35.7127C360.823 35.6702 355.913 35.4791 347.228 35.1286C346.729 35.1074 346.496 34.4914 346.867 34.1515C347.259 33.7798 347.652 33.2275 348.034 32.4947L358.119 27.5881C358.522 27.3863 358.511 27.2164 358.087 27.0677L322.687 15.0453C322.507 14.9816 322.475 14.7373 322.645 14.6311C323.928 13.8452 325.667 12.9637 327.862 11.9973C329.05 11.4769 330.355 11.2857 331.765 11.4131C334.586 11.6893 336.124 11.8486 336.389 11.8911C351.459 14.2807 366.094 16.0649 380.316 17.2544Z" fill="#007C99" fill-opacity="0.5"/>
<path d="M194.947 15.8003C194.905 15.8959 194.799 15.949 194.703 15.9065L188.902 13.5912C188.807 13.5488 188.754 13.4426 188.796 13.347L188.913 13.039C188.955 12.9434 189.061 12.8903 189.157 12.9328L194.958 15.248C195.053 15.2905 195.106 15.3967 195.064 15.4923L194.947 15.8003Z" fill="#007C99" fill-opacity="0.5"/>
<path d="M156.822 13.4424C156.917 13.6017 156.875 13.8141 156.705 13.9203L151.837 16.9046C151.678 17.0108 151.456 16.9577 151.36 16.7878L151.328 16.7241C151.233 16.5648 151.275 16.3524 151.445 16.2462L156.313 13.2618C156.472 13.1556 156.695 13.2087 156.79 13.3786L156.822 13.4424Z" fill="#007C99" fill-opacity="0.5"/>
<path d="M203.379 21.4292C203.273 21.5673 203.071 21.5991 202.933 21.4929L197.705 17.5634C197.557 17.4572 197.535 17.2554 197.641 17.1173L197.705 17.043C197.811 16.9049 198.013 16.873 198.151 16.9792L203.379 20.9088C203.527 21.015 203.549 21.2168 203.443 21.3549L203.379 21.4292Z" fill="#007C99" fill-opacity="0.5"/>
<path d="M147.012 22.5552C146.482 23.5429 146.111 24.4988 145.899 25.4334C145.739 26.1556 145.464 26.1981 145.082 25.5715C144.987 25.4121 145.008 25.1254 145.177 24.7112C145.506 23.8509 145.888 23.0013 146.333 22.1942C146.768 21.3764 147.256 20.6011 147.807 19.847C148.073 19.4859 148.295 19.3054 148.476 19.3054C149.207 19.2735 149.324 19.5284 148.804 20.0594C148.147 20.7391 147.542 21.5675 147.012 22.5659V22.5552Z" fill="#007C99" fill-opacity="0.5"/>
<path d="M208.448 29.0858C208.723 28.9902 208.777 28.8203 208.607 28.5867L205.044 23.6057C204.948 23.4676 204.98 23.3827 205.139 23.3295L205.362 23.2552C205.5 23.2021 205.648 23.2552 205.743 23.3614C209.296 27.599 211.322 32.4419 211.831 37.8902C211.831 38.007 211.799 38.092 211.693 38.1557L211.502 38.2513C211.248 38.3893 211.11 38.315 211.078 38.0282C210.813 35.3519 210.176 32.7393 209.169 30.1585C209.073 29.9142 208.798 29.7868 208.554 29.8717L204.99 31.0612C204.757 31.1356 204.524 30.9444 204.556 30.7001L204.587 30.4771C204.598 30.4028 204.641 30.339 204.725 30.3178L208.448 29.0752V29.0858Z" fill="#007C99" fill-opacity="0.5"/>
<path d="M244.972 23.8919C244.972 24.1043 244.813 24.2742 244.601 24.2742L238.959 24.391C238.747 24.391 238.577 24.2317 238.577 24.0193V23.9874C238.577 23.775 238.736 23.6051 238.948 23.6051L244.59 23.4883C244.802 23.4883 244.972 23.6476 244.972 23.86V23.8919Z" fill="#007C99" fill-opacity="0.5"/>
<path d="M254.952 24.0527C254.952 24.2863 254.75 24.4775 254.517 24.4669L248.928 24.3819C248.695 24.3819 248.515 24.1801 248.515 23.9465V23.9146C248.515 23.681 248.716 23.4898 248.949 23.5004L254.538 23.5854C254.772 23.5854 254.952 23.7872 254.952 24.0208V24.0527Z" fill="#007C99" fill-opacity="0.5"/>
<path d="M235.109 24.2328C235.12 24.4239 234.972 24.5939 234.781 24.6151L229.139 25.0612C228.948 25.0718 228.778 24.9337 228.757 24.7319V24.7001C228.736 24.5089 228.884 24.339 229.075 24.3177L234.717 23.8717C234.908 23.861 235.078 23.9991 235.099 24.2009V24.2328H235.109Z" fill="#007C99" fill-opacity="0.5"/>
<path d="M264.825 24.7419C264.804 25.018 264.57 25.2198 264.295 25.2092L258.971 24.8587C258.695 24.8375 258.494 24.6038 258.504 24.3277V24.2958C258.526 24.0197 258.759 23.8179 259.035 23.8285L264.358 24.179C264.634 24.2002 264.836 24.4339 264.825 24.71V24.7419Z" fill="#007C99" fill-opacity="0.5"/>
<path d="M274.73 25.6234C274.709 25.8677 274.497 26.0482 274.253 26.0376L268.749 25.6022C268.505 25.5809 268.325 25.3685 268.335 25.1242V25.0924C268.357 24.8481 268.579 24.6676 268.813 24.6782L274.317 25.1136C274.561 25.1349 274.741 25.3473 274.73 25.5915V25.6234Z" fill="#007C99" fill-opacity="0.5"/>
<path d="M224.991 25.2205C225.023 25.4223 224.896 25.6135 224.694 25.6454L219.466 26.5375C219.265 26.5693 219.074 26.4313 219.042 26.2401V26.2082C218.999 26.0064 219.137 25.8153 219.339 25.7834L224.567 24.8913C224.769 24.8594 224.96 24.9975 224.991 25.1887V25.2205Z" fill="#007C99" fill-opacity="0.5"/>
<path d="M284.529 27.0243C284.498 27.2579 284.285 27.4278 284.052 27.3854L278.612 26.6419C278.378 26.6101 278.219 26.3977 278.251 26.164V26.1215C278.294 25.8879 278.506 25.718 278.739 25.7604L284.179 26.5039C284.413 26.5357 284.572 26.7481 284.54 26.9818V27.0243H284.529Z" fill="#007C99" fill-opacity="0.5"/>
<path d="M215.553 27.0895C215.606 27.2912 215.489 27.5037 215.288 27.5568L210.834 28.7781C210.632 28.8312 210.42 28.7144 210.367 28.5126V28.4807C210.303 28.2789 210.42 28.0665 210.632 28.0134L215.086 26.7921C215.288 26.739 215.5 26.8558 215.553 27.0576V27.0895Z" fill="#007C99" fill-opacity="0.5"/>
<path d="M294.255 28.481C294.223 28.7253 293.99 28.8846 293.756 28.8421L288.348 27.9819C288.114 27.9394 287.945 27.727 287.987 27.4827V27.4402C288.029 27.1959 288.252 27.0366 288.496 27.0791L293.905 27.9394C294.138 27.9819 294.308 28.1943 294.265 28.4385V28.481H294.255Z" fill="#007C99" fill-opacity="0.5"/>
<path d="M145.368 34.5867C145.368 34.6823 145.304 34.7779 145.198 34.7885L144.636 34.831C144.541 34.831 144.445 34.7567 144.435 34.6611L144 28.8517C144 28.7561 144.064 28.6605 144.17 28.6499L144.732 28.6074C144.827 28.6074 144.923 28.6818 144.933 28.7773L145.368 34.5867Z" fill="#007C99" fill-opacity="0.5"/>
<path d="M303.905 29.872C303.874 30.095 303.662 30.2544 303.439 30.2225L298.062 29.4684C297.839 29.4366 297.68 29.2242 297.712 29.0011V28.9268C297.754 28.7038 297.967 28.5445 298.189 28.5763L303.566 29.3304C303.789 29.3622 303.948 29.5746 303.916 29.7977V29.872H303.905Z" fill="#007C99" fill-opacity="0.5"/>
<path d="M313.375 31.2838C313.343 31.5174 313.121 31.6767 312.887 31.6449L307.617 30.8377C307.383 30.8058 307.224 30.5934 307.256 30.3492L307.277 30.2323C307.309 29.9987 307.532 29.8394 307.765 29.8712L313.036 30.6784C313.269 30.7103 313.428 30.9227 313.396 31.1669L313.375 31.2838Z" fill="#007C99" fill-opacity="0.5"/>
<path d="M323.227 32.5915C323.195 32.8252 322.973 32.9951 322.739 32.9632L317.458 32.2411C317.225 32.2092 317.055 31.9968 317.087 31.7525L317.108 31.5826C317.14 31.3489 317.363 31.179 317.596 31.2109L322.877 31.9331C323.111 31.9649 323.28 32.1773 323.248 32.4216L323.227 32.5915Z" fill="#007C99" fill-opacity="0.5"/>
<path d="M201.798 31.9423C201.883 32.1229 201.798 32.3353 201.618 32.4202L196.495 34.7674C196.315 34.8523 196.103 34.7674 196.018 34.5868L195.986 34.5125C195.901 34.3319 195.986 34.1195 196.167 34.0345L201.289 31.6874C201.469 31.6025 201.681 31.6874 201.766 31.868L201.798 31.9423Z" fill="#007C99" fill-opacity="0.5"/>
<path d="M333.399 33.4195C333.378 33.6637 333.155 33.8549 332.911 33.823L327.12 33.3133C326.877 33.292 326.696 33.069 326.718 32.8247V32.7822C326.739 32.538 326.961 32.3574 327.205 32.3787L332.996 32.8884C333.24 32.9097 333.42 33.1327 333.399 33.377V33.4195Z" fill="#007C99" fill-opacity="0.5"/>
<path d="M193.315 36.3597C193.378 36.4446 193.347 36.5508 193.262 36.6145L188.108 40.0449C188.023 40.098 187.906 40.0768 187.853 39.9918L187.641 39.6732C187.577 39.5883 187.609 39.4714 187.694 39.4183L192.848 35.9879C192.933 35.9348 193.05 35.9561 193.103 36.041L193.315 36.3597Z" fill="#007C99" fill-opacity="0.5"/>
<path d="M146.036 37.4651C146.036 37.4651 146.153 37.4439 146.195 37.497L150.109 43.1364C150.162 43.2214 150.077 43.3913 149.907 43.5082H149.896C149.716 43.6356 149.536 43.6675 149.472 43.5825L145.559 37.9431C145.559 37.9431 145.538 37.8262 145.591 37.7837L146.047 37.4651H146.036Z" fill="#007C99" fill-opacity="0.5"/>
<path d="M209.784 45.0704C209.264 45.9094 208.681 46.7272 208.045 47.5131C207.737 47.8848 207.483 48.0653 207.281 48.0547C206.486 48.0335 206.38 47.7573 206.973 47.2157C207.737 46.5254 208.437 45.6651 209.084 44.6243C209.731 43.5941 210.187 42.5746 210.473 41.5869C210.696 40.8116 210.993 40.7797 211.364 41.4913C211.459 41.6718 211.417 41.9798 211.205 42.4153C210.791 43.3286 210.325 44.2101 209.794 45.0704H209.784Z" fill="#007C99" fill-opacity="0.5"/>
<path d="M182.274 46.482C182.168 46.6201 181.977 46.6413 181.839 46.5245L181.733 46.4395C181.596 46.3333 181.574 46.1315 181.691 46.0041L185.265 41.5753C185.371 41.4373 185.562 41.416 185.7 41.5329L185.806 41.6178C185.944 41.724 185.965 41.9258 185.848 42.0533L182.274 46.482Z" fill="#007C99" fill-opacity="0.5"/>
<path d="M157.914 50.0402C157.829 50.1464 157.681 50.1783 157.564 50.0933L152.155 46.1213C152.039 46.0363 152.018 45.8876 152.102 45.7708L152.219 45.6115C152.304 45.5053 152.452 45.4734 152.569 45.5584L157.978 49.5304C158.094 49.6154 158.116 49.7641 158.031 49.8809L157.914 50.0402Z" fill="#007C99" fill-opacity="0.5"/>
<path d="M364.789 59.7038L113.041 30.2807C102.287 29.0238 92.5459 36.7366 91.2908 47.506L72.5071 208.719C71.252 219.488 78.9537 229.244 89.7077 230.501L341.456 259.924C352.21 261.181 361.951 253.468 363.206 242.698L381.99 81.4854C383.245 70.716 375.543 60.9607 364.789 59.7038Z" fill="#D7F0F9"/>
<path d="M380.136 97.4533L381.99 81.4991C383.245 70.7297 375.543 60.9744 364.789 59.7174L113.041 30.2944C102.287 29.0375 92.5458 36.7503 91.2907 47.5197L89.4365 63.4739L380.15 97.4533H380.136Z" fill="#0582C1"/>
<path d="M130.156 161.084L162.062 104.78C164.101 101.167 168.109 99.1383 172.217 99.624C177.865 100.281 181.915 105.409 181.259 111.079L174.627 168.04L174.912 168.068C178.834 168.525 181.63 172.082 181.174 175.995C180.717 179.923 177.166 182.723 173.258 182.266L172.973 182.237L171.76 192.607C171.261 196.849 167.439 199.877 163.203 199.377C158.967 198.877 155.943 195.049 156.442 190.807L157.655 180.437L134.678 177.752C130.755 177.295 127.946 173.739 128.402 169.811L129.015 164.583C129.158 163.355 129.543 162.155 130.156 161.084ZM159.423 165.297L163.545 129.975C163.574 129.733 163.245 129.618 163.117 129.833L144.262 163.155C143.934 163.741 144.305 164.483 144.975 164.555L158.382 166.126C158.895 166.183 159.366 165.812 159.423 165.297Z" fill="#79C9E8"/>
<path d="M270.999 177.553L302.904 121.249C304.944 117.635 308.952 115.607 313.059 116.093C318.722 116.75 322.758 121.877 322.102 127.548L315.47 184.509L315.755 184.537C319.677 184.994 322.473 188.551 322.016 192.464C321.56 196.392 318.009 199.192 314.101 198.734L313.815 198.706L312.603 209.075C312.104 213.317 308.281 216.345 304.045 215.846C299.81 215.346 296.786 211.518 297.285 207.276L298.497 196.906L275.52 194.221C271.598 193.764 268.788 190.207 269.245 186.28L269.858 181.052C270.001 179.824 270.386 178.624 270.999 177.553ZM300.266 181.766L304.388 146.444C304.416 146.201 304.088 146.087 303.96 146.301L285.105 179.624C284.777 180.209 285.148 180.952 285.818 181.023L299.225 182.595C299.738 182.652 300.209 182.28 300.266 181.766Z" fill="#79C9E8"/>
<path d="M207.687 127.962C209.542 112.051 218.969 103.938 234.301 105.724C249.619 107.509 256.936 117.593 255.082 133.504L249.049 185.223C247.195 201.134 237.767 209.247 222.435 207.462C207.117 205.676 199.8 195.593 201.654 179.681L207.687 127.962ZM217.158 182.509C216.331 189.608 219.14 192.679 224.104 193.264C229.067 193.85 232.504 191.508 233.332 184.409L239.593 130.705C240.42 123.606 237.61 120.535 232.647 119.949C227.684 119.364 224.246 121.706 223.419 128.805L217.158 182.509Z" fill="#79C9E8"/>
<path d="M119.102 52.5631C118.76 55.4625 116.15 57.5336 113.255 57.1908C110.36 56.848 108.291 54.2342 108.634 51.3347C108.976 48.4353 111.586 46.3642 114.481 46.707C117.377 47.0498 119.445 49.6636 119.102 52.5631Z" fill="white"/>
<path d="M144.361 55.5201C144.019 58.4196 141.409 60.4906 138.514 60.1478C135.618 59.805 133.55 57.1912 133.893 54.2918C134.235 51.3923 136.845 49.3213 139.74 49.6641C142.635 50.0068 144.704 52.6206 144.361 55.5201Z" fill="#79C9E8"/>
<path d="M170.533 58.5767C170.191 61.4762 167.581 63.5472 164.685 63.2045C161.79 62.8617 159.722 60.2479 160.064 57.3484C160.407 54.4489 163.017 52.3779 165.912 52.7207C168.807 53.0635 170.875 55.6773 170.533 58.5767Z" fill="#FFBF4D"/>
<path d="M99.5 179C106.7 180.2 108.167 186.5 108 189.5L113.5 284.5L65.5 299.5L81.5 207.5C84.5 197.5 92.3 177.8 99.5 179Z" fill="white"/>
<path d="M124.963 130.633L122.225 133.475C122.097 133.618 121.925 133.675 121.74 133.661C117.447 133.218 114.709 133.004 113.511 133.018C109.489 133.089 107.663 133.732 106.465 137.646C105.566 140.588 104.283 142.588 102.3 145.987C101.844 146.758 101.516 147.544 100.646 147.901C99.7615 148.272 98.7774 147.658 98.7203 146.701C98.6205 145.187 98.9057 142.173 97.18 140.916C96.3099 140.288 95.4257 140.188 94.5129 140.631C91.5891 142.031 91.2895 146.473 91.5463 149.543C91.6176 150.443 92.2737 150.886 92.9725 151.129C93.3433 151.257 93.5002 151.686 93.3006 152.029C91.9028 154.271 89.7492 155.557 86.8254 155.899C85.613 155.442 84.9998 154.3 84.957 152.5C84.8999 149.315 85.0568 145.63 84.7288 142.345C84.4293 139.46 83.6306 135.018 84.1012 132.075C84.472 129.747 86.0694 123.548 89.0788 123.334C89.307 123.32 89.3498 123.22 89.2215 123.048C88.7793 122.448 87.4814 122.277 87.1391 122.106C87.025 122.049 86.9395 121.949 86.9537 121.863C86.9537 121.806 86.9823 121.763 87.0393 121.72C87.0821 121.691 87.1249 121.663 87.1677 121.677C87.838 121.734 88.437 121.877 88.979 122.12C89.1929 122.206 89.4211 122.034 89.3926 121.806C89.2785 121.063 89.2928 120.592 89.4211 120.392C89.792 119.806 90.0202 119.878 90.1057 120.635L90.2198 121.763C90.2484 122.063 90.3767 122.106 90.5907 121.891C95.7395 116.735 102.785 116.464 108.932 119.092C111.942 120.377 115.564 121.72 118.745 121.563C121.868 121.392 128.13 116.107 128.9 122.063C129.157 124.091 128.814 125.819 127.83 127.262C127.146 128.29 126.19 129.419 124.978 130.661" fill="#2C3031"/>
<path d="M125.562 130.133L125.455 130.723C124.059 138.376 122.891 145.841 121.973 153.14L121.595 156.258C121.334 158.476 120.799 160.987 120.025 163.815V163.817C119.139 167.021 117.251 168.71 114.881 169.479C112.562 170.232 109.817 170.095 107.189 169.767C107.096 169.758 107.053 169.769 107.018 169.786L106.814 169.896L106.337 170.15L106.12 169.654C106.111 169.633 106.101 169.618 106.094 169.604C101.367 169.236 97.8549 167.235 94.4639 164.4C96.0388 168.271 99.2472 172.076 101.991 175.209H101.99C102.166 175.405 102.488 175.869 102.944 176.562L103.067 176.734C103.354 177.109 103.637 177.284 103.91 177.331L104.466 177.427L104.305 177.967C103.936 179.202 103.583 180.494 103.257 181.841C102.478 185.062 101.596 187.39 100.42 190.12L100.416 190.13C100.043 190.948 98.9183 191.143 98.3291 190.405L98.3281 190.404C96.6822 188.333 94.6948 186.3 92.3496 184.319L92.2393 184.226L92.1963 184.088C90.3067 178.117 86.5547 173.103 80.9268 169.031L80.5986 168.794L80.7627 168.424L86.3818 155.712L86.4971 155.45L86.7812 155.417C89.5689 155.09 91.5745 153.879 92.8818 151.789C92.9242 151.714 92.8904 151.639 92.8223 151.615V151.614C92.0424 151.348 91.1428 150.796 91.0625 149.599L91.0615 149.6C90.9308 148.037 90.9392 146.099 91.3652 144.356C91.7897 142.621 92.6542 140.987 94.3105 140.194C94.8395 139.938 95.3824 139.83 95.9307 139.89C96.4772 139.949 96.9962 140.171 97.4863 140.525L97.4883 140.526C98.5197 141.278 98.9062 142.519 99.0684 143.656C99.1508 144.234 99.1789 144.815 99.1934 145.336C99.2008 145.603 99.205 145.848 99.21 146.072L99.2334 146.683V146.686C99.27 147.299 99.9001 147.692 100.466 147.454L100.47 147.453L100.591 147.397C101.174 147.104 101.426 146.545 101.88 145.753L101.882 145.749C103.876 142.329 105.109 140.401 106.001 137.513C106.617 135.495 107.426 134.215 108.688 133.465C109.921 132.732 111.503 132.561 113.513 132.532H113.518C114.756 132.503 117.524 132.721 121.795 133.176C121.798 133.176 121.802 133.176 121.805 133.176L122.517 130.504L122.616 130.133H125.562Z" fill="white" stroke="#007C99"/>
<path d="M107 168.881L104.04 178C103.503 177.891 103.043 177.533 102.644 176.926C102.138 176.148 101.816 175.681 101.662 175.51C98.472 171.837 94.6375 167.215 93.0884 162.531C92.889 161.924 93.027 161.847 93.5025 162.251C97.383 165.675 101.233 168.103 106.586 168.507C106.77 168.507 106.893 168.647 107 168.881Z" fill="#959595"/>
<path d="M81.2195 168.611C86.9388 172.739 90.7612 177.838 92.6724 183.922C93.8847 188.65 94.555 192.692 94.6691 196.049C94.9401 204.59 94.2698 213.088 92.6581 221.558C91.5884 227.143 90.4759 232.728 89.3064 238.298C86.1829 253.281 82.004 267.407 76.7982 280.676C75.5288 283.904 74.2452 287.232 72.9615 290.66C72.6192 291.374 72.1628 292.588 71.5923 294.273C70.6367 297.173 68.8539 301.5 66.2296 307.257C65.6163 308.599 64.9317 309.799 64.1615 310.884L58.0429 302.386C57.7291 301.958 57.5437 301.458 57.4867 300.943C57.1444 297.93 57.287 294.987 57.344 291.945C57.6293 279.333 58.3139 267.907 59.4121 257.68C59.7829 254.338 60.382 251.181 61.4089 248.353C62.4928 245.354 63.3628 242.854 64.0189 240.84C64.076 240.64 63.9761 240.426 63.7622 240.369C57.3868 238.584 51.1684 236.241 45.1068 233.327C44.9214 233.242 44.8073 233.299 44.7645 233.499C44.1797 236.355 43.4523 239.669 42.5966 243.411C42.1116 245.539 41.7836 248.425 41.8264 250.439C42.1402 265.821 43.5949 281.49 46.205 297.458C46.7612 300.815 46.8468 303.557 46.4902 305.685C46.0909 308.085 46.0766 310.642 46.4475 313.341C46.4617 313.484 46.4047 313.57 46.2763 313.598C44.3937 312.756 42.0403 312.141 40.5142 311.441C27.7207 305.614 29.147 292.216 30.9298 280.633C31.7856 275.077 33.3687 267.207 35.6792 256.994C36.1214 255.023 37.7473 247.996 40.5428 235.884C41.9833 229.642 43.6235 221.373 45.4348 213.988C47.4031 206.004 50.227 198.348 53.921 191.021C58.6562 181.637 65.7447 174.467 75.1865 169.482C77.3401 168.354 79.3369 168.054 81.2195 168.597M85.3699 193.235C85.4413 193.235 85.4983 193.149 85.4983 193.078C85.3985 191.792 85.2273 190.778 84.9706 190.035C82.4033 182.537 77.1832 177.981 69.3246 176.367C69.2818 176.367 69.2533 176.367 69.239 176.409C69.239 176.409 69.239 176.495 69.3246 176.524C71.7635 177.338 73.8315 178.195 75.5003 179.095C80.9913 182.037 84.0293 187.093 85.2273 193.121C85.2416 193.206 85.2986 193.249 85.3842 193.235M84.3573 201.748C84.4144 201.576 84.3288 201.376 84.1576 201.305H84.1434C83.9722 201.233 83.7725 201.305 83.7012 201.491L69.6669 239.069C69.6098 239.241 69.6954 239.441 69.8666 239.512H69.8808C70.052 239.583 70.2516 239.512 70.323 239.326L84.3573 201.748Z" fill="#007C99" fill-opacity="0.5"/>
<path d="M181.272 183.28C179.389 185.051 178.733 186.894 179.29 188.836C179.347 189.022 179.318 189.208 179.233 189.379C178.248 191.293 176.594 193.421 178.149 195.321C178.263 195.478 178.291 195.635 178.206 195.821C177.35 197.72 176.808 199.634 176.565 201.562C176.537 201.734 176.423 201.848 176.252 201.877L171.06 202.377C170.589 202.377 170.604 202.062 171.089 201.405C171.288 201.134 171.431 200.877 171.516 200.62C172.486 197.663 173.356 194.635 174.44 191.736C176.951 185.023 179.247 178.224 181.343 171.311L184.21 171.125C184.852 171.082 185.08 171.368 184.88 171.997L181.272 183.294V183.28Z" fill="#2C3031"/>
<path d="M181.343 171.297C179.247 178.21 176.95 185.008 174.44 191.721C173.356 194.621 172.486 197.649 171.516 200.605C171.431 200.863 171.288 201.12 171.088 201.391C170.603 202.048 170.589 202.377 171.06 202.362C170.575 202.505 170.047 202.548 169.505 202.477C169.306 202.448 169.22 202.348 169.249 202.148C169.534 200.02 169.99 198.12 170.618 196.449C172.343 191.936 173.727 188.108 174.768 184.98C176.266 180.852 177.835 176.524 179.489 171.996C179.717 171.397 180.33 171.168 181.329 171.282L181.343 171.297Z" fill="#50626F"/>
<path d="M85.1989 193.135C84.0009 187.108 80.9629 182.052 75.4719 179.11C73.8031 178.21 71.7351 177.353 69.2962 176.539C69.2249 176.51 69.1963 176.481 69.2106 176.424C69.2106 176.424 69.2534 176.367 69.2962 176.367C77.1691 177.981 82.3892 182.537 84.9422 190.036C85.1989 190.779 85.3701 191.793 85.4699 193.078C85.4699 193.164 85.4128 193.221 85.3415 193.235C85.256 193.235 85.1989 193.207 85.1846 193.121L85.1989 193.135Z" fill="#2C3031"/>
<path d="M111.828 194.42C111.828 197.534 112.17 202.404 112.812 209.032C113.197 212.902 112.926 218.23 113.339 222.686C113.767 227.428 114.224 232.199 114.709 237.012L115.137 241.183C115.293 252.366 116.021 263.279 117.304 273.934C117.675 277.005 118.231 280.533 118.987 284.532C119.044 284.832 119.216 285.046 119.487 285.175C123.837 287.031 128.187 288.76 132.523 290.331C144.218 294.573 153.417 297.987 160.121 300.572C163.415 301.843 166.239 303.128 168.621 304.428C173.499 307.113 177.093 310.384 176.394 316.497C176.137 318.683 175.881 320.682 175.581 322.511C174.996 324.182 174.497 325.824 174.098 327.481C173.37 330.466 173.014 331.98 173 332.023C169.805 343.849 166.382 355.533 162.759 367.045L147.512 414.822C147.455 415.022 147.256 415.136 147.056 415.093L145.459 414.808L129.356 412.165L124.036 411.294C123.637 411.237 123.366 410.88 123.395 410.48C124.35 397.425 126.39 384.999 129.513 373.173C130.141 370.787 131.21 367.145 132.708 362.246C136.331 350.391 138.998 341.521 140.695 335.651C140.895 334.98 141.037 334.308 141.137 333.623C141.166 333.394 141.08 333.28 140.852 333.251L109.018 329.009L104.482 328.195C104.14 328.224 103.926 328.309 103.869 328.467C103.627 328.267 103.413 328.138 103.213 328.095C96.1103 326.638 88.2088 324.653 79.5372 322.111C78.5246 321.811 75.5437 320.725 70.6231 318.84C70.4234 318.768 70.3093 318.84 70.3093 319.054L70.181 321.182C70.1524 321.596 69.9385 321.796 69.5249 321.811L65.3888 321.911C64.9466 321.911 64.7042 321.696 64.6899 321.239L64.6614 319.611C64.6614 319.397 64.5473 319.311 64.3333 319.325L62.0513 319.554C61.0815 317.94 60.6679 315.94 60.7962 313.541C60.8247 312.955 61.0102 312.898 61.3382 313.384C62.0798 314.469 63.2351 314.826 64.804 314.455C64.9894 314.412 65.0607 314.298 65.0037 314.112L64.0909 310.884C64.861 309.799 65.5456 308.599 66.1589 307.256C68.7832 301.5 70.5661 297.172 71.5216 294.273C72.0779 292.588 72.5343 291.373 72.8909 290.659C79.3375 289.531 84.7145 288.417 89.0218 287.303C94.0279 286.017 100.646 284.246 108.875 282.018C109.075 281.961 109.146 281.847 109.103 281.647C107.135 272.406 106.265 262.907 106.493 253.152C106.636 246.925 106.864 241.011 107.149 235.412C107.52 228.485 107.278 220.372 106.921 215.273C106.75 212.774 106.251 205.761 105.467 194.234C105.153 189.65 104.596 185.236 104.012 180.751C103.983 180.508 104.055 180.466 104.24 180.637C108.276 184.536 110.786 189.121 111.756 194.406L111.828 194.42Z" fill="#007C99"/>
<path d="M181.749 183.059C182.814 185.223 182.687 187.532 181.447 189.958C181.398 190.057 181.378 190.154 181.386 190.257H181.385C181.505 191.739 181.263 193.202 180.664 194.641C180.623 194.74 180.62 194.828 180.63 194.87L180.632 194.879C180.676 195.073 180.75 195.423 180.85 195.922H180.849C180.967 196.51 180.85 197.101 180.631 197.646C180.411 198.191 180.076 198.725 179.716 199.218C179.354 199.712 178.953 200.183 178.593 200.601C178.225 201.026 177.911 201.383 177.693 201.675L177.69 201.679C177.261 202.242 176.82 202.873 176.346 203.537C175.875 204.196 175.375 204.881 174.842 205.528C173.784 206.814 172.554 208.008 171.081 208.57L171.079 208.571C169.814 209.047 168.626 209.43 167.574 209.943C166.6 210.418 165.804 210.977 165.255 211.756L165.148 211.915C158.938 221.594 152.371 231.116 145.433 240.48L145.183 240.818L145.157 240.806C142.584 244.382 139.851 247.921 136.93 251.457L136.929 251.458C135.492 253.185 134.205 254.479 133.072 255.3L133.07 255.301C130.1 257.425 126.111 256.184 123.659 253.98H123.658C120.035 250.715 117.045 246.514 114.696 241.392L114.661 241.316L114.653 241.233L114.226 237.063L114.193 236.751L114.461 236.586C115.434 235.987 116.188 235.409 116.756 234.868L119.471 232.232C122.184 229.607 124.889 227.017 127.586 224.466L127.915 224.154L128.258 224.451C129.291 225.348 130.126 226.307 130.747 227.315L140.958 218.073L140.965 218.067H140.966C145.993 213.689 150.992 209.082 155.948 204.219C156.634 203.546 157.034 203.084 157.197 202.815L157.199 202.813C160.537 197.399 163.292 192.996 165.491 189.605C166.089 188.67 166.924 187.841 167.977 187.099L167.978 187.098C170.082 185.624 172.329 184.763 174.741 184.496L175.517 184.41L175.271 185.15C174.227 188.302 172.841 192.138 171.113 196.642C170.51 198.212 170.073 199.999 169.803 202.006C170.222 202.03 170.598 201.999 170.947 201.896L170.993 201.883L171.04 201.878L176.113 201.389C176.369 199.434 176.918 197.524 177.775 195.619C177.774 195.618 177.774 195.616 177.773 195.614C176.869 194.493 176.915 193.293 177.287 192.189C177.471 191.643 177.738 191.108 178.012 190.603C178.298 190.074 178.562 189.631 178.814 189.151C178.853 189.074 178.852 189.022 178.84 188.982L178.837 188.973C178.214 186.798 178.984 184.772 180.958 182.915L181.45 182.452L181.749 183.059Z" fill="white" stroke="#007C99"/>
<path d="M111.827 194.421C113.396 199.805 115.692 204.733 118.702 209.203C121.697 213.646 126.033 218.016 129.684 222.401C129.912 222.687 129.884 223.101 129.613 223.329L127.915 224.815C124.321 228.214 120.713 231.685 117.09 235.213C116.491 235.784 115.707 236.384 114.708 236.998C114.223 232.199 113.767 227.414 113.339 222.672C112.925 218.216 113.196 212.889 112.811 209.018C112.155 202.39 111.827 197.506 111.827 194.406V194.421Z" fill="#007C99" fill-opacity="0.2"/>
<path d="M70.3094 239.355C70.2524 239.541 70.0527 239.612 69.8673 239.555H69.853C69.6819 239.484 69.5963 239.284 69.6533 239.112L83.6877 201.534C83.759 201.348 83.9444 201.277 84.1298 201.334H84.1441C84.3152 201.405 84.4008 201.605 84.3438 201.776L70.3094 239.355Z" fill="#2C3031"/>
<path d="M46.291 314.313L45.8164 314.41C45.8102 314.4 45.8055 314.392 45.8027 314.387C45.7891 314.361 45.7814 314.34 45.7793 314.334C45.7826 314.345 45.7881 314.367 45.8018 314.422L46.6045 318.336L42.1426 318.185L42.1348 318.184H42.126C41.8366 318.184 41.516 318.312 41.3213 318.592H41.3203C41.3178 318.595 41.3159 318.599 41.3135 318.603C41.3126 318.604 41.3114 318.605 41.3105 318.606H41.3115C41.1465 318.84 41.0365 319.102 41.0303 319.391C41.024 319.687 41.1274 319.954 41.2871 320.184L41.4951 320.482L41.8428 320.376C43.177 319.971 44.5823 319.889 46.0361 320.134L46.0488 320.136C46.3192 320.174 46.5804 320.152 46.8545 320.085L46.8555 320.086C46.8568 320.086 46.858 320.084 46.8594 320.084C46.8622 320.083 46.8653 320.084 46.8682 320.083L46.8672 320.082C47.0098 320.049 47.129 319.987 47.2314 319.913L47.4102 320.161L47.4121 320.163C47.5659 320.375 47.7668 320.559 48.0176 320.686V320.687C49.4274 321.403 50.5983 321.959 51.5303 322.352C52.4488 322.738 53.1771 322.984 53.6846 323.051H53.6885C56.2437 323.369 58.9967 323.469 61.9609 323.325H61.9688L61.9766 323.324C62.6143 323.273 63.0909 322.701 62.9863 322.047L62.6025 319.481L62.5879 319.383L62.5361 319.298L62.3721 319.011C61.6483 317.675 61.2971 316.051 61.333 314.109C61.7044 314.507 62.1508 314.791 62.6709 314.95C63.3552 315.16 64.1269 315.141 64.9639 314.944L64.9648 314.945C64.9673 314.945 64.9701 314.943 64.9727 314.942H64.9756L64.9746 314.941C65.1411 314.904 65.3628 314.813 65.4922 314.583C65.5891 314.411 65.5924 314.235 65.5684 314.094L65.5381 313.967L64.6279 310.749L64.4092 310.811L64.6094 310.69L64.5947 310.662L64.4141 310.731L64.5674 310.622L58.4521 302.129H58.4531C58.1958 301.761 58.0303 301.354 57.9834 300.919V300.916C57.646 297.945 57.7863 295.048 57.8438 291.985C58.1145 279.372 58.8128 267.974 59.9092 257.765C60.2774 254.446 60.8847 251.33 61.8799 248.551L61.8789 248.55C62.9633 245.549 63.8359 243.045 64.4941 241.024L64.5 241.007C64.6297 240.552 64.3745 240.054 63.8994 239.918L63.8975 239.917L62.709 239.577C57.1723 237.961 51.7551 235.92 46.457 233.443L45.3232 232.906L45.3164 232.903C45.1684 232.835 44.9159 232.76 44.6582 232.889C44.4008 233.018 44.3095 233.265 44.2754 233.424L44.2744 233.428C43.6907 236.279 42.9648 239.575 42.1094 243.33C41.6475 245.357 41.3246 248.056 41.3223 250.083L41.3262 250.479C41.6262 265.886 43.0976 281.577 45.7109 297.566V297.567C46.2488 300.898 46.3408 303.58 45.9971 305.632V305.633C45.6007 308.015 45.5768 310.54 45.9199 313.194L45.8643 313.207L45.79 313.51L45.6475 314.095C45.6456 314.103 45.6446 314.11 45.6436 314.115L46.2754 314.255C46.2798 314.272 46.2856 314.292 46.291 314.313ZM46.291 314.313L45.8281 314.429C45.8422 314.449 45.8615 314.475 45.8877 314.501C45.9218 314.535 45.987 314.584 46.0791 314.614C46.1081 314.622 46.1438 314.63 46.1855 314.631C46.2405 314.632 46.296 314.621 46.3496 314.602L46.291 314.313Z" fill="white" stroke="#007C99"/>
<path d="M46.1337 314.198C46.148 314.112 46.1908 314.098 46.2336 314.127C46.2336 314.127 46.2621 314.198 46.2906 314.298L47.2034 318.754C47.2034 318.754 47.1749 318.84 47.1321 318.84L42.126 318.669C41.9691 318.669 41.8122 318.74 41.7266 318.869C41.4699 319.226 41.4699 319.568 41.6981 319.883V321.268C41.7124 321.468 41.6125 321.582 41.4128 321.625C39.6586 321.939 37.9185 321.925 36.1785 321.554C35.9788 321.511 35.8647 321.382 35.8362 321.168L35.665 319.554L35.8362 314.926C35.8505 314.527 36.1928 314.198 36.5921 314.198H46.1337Z" fill="#3C454C"/>
<path d="M103.912 328.452C105.794 331.837 106.736 335.694 106.75 339.993C106.821 358.59 106.836 383.014 106.793 413.279C106.793 413.737 106.75 414.065 106.664 414.265C104.154 414.208 101.644 414.179 99.148 414.151C87.0819 414.008 79.1234 413.951 75.2725 413.965C59.6408 414.022 40.7286 414.036 18.5361 414.022C12.1465 414.022 6.41293 414.222 0.394141 414.222C0.208728 414.222 0.0661023 414.079 0.0661023 413.894L0.137415 359.932C-0.00521043 352.934 -0.0337355 346.892 0.0375772 341.821C0.0946274 338.551 0.337091 333.494 1.97728 330.452C7.42557 320.311 18.0084 319.083 28.3345 319.026L35.6511 319.554L35.8223 321.168C35.8508 321.382 35.9649 321.511 36.1646 321.554C37.9046 321.925 39.6447 321.954 41.399 321.625C41.5986 321.582 41.6985 321.468 41.6985 321.268V319.883C43.0962 319.468 44.5795 319.383 46.1056 319.625C46.3053 319.654 46.5192 319.64 46.7331 319.583C46.8472 319.554 46.9613 319.483 47.0469 319.383C47.2038 319.197 47.3464 319.197 47.4748 319.397L47.8028 319.854C47.9169 320.011 48.0596 320.14 48.2307 320.225C51.0404 321.654 52.866 322.425 53.7361 322.539C56.2605 322.853 58.9847 322.953 61.9228 322.811C62.2793 322.796 62.536 322.468 62.479 322.111L62.0939 319.54L64.3759 319.311C64.5899 319.297 64.6897 319.383 64.704 319.597L64.7325 321.225C64.7325 321.682 64.9749 321.896 65.4313 321.896L69.5675 321.796C69.9811 321.796 70.195 321.582 70.2236 321.168L70.3519 319.04C70.3519 318.826 70.466 318.754 70.6657 318.826C75.6005 320.711 78.5671 321.796 79.5798 322.096C88.2657 324.625 96.1529 326.624 103.256 328.081C103.455 328.124 103.669 328.238 103.912 328.452ZM77.1124 323.096C77.1124 322.982 77.0268 322.896 76.9127 322.911L70.9367 323.011C70.8368 323.011 70.7513 323.096 70.7513 323.21V323.296C70.7513 323.41 70.8368 323.496 70.951 323.482L76.927 323.382C77.0268 323.382 77.1124 323.296 77.1124 323.182V323.096ZM50.9691 323.71C50.9691 323.596 50.8693 323.51 50.7552 323.51L45.3354 323.696C45.2213 323.696 45.1357 323.796 45.1357 323.91C45.1357 324.039 45.2356 324.125 45.3497 324.125L50.7694 323.939C50.8835 323.939 50.9691 323.839 50.9691 323.725M58.8706 323.796C58.8706 323.625 57.7153 323.496 56.2891 323.51C54.8628 323.51 53.7075 323.653 53.7075 323.825C53.7075 323.996 54.8628 324.125 56.2891 324.11C57.7153 324.11 58.8706 323.968 58.8706 323.796ZM26.9082 323.839C26.9082 323.739 26.8226 323.668 26.7371 323.668L21.0463 323.725C20.9465 323.725 20.8752 323.796 20.8752 323.896V323.925C20.8752 324.025 20.9607 324.096 21.0606 324.096L26.7513 324.039C26.8512 324.039 26.9225 323.968 26.9225 323.868V323.839M36.0933 323.81C36.0933 323.739 36.0362 323.668 35.9507 323.682L29.8606 323.739C29.7892 323.739 29.7322 323.81 29.7322 323.882C29.7322 323.953 29.7892 324.025 29.8748 324.01L35.9649 323.953C36.0362 323.953 36.0933 323.882 36.0933 323.81ZM43.4955 323.81C43.4955 323.725 43.4385 323.668 43.3529 323.668L37.6622 323.625C37.5766 323.625 37.5195 323.696 37.5195 323.768V323.839C37.5195 323.925 37.5766 323.982 37.6622 323.982L43.3529 324.025C43.4385 324.025 43.4955 323.953 43.4955 323.882V323.81ZM18.0512 323.739L12.7455 324.639L12.774 324.824C12.7883 324.939 12.8596 325.01 12.9167 324.996L17.9941 324.153C17.9941 324.153 18.1082 324.039 18.0797 323.939L18.0512 323.753M6.95491 328.31C6.14195 329.081 5.55718 329.738 5.18636 330.266C5.12931 330.352 5.14357 330.395 5.25767 330.395C5.32898 330.395 5.40029 330.352 5.47161 330.281C5.98506 329.638 6.5413 329.024 7.12606 328.467C7.71083 327.91 8.33838 327.381 9.00872 326.896C9.09429 326.838 9.12282 326.767 9.13708 326.696C9.13708 326.581 9.09429 326.553 9.00872 326.61C8.46674 326.967 7.78214 327.524 6.96917 328.295M101.744 331.695C101.715 331.623 101.615 331.58 101.544 331.609L101.387 331.68C101.302 331.709 101.273 331.809 101.302 331.88L103.027 335.908C103.056 335.98 103.156 336.022 103.227 335.994L103.384 335.922C103.47 335.894 103.498 335.794 103.47 335.722L101.744 331.695ZM3.63174 333.409C3.67453 333.309 3.63174 333.194 3.54616 333.152H3.5319C3.44633 333.094 3.33222 333.137 3.27517 333.223L1.29268 337.136C1.24989 337.236 1.29268 337.351 1.37826 337.394H1.39252C1.47809 337.451 1.59219 337.408 1.64924 337.322L3.63174 333.409ZM104.04 339.122C104.04 338.993 103.94 338.893 103.826 338.893H103.798C103.669 338.893 103.569 338.993 103.569 339.108L103.484 344.092C103.484 344.221 103.584 344.321 103.698 344.321H103.726C103.84 344.321 103.954 344.221 103.954 344.107L104.04 339.122ZM103.983 347.42C103.983 347.292 103.869 347.177 103.741 347.177C103.612 347.177 103.498 347.292 103.498 347.42V352.834C103.498 352.962 103.598 353.076 103.726 353.076C103.855 353.076 103.969 352.962 103.969 352.834V347.42M104.012 356.304C104.012 356.19 103.912 356.104 103.812 356.104C103.698 356.104 103.612 356.19 103.612 356.304L103.655 361.489C103.655 361.603 103.755 361.689 103.855 361.689C103.969 361.689 104.054 361.603 104.054 361.489L104.012 356.304ZM104.012 364.66C104.012 364.56 103.926 364.474 103.826 364.474C103.726 364.474 103.641 364.56 103.641 364.66L103.598 369.816C103.598 369.916 103.683 370.002 103.783 370.002C103.883 370.002 103.969 369.916 103.969 369.816L104.012 364.66ZM104.012 373.073C104.012 372.987 103.94 372.916 103.855 372.916H103.826C103.741 372.916 103.669 372.987 103.669 373.073V378.386C103.683 378.472 103.755 378.543 103.84 378.543H103.869C103.954 378.543 104.026 378.472 104.026 378.386V373.073M103.84 387.384C103.94 387.384 104.012 385.956 103.997 384.199C103.997 382.442 103.897 381.014 103.798 381.014C103.698 381.014 103.626 382.442 103.641 384.199C103.641 385.956 103.741 387.384 103.84 387.384ZM104.04 389.77C104.04 389.684 103.969 389.612 103.883 389.612C103.798 389.612 103.726 389.684 103.726 389.77V395.283C103.741 395.368 103.812 395.44 103.912 395.44C103.997 395.44 104.069 395.368 104.069 395.283V389.77M104.097 398.396C104.097 398.311 104.026 398.225 103.94 398.225H103.912C103.826 398.225 103.755 398.296 103.741 398.382L103.698 404.038C103.698 404.124 103.769 404.21 103.855 404.21H103.883C103.969 404.21 104.04 404.138 104.054 404.053L104.097 398.396ZM104.14 407.438C104.14 407.323 104.04 407.223 103.926 407.223H103.897C103.783 407.223 103.683 407.323 103.683 407.438V412.78C103.683 412.894 103.783 412.994 103.897 412.994H103.926C104.04 412.994 104.14 412.894 104.14 412.78V407.438Z" fill="#007C99" fill-opacity="0.5"/>
<path d="M175.61 322.496L177.92 326.995L181.286 333.808C185.765 343.292 190.215 352.805 194.636 362.332C201.867 377.9 208.656 393.597 214.96 409.437C215.103 409.78 214.946 410.165 214.618 410.323L211.566 411.779L198.187 418.607L194.094 420.849C193.894 420.963 193.737 420.921 193.623 420.721L162.773 367.045C166.396 355.518 169.819 343.849 173.014 332.023C173.014 331.98 173.385 330.48 174.112 327.481C174.512 325.838 175.011 324.181 175.595 322.51L175.61 322.496Z" fill="#007C99" fill-opacity="0.5"/>
<path d="M77.1267 323.168C77.1267 323.268 77.0411 323.354 76.9413 323.368L70.9653 323.468C70.8655 323.468 70.7656 323.382 70.7656 323.282V323.196C70.7656 323.096 70.8512 323.011 70.951 322.996L76.927 322.896C77.0269 322.896 77.1267 322.982 77.1267 323.082V323.168Z" fill="white"/>
<path d="M50.9838 323.71C50.9838 323.825 50.8982 323.925 50.7841 323.925L45.3643 324.11C45.2502 324.11 45.1504 324.025 45.1504 323.91C45.1504 323.782 45.236 323.682 45.3501 323.682L50.7698 323.496C50.8839 323.496 50.9838 323.582 50.9838 323.696V323.71Z" fill="white"/>
<path d="M58.8847 323.782C58.8847 323.953 57.7295 324.096 56.3032 324.096C54.8769 324.096 53.7217 323.982 53.7217 323.81C53.7217 323.639 54.8769 323.496 56.3032 323.496C57.7295 323.496 58.8847 323.61 58.8847 323.782Z" fill="white"/>
<path d="M26.9223 323.854C26.9223 323.954 26.8367 324.04 26.7512 324.026L21.0604 324.083C20.9606 324.083 20.875 324.011 20.8893 323.911V323.883C20.8893 323.783 20.9748 323.697 21.0604 323.711L26.7512 323.654C26.851 323.654 26.9366 323.726 26.9223 323.826V323.854Z" fill="white"/>
<path d="M36.0935 323.797C36.0935 323.868 36.0365 323.939 35.9652 323.939L29.875 323.996C29.8037 323.996 29.7324 323.939 29.7324 323.868C29.7324 323.797 29.7895 323.725 29.8608 323.725L35.9509 323.668C36.0222 323.668 36.0935 323.725 36.0935 323.797Z" fill="white"/>
<path d="M43.4955 323.853C43.4955 323.938 43.4242 323.996 43.3529 323.996L37.6622 323.953C37.5766 323.953 37.5195 323.881 37.5195 323.81V323.739C37.5195 323.653 37.5908 323.596 37.6622 323.596L43.3529 323.639C43.4385 323.639 43.4955 323.71 43.4955 323.781V323.853Z" fill="#DDE0E7"/>
<path d="M18.0508 323.711L18.0793 323.911C18.1078 324.011 18.065 324.111 17.9937 324.125L12.9163 324.968C12.9163 324.968 12.7879 324.911 12.7736 324.796L12.7451 324.611L18.0508 323.711Z" fill="white"/>
<path d="M7.11195 328.439C6.52718 328.996 5.97094 329.596 5.45749 330.253C5.40044 330.325 5.31487 330.368 5.24356 330.368C5.12945 330.368 5.11519 330.325 5.17224 330.239C5.54307 329.711 6.12783 329.054 6.9408 328.282C7.75376 327.497 8.4241 326.94 8.98034 326.597C9.06592 326.54 9.12297 326.568 9.1087 326.683C9.1087 326.754 9.06592 326.825 8.98034 326.883C8.31 327.368 7.68245 327.897 7.09769 328.454L7.11195 328.439Z" fill="#DDE0E7"/>
<path d="M104.54 328.182C106.522 331.781 107.506 335.166 107.506 338.337C107.463 362.989 107.478 387.628 107.563 412.28C107.563 415.365 107.649 418.579 106.921 421.179C105.353 426.806 101.63 430.82 95.7539 433.219L94.4988 433.419C94.3134 433.448 94.1565 433.548 94.0567 433.705C93.8713 433.976 93.6716 434.162 93.4576 434.276L88.0664 434.476C88.4087 434.29 88.5799 434.105 88.6084 433.905C98.2356 433.376 105.438 428.449 106.765 418.408C106.879 417.608 106.85 416.451 106.693 414.965C106.593 414.78 106.579 414.537 106.665 414.266C106.75 414.066 106.793 413.737 106.793 413.28C106.836 383 106.822 358.576 106.75 339.994C106.736 335.695 105.795 331.852 103.912 328.453C103.969 328.31 104.183 328.21 104.525 328.182H104.54Z" fill="#2C3031"/>
<path d="M109.075 328.995C110.258 330.852 110.971 332.852 111.2 334.994C111.414 336.937 111.528 338.865 111.542 340.822C111.656 365.231 111.67 389.641 111.57 414.065C111.556 418.336 111.357 421.221 110.971 422.692C110.173 425.763 108.575 428.277 106.165 430.248C105.352 430.905 103.469 431.962 100.503 433.433L95.7676 433.233C101.644 430.833 105.366 426.834 106.935 421.192C107.663 418.593 107.577 415.365 107.577 412.294C107.491 387.641 107.463 363.003 107.52 338.351C107.52 335.18 106.536 331.795 104.553 328.195L109.089 329.009L109.075 328.995Z" fill="#007C99" fill-opacity="0.2"/>
<path d="M103.455 335.695C103.483 335.766 103.455 335.866 103.369 335.895L103.213 335.966C103.141 335.994 103.041 335.966 103.013 335.88L101.287 331.852C101.259 331.781 101.287 331.681 101.373 331.652L101.53 331.581C101.601 331.552 101.701 331.581 101.729 331.667L103.455 335.695Z" fill="white"/>
<path d="M1.63461 337.309C1.59182 337.394 1.47772 337.437 1.37788 337.394H1.36362C1.26378 337.337 1.23526 337.223 1.27804 337.137L3.26054 333.224C3.30332 333.138 3.41743 333.095 3.51726 333.138H3.53153C3.63136 333.195 3.65989 333.309 3.6171 333.395L1.63461 337.309Z" fill="#DDE0E7"/>
<path d="M103.94 344.092C103.94 344.221 103.841 344.306 103.712 344.306H103.684C103.555 344.306 103.47 344.206 103.47 344.078L103.555 339.093C103.555 338.965 103.655 338.879 103.784 338.879H103.812C103.94 338.879 104.026 338.979 104.026 339.107L103.94 344.092Z" fill="white"/>
<path d="M103.955 352.82C103.955 352.949 103.841 353.063 103.712 353.063C103.584 353.063 103.47 352.949 103.47 352.82V347.407C103.47 347.278 103.584 347.164 103.712 347.164C103.841 347.164 103.955 347.278 103.955 347.407V352.82Z" fill="#DDE0E7"/>
<path d="M104.04 361.461C104.04 361.575 103.954 361.661 103.84 361.661C103.726 361.661 103.626 361.575 103.64 361.461L103.598 356.276C103.598 356.162 103.683 356.076 103.797 356.076C103.911 356.076 104.011 356.162 103.997 356.276L104.04 361.461Z" fill="#DDE0E7"/>
<path d="M103.955 369.803C103.955 369.903 103.869 369.989 103.769 369.989C103.67 369.989 103.584 369.903 103.584 369.803L103.627 364.647C103.627 364.547 103.712 364.461 103.812 364.461C103.912 364.461 103.998 364.547 103.998 364.647L103.955 369.803Z" fill="white"/>
<path d="M103.997 378.357C103.997 378.443 103.926 378.514 103.84 378.514H103.811C103.726 378.514 103.655 378.443 103.655 378.357V373.044C103.64 372.958 103.697 372.887 103.783 372.887H103.811C103.897 372.887 103.968 372.958 103.968 373.044V378.357H103.983H103.997Z" fill="white"/>
<path d="M103.812 387.37C103.712 387.37 103.612 385.942 103.612 384.185C103.612 382.428 103.669 381 103.769 381C103.869 381 103.969 382.428 103.969 384.185C103.969 385.942 103.912 387.37 103.812 387.37Z" fill="#DDE0E7"/>
<path d="M104.026 395.27C104.026 395.356 103.954 395.427 103.869 395.427C103.783 395.427 103.712 395.356 103.712 395.27V389.757C103.698 389.671 103.769 389.6 103.854 389.6C103.94 389.6 104.011 389.671 104.011 389.757V395.27H104.026Z" fill="#DDE0E7"/>
<path d="M213.862 433.277C213.377 433.277 213.362 433.177 213.805 432.991C221.264 429.82 229.18 426.221 237.566 422.222C239.006 421.536 241.545 420.008 242.03 418.28C242.073 418.094 242.059 417.908 241.973 417.737C241.103 416.052 237.894 416.237 236.282 416.437C229.051 417.351 221.92 417.923 214.874 418.137C212.107 424.05 207.543 425.993 201.154 423.979C200.098 424.264 199.956 425.136 200.284 426.107C201.068 428.406 201.853 430.706 202.608 432.991C202.651 433.134 202.551 433.277 202.409 433.277H166.054C165.654 433.277 165.298 433.048 165.126 432.706C164.841 432.149 164.371 431.692 163.715 431.334C159.935 429.306 151.762 426.593 146.271 422.879C145.401 422.308 144.674 421.451 143.875 420.722C142.791 421.622 141.622 422.336 140.367 422.893C139.097 423.45 137.785 423.693 136.416 423.622C133.335 423.45 130.739 422.222 128.614 419.937C127.816 419.422 127.16 419.751 126.66 420.922C125.933 422.608 123.608 428.621 124.336 430.306C124.407 430.478 124.535 430.606 124.706 430.692C126.361 431.52 128.543 432.263 131.267 432.948C132.266 433.191 132.251 433.32 131.224 433.32L105.267 434.063C118.017 434.063 130.768 434.091 143.504 434.205C145.187 434.22 146.856 434.32 148.525 434.491C150.564 434.705 155.285 435.048 162.688 435.505C163.886 435.577 164.798 435.177 165.412 434.305C165.526 434.148 165.697 434.063 165.897 434.063" fill="#404040"/>
<path d="M104.012 404.054C104.012 404.14 103.94 404.211 103.841 404.211H103.812C103.712 404.211 103.641 404.14 103.655 404.04L103.698 398.384C103.698 398.298 103.769 398.227 103.869 398.227H103.898C103.997 398.227 104.069 398.298 104.054 398.398L104.012 404.054Z" fill="#DDE0E7"/>
<path d="M104.097 412.765C104.097 412.879 103.997 412.979 103.883 412.979H103.855C103.74 412.979 103.641 412.879 103.641 412.765V407.423C103.641 407.309 103.74 407.209 103.855 407.209H103.883C103.997 407.209 104.097 407.309 104.097 407.423V412.765Z" fill="white"/>
<path d="M211.905 411.398L211.92 411.413L211.925 411.419L211.931 411.425C213.482 413.083 214.628 415.29 215.357 418.007L215.404 418.183L215.327 418.349C213.908 421.381 211.999 423.455 209.568 424.49C207.14 425.524 204.271 425.485 201.003 424.455L200.762 424.379L200.681 424.139C200.465 423.504 200.134 423.039 199.703 422.725L199.697 422.721L199.691 422.716C199.517 422.58 199.348 422.396 199.237 422.174V422.173L198.383 420.491L198.382 420.488C198.26 420.244 198.195 419.969 198.216 419.672C198.232 419.395 198.131 419.17 197.875 418.98L197.228 418.5L197.945 418.134L211.324 411.307L211.648 411.141L211.905 411.398Z" fill="white" stroke="#007C99"/>
<path d="M145.987 414.859L145.97 414.923L144.373 420.865L144.331 421.019L144.209 421.12C143.088 422.05 141.879 422.788 140.584 423.363L140.582 423.364C139.242 423.952 137.853 424.209 136.404 424.134H136.402C133.191 423.955 130.474 422.668 128.263 420.29L128.109 420.125L128.131 419.901L128.887 412.089L128.938 411.557L129.466 411.644L145.568 414.286L145.987 414.354V414.859Z" fill="white" stroke="#007C99"/>
<path d="M103.541 415.093C103.484 416.807 103.455 418.478 103.455 420.107C103.455 420.178 103.47 420.249 103.498 420.306C103.555 420.406 103.598 420.449 103.626 420.449C103.826 420.464 103.997 420.306 104.026 420.107L104.454 415.165C105.224 414.936 105.966 414.879 106.707 414.979C106.864 416.464 106.878 417.621 106.778 418.421C105.452 428.448 98.2352 433.39 88.6223 433.918C65.4599 433.947 42.2975 433.89 19.1352 433.761C13.858 433.733 9.25121 432.833 5.44312 428.962C1.82043 425.291 0.0803991 420.806 0.208762 415.522C0.208762 415.265 0.351387 415.136 0.608113 415.136L103.541 415.093ZM5.57148 426.205C5.69984 426.134 5.11508 424.763 4.24506 423.149C3.37505 421.535 2.56208 420.278 2.43372 420.349C2.30536 420.421 2.89012 421.792 3.76014 423.406C4.63015 425.02 5.44312 426.277 5.57148 426.205ZM97.8929 428.619C98.007 428.719 99.1338 427.748 100.403 426.42C101.687 425.091 102.628 423.949 102.514 423.834C102.4 423.734 101.273 424.706 100.004 426.034C98.7202 427.362 97.7788 428.505 97.8929 428.619ZM11.8042 430.562C11.8042 430.562 11.8327 430.39 11.7614 430.347L7.06905 427.262C6.99773 427.219 6.91216 427.234 6.85511 427.305L6.79806 427.391C6.79806 427.391 6.76953 427.562 6.84084 427.605L11.5332 430.69C11.6045 430.733 11.6901 430.719 11.7472 430.647L11.8042 430.562ZM95.4826 430.862C95.4683 430.676 95.2971 430.547 95.1117 430.576L89.4352 431.276C89.2498 431.304 89.1215 431.462 89.15 431.647V431.676C89.1785 431.861 89.3497 431.99 89.5208 431.961L95.1973 431.262C95.3827 431.233 95.5111 431.076 95.4826 430.89V430.862ZM70.2949 431.49C70.2949 431.319 70.1523 431.176 69.9811 431.176H63.2064C63.0353 431.176 62.8926 431.319 62.8926 431.49C62.8926 431.676 63.0353 431.804 63.2064 431.804H69.9811C70.1523 431.804 70.2949 431.662 70.2949 431.49ZM20.6612 431.447C20.6612 431.333 20.5757 431.247 20.4616 431.247H15.5267C15.4126 431.247 15.3271 431.333 15.3271 431.447V431.476C15.3271 431.59 15.4126 431.676 15.5267 431.676H20.4616C20.5757 431.676 20.6612 431.59 20.6612 431.476V431.447ZM30.9588 431.733V431.304C30.9588 431.304 30.9018 431.19 30.8447 431.19H24.8687C23.8846 431.19 23.0716 431.29 23.0716 431.419V431.619C23.0716 431.747 23.8703 431.847 24.8687 431.847H30.8447C30.8447 431.847 30.9588 431.79 30.9588 431.733ZM39.3737 431.562C39.3737 431.362 39.2168 431.204 39.0171 431.204L32.4706 431.162C32.271 431.162 32.1141 431.319 32.1141 431.519V431.547C32.1141 431.747 32.271 431.904 32.4706 431.904L39.0171 431.947C39.2168 431.947 39.3737 431.79 39.3737 431.59V431.562ZM61.4379 431.476C61.4379 431.319 61.3095 431.19 61.1526 431.19L54.3351 431.233C54.1782 431.233 54.0499 431.362 54.0499 431.519V431.547C54.0499 431.704 54.1782 431.833 54.3351 431.833L61.1526 431.79C61.3095 431.79 61.4379 431.661 61.4379 431.504V431.476ZM78.4673 431.447C78.4673 431.304 78.3532 431.19 78.2106 431.19L71.8638 431.219C71.7212 431.219 71.6071 431.333 71.6071 431.476V431.504C71.6071 431.647 71.7212 431.762 71.8638 431.762L78.2106 431.733C78.3532 431.733 78.4673 431.619 78.4673 431.476V431.447ZM86.8395 431.59C86.8395 431.404 86.6968 431.247 86.5114 431.247L80.7066 431.119C80.5211 431.119 80.3643 431.262 80.3643 431.447V431.476C80.3643 431.662 80.5069 431.819 80.6923 431.819L86.4971 431.947C86.6826 431.947 86.8395 431.804 86.8395 431.619V431.59Z" fill="#007C99" fill-opacity="0.5"/>
<path d="M104.453 415.152L104.026 420.093C104.011 420.308 103.826 420.465 103.626 420.436C103.598 420.436 103.541 420.379 103.498 420.293C103.469 420.236 103.455 420.179 103.455 420.093C103.455 418.465 103.484 416.794 103.541 415.08L104.453 415.137V415.152Z" fill="white"/>
<path d="M5.57143 426.207C5.44307 426.278 4.6301 425.035 3.76009 423.407C2.89007 421.793 2.30531 420.422 2.43367 420.351C2.56203 420.279 3.375 421.522 4.24501 423.15C5.11503 424.764 5.69979 426.135 5.57143 426.207Z" fill="white"/>
<path d="M97.8932 428.62C97.7791 428.52 98.7204 427.363 100.004 426.035C101.273 424.721 102.4 423.735 102.514 423.835C102.628 423.935 101.687 425.092 100.403 426.42C99.134 427.734 98.0073 428.72 97.8932 428.62Z" fill="white"/>
<path d="M11.7472 430.649C11.7472 430.649 11.6046 430.735 11.5333 430.692L6.8409 427.607C6.8409 427.607 6.75533 427.464 6.79811 427.392L6.85516 427.307C6.85516 427.307 6.99779 427.221 7.0691 427.264L11.7615 430.349C11.7615 430.349 11.8471 430.492 11.8043 430.563L11.7472 430.649Z" fill="#DDE0E7"/>
<path d="M95.482 430.89C95.5106 431.076 95.3679 431.247 95.1968 431.262L89.5203 431.961C89.3349 431.99 89.1637 431.847 89.1495 431.676V431.647C89.121 431.461 89.2493 431.29 89.4347 431.276L95.1112 430.576C95.2966 430.547 95.4678 430.69 95.482 430.862V430.89Z" fill="white"/>
<path d="M70.3095 431.519C70.3095 431.691 70.1669 431.834 69.9957 431.834H63.221C63.0499 431.834 62.9072 431.691 62.9072 431.519C62.9072 431.334 63.0499 431.205 63.221 431.205H69.9957C70.1669 431.205 70.3095 431.348 70.3095 431.519Z" fill="white"/>
<path d="M20.6613 431.491C20.6613 431.605 20.5758 431.691 20.4617 431.691H15.5268C15.4127 431.691 15.3271 431.591 15.3271 431.477V431.448C15.3271 431.334 15.4127 431.248 15.5268 431.248H20.4617C20.5758 431.248 20.6613 431.348 20.6613 431.462V431.491Z" fill="white"/>
<path d="M30.9585 431.748C30.9585 431.748 30.9014 431.862 30.8444 431.862H24.8684C23.8843 431.862 23.0713 431.762 23.0713 431.634V431.434C23.0713 431.305 23.87 431.205 24.8684 431.205H30.8444C30.8444 431.205 30.9585 431.262 30.9585 431.319V431.748Z" fill="white"/>
<path d="M39.3739 431.604C39.3739 431.804 39.217 431.961 39.0173 431.961L32.4708 431.918C32.2711 431.918 32.1143 431.761 32.1143 431.561V431.533C32.1143 431.333 32.2711 431.176 32.4708 431.176L39.0173 431.219C39.217 431.219 39.3739 431.376 39.3739 431.576V431.604Z" fill="white"/>
<path d="M61.4378 431.506C61.4378 431.663 61.3094 431.791 61.1526 431.791L54.3351 431.834C54.1782 431.834 54.0498 431.706 54.0498 431.548V431.52C54.0498 431.363 54.1782 431.234 54.3351 431.234L61.1526 431.191C61.3094 431.191 61.4378 431.32 61.4378 431.477V431.506Z" fill="white"/>
<path d="M78.4677 431.491C78.4677 431.634 78.3536 431.748 78.211 431.748L71.8641 431.776C71.7215 431.776 71.6074 431.662 71.6074 431.519V431.491C71.6074 431.348 71.7215 431.234 71.8641 431.234L78.211 431.205C78.3536 431.205 78.4677 431.319 78.4677 431.462V431.491Z" fill="white"/>
<path d="M86.8247 431.634C86.8247 431.819 86.6678 431.976 86.4824 431.962L80.6776 431.834C80.4922 431.834 80.3353 431.676 80.3495 431.491V431.462C80.3495 431.277 80.5064 431.119 80.6918 431.134L86.4967 431.262C86.6821 431.262 86.839 431.419 86.8247 431.605V431.634Z" fill="white"/>
</svg>
