<svg width="230" height="180" viewBox="0 0 230 180" fill="none" xmlns="http://www.w3.org/2000/svg">
<g clip-path="url(#clip0_2576_87043)" filter="url(#filter0_d_2576_87043)">
<path fill-rule="evenodd" clip-rule="evenodd" d="M156.814 15.9029L156.432 17.1397C156.272 17.6561 155.787 18.0105 155.247 17.9927C154.2 17.9611 153.168 18.061 152.169 18.2829C151.639 18.3986 151.097 18.143 150.845 17.6645L150.237 16.5213C149.924 15.927 149.188 15.6988 148.595 16.0122L146.402 17.1712C145.807 17.4857 145.581 18.2219 145.895 18.8151L146.501 19.9604C146.754 20.44 146.66 21.0311 146.266 21.4024C145.52 22.1028 144.856 22.9 144.294 23.7814C144.003 24.2378 143.439 24.4377 142.92 24.2778L141.683 23.8971C141.041 23.6983 140.36 24.059 140.161 24.7006L139.43 27.0702C139.231 27.7117 139.592 28.3922 140.234 28.5899L141.471 28.9717C141.989 29.1315 142.343 29.6143 142.326 30.1549C142.293 31.2003 142.394 32.231 142.614 33.2301C142.732 33.7602 142.475 34.3019 141.995 34.5553L140.85 35.1601C140.257 35.4735 140.028 36.2097 140.344 36.8029L141.503 38.9957C141.816 39.59 142.553 39.815 143.148 39.5016L144.293 38.8969C144.773 38.6434 145.365 38.737 145.734 39.1325C146.436 39.8771 147.234 40.5407 148.115 41.1045C148.573 41.3937 148.772 41.9585 148.614 42.4759L148.232 43.7128C148.033 44.3543 148.394 45.0348 149.036 45.2325L151.407 45.9635C152.05 46.1612 152.729 45.8015 152.928 45.1599L153.309 43.9242C153.469 43.4067 153.952 43.0544 154.495 43.0702C155.539 43.1038 156.572 43.0018 157.57 42.782C158.101 42.6631 158.643 42.9208 158.897 43.3993L159.501 44.5447C159.815 45.1389 160.552 45.365 161.146 45.0506L163.339 43.8937C163.934 43.5792 164.16 42.8419 163.847 42.2487L163.241 41.1055C162.987 40.6249 163.081 40.0338 163.477 39.6625C164.222 38.961 164.887 38.1659 165.448 37.2846C165.739 36.8281 166.305 36.6262 166.823 36.7861L168.06 37.1678C168.702 37.3666 169.384 37.0069 169.582 36.3643L170.315 33.9948C170.511 33.3542 170.151 32.6727 169.509 32.474L168.272 32.0943C167.754 31.9344 167.402 31.4506 167.417 30.9079C167.45 29.8646 167.349 28.8329 167.129 27.8348C167.012 27.3057 167.267 26.7641 167.747 26.5106L168.892 25.9059C169.486 25.5914 169.714 24.8552 169.4 24.261L168.239 22.0692C167.926 21.4749 167.19 21.2478 166.594 21.5622L165.448 22.168C164.969 22.4215 164.378 22.3279 164.006 21.9335C163.306 21.1868 162.508 20.5231 161.626 19.9625C161.169 19.6702 160.968 19.1085 161.128 18.5911L161.509 17.3521C161.708 16.7106 161.348 16.0291 160.705 15.8324L158.334 15.1025C157.692 14.9037 157.012 15.2645 156.815 15.906M157.918 24.5281C160.451 25.787 161.938 28.6004 161.553 31.4012C160.917 36.0246 156.007 38.6171 151.824 36.5389C149.294 35.2789 147.805 32.4676 148.191 29.6679C148.826 25.0435 153.737 22.4488 157.918 24.5281Z" fill="#C4C4C4"/>
<path fill-rule="evenodd" clip-rule="evenodd" d="M194.371 26.2479L193.719 28.3587C193.446 29.2411 192.62 29.8448 191.697 29.8143C189.911 29.7607 188.15 29.9311 186.443 30.3097C185.539 30.5074 184.614 30.072 184.184 29.2538L183.147 27.3018C182.613 26.2879 181.357 25.8977 180.343 26.433L176.598 28.4113C175.584 28.9477 175.199 30.2045 175.734 31.2174L176.768 33.1715C177.2 33.9908 177.04 34.9994 176.368 35.6325C175.095 36.8283 173.961 38.1882 173.001 39.6922C172.505 40.4715 171.544 40.8134 170.658 40.5389L168.546 39.8899C167.45 39.5513 166.288 40.1665 165.95 41.2614L164.702 45.3064C164.364 46.4002 164.979 47.5623 166.074 47.901L168.186 48.552C169.069 48.8255 169.673 49.649 169.645 50.5724C169.59 52.3561 169.761 54.1157 170.138 55.8205C170.34 56.7261 169.901 57.6484 169.082 58.0817L167.127 59.1145C166.114 59.6499 165.725 60.9056 166.264 61.9174L168.242 65.6605C168.777 66.6744 170.035 67.0593 171.048 66.524L173.004 65.4912C173.822 65.0589 174.834 65.2188 175.465 65.894C176.664 67.1645 178.023 68.2972 179.528 69.2585C180.309 69.7518 180.65 70.7152 180.379 71.5986L179.726 73.7094C179.387 74.8043 180.002 75.9654 181.098 76.3041L185.145 77.5514C186.241 77.889 187.402 77.2748 187.742 76.18L188.393 74.0702C188.667 73.1878 189.49 72.5851 190.417 72.6114C192.199 72.6693 193.96 72.4957 195.666 72.1192C196.572 71.9173 197.496 72.3559 197.93 73.172L198.961 75.1272C199.497 76.141 200.754 76.527 201.768 75.9906L205.51 74.0155C206.526 73.4781 206.911 72.2212 206.376 71.2074L205.342 69.2564C204.909 68.435 205.069 67.4274 205.746 66.7932C207.017 65.5964 208.153 64.2386 209.109 62.7346C209.605 61.9553 210.571 61.6103 211.454 61.8838L213.565 62.5348C214.66 62.8745 215.824 62.2603 216.161 61.1633L217.411 57.1194C217.747 56.0267 217.132 54.8634 216.037 54.5237L213.924 53.8748C213.041 53.6024 212.439 52.7768 212.465 51.8513C212.521 50.0707 212.348 48.3101 211.973 46.6063C211.773 45.7029 212.208 44.7794 213.027 44.3461L214.982 43.3144C215.998 42.7769 216.385 41.5212 215.85 40.5073L213.869 36.7663C213.334 35.7524 212.078 35.3643 211.062 35.9018L209.107 36.9346C208.288 37.3668 207.28 37.208 206.645 36.5339C205.449 35.2581 204.089 34.1264 202.583 33.1694C201.804 32.6708 201.461 31.7127 201.734 30.8293L202.385 28.7153C202.724 27.6215 202.109 26.4583 201.013 26.1207L196.966 24.8744C195.87 24.5357 194.709 25.1499 194.372 26.2458M196.255 40.9606C200.577 43.1103 203.116 47.9104 202.458 52.6906C201.374 60.5807 192.992 65.0063 185.855 61.4599C181.535 59.3091 178.995 54.5111 179.653 49.732C180.738 41.8398 189.118 37.411 196.255 40.9606Z" fill="#C4C4C4"/>
<path fill-rule="evenodd" clip-rule="evenodd" d="M154.863 34.3877C180.396 34.3877 201.096 55.0742 201.096 80.5934C201.096 106.113 180.397 126.798 154.863 126.798C129.328 126.798 108.629 106.112 108.629 80.5934C108.629 55.0753 129.328 34.3877 154.863 34.3877Z" fill="#C4C4C4"/>
<mask id="mask0_2576_87043" style="mask-type:luminance" maskUnits="userSpaceOnUse" x="103" y="34" width="93" height="93">
<path d="M149.548 34.3877C175.082 34.3877 195.781 55.0742 195.781 80.5934C195.781 106.113 175.082 126.798 149.548 126.798C124.015 126.798 103.314 106.112 103.314 80.5934C103.314 55.0753 124.013 34.3877 149.548 34.3877Z" fill="white"/>
</mask>
<g mask="url(#mask0_2576_87043)">
<path d="M195.783 34.3877H103.316V126.798H195.783V34.3877Z" fill="#959595"/>
</g>
<path d="M155.177 32.1592H144.648V34.6486H155.177V32.1592Z" fill="#404040"/>
<path fill-rule="evenodd" clip-rule="evenodd" d="M144.731 22.9971H155.097C156.047 22.9971 156.824 23.7743 156.824 24.723V30.4328C156.824 31.3815 156.047 32.1587 155.097 32.1587H144.731C143.781 32.1587 143.004 31.3815 143.004 30.4328V24.723C143.004 23.7743 143.781 22.9971 144.731 22.9971Z" fill="#959595"/>
<path d="M170.047 36.105L169.18 37.7236L176.024 41.3881L176.891 39.7694L170.047 36.105Z" fill="#404040"/>
<path fill-rule="evenodd" clip-rule="evenodd" d="M173.295 30.1807L180.034 33.7892C180.652 34.1194 180.885 34.8956 180.555 35.5119L178.565 39.2235C178.234 39.8409 177.458 40.0754 176.841 39.7441L170.103 36.1356C169.485 35.8054 169.251 35.0292 169.582 34.4129L171.572 30.7013C171.902 30.0839 172.679 29.8494 173.295 30.1807Z" fill="#959595"/>
<path d="M130.455 36.5777L123.611 40.2422L124.479 41.8608L131.323 38.1964L130.455 36.5777Z" fill="#404040"/>
<path fill-rule="evenodd" clip-rule="evenodd" d="M127.208 30.6456L120.47 34.254C119.852 34.5843 119.618 35.3605 119.949 35.9768L121.939 39.6883C122.269 40.3057 123.046 40.5402 123.663 40.2089L130.401 36.6005C131.019 36.2702 131.252 35.494 130.922 34.8777L128.932 31.1662C128.601 30.5488 127.825 30.3143 127.208 30.6456Z" fill="#959595"/>
<path fill-rule="evenodd" clip-rule="evenodd" d="M149.548 43.9482C169.799 43.9482 186.216 60.3553 186.216 80.5937C186.216 100.832 169.799 117.239 149.548 117.239C129.298 117.239 112.881 100.832 112.881 80.5937C112.881 60.3553 129.298 43.9482 149.548 43.9482Z" fill="#C4C4C4"/>
<path fill-rule="evenodd" clip-rule="evenodd" d="M152.563 44.0723C171.403 45.6046 186.215 61.3701 186.215 80.5937C186.215 99.8172 171.403 115.583 152.563 117.115C133.722 115.583 118.91 99.8172 118.91 80.5937C118.91 61.3701 133.722 45.6046 152.563 44.0723Z" fill="white"/>
<path fill-rule="evenodd" clip-rule="evenodd" d="M117.666 78.2031C118.987 78.2031 120.057 79.2727 120.057 80.5927C120.057 81.9126 118.987 82.9822 117.666 82.9822C116.346 82.9822 115.275 81.9126 115.275 80.5927C115.275 79.2727 116.346 78.2031 117.666 78.2031Z" fill="#C4C4C4"/>
<path fill-rule="evenodd" clip-rule="evenodd" d="M181.231 78.2031C182.552 78.2031 183.622 79.2727 183.622 80.5927C183.622 81.9126 182.552 82.9822 181.231 82.9822C179.91 82.9822 178.84 81.9126 178.84 80.5927C178.84 79.2727 179.91 78.2031 181.231 78.2031Z" fill="#C4C4C4"/>
<path fill-rule="evenodd" clip-rule="evenodd" d="M149.547 110.028C150.868 110.028 151.938 111.098 151.938 112.418C151.938 113.738 150.868 114.807 149.547 114.807C148.227 114.807 147.156 113.738 147.156 112.418C147.156 111.098 148.227 110.028 149.547 110.028Z" fill="#C4C4C4"/>
<path fill-rule="evenodd" clip-rule="evenodd" d="M149.547 45.7314C150.868 45.7314 151.938 46.8011 151.938 48.121C151.938 49.4409 150.868 50.5105 149.547 50.5105C148.227 50.5105 147.156 49.4409 147.156 48.121C147.156 46.8011 148.227 45.7314 149.547 45.7314Z" fill="#C4C4C4"/>
<path fill-rule="evenodd" clip-rule="evenodd" d="M128.22 100.997C128.721 101.497 128.721 102.315 128.22 102.816L127.345 103.691C126.844 104.192 126.025 104.192 125.524 103.691C125.023 103.191 125.023 102.372 125.524 101.872L126.4 100.997C126.901 100.496 127.719 100.496 128.22 100.997ZM172.819 56.4253C173.319 56.9259 173.319 57.7441 172.819 58.2448L171.943 59.1198C171.442 59.6204 170.623 59.6204 170.122 59.1198C169.621 58.6192 169.621 57.8009 170.122 57.3003L170.998 56.4253C171.499 55.9246 172.318 55.9246 172.819 56.4253Z" fill="#404040"/>
<path fill-rule="evenodd" clip-rule="evenodd" d="M170.87 100.997C170.369 101.497 170.369 102.315 170.87 102.816L171.746 103.691C172.247 104.192 173.066 104.192 173.567 103.691C174.068 103.191 174.068 102.372 173.567 101.872L172.691 100.997C172.19 100.496 171.371 100.496 170.87 100.997ZM126.272 56.4253C125.771 56.9259 125.771 57.7441 126.272 58.2448L127.148 59.1198C127.649 59.6204 128.467 59.6204 128.968 59.1198C129.469 58.6192 129.469 57.8009 128.968 57.3003L128.093 56.4253C127.592 55.9246 126.773 55.9246 126.272 56.4253Z" fill="#959595"/>
<path fill-rule="evenodd" clip-rule="evenodd" d="M149.686 54.3779C150.268 54.3779 150.744 54.8544 150.744 55.436V80.8332C150.744 81.4148 150.268 81.8912 149.686 81.8912C149.104 81.8912 148.627 81.4148 148.627 80.8332V55.436C148.627 54.8544 149.104 54.3779 149.686 54.3779Z" fill="#959595"/>
<path fill-rule="evenodd" clip-rule="evenodd" d="M163.504 94.6269C163.093 95.0381 162.418 95.0381 162.006 94.6269L149.051 81.68C148.639 81.2688 148.639 80.5946 149.051 80.1834C149.462 79.7722 150.136 79.7722 150.548 80.1834L163.504 93.1313C163.915 93.5425 163.915 94.2167 163.504 94.6279" fill="#959595"/>
<path d="M70.0117 42.166C71.1266 42.1772 71.9681 42.3709 72.7002 42.7158C73.4226 43.0562 74.0114 43.5318 74.6211 44.0518C74.7732 44.1813 75.0911 44.3846 75.5293 44.6396C75.9562 44.8881 76.4614 45.1653 76.9639 45.4404C77.463 45.7138 77.9615 45.9864 78.3623 46.2197C78.5625 46.3363 78.744 46.4467 78.8926 46.5449C79.0305 46.6361 79.1751 46.739 79.2734 46.8418L79.3799 46.9541L79.4053 47.1055C79.4869 47.5979 79.4158 48.0479 79.1338 48.4102C78.8656 48.7546 78.4645 48.9445 78.0518 49.0605C77.2436 49.2876 76.0853 49.3066 74.8857 49.3506C72.5389 49.4366 69.7986 49.6191 67.6924 51.1934C67.7298 51.2505 67.7643 51.3079 67.7969 51.3623C67.9439 51.6078 68.0998 51.9067 68.252 52.1953C68.575 52.8081 68.8849 53.3657 69.1992 53.6641L69.3711 53.8457C69.5371 54.0392 69.6832 54.2647 69.7969 54.4785C69.9236 54.717 70.0412 54.9993 70.0801 55.252L70.0918 55.3584V55.3594C70.0963 55.4339 70.1072 55.5601 70.1025 55.6699C70.0976 55.7856 70.0747 55.9649 69.957 56.1318C69.8311 56.3101 69.65 56.4007 69.4746 56.4434C69.309 56.4836 69.1216 56.4878 68.9229 56.4756V56.4766C68.5219 56.4524 67.9059 56.3248 67.2197 56.1484C66.522 55.9691 65.7161 55.7291 64.9199 55.4639C64.1242 55.1988 63.3311 54.9064 62.6602 54.6201C62.099 54.3806 61.59 54.1305 61.2373 53.8926L57.8174 54.1494L57.5322 54.1709L57.3691 53.9355C56.3897 52.523 55.9119 50.6607 55.6992 49.0547C55.4871 47.4525 55.5276 46.0159 55.6475 45.4111L55.7051 45.1191L55.9902 45.0303C56.3336 44.9238 56.9178 44.8376 57.4297 44.7627C57.9832 44.6817 58.4602 44.613 58.6914 44.5449C64.4898 42.8336 67.8161 42.1441 70.0117 42.166Z" fill="white" stroke="#007C99"/>
<path fill-rule="evenodd" clip-rule="evenodd" d="M60.1153 77.2932C63.889 96.7913 59.2292 136.251 54.0684 166.181L89.2416 167.882C94.4235 139.201 97.7753 109.913 95.7821 89.1672C95.3222 84.384 94.1877 84.1894 92.6828 82.3383C83.381 78.571 80.0124 75.9775 65.837 75.8418L60.1163 77.2932H60.1153Z" fill="#007C99" fill-opacity="0.5"/>
<path d="M92.8906 81.8857C93.8817 82.343 94.8858 82.837 95.9082 83.3701C104.575 87.4581 111.271 98.8106 114.739 114.081C118.213 129.374 118.484 148.728 114.185 169.052V169.516L113.67 169.501L69.5166 168.245L68.8027 168.226L69.0664 167.562C75.8357 150.51 82.3961 132.69 86.874 117.383C89.1131 109.729 90.8285 102.712 91.79 96.7393C92.7536 90.7541 92.9517 85.8679 92.1934 82.4482L91.9746 81.4629L92.8906 81.8857Z" fill="#76D8EF" stroke="#07647B"/>
<mask id="path-25-outside-1_2576_87043" maskUnits="userSpaceOnUse" x="65.6484" y="39.0527" width="38" height="52" fill="black">
<rect fill="white" x="65.6484" y="39.0527" width="38" height="52"/>
<path fill-rule="evenodd" clip-rule="evenodd" d="M88.78 74.6109L87.3161 81.4072C88.5737 86.1631 87.5887 90.1818 81.4439 89.962C65.0081 87.3253 69.3954 76.4335 69.6501 75.935L73.2281 66.8049C73.0471 66.7555 72.1368 66.4558 71.1623 65.2431C65.0723 57.6622 64.5913 45.7514 73.1513 41.1921C77.206 39.0318 100.26 39.0098 101.7 49.628C102.942 58.8107 97.5199 72.6978 88.781 74.6119"/>
</mask>
<path fill-rule="evenodd" clip-rule="evenodd" d="M88.78 74.6109L87.3161 81.4072C88.5737 86.1631 87.5887 90.1818 81.4439 89.962C65.0081 87.3253 69.3954 76.4335 69.6501 75.935L73.2281 66.8049C73.0471 66.7555 72.1368 66.4558 71.1623 65.2431C65.0723 57.6622 64.5913 45.7514 73.1513 41.1921C77.206 39.0318 100.26 39.0098 101.7 49.628C102.942 58.8107 97.5199 72.6978 88.781 74.6119" fill="white"/>
<path d="M87.3161 81.4072L86.3386 81.1966L86.2881 81.431L86.3494 81.6628L87.3161 81.4072ZM81.4439 89.962L81.2855 90.9493L81.3465 90.9591L81.4082 90.9613L81.4439 89.962ZM69.6501 75.935L70.5406 76.3899L70.5631 76.3459L70.5811 76.2999L69.6501 75.935ZM73.2281 66.8049L74.1592 67.1698L74.5653 66.1335L73.4916 65.8403L73.2281 66.8049ZM71.1623 65.2431L70.3827 65.8694L70.3828 65.8695L71.1623 65.2431ZM73.1513 41.1921L73.6214 42.0747L73.6215 42.0747L73.1513 41.1921ZM101.7 49.628L102.691 49.494L102.691 49.4937L101.7 49.628ZM88.78 74.6109L87.8024 74.4003L86.3386 81.1966L87.3161 81.4072L88.2937 81.6177L89.7576 74.8214L88.78 74.6109ZM87.3161 81.4072L86.3494 81.6628C86.9583 83.9658 86.9481 85.843 86.278 87.0717C85.6687 88.1888 84.3358 89.0648 81.4797 88.9626L81.4439 89.962L81.4082 90.9613C84.6968 91.079 86.9288 90.0555 88.0338 88.0293C89.0781 86.1145 88.9315 83.6045 88.2829 81.1515L87.3161 81.4072ZM81.4439 89.962L81.6023 88.9746C73.6238 87.6946 71.0275 84.4892 70.2466 81.8618C69.8394 80.4916 69.887 79.163 70.0603 78.132C70.1465 77.619 70.2623 77.1891 70.362 76.8775C70.4662 76.5521 70.5435 76.3843 70.5406 76.3899L69.6501 75.935L68.7595 75.4801C68.6437 75.7069 68.293 76.5806 68.088 77.8005C67.8806 79.0343 67.8109 80.6869 68.3295 82.4316C69.4002 86.0338 72.8282 89.5926 81.2855 90.9493L81.4439 89.962ZM69.6501 75.935L70.5811 76.2999L74.1592 67.1698L73.2281 66.8049L72.2971 66.4401L68.719 75.5701L69.6501 75.935ZM73.2281 66.8049L73.4916 65.8403C73.4842 65.8383 72.7662 65.6425 71.9418 64.6167L71.1623 65.2431L70.3828 65.8695C71.5074 67.269 72.61 67.6727 72.9647 67.7696L73.2281 66.8049ZM71.1623 65.2431L71.9419 64.6168C69.0387 61.0029 67.4845 56.3644 67.6622 52.1264C67.8389 47.912 69.7141 44.1558 73.6214 42.0747L73.1513 41.1921L72.6812 40.3095C68.0285 42.7876 65.8642 47.2665 65.6639 52.0426C65.4646 56.795 67.1959 61.9024 70.3827 65.8694L71.1623 65.2431ZM73.1513 41.1921L73.6215 42.0747C73.99 41.8783 74.6716 41.6637 75.6628 41.4825C76.6321 41.3054 77.8266 41.1727 79.1709 41.1044C81.8606 40.9677 85.0962 41.0916 88.2453 41.6051C91.4054 42.1203 94.4109 43.0171 96.6872 44.3839C98.9524 45.744 100.403 47.5062 100.709 49.7624L101.7 49.628L102.691 49.4937C102.277 46.4407 100.306 44.2239 97.7168 42.6692C95.1388 41.1213 91.8575 40.1676 88.5672 39.6311C85.2659 39.0929 81.8877 38.9637 79.0694 39.1069C77.6597 39.1786 76.3765 39.319 75.3033 39.5151C74.2521 39.7072 73.3263 39.9658 72.6811 40.3095L73.1513 41.1921ZM101.7 49.628L100.709 49.7621C101.3 54.1301 100.304 59.7031 98.0788 64.419C95.8399 69.1641 92.4901 72.7758 88.5671 73.6351L88.781 74.6119L88.995 75.5888C93.8108 74.5339 97.5413 70.245 99.8876 65.2724C102.248 60.2705 103.342 54.3086 102.691 49.494L101.7 49.628Z" fill="#007C99" mask="url(#path-25-outside-1_2576_87043)"/>
<path fill-rule="evenodd" clip-rule="evenodd" d="M80.3382 89.7671C77.7462 91.4951 73.8356 93.8384 71.2437 95.5674C67.7467 89.8786 66.8395 82.1915 65.9629 75.8506C67.9382 75.0271 68.6717 74.6222 70.5291 73.6914C71.7235 78.2317 73.8283 85.109 80.3382 89.7682" fill="#007C99"/>
<path fill-rule="evenodd" clip-rule="evenodd" d="M80.3379 89.7671C81.9869 92.3586 85.124 94.8911 86.7731 97.4826C88.64 93.6406 89.5345 86.0797 89.6797 81.145C88.9925 80.1585 88.6463 80.1269 87.7834 79.2393C87.2993 83.7459 83.0625 87.7583 80.3389 89.7671" fill="#007C99"/>
<path fill-rule="evenodd" clip-rule="evenodd" d="M76.6484 68.6953C77.8671 73.5396 80.6527 80.805 87.3173 81.4065L88.7812 74.6103C85.7893 74.463 83.0058 73.6363 76.6484 68.6953Z" fill="#404040"/>
<mask id="path-30-outside-2_2576_87043" maskUnits="userSpaceOnUse" x="6.5" y="44.5957" width="57" height="83" fill="black">
<rect fill="white" x="6.5" y="44.5957" width="57" height="83"/>
<path fill-rule="evenodd" clip-rule="evenodd" d="M62.1136 81.458C59.2523 87.8052 55.228 139.566 39.0395 123.124C37.9713 121.606 39.3173 113.624 33.5072 107.008C24.3568 96.5861 6.54974 80.624 8.67447 66.15C10.6677 52.5753 46.7102 44.8998 58.5577 45.6454C64.2678 49.926 59.0881 54.4411 59.0881 54.4411C59.0881 54.4411 35.7161 67.1145 32.1612 68.9371C30.4806 69.9268 40.3896 78.8465 62.1126 81.458"/>
</mask>
<path fill-rule="evenodd" clip-rule="evenodd" d="M62.1136 81.458C59.2523 87.8052 55.228 139.566 39.0395 123.124C37.9713 121.606 39.3173 113.624 33.5072 107.008C24.3568 96.5861 6.54974 80.624 8.67447 66.15C10.6677 52.5753 46.7102 44.8998 58.5577 45.6454C64.2678 49.926 59.0881 54.4411 59.0881 54.4411C59.0881 54.4411 35.7161 67.1145 32.1612 68.9371C30.4806 69.9268 40.3896 78.8465 62.1126 81.458" fill="#76D8EF"/>
<path d="M39.0395 123.124L38.2215 123.7L38.269 123.767L38.3269 123.826L39.0395 123.124ZM33.5072 107.008L32.7557 107.667L32.7558 107.668L33.5072 107.008ZM8.67447 66.15L7.68508 66.0047L7.68507 66.0048L8.67447 66.15ZM58.5577 45.6454L59.1575 44.8453L58.9186 44.6662L58.6205 44.6474L58.5577 45.6454ZM59.0881 54.4411L59.5648 55.3202L59.6619 55.2675L59.7452 55.1949L59.0881 54.4411ZM32.1612 68.9371L31.7049 68.0473L31.6789 68.0606L31.6538 68.0754L32.1612 68.9371ZM62.1136 81.458L61.202 81.047C60.7912 81.9582 60.3963 83.5735 59.9857 85.5407C59.5676 87.5441 59.1096 90.0375 58.5949 92.7733C57.5618 98.264 56.2924 104.771 54.6138 110.558C53.7748 113.451 52.8398 116.142 51.7913 118.422C50.7378 120.714 49.5969 122.531 48.3727 123.728C47.1641 124.91 45.9401 125.432 44.6487 125.319C43.3176 125.202 41.6929 124.394 39.752 122.423L39.0395 123.124L38.3269 123.826C40.4331 125.965 42.4755 127.136 44.4742 127.311C46.5127 127.49 48.2813 126.615 49.7712 125.158C51.2455 123.716 52.509 121.649 53.6085 119.258C54.7131 116.855 55.68 114.062 56.5347 111.116C58.2434 105.224 59.5283 98.6289 60.5604 93.1431C61.0783 90.3907 61.5307 87.9273 61.9435 85.9494C62.3639 83.9352 62.7207 82.5445 63.0253 81.869L62.1136 81.458ZM39.0395 123.124L39.8574 122.549C39.8608 122.554 39.8404 122.525 39.809 122.435C39.7785 122.348 39.746 122.228 39.7132 122.067C39.6467 121.741 39.593 121.32 39.5357 120.789C39.4237 119.749 39.3057 118.354 39.0368 116.807C38.4956 113.691 37.3285 109.844 34.2586 106.348L33.5072 107.008L32.7558 107.668C35.496 110.788 36.5609 114.24 37.0663 117.149C37.3207 118.613 37.4296 119.912 37.5472 121.003C37.6047 121.537 37.6665 122.04 37.7535 122.467C37.8355 122.869 37.963 123.332 38.2215 123.7L39.0395 123.124ZM33.5072 107.008L34.2586 106.348C29.6066 101.05 22.9666 94.5662 17.6625 87.4983C12.3515 80.421 8.66455 73.1027 9.66387 66.2953L8.67447 66.15L7.68507 66.0048C6.55966 73.6712 10.7139 81.571 16.0628 88.6987C21.4187 95.8357 28.2574 102.544 32.7557 107.667L33.5072 107.008ZM8.67447 66.15L9.66386 66.2953C10.1008 63.3195 12.4405 60.5045 16.2062 57.9411C19.9429 55.3976 24.9079 53.224 30.2323 51.4778C40.9008 47.979 52.7403 46.2813 58.4949 46.6435L58.5577 45.6454L58.6205 44.6474C52.5275 44.2639 40.422 46.0312 29.6091 49.5774C24.1928 51.3537 19.0329 53.5976 15.0808 56.2878C11.1578 58.9583 8.24474 62.1932 7.68508 66.0047L8.67447 66.15ZM58.5577 45.6454L57.9579 46.4456C59.2588 47.4208 59.8532 48.3426 60.0943 49.1213C60.335 49.8988 60.2568 50.6411 60.0201 51.3187C59.78 52.0063 59.3832 52.6039 59.0306 53.0399C58.8568 53.2549 58.6997 53.4231 58.5888 53.5352C58.5335 53.5911 58.4901 53.6325 58.4625 53.6583C58.4487 53.6712 58.4388 53.6802 58.4334 53.6851C58.4307 53.6875 58.4291 53.6889 58.4287 53.6893C58.4285 53.6895 58.4285 53.6894 58.4289 53.6891C58.4291 53.6889 58.4294 53.6887 58.4297 53.6884C58.4299 53.6882 58.4302 53.6879 58.4303 53.6879C58.4306 53.6876 58.431 53.6873 59.0881 54.4411C59.7452 55.1949 59.7456 55.1946 59.746 55.1942C59.7462 55.194 59.7466 55.1937 59.7469 55.1934C59.7476 55.1928 59.7483 55.1922 59.7491 55.1914C59.7508 55.19 59.7527 55.1883 59.755 55.1863C59.7595 55.1823 59.7652 55.1771 59.7722 55.1709C59.786 55.1584 59.8045 55.1415 59.8273 55.1203C59.8727 55.0779 59.935 55.0182 60.0102 54.9422C60.1602 54.7906 60.3633 54.5727 60.5858 54.2975C61.0259 53.7532 61.5673 52.9545 61.9083 51.9782C62.2528 50.992 62.3989 49.8029 62.0048 48.5299C61.6111 47.2582 60.7116 46.0103 59.1575 44.8453L58.5577 45.6454ZM59.0881 54.4411C58.6114 53.562 58.6113 53.562 58.6111 53.5621C58.611 53.5622 58.6107 53.5624 58.6104 53.5626C58.6096 53.563 58.6086 53.5635 58.6072 53.5643C58.6043 53.5658 58.6001 53.5681 58.5945 53.5712C58.5832 53.5773 58.5665 53.5864 58.5443 53.5984C58.5 53.6224 58.4342 53.6581 58.3482 53.7047C58.1762 53.798 57.9234 53.935 57.6004 54.11C56.9545 54.4601 56.0277 54.9622 54.9045 55.5704C52.658 56.7869 49.6257 58.4279 46.4825 60.1258C40.1883 63.5256 33.47 67.1423 31.7049 68.0473L32.1612 68.9371L32.6174 69.827C34.4072 68.9093 41.1524 65.2779 47.433 61.8854C50.5771 60.1871 53.61 58.5458 55.8568 57.3291C56.9803 56.7208 57.9072 56.2185 58.5533 55.8684C58.8764 55.6933 59.1292 55.5563 59.3013 55.463C59.3874 55.4163 59.4532 55.3806 59.4976 55.3566C59.5197 55.3446 59.5365 55.3355 59.5478 55.3294C59.5534 55.3263 59.5577 55.324 59.5605 55.3225C59.5619 55.3217 59.563 55.3211 59.5637 55.3207C59.5641 55.3205 59.5643 55.3204 59.5645 55.3203C59.5647 55.3202 59.5648 55.3202 59.0881 54.4411ZM32.1612 68.9371L31.6538 68.0754C31.2764 68.2976 31.0402 68.6671 30.9891 69.093C30.9446 69.4635 31.0473 69.8025 31.1606 70.0578C31.3888 70.5719 31.8274 71.1165 32.3757 71.6563C33.4968 72.7602 35.3434 74.102 37.8868 75.4701C42.9886 78.2142 51.0184 81.1315 61.9932 82.4508L62.1126 81.458L62.232 80.4651C51.4839 79.173 43.6976 76.3247 38.8343 73.7087C36.3951 72.3967 34.7219 71.1598 33.7789 70.2312C33.2951 69.7549 33.0656 69.4198 32.9887 69.2465C32.9495 69.1581 32.9904 69.2014 32.9748 69.3313C32.9526 69.5165 32.8359 69.7003 32.6686 69.7988L32.1612 68.9371Z" fill="#07647B" mask="url(#path-30-outside-2_2576_87043)"/>
<path fill-rule="evenodd" clip-rule="evenodd" d="M81.5762 51.7961C78.8811 53.2465 77.0195 55.8621 77.1921 61.5047C77.2426 63.1674 77.6446 64.5336 75.6745 62.4775C74.7695 61.5341 73.2299 60.1069 72.4122 60.3656C70.5916 60.9409 70.3696 63.5629 71.1767 64.7514C71.5366 65.2814 72.2722 66.1502 72.2722 66.1502C63.9617 61.5415 63.7228 48.2991 69.2309 40.3911C69.2793 39.7464 69.4245 39.0954 69.6739 38.4581C70.7358 35.7467 73.3614 34.1344 76.0092 34.3395C77.5583 31.6796 80.748 30.4354 83.5736 31.5408C84.4239 31.8732 85.1543 32.3854 85.7404 33.0195L86.054 33.0564C87.781 31.6881 90.1856 31.2526 92.4051 32.1203C93.9615 32.7293 95.1486 33.8704 95.8358 35.2482C98.2383 33.7316 101.14 33.3014 103.792 34.3384C112.417 37.7124 109.551 51.0115 101.877 52.5502C95.4759 54.7515 87.4368 48.6441 81.5773 51.7951" fill="#007C99"/>
<path fill-rule="evenodd" clip-rule="evenodd" d="M72.2567 169C73.9447 131.454 64.9365 90.8754 62.214 76.8148C55.5799 78.5922 47.4167 78.3471 39.4008 75.1299C28.733 81.597 34.0979 78.1441 36.6783 95.5661L38.3505 108.631C38.38 122.513 33.175 150.017 29.7559 169H72.2567Z" fill="#76D8EF"/>
<path fill-rule="evenodd" clip-rule="evenodd" d="M132.813 164.04H69.5312V166.52C69.5312 167.884 70.6478 169 72.0127 169H130.332C131.697 169 132.813 167.884 132.813 166.52V164.04Z" fill="#959595"/>
<path fill-rule="evenodd" clip-rule="evenodd" d="M155.338 128.853H108.107C106.245 128.853 105.07 130.427 104.721 132.277L98.6055 164.722H152.137L158.253 131.802C158.548 130.207 156.94 128.853 155.336 128.853" fill="#959595"/>
<path fill-rule="evenodd" clip-rule="evenodd" d="M156.955 128.853H109.725C107.862 128.853 106.687 130.427 106.338 132.277L100.303 164.299H100.223L99.8355 166.65C99.625 167.923 100.895 169 102.188 169H151.114C152.406 169 153.275 167.929 153.466 166.65L153.756 164.72L159.871 131.802C160.167 130.207 158.559 128.853 156.955 128.853Z" fill="#C4C4C4"/>
<path fill-rule="evenodd" clip-rule="evenodd" d="M132.071 146.875C130.945 146.605 129.775 147.461 129.459 148.785C129.142 150.109 129.797 151.399 130.924 151.669C132.05 151.938 133.219 151.083 133.535 149.759C133.852 148.434 133.197 147.143 132.071 146.875Z" fill="#EDF8FD"/>
<path d="M102.456 13.9707C102.062 13.8319 101.655 13.7025 101.24 13.5868C99.6396 13.1388 97.9179 12.8832 96.372 12.7644C94.3967 12.6129 92.7193 12.6855 91.9531 12.8695C91.7469 12.919 91.6227 12.9705 91.569 13.0231C91.6006 13.0746 91.6795 13.1367 91.7984 13.2072C92.2604 13.4806 93.2002 13.7793 94.3357 14.0328C95.5617 14.3073 97.0087 14.5281 98.3831 14.5881C99.5165 14.6375 100.598 14.5786 101.459 14.3514C101.831 14.2536 102.162 14.1232 102.456 13.9697M92.212 16.6747C96.2215 17.3194 100.083 18.1492 102.798 19.0727L102.869 19.0621C102.756 18.8855 102.615 18.7067 102.449 18.5279C101.531 17.5371 99.8669 16.5769 97.6959 15.9564C95.287 15.2675 92.2636 14.9983 89.6074 15.0193C87.2585 15.0382 85.2106 15.277 84.154 15.6472C86.6997 15.8849 89.4906 16.2372 92.212 16.6747ZM101.926 19.1862C99.2987 18.368 95.788 17.6318 92.1531 17.0481C89.2286 16.578 86.2251 16.2067 83.5342 15.9701C83.5174 15.9858 83.5016 16.0016 83.4868 16.0174C83.4574 16.05 83.4395 16.0815 83.43 16.112C83.389 16.2477 83.53 16.4233 83.8162 16.6242C84.1604 16.8672 84.6918 17.1196 85.3611 17.3689C87.4669 18.1513 90.906 18.8855 94.2536 19.201C97.0213 19.4618 99.7259 19.4355 101.927 19.1862H101.926ZM103.132 19.5901C103.012 19.5459 102.889 19.5028 102.763 19.4597C102.584 19.486 102.401 19.5102 102.214 19.5333C99.948 19.811 97.1181 19.8499 94.2168 19.5764C90.8387 19.2578 87.3617 18.5152 85.2275 17.7222C84.5266 17.4614 83.9667 17.1943 83.5973 16.9334C83.169 16.6305 82.9722 16.3171 83.0669 16.0037C83.0743 15.9795 83.0827 15.9564 83.0943 15.9322C80.5697 15.7218 78.3481 15.6346 76.7685 15.7029C75.3194 15.765 74.4281 15.9543 74.005 16.2298C73.7988 16.3634 73.7272 16.5149 73.7724 16.6768C73.8303 16.8851 74.044 17.127 74.3891 17.3909C75.5162 18.2544 77.9451 19.2578 81.038 20.0992C84.5676 21.0594 88.9486 21.8019 92.874 22.1237C96.4794 22.4193 99.6912 22.3593 101.489 21.7851C102.214 21.5537 102.698 21.2413 102.967 20.8785C103.208 20.5556 103.277 20.1875 103.191 19.8005C103.177 19.731 103.157 19.6616 103.132 19.5912V19.5901ZM71.171 17.6055C71.9508 18.3291 72.7317 19.0537 73.9135 19.8225C75.0995 20.5945 76.6959 21.4159 79.1132 22.3393C81.8546 23.3858 85.6452 24.5585 89.6032 25.3C92.6372 25.869 95.7701 26.1834 98.602 25.9931C101.483 25.7995 104.049 25.0854 105.529 24.1252C106.086 23.7634 106.483 23.3711 106.675 22.9641C106.856 22.5802 106.85 22.1763 106.618 21.7683C106.316 21.2361 105.642 20.6902 104.515 20.157C104.228 20.0213 103.911 19.8867 103.569 19.7531C103.665 20.2359 103.573 20.6955 103.27 21.1015C102.955 21.5253 102.407 21.885 101.601 22.1427C99.7533 22.7327 96.4899 22.7979 92.8424 22.4992C88.8939 22.1763 84.4866 21.4285 80.937 20.4631C77.7988 19.609 75.3215 18.5815 74.1576 17.6896C73.7461 17.3741 73.4873 17.066 73.4062 16.7767C73.3126 16.4412 73.4325 16.1478 73.7977 15.9101C74.2755 15.5998 75.23 15.3884 76.7506 15.3232C78.4081 15.2517 80.7623 15.3495 83.4311 15.5799C84.3066 15.0288 86.7544 14.6628 89.6042 14.6396C92.293 14.6175 95.3565 14.891 97.799 15.5893C100.038 16.2298 101.763 17.23 102.725 18.2681C102.948 18.5079 103.131 18.7519 103.271 18.9938C104.953 18.7025 106.18 18.2639 106.667 17.7201C106.769 17.6065 106.836 17.4888 106.868 17.3699C106.926 17.1648 106.888 16.9429 106.773 16.7115C106.645 16.4591 106.426 16.1983 106.134 15.9364C105.414 15.2927 104.264 14.6575 102.919 14.14C102.534 14.3777 102.082 14.5765 101.555 14.7153C100.655 14.953 99.5354 15.0151 98.3663 14.9635C96.9698 14.9025 95.4996 14.6785 94.2536 14.3988C93.0802 14.1358 92.1005 13.8214 91.6048 13.53C91.4301 13.427 91.3049 13.3197 91.2407 13.2103C91.1449 13.0483 91.1586 12.8948 91.2986 12.7549C91.3996 12.6529 91.5848 12.5666 91.8647 12.4993C92.6635 12.3079 94.3873 12.2301 96.3983 12.3836C97.9642 12.5035 99.7101 12.7633 101.339 13.2187C101.866 13.366 102.38 13.5342 102.872 13.7183C103.048 13.5994 103.207 13.4711 103.351 13.3365C103.945 12.7844 104.284 12.1291 104.457 11.5622C104.61 11.0637 104.634 10.6357 104.593 10.2423C104.552 9.84371 104.443 9.4735 104.333 9.1033L104.696 8.99707C104.81 9.38411 104.924 9.77115 104.969 10.2045C105.014 10.643 104.988 11.1195 104.818 11.6737C104.628 12.2921 104.257 13.0094 103.608 13.6131C103.509 13.7057 103.404 13.7951 103.291 13.8803C104.576 14.3977 105.675 15.0203 106.383 15.6535C106.712 15.9469 106.959 16.2456 107.108 16.5401C107.267 16.8556 107.316 17.169 107.231 17.4698C107.182 17.6455 107.089 17.8127 106.947 17.9715C106.424 18.5552 105.194 19.0222 103.525 19.3314C103.945 19.4902 104.33 19.6511 104.675 19.8141C105.877 20.3821 106.605 20.9826 106.945 21.581C107.243 22.1059 107.248 22.6265 107.015 23.1229C106.792 23.5962 106.348 24.0421 105.733 24.4418C104.203 25.4346 101.57 26.1729 98.6262 26.3696C95.7606 26.562 92.5961 26.2444 89.5327 25.6702C85.5474 24.9234 81.7347 23.7434 78.9774 22.6917C76.5349 21.7588 74.9143 20.9248 73.7072 20.1381C72.4959 19.3493 71.7045 18.6152 70.9121 17.88L71.1699 17.6034L71.171 17.6055Z" fill="#404040"/>
</g>
<defs>
<filter id="filter0_d_2576_87043" x="0.5" y="0" width="229" height="180" filterUnits="userSpaceOnUse" color-interpolation-filters="sRGB">
<feFlood flood-opacity="0" result="BackgroundImageFix"/>
<feColorMatrix in="SourceAlpha" type="matrix" values="0 0 0 0 0 0 0 0 0 0 0 0 0 0 0 0 0 0 127 0" result="hardAlpha"/>
<feOffset dx="2" dy="1"/>
<feGaussianBlur stdDeviation="5"/>
<feComposite in2="hardAlpha" operator="out"/>
<feColorMatrix type="matrix" values="0 0 0 0 0 0 0 0 0 0 0 0 0 0 0 0 0 0 0.15 0"/>
<feBlend mode="normal" in2="BackgroundImageFix" result="effect1_dropShadow_2576_87043"/>
<feBlend mode="normal" in="SourceGraphic" in2="effect1_dropShadow_2576_87043" result="shape"/>
</filter>
<clipPath id="clip0_2576_87043">
<rect width="209" height="160" fill="white" transform="translate(8.5 9)"/>
</clipPath>
</defs>
</svg>
