<svg width="218" height="100" viewBox="0 0 218 100" fill="none" xmlns="http://www.w3.org/2000/svg">
<g clip-path="url(#clip0_1684_368)">
<path d="M3.43348 96.08C3.43348 96.08 3.39575 96.3439 3.39575 96.5323C3.39575 96.8716 3.47121 97.1354 3.65986 97.2862C3.8485 97.437 4.15034 97.4747 4.56536 97.4747H5.65951L5.24449 99.8493H3.81077C2.79208 99.8493 1.99977 99.6232 1.43383 99.2085C0.867887 98.7939 0.603782 98.1154 0.603782 97.1354C0.603782 96.7962 0.641511 96.4192 0.716969 96.0046L1.54701 91.293H0.0378418L0.452864 88.956H1.96204L2.41479 86.2798H5.20676L4.75401 88.956H7.13095L6.71593 91.293H4.30125L3.47121 96.0423L3.43348 96.08Z" fill="#007C99"/>
<path d="M17.5442 89.4837C18.2988 89.0691 19.0533 88.8806 19.9211 88.8806L19.3929 91.8207H18.6006C16.5632 91.8207 15.3936 92.763 15.0918 94.6477L14.1863 99.887H11.3943L13.3185 89.0314H16.0727L15.6954 91.1045C16.2236 90.426 16.865 89.8606 17.5819 89.4837H17.5442Z" fill="#007C99"/>
<path d="M31.8436 89.5591C32.4473 90.0114 32.8246 90.5768 32.9378 91.293L33.3528 89.0314H36.107L34.1828 99.887H31.4286L31.8436 97.6254C31.4286 98.3793 30.8627 98.9447 30.1458 99.3593C29.4289 99.8116 28.5989 100 27.6557 100C26.4483 100 25.4674 99.6232 24.7505 98.8693C24.0337 98.1154 23.6941 97.06 23.6941 95.7031C23.6941 95.1754 23.7318 94.6854 23.845 94.1954C24.0337 93.1023 24.4109 92.1599 24.9769 91.3684C25.5428 90.5391 26.1842 89.936 26.9765 89.5214C27.7689 89.1068 28.5989 88.8806 29.5044 88.8806C30.4476 88.8806 31.24 89.1068 31.8436 89.5214V89.5591ZM27.8443 92.1599C27.2029 92.7253 26.8256 93.4792 26.637 94.4592C26.5992 94.8361 26.5615 95.0623 26.5615 95.2131C26.5615 95.9669 26.7879 96.5323 27.2029 96.947C27.6179 97.3616 28.2216 97.5877 28.9385 97.5877C29.7685 97.5877 30.5231 97.3239 31.1645 96.7208C31.8059 96.1177 32.2209 95.4015 32.3718 94.4215C32.4096 94.0823 32.4473 93.8184 32.4473 93.6676C32.4473 92.9138 32.2209 92.3484 31.8059 91.8961C31.3531 91.4437 30.7872 91.2553 30.0703 91.2553C29.2026 91.2553 28.448 91.5191 27.8443 92.0845V92.1599Z" fill="#007C99"/>
<path d="M45.464 97.0976L49.6519 89.0312H52.5948L46.6713 99.8869H43.3134L41.2383 89.0312H44.1812L45.5017 97.0976H45.464Z" fill="#007C99"/>
<path d="M66.2151 90.0113C67.0074 90.7652 67.4225 91.7452 67.4225 92.9891C67.4225 93.2906 67.4225 93.6299 67.3093 94.0445C67.2338 94.4214 67.1584 94.7607 67.0452 94.9868H59.0843C59.0843 94.9868 59.0465 95.3261 59.0465 95.6276C59.0465 96.3815 59.2352 96.9469 59.6502 97.2861C60.0652 97.6253 60.5557 97.8138 61.1971 97.8138C61.8385 97.8138 62.4045 97.663 62.8949 97.3238C63.3854 96.9845 63.725 96.5699 63.9514 96.0799H66.8565C66.4415 97.2484 65.6869 98.1907 64.6305 98.9446C63.5741 99.6985 62.3667 100.038 60.9707 100.038C59.5748 100.038 58.4806 99.6608 57.6883 98.8692C56.8582 98.1153 56.481 97.0222 56.481 95.6653C56.481 95.2507 56.5187 94.7983 56.5941 94.346C56.7828 93.2152 57.1978 92.2729 57.8015 91.4437C58.4052 90.6144 59.1597 90.0113 60.0652 89.559C60.9707 89.1067 61.914 88.9182 62.9704 88.9182C64.3664 88.9182 65.4983 89.2951 66.2906 90.049L66.2151 90.0113ZM64.6682 93.0268C64.6682 92.386 64.4796 91.896 64.0645 91.5567C63.6495 91.2175 63.159 91.0667 62.5176 91.0667C61.7631 91.0667 61.0839 91.2929 60.518 91.7452C59.9143 92.1975 59.537 92.876 59.3107 93.7429H64.5928C64.6305 93.4791 64.6682 93.2529 64.6682 92.9891V93.0268Z" fill="#007C99"/>
<path d="M77.5339 85.375L74.9684 99.8492H72.2141L74.7797 85.375H77.5339Z" fill="#007C99"/>
<path d="M98.0208 89.8606C98.7754 90.5014 99.1904 91.4061 99.2659 92.5369H96.5494C96.5494 92.0091 96.3607 91.5945 95.9835 91.2553C95.6062 90.9537 95.1157 90.803 94.4366 90.803C93.9461 90.803 93.531 90.916 93.2292 91.1422C92.9274 91.3684 92.7765 91.6699 92.7765 92.0468C92.7765 92.4238 92.9651 92.7253 93.3424 92.9138C93.7197 93.1022 94.2856 93.3284 95.078 93.5169C95.8325 93.743 96.4362 93.9692 96.9267 94.1577C97.4172 94.3461 97.8322 94.6477 98.1718 95.0623C98.5113 95.4769 98.7 95.9669 98.7 96.6077C98.7 96.8716 98.7 97.0977 98.6245 97.3616C98.4736 98.1531 98.0208 98.7939 97.2663 99.2839C96.5117 99.7739 95.5307 100.038 94.2856 100.038C92.8519 100.038 91.72 99.6986 90.8523 99.0578C89.9845 98.417 89.5695 97.5124 89.5317 96.3816H92.2483C92.2105 96.9093 92.3992 97.3239 92.8142 97.6254C93.2292 97.927 93.7952 98.1154 94.512 98.1154C95.0402 98.1154 95.4175 98.0024 95.7194 97.7762C96.0212 97.55 96.1344 97.2485 96.1344 96.8716C96.1344 96.57 96.0212 96.3439 95.8325 96.1554C95.6439 95.9669 95.3798 95.8162 95.078 95.7031C94.7761 95.59 94.3611 95.4769 93.7952 95.2885C93.0406 95.1 92.4369 94.8738 91.9841 94.6854C91.5314 94.4969 91.1164 94.1954 90.8145 93.8184C90.475 93.4415 90.3241 92.9515 90.3241 92.3107C90.3241 92.0845 90.3241 91.8584 90.3995 91.5945C90.5504 90.7653 91.0032 90.1245 91.7578 89.6345C92.5124 89.1445 93.4933 88.8806 94.7384 88.8806C96.2098 88.8806 97.304 89.2199 98.0963 89.8606H98.0208Z" fill="#007C99"/>
<path d="M113.301 89.446C114.018 89.8229 114.584 90.313 114.961 90.9914C115.339 91.6699 115.565 92.4615 115.565 93.4038C115.565 93.7807 115.527 94.233 115.452 94.6854C115.263 95.7785 114.848 96.7208 114.244 97.5124C113.641 98.3039 112.886 98.9447 111.981 99.3593C111.075 99.8116 110.094 100 109.038 100C108.095 100 107.227 99.8116 106.51 99.4724C105.793 99.0955 105.227 98.6055 104.812 97.8893C104.397 97.2108 104.208 96.3816 104.208 95.4392C104.208 95.0623 104.246 94.61 104.322 94.1954C104.51 93.1023 104.925 92.1599 105.529 91.3684C106.133 90.5391 106.925 89.936 107.831 89.5214C108.736 89.1068 109.717 88.8806 110.773 88.8806C111.717 88.8806 112.547 89.0691 113.264 89.4083L113.301 89.446ZM108.359 92.1222C107.717 92.6499 107.302 93.4415 107.151 94.4969C107.114 94.7607 107.076 95.0246 107.076 95.3262C107.076 96.08 107.302 96.6831 107.717 97.06C108.132 97.4747 108.698 97.6631 109.34 97.6631C110.094 97.6631 110.811 97.3993 111.453 96.8339C112.094 96.3062 112.509 95.5146 112.66 94.4592C112.698 94.1954 112.735 93.9315 112.735 93.63C112.735 92.8761 112.509 92.273 112.094 91.8961C111.679 91.4814 111.113 91.293 110.472 91.293C109.717 91.293 109 91.5568 108.359 92.1222Z" fill="#007C99"/>
<path d="M125.714 85.375L123.149 99.8492H120.394L122.96 85.375H125.714Z" fill="#007C99"/>
<path d="M141.711 89.0312L139.825 99.8869H137.033L137.41 97.7384C136.995 98.4545 136.392 99.0199 135.675 99.4346C134.958 99.8492 134.166 100.038 133.298 100.038C132.241 100.038 131.411 99.7361 130.808 99.133C130.204 98.5299 129.902 97.663 129.902 96.5699C129.902 96.193 129.94 95.7783 130.015 95.3637L131.147 89.0689H133.901L132.845 95.0622C132.807 95.326 132.77 95.5522 132.77 95.7783C132.77 96.4191 132.958 96.9468 133.335 97.2861C133.713 97.6253 134.203 97.8138 134.845 97.8138C135.599 97.8138 136.278 97.5876 136.844 97.0599C137.41 96.5699 137.75 95.8537 137.938 94.9491L138.995 89.1066H141.749L141.711 89.0312Z" fill="#007C99"/>
<path d="M150.012 96.08C150.012 96.08 149.974 96.3439 149.974 96.5323C149.974 96.8716 150.05 97.1354 150.238 97.2862C150.427 97.437 150.729 97.4747 151.144 97.4747H152.238L151.823 99.8493H150.389C149.37 99.8493 148.578 99.6232 148.012 99.2085C147.446 98.7939 147.182 98.1154 147.182 97.1354C147.182 96.7962 147.22 96.4192 147.295 96.0046L148.125 91.293H146.616L147.031 88.956H148.54L148.993 86.2798H151.785L151.332 88.956H153.709L153.294 91.293H150.88L150.05 96.0423L150.012 96.08Z" fill="#007C99"/>
<path d="M162.576 89.0313L160.651 99.8869H157.897L159.821 89.0313H162.576ZM160.614 84.9227C160.991 84.5835 161.482 84.395 162.047 84.395C162.5 84.395 162.84 84.5081 163.104 84.7343C163.368 84.9604 163.481 85.262 163.481 85.6389C163.481 86.1666 163.293 86.5812 162.915 86.9205C162.538 87.2597 162.085 87.4105 161.482 87.4105C161.029 87.4105 160.651 87.2974 160.425 87.0712C160.161 86.8451 160.048 86.5435 160.048 86.2043C160.048 85.7143 160.236 85.262 160.614 84.9227Z" fill="#007C99"/>
<path d="M176.498 89.446C177.215 89.8229 177.781 90.313 178.158 90.9914C178.535 91.6699 178.762 92.4615 178.762 93.4038C178.762 93.7807 178.724 94.233 178.648 94.6854C178.46 95.7785 178.045 96.7208 177.441 97.5124C176.837 98.3039 176.083 98.9447 175.177 99.3593C174.272 99.8116 173.291 100 172.234 100C171.291 100 170.423 99.8116 169.707 99.4724C168.99 99.0955 168.424 98.6055 168.009 97.8893C167.594 97.2108 167.405 96.3816 167.405 95.4392C167.405 95.0623 167.443 94.61 167.518 94.1954C167.707 93.1023 168.122 92.1599 168.726 91.3684C169.329 90.5391 170.122 89.936 171.027 89.5214C171.933 89.1068 172.914 88.8806 173.97 88.8806C174.913 88.8806 175.743 89.0691 176.46 89.4083L176.498 89.446ZM171.555 92.1222C170.914 92.6499 170.499 93.4415 170.348 94.4969C170.31 94.7607 170.272 95.0246 170.272 95.3262C170.272 96.08 170.499 96.6831 170.914 97.06C171.329 97.4747 171.895 97.6631 172.536 97.6631C173.291 97.6631 174.008 97.3993 174.649 96.8339C175.29 96.3062 175.705 95.5146 175.856 94.4592C175.894 94.1954 175.932 93.9315 175.932 93.63C175.932 92.8761 175.705 92.273 175.29 91.8961C174.875 91.4814 174.309 91.293 173.668 91.293C172.914 91.293 172.197 91.5568 171.555 92.1222Z" fill="#007C99"/>
<path d="M194.495 89.7852C195.099 90.3882 195.4 91.2552 195.4 92.386C195.4 92.8006 195.4 93.2152 195.287 93.5922L194.155 99.8869H191.401L192.495 93.8937C192.533 93.6676 192.571 93.4414 192.571 93.2152C192.571 92.5744 192.382 92.0467 192.005 91.7075C191.627 91.3683 191.137 91.1798 190.458 91.1798C189.666 91.1798 188.986 91.4437 188.42 91.9337C187.854 92.4614 187.515 93.1775 187.326 94.1199V94.0445L186.308 99.8869H183.516L185.44 89.0313H188.194L187.817 91.2175C188.232 90.5013 188.798 89.8982 189.515 89.5213C190.231 89.1067 191.024 88.9182 191.892 88.9182C192.948 88.9182 193.816 89.2198 194.419 89.8228L194.495 89.7852Z" fill="#007C99"/>
<path d="M209.021 89.8606C209.775 90.5014 210.19 91.4061 210.266 92.5369H207.549C207.549 92.0091 207.36 91.5945 206.983 91.2553C206.606 90.9537 206.115 90.803 205.436 90.803C204.946 90.803 204.531 90.916 204.229 91.1422C203.927 91.3684 203.776 91.6699 203.776 92.0468C203.776 92.4238 203.965 92.7253 204.342 92.9138C204.719 93.1022 205.285 93.3284 206.078 93.5169C206.832 93.743 207.436 93.9692 207.926 94.1577C208.417 94.3461 208.832 94.6477 209.171 95.0623C209.511 95.4769 209.7 95.9669 209.7 96.6077C209.7 96.8716 209.7 97.0977 209.624 97.3616C209.473 98.1531 209.021 98.7939 208.266 99.2839C207.511 99.7739 206.53 100.038 205.285 100.038C203.852 100.038 202.72 99.6986 201.852 99.0578C200.984 98.417 200.569 97.5124 200.531 96.3816H203.248C203.21 96.9093 203.399 97.3239 203.814 97.6254C204.229 97.927 204.795 98.1154 205.512 98.1154C206.04 98.1154 206.417 98.0024 206.719 97.7762C207.021 97.55 207.134 97.2485 207.134 96.8716C207.134 96.57 207.021 96.3439 206.832 96.1554C206.644 95.9669 206.38 95.8162 206.078 95.7031C205.776 95.59 205.361 95.4769 204.795 95.2885C204.04 95.1 203.437 94.8738 202.984 94.6854C202.531 94.4969 202.116 94.1954 201.814 93.8184C201.475 93.4415 201.324 92.9515 201.324 92.3107C201.324 92.0845 201.324 91.8584 201.399 91.5945C201.55 90.7653 202.003 90.1245 202.758 89.6345C203.512 89.1445 204.493 88.8806 205.738 88.8806C207.21 88.8806 208.304 89.2199 209.096 89.8606H209.021Z" fill="#007C99"/>
<path d="M77.5714 23.5206L69.3841 70.1848C69.3086 70.5617 69.0068 70.8256 68.6295 70.8256H51.1986C50.7458 70.8256 50.3685 70.4109 50.444 69.9586L58.6313 23.2945C58.7067 22.9175 59.0085 22.6537 59.3858 22.6537H76.8545C77.3073 22.6537 77.6846 23.0683 77.6091 23.5206H77.5714ZM61.1968 5.5033C62.291 3.80711 63.8379 2.48785 65.7998 1.47013C67.7617 0.490107 69.95 -0.0375977 72.327 -0.0375977C75.2322 -0.0375977 77.4959 0.678573 79.156 2.14861C80.8161 3.58095 81.6461 5.46561 81.6461 7.7272C81.6461 9.72493 81.1179 11.5719 80.0238 13.2304C78.9296 14.8889 77.4205 16.2459 75.4963 17.2259C73.5721 18.2059 71.3838 18.7336 69.0068 18.7336C66.0639 18.7336 63.7247 18.0174 62.0646 16.5474C60.3668 15.1151 59.5368 13.2304 59.5368 10.9688C59.5368 8.97107 60.1027 7.12411 61.1968 5.46561V5.5033Z" fill="#007C99"/>
<path d="M115.414 47.3804L128.732 70.7879H107.529L101.379 59.9322L93.3423 70.7879H72.478L93.1537 45.4203L80.1748 22.616H101.379L107.529 33.547L115.64 22.616H136.505L115.376 47.3804H115.414Z" fill="#007C99"/>
<path d="M160.463 22.616L152.012 70.7879H133.034L141.485 22.616H160.463ZM143.937 5.5033C145.032 3.80711 146.579 2.48785 148.54 1.47013C150.502 0.490107 152.691 -0.0375977 155.068 -0.0375977C157.973 -0.0375977 160.237 0.678573 161.897 2.14861C163.557 3.58095 164.387 5.46561 164.387 7.7272C164.387 9.72494 163.859 11.5719 162.764 13.2304C161.67 14.8889 160.161 16.2459 158.237 17.2259C156.313 18.2059 154.124 18.7336 151.747 18.7336C148.805 18.7336 146.465 18.0174 144.805 16.5474C143.107 15.1151 142.277 13.2304 142.277 10.9688C142.277 8.97107 142.843 7.12411 143.937 5.46561V5.5033Z" fill="#007C99"/>
<path d="M194.117 23.9729C196.343 25.2545 198.645 29.2122 198.645 29.2122C200.305 29.0615 198.23 23.0683 199.852 22.6536C204.304 21.4851 214.152 22.6536 214.152 22.6536C216.566 22.6536 218.377 24.8021 217.962 27.1768L210.794 67.6216C210.454 69.4686 208.869 70.7878 206.983 70.7878C206.983 70.7878 194.721 71.2401 191.325 70.7878C189.665 70.5617 193.778 65.3223 192.533 64.2292C192.004 63.7769 188.873 68.187 186.383 69.4686C183.855 70.7501 181.063 71.3909 177.931 71.3909C172.876 71.3909 168.876 69.7324 166.009 66.4154C163.141 63.0984 161.708 58.4245 161.708 52.4689C161.708 50.3581 161.934 47.8704 162.387 45.0434C163.217 40.3317 164.802 36.2232 167.141 32.7554C169.48 29.2876 172.234 26.6491 175.517 24.8021C178.799 22.9929 182.233 22.0505 185.817 22.0505C189.175 22.0505 191.967 22.6913 194.193 23.9729H194.117ZM184.609 40.7464C183.025 42.1787 182.044 44.1764 181.553 46.7019C181.44 47.2296 181.402 47.9081 181.402 48.775C181.402 50.6974 181.931 52.2051 182.949 53.2605C183.968 54.3159 185.364 54.8436 187.137 54.8436C189.175 54.8436 190.986 54.1274 192.57 52.6951C194.155 51.2627 195.136 49.265 195.589 46.7019C195.702 46.2119 195.777 45.4957 195.777 44.6664C195.777 42.7441 195.249 41.2364 194.23 40.181C193.212 39.1255 191.816 38.5978 190.042 38.5978C188.005 38.5978 186.194 39.314 184.609 40.7464Z" fill="#007C99"/>
<path d="M16.7141 10.4033H15.1294L23.5053 15.4542C23.5053 15.4542 33.1263 10.6672 35.7296 13.0041C38.333 15.3411 26.1087 21.3343 26.1087 21.3343C26.1087 21.3343 25.2031 29.1368 24.7504 30.7199C24.2599 32.3031 22.7885 32.19 22.7885 32.19L20.4115 23.219C20.4115 23.219 14.1107 26.9129 12.2243 40.9348C11.3942 47.1542 9.01727 65.85 9.01727 65.85C8.48906 68.7524 10.7528 71.4286 13.6957 71.4286H27.1651L35.2014 25.5937H51.425L54.1038 10.441H16.7141V10.4033Z" fill="#007C99"/>
<path d="M2.67878 10.4033L0 25.556H8.79093C12.0734 20.2412 18.0723 18.8466 17.9214 18.1681C17.7328 17.2635 12.7148 11.6472 11.6206 10.4033H2.67878Z" fill="#007C99"/>
</g>
<defs>
<clipPath id="clip0_1684_368">
<rect width="218" height="100" fill="white"/>
</clipPath>
</defs>
</svg>
